<svg xmlns="http://www.w3.org/2000/svg" xmlns:xlink="http://www.w3.org/1999/xlink" viewBox="0 0 83.96 88.72"><defs><style>.cls-1{fill:#666;}.cls-2{fill:#969696;}.cls-10,.cls-3{fill:none;}.cls-10,.cls-3,.cls-7,.cls-8,.cls-9{stroke:#000;stroke-miterlimit:10;}.cls-3{stroke-linecap:round;stroke-width:0.57px;}.cls-4{fill:url(#Degradado_sin_nombre_10);}.cls-5{fill:#fff;}.cls-6{fill:#b0b0b0;}.cls-7,.cls-8,.cls-9{fill:#a3aa21;}.cls-10,.cls-7{stroke-width:0.57px;}.cls-8{stroke-width:0.31px;}.cls-9{stroke-width:0.36px;}</style><linearGradient id="Degradado_sin_nombre_10" x1="1.66" y1="67.83" x2="69.8" y2="67.83" gradientUnits="userSpaceOnUse"><stop offset="0.11" stop-color="#ff72b3"/><stop offset="0.83" stop-color="#8044a4"/></linearGradient></defs><title>iconoRecurso 138risk sharing</title><g id="Capa_2" data-name="Capa 2"><g id="Capa_1-2" data-name="Capa 1"><path class="cls-1" d="M46.71,48.23l12.92,1,21.88-9.6,1,.51-2,15.09L47,75,33.71,78.35l-7.59-3S22.73,64.58,22.33,64.3s8.79-35,8.79-35c.26-.76,1.28-3.25,1.59-4.08,3-7.87,7.88-7.87,9.94-8.56,1.09-.37,8.79-1.24,10.11.14s2.1,2.17,2.5,3.82c.47,1.87-.89,2.52-2.26,3.57s-2.54-.28-3.87,2.12c-.91,1.64.86,2.06,1,4.56.19,2.81-2.3,4-3.31,4.52s-3.14-.4-3,.2.94,2,.2,3.72Z"/><path class="cls-2" d="M37.67,32c.31-1.08.25-2.24.6-3.21,1.94-6.3,6.44-7.28,8.49-8a34.7,34.7,0,0,1,6.06-1.64c1.89-.2,2.76.28,3.16,1.92.47,1.88-.88,2.52-2.26,3.57s-2.54-.28-3.87,2.12c-.91,1.64.87,2.06,1,4.56.18,2.81-2.31,4-3.31,4.52s-3.15-.4-3,.21c0,.26.45.94.83,1.77l-.86,1.17-2.06-.46,1-2.68Z"/><path class="cls-3" d="M41.25,32.91s3.3-.66,3.52-2.91c.19-2-.93-3.93-2.17-4.09"/><path class="cls-4" d="M3.62,55.42l-2-7.35,8.48.56,14.37,3.72L22.33,67l7.1,10.66,11.39-.16L68.46,62.85C71,72.74,70.28,81.53,63,86,54.42,91.33,30,82,19.18,74.31c-2.48-1.76-5.09-3.49-7.69-5.08Z"/><path class="cls-5" d="M49.94,48.76l.85-.65,3.27-4.6,1.29-3.8s2.58-1.65,3-1.94a7.08,7.08,0,0,1,2.12-.34c-.26-.76-.61-2.06-.93-2.89-3-7.87-7.87-7.87-9.93-8.55-1.1-.37-8.8-1.24-10.11.14S37.39,28.3,37,29.94c-.46,1.88.89,2.52,2.26,3.57s2.55-.28,3.88,2.12c.91,1.64-.87,2.06-1,4.57-.18,2.81,2.3,4,3.31,4.52s3.15-.41,3.05.2a5,5,0,0,0-.2,3.71Z"/><path class="cls-6" d="M26.21,45.47c-3.58-2.21-4.85-5.14-7.55-5.32-3.16-.22-5.33.14-6.41,1.09-1.3-.05-3.06-.58-3.36-1.62A7.24,7.24,0,0,0,2,35.34c-.5,0-2,14.58.16,14.74,7.65.56,15.89,2.52,20.9,5.12Z"/><path class="cls-2" d="M54.57,40.24c-.32-1.08-.64-2.1-1-3.07-2.5-6.38-5.43-6.26-7.48-6.94A33.84,33.84,0,0,0,40,28.59c-1.89-.21-2.76.27-3.16,1.91-.47,1.88.88,2.53,2.26,3.58s2.54-.29,3.87,2.12c.91,1.63-.87,2-1,4.56-.18,2.81,2.31,4,3.31,4.52s3.15-.4,3,.2a18.36,18.36,0,0,1-.83,1.77l.86,1.17L50.42,48l3.84-4.43Z"/><path class="cls-7" d="M47.6,86.18s.32-6.51,3.69-8.16,6.63-2.72,9.14-1.25,7,5.37,5.07,7-4.44,4.18-6.45,3.71S47.6,86.18,47.6,86.18Z"/><path class="cls-7" d="M61.17,71.93c-.23-1.4.54-4.28,2.08-4.18s3.79.59,4.26,2.09a4,4,0,0,1-1,4.41C65.1,75.3,61.17,71.93,61.17,71.93Z"/><path class="cls-3" d="M.79,46.26a20.55,20.55,0,0,0-.11-2.4c-.12-.66,1-1.85,1-1.85,3.49.32,4.4,1.28,4.09,2.32S2.87,46.82.79,46.26Z"/><path class="cls-3" d="M12.69,45.12a23,23,0,0,1,5.86.24c2.08.55,4.35,1.93,4.11,3.06S17.86,50.7,12.48,47"/><path d="M26.88,46a10.34,10.34,0,0,1-4-2.24c-1.18-1-2.13-2.28-3-2.81a2.61,2.61,0,0,0-1.41-.39,19.31,19.31,0,0,0-2,0,5.91,5.91,0,0,0-3.23.84l-.38.34-.52,0a7.47,7.47,0,0,1-1.88-.31,4.94,4.94,0,0,1-1.89-1,2.8,2.8,0,0,1-.79-1.24,2,2,0,0,0-.2-.41,5.82,5.82,0,0,0-.79-1,6,6,0,0,0-4.66-1.92A1.28,1.28,0,1,1,2,33.2H2a8.39,8.39,0,0,1,3.62.62,8.69,8.69,0,0,1,3,2.08,8.3,8.3,0,0,1,1.13,1.47,4.58,4.58,0,0,1,.47,1l.06.06a3.9,3.9,0,0,0,2.1.63l-.9.32A5.7,5.7,0,0,1,14,38.24,12.23,12.23,0,0,1,16.35,38c.77,0,1.52,0,2.26,0a5.29,5.29,0,0,1,2.63.82A10,10,0,0,1,23,40.46c.48.52.94,1,1.42,1.42a21.59,21.59,0,0,0,3.21,2.19h0A1,1,0,0,1,26.88,46Z"/><path d="M26.53,77.33a86.23,86.23,0,0,0,14.6,6.22c5,1.57,10.28,2.87,15.44,2.81a16.26,16.26,0,0,0,3.72-.45,8.44,8.44,0,0,0,3.17-1.61,12.43,12.43,0,0,0,4.23-5.92,19.66,19.66,0,0,0,.85-7.51,39.27,39.27,0,0,0-1.32-7.7,1.28,1.28,0,1,1,2.48-.66v0A42.42,42.42,0,0,1,71,70.74a22.64,22.64,0,0,1-1.07,8.41,14.62,14.62,0,0,1-5,7,10.85,10.85,0,0,1-4,2,18.41,18.41,0,0,1-4.26.57A40.53,40.53,0,0,1,48.35,88a76.59,76.59,0,0,1-8-1.86A115.86,115.86,0,0,1,25,80.52a1.78,1.78,0,1,1,1.46-3.25l.11,0Z"/><path class="cls-8" d="M73.25,57.9s-1.2-2.72-3.24-2.82-3.89.06-4.83,1.34-2.33,4.18-1,4.56,3.12,1.14,4,.47S73.25,57.9,73.25,57.9Z"/><path class="cls-9" d="M60.39,61.34c.2-1.18-.45-3.6-1.74-3.51s-3.19.49-3.58,1.75a3.33,3.33,0,0,0,.87,3.71C57.1,64.17,60.39,61.34,60.39,61.34Z"/><path class="cls-10" d="M79.93,36.2a22.93,22.93,0,0,0-5.85.24C72,37,69.72,38.37,70,39.49s4.81,2.28,10.18-1.43"/><path d="M80.85,56.66a48.11,48.11,0,0,0-7.92,4.45c-2.53,1.79-5.15,3.59-7.78,5.28a132.13,132.13,0,0,1-16.49,9.24,52.06,52.06,0,0,1-9,3.26,22.72,22.72,0,0,1-4.92.71,10.92,10.92,0,0,1-5.18-1l-.62-.35-.53-.35c-.36-.22-.69-.5-1-.75A14.65,14.65,0,0,1,22.82,71a22.36,22.36,0,0,1-1.27-9.8,46,46,0,0,1,1.81-9.46c.44-1.53,1-3.06,1.48-4.51s1-2.93,1.47-4.41c1-3,1.79-5.92,2.62-8.93s1.75-6.07,2.89-9a19,19,0,0,1,2.36-4.44A11.33,11.33,0,0,1,38.11,17a22.54,22.54,0,0,1,7.23-2c.8-.08,1.6-.14,2.41-.18s1.62-.05,2.46,0a9.88,9.88,0,0,1,2.69.42,3.62,3.62,0,0,1,.86.43,3.91,3.91,0,0,1,.61.58q.42.42.84.9a7.53,7.53,0,0,1,1.47,2.39A6.22,6.22,0,0,1,57.05,21a3.44,3.44,0,0,1-.3,1.86,4.11,4.11,0,0,1-1.06,1.33c-.36.32-.7.56-1,.79l-.44.33a3.48,3.48,0,0,1-.83.48,5.89,5.89,0,0,1-1.49.31,2.27,2.27,0,0,0-.64.12c-.08,0-.15.1-.26.29l0,.06a1.28,1.28,0,0,1-2.27-1.19A3.22,3.22,0,0,1,50,24a4.21,4.21,0,0,1,1.59-.48,3.23,3.23,0,0,0,.8-.16.67.67,0,0,0,.17-.12l.5-.38a4.29,4.29,0,0,0,1.24-1.12.73.73,0,0,0,.06-.42,3.77,3.77,0,0,0-.22-.8,4.66,4.66,0,0,0-1-1.56c-.23-.27-.49-.54-.75-.82s-.34-.34-.23-.24a2,2,0,0,0-.19-.08,8.12,8.12,0,0,0-1.92-.27c-.72,0-1.47,0-2.22,0s-1.5.09-2.25.17-1.54.19-2.12.32a18.55,18.55,0,0,0-4.13,1.34c-2.4,1.24-4,3.75-5,6.48s-2,5.79-2.81,8.79-1.69,6-2.65,9-2.08,6-2.93,8.86a42.73,42.73,0,0,0-1.71,8.88A19.68,19.68,0,0,0,25.33,70a12.06,12.06,0,0,0,2.19,3.58A12.28,12.28,0,0,0,29,75a10.41,10.41,0,0,0,.86.62l.44.3c.14.07.27.16.41.22a8.26,8.26,0,0,0,3.91.72A20.58,20.58,0,0,0,39,76.27a49.72,49.72,0,0,0,8.54-3.1,128.62,128.62,0,0,0,16.14-9c2.62-1.68,5.15-3.41,7.71-5.23a51.24,51.24,0,0,1,8.36-4.71,1.36,1.36,0,0,1,1.11,2.48Z"/><path class="cls-3" d="M51,42.28s-3.29-.67-3.51-2.91c-.19-2,.93-3.93,2.16-4.1"/><path d="M24.79,80.45A42.28,42.28,0,0,1,0,41.6l.13-3,.4-3A15.11,15.11,0,0,1,.77,34l.35-1.48c.26-1,.41-2,.76-2.94a43.59,43.59,0,0,1,5.21-11,44.79,44.79,0,0,1,8.12-9A44.15,44.15,0,0,1,25.55,3.36,44.28,44.28,0,0,1,37.25.25a46.53,46.53,0,0,1,12.1.39c1,.16,2,.44,3,.66l1.47.35,1.44.5c1,.34,1.92.63,2.85,1l2.76,1.27a10.64,10.64,0,0,1,1.34.7l1.31.77,1.3.77c.44.26.83.58,1.24.87.82.61,1.66,1.17,2.44,1.81l2.27,2a10.81,10.81,0,0,1,1.09,1l1,1.11,1,1.11c.34.38.63.79.94,1.19.61.81,1.26,1.58,1.82,2.42l1.61,2.57A9.48,9.48,0,0,1,79,22.15l.68,1.36.67,1.35c.21.46.38.94.56,1.41.35.95.76,1.88,1.06,2.84L82.77,32l.2.73.12.75L83.35,35a21.62,21.62,0,0,1,.4,3L84,41l-.1,3a39.84,39.84,0,0,1-2.29,11.84l-2.8-1a36.64,36.64,0,0,0,2.09-11l.08-2.81-.21-2.8a18.57,18.57,0,0,0-.37-2.78l-.24-1.38L80,33.43l-.19-.68-.76-2.7c-.28-.89-.66-1.75-1-2.63-.18-.43-.32-.88-.52-1.3l-.63-1.25-.64-1.26a9.06,9.06,0,0,0-.68-1.22L74.09,20c-.53-.77-1.14-1.48-1.7-2.23-.29-.36-.56-.75-.87-1.1l-1-1-1-1a9.35,9.35,0,0,0-1-1l-2.11-1.85c-.72-.59-1.51-1.1-2.26-1.66a13.1,13.1,0,0,0-1.15-.8l-1.21-.71-1.21-.7a8.62,8.62,0,0,0-1.24-.65L56.86,6.12c-.86-.37-1.76-.62-2.64-.94L52.9,4.73l-1.37-.32c-.91-.2-1.81-.46-2.73-.61a42.94,42.94,0,0,0-11.17-.31,40.67,40.67,0,0,0-10.78,2.9,40.71,40.71,0,0,0-9.5,5.85,41.42,41.42,0,0,0-7.45,8.3A40.39,40.39,0,0,0,5.16,30.62a24.84,24.84,0,0,0-.69,2.7l-.32,1.36a13.33,13.33,0,0,0-.21,1.39l-.36,2.77-.11,2.79A38.75,38.75,0,0,0,26.28,77.14Z"/><path class="cls-2" d="M51.12,47.87c.91-.89,2.82-3.46,2.77-4.06s.77-4.38,1.94-5.15,5.07-2.75,8-1.65c5.29-2.18,6.49-6.17,9.65-6.39a11.94,11.94,0,0,1,5.68.61,40.15,40.15,0,0,1,1.48,9.92c-13.89,3.38-23.25,13.5-35.45,16-10.82,2.18-12.72-6-11.4-9.85,2-5.72,3.07-10.34,4.1-14.21.53-2,4.6,2.06,4.7,2.67A19.7,19.7,0,0,1,42.23,39s2.55,6.92,3.27,6.29c0,0-3.39,5,1,4C47.67,48.74,51.12,47.87,51.12,47.87Z"/><path d="M79.59,32.22a7.48,7.48,0,0,0-3.72-.7c-.36,0-.72,0-1.08,0l-.55,0-.48,0a3.2,3.2,0,0,0-1.48.71c-1,.79-2.08,2-3.34,3.07A15.6,15.6,0,0,1,64.7,38l-.49.2L63.72,38a6.46,6.46,0,0,0-4.08.24,13.88,13.88,0,0,0-2.1.91,5.5,5.5,0,0,0-.48.28c-.07,0-.16.1-.13.09h0l0,0a4.53,4.53,0,0,0-.45.74,12.74,12.74,0,0,0-.73,2.16c-.08.35-.19.81-.22,1,0,0,0-.15,0,.3a1.82,1.82,0,0,1-.14.46,4,4,0,0,1-.24.44c-.15.23-.3.42-.44.6a43.46,43.46,0,0,1-3.59,3.81l-.24.23-.28.06a13.6,13.6,0,0,1-1.89.25,6.23,6.23,0,0,1-2.09-.18,2.49,2.49,0,0,1-1.25-.84A2,2,0,0,1,45,47a5,5,0,0,1,.92-2,1,1,0,0,1,1.63,1.1h0A3.43,3.43,0,0,0,47,47.31c0,.13,0,.09,0,0s0,0,.18,0a4.36,4.36,0,0,0,1.33,0A10.72,10.72,0,0,0,50,47.17l-.52.29a42.58,42.58,0,0,0,3.25-3.66l.3-.42.06-.12a.49.49,0,0,0,0,.16c0,.35,0,.06,0,0a9.23,9.23,0,0,1,.19-1.5,15.56,15.56,0,0,1,.8-2.67,5.42,5.42,0,0,1,.84-1.42,3.14,3.14,0,0,1,.78-.66l.62-.36a15,15,0,0,1,2.54-1.1,9,9,0,0,1,5.86-.21l-1,0a14.88,14.88,0,0,0,3.58-2.15c1.13-.89,2.09-2,3.5-3.07a5.68,5.68,0,0,1,2.67-1.14,6,6,0,0,1,.67,0l.6,0c.4,0,.81,0,1.22,0a12.75,12.75,0,0,1,2.49.31,5.51,5.51,0,0,1,2.52,1.28,1,1,0,0,1-1.26,1.59Z"/><path d="M46.87,47.55a1.59,1.59,0,0,1-.52-1.2,2.16,2.16,0,0,1,.14-1,2.49,2.49,0,0,1,.55-.81,2.42,2.42,0,0,0,.31-.29l0,0-.08.1a.75.75,0,0,0-.08.18.42.42,0,0,0,0,.12.86.86,0,0,0,0,.28,1.06,1.06,0,0,0,.13.43,1.11,1.11,0,0,0,.29.37A1,1,0,0,0,48,46c.14,0,.14,0,.13,0l-.28,0a8.77,8.77,0,0,1-2.07.13A2.93,2.93,0,0,1,45,46c-.18-.07-.22-.1-.29-.13l-.21-.11a9.54,9.54,0,0,1-.87-.49,5.83,5.83,0,0,1-2.7-3.49,5.52,5.52,0,0,1-.08-2.28,6.35,6.35,0,0,1,.74-2.08c.16-.28.31-.53.39-.7s.08-.22.08-.21a1.21,1.21,0,0,0-.09-.22,3.9,3.9,0,0,0-.35-.52.85.85,0,0,0-.64-.37c-.2,0-.5,0-.91-.11a3.7,3.7,0,0,1-1.29-.48l-.28-.19-.18-.13L38,34.23c-.24-.17-.49-.35-.75-.57a3.73,3.73,0,0,1-1.38-4.53,6.73,6.73,0,0,1,1-1.94A14.94,14.94,0,0,1,38,25.71l.31-.33.15-.15a3.73,3.73,0,0,1,.33-.3,3.56,3.56,0,0,1,1.25-.56A14.68,14.68,0,0,1,43.93,24c1.22,0,2.42.11,3.63.24.6.08,1.2.15,1.84.28a4.82,4.82,0,0,1,.57.13l.37.11.82.2a13.7,13.7,0,0,1,3.61,1.35,11.09,11.09,0,0,1,3,2.52,14.85,14.85,0,0,1,2.09,3.21,19.54,19.54,0,0,1,1.35,3.4,1.3,1.3,0,0,1-.89,1.59,1.29,1.29,0,0,1-1.51-.69v0c-.5-1.07-.84-2.12-1.34-3.08a12.32,12.32,0,0,0-1.72-2.65,8.57,8.57,0,0,0-2.32-1.94,11.38,11.38,0,0,0-2.94-1.07l-.88-.22-.48-.14-.28-.07c-.51-.09-1.07-.17-1.63-.24-1.12-.12-2.25-.2-3.37-.22a12.5,12.5,0,0,0-3.1.23,1.43,1.43,0,0,0-.36.13s.07-.06,0,0l-.15.16-.3.31a12.36,12.36,0,0,0-1,1.19,4.33,4.33,0,0,0-.59,1.2,1.59,1.59,0,0,0-.11.92,1.63,1.63,0,0,0,.61.71l.65.48.37.27.17.13.08,0c.18.12.38.14,1.18.23a3.59,3.59,0,0,1,1.31.43,3.71,3.71,0,0,1,1,.88,7.26,7.26,0,0,1,.63.93,3.35,3.35,0,0,1,.43,1.43,3,3,0,0,1-.35,1.48c-.17.36-.33.61-.45.83a3.63,3.63,0,0,0-.44,1.21,3,3,0,0,0,0,1.2A3.22,3.22,0,0,0,45,43c.21.13.42.25.66.37l.28.15h.08a7,7,0,0,0,1.42-.11,4.55,4.55,0,0,1,.59,0,1.93,1.93,0,0,1,.57.06,1.64,1.64,0,0,1,.62.32,1.52,1.52,0,0,1,.36.45,1.37,1.37,0,0,1,.15.53,1.31,1.31,0,0,1,0,.4,1.8,1.8,0,0,1-.06.22,1.46,1.46,0,0,1-.17.38,1.87,1.87,0,0,1-.2.28,1,1,0,0,1-.19.18c-.22.19-.33.25-.36.28s.1-.27,0-.22a1.06,1.06,0,0,1-.07.48l-.15.36a1.12,1.12,0,0,1-1.47.6A1.3,1.3,0,0,1,46.87,47.55Z"/><path class="cls-3" d="M80.65,35a22.93,22.93,0,0,0-5.85.24c-2.09.55-4.36,1.93-4.12,3.06s4.81,2.28,10.18-1.44"/><path class="cls-3" d="M64.68,40.54s-5.1-.32-6.42,2.64-.15,4,1.08,3.29,4.15-.95,5.4-2.45"/><path class="cls-3" d="M38.33,52.69s4.6-4.35,2.29-7.74S35.69,48,35.69,48"/></g></g></svg>