<svg xmlns="http://www.w3.org/2000/svg" xmlns:xlink="http://www.w3.org/1999/xlink" viewBox="0 0 84.09 98.94"><defs><style>.cls-1{fill:url(#Degradado_sin_nombre_10);}.cls-2{fill:#a3aa21;stroke-width:0.61px;}.cls-2,.cls-4{stroke:#000;stroke-miterlimit:10;}.cls-3{fill:#b0b0b0;}.cls-4{fill:none;stroke-linecap:round;stroke-width:0.61px;}.cls-5{fill:#548081;}.cls-6{fill:#2d7580;}</style><linearGradient id="Degradado_sin_nombre_10" x1="1.05" y1="64.37" x2="78.19" y2="64.37" gradientUnits="userSpaceOnUse"><stop offset="0.11" stop-color="#ff72b3"/><stop offset="0.83" stop-color="#8044a4"/></linearGradient></defs><title>iconoRecurso 140cost curtail</title><g id="Capa_2" data-name="Capa 2"><g id="Capa_1-2" data-name="Capa 1"><path class="cls-1" d="M1.05,42.68A6.37,6.37,0,0,1,4,41.31,7.82,7.82,0,0,1,13,45.7c.32,1.11,2.21,1.68,3.6,1.73,1.16-1,3.49-1.4,6.88-1.17s4.68,4.52,10.35,6.85c3.15-1.18,7.33.94,8.58,1.77s2.12,4.87,2.08,5.52,2,3.41,3,4.36c1-1.05,3.44-.49,4.63-.14s2.84,2.06,3.62,2.74,2.26-1,3-1.63-1.42-3.31-2.35-4-1.73-2.48-2.53-4.31,1.31-4.76,1.42-5.41-2.18.32-3.26-.22-3.75-1.83-3.55-4.84c.17-2.69,2.08-3.14,1.1-4.9-1.43-2.57-2.69-1.15-4.15-2.27S42.5,37.93,43,35.92c.44-1.76,1.27-2.61,2.69-4.09s9.66-.55,10.84-.15c2.21.73,7.44.73,10.65,9.17C70.28,49,70.56,53.22,75.06,66s5,24.75-4.18,30.41S38.74,88.18,27.15,80c0,0-24-11.51-26.1-37.27"/><path class="cls-2" d="M54.68,95.42s0-5.85,3.67-7.61,7.11-2.93,9.8-1.34,7.47,5.75,5.43,7.45-4.76,4.48-6.92,4S54.68,95.42,54.68,95.42Z"/><path class="cls-3" d="M1.05,42.68S-.21,42.2,4,41.31A7.82,7.82,0,0,1,13,45.7c.32,1.11,2.21,1.68,3.6,1.73,1.16-1,3.49-1.4,6.88-1.17s4.68,4.52,10.35,6.85c3.15-1.18,7.33.94,8.58,1.77s2.12,4.87,2.08,5.52,2,3.41,3,4.36c1-1.05,3.44-.49,4.63-.14s2.84,2.06,3.62,2.74,2.26-1,3-1.63-1.42-3.31-2.35-4-1.73-2.48-2.53-4.31,1.31-4.76,1.42-5.41-2.18.32-3.26-.22-3.75-1.83-3.55-4.84c.17-2.69,2.08-3.14,1.1-4.9-1.43-2.57-2.69-1.15-4.15-2.27S42.5,37.93,43,35.92c.44-1.76,1.36-2.28,3.4-2.05a37.35,37.35,0,0,1,6.49,1.75c2.21.74,5.35.61,8,7.45,1.91,5.19,2.94,11.77,6.15,21C68.48,68.2,65.42,77,53.82,74.67,37.57,71.4,26,55.45,4,56.4Z"/><path class="cls-2" d="M68.94,81.27c-.25-1.5.58-4.59,2.23-4.48s4.07.63,4.57,2.24a4.24,4.24,0,0,1-1.11,4.73C73.15,84.88,68.94,81.27,68.94,81.27Z"/><path class="cls-4" d="M4.19,53.75c-4.47-1.18-.72-1.92-.85-2.63S1.46,48.84,5.2,49.18s4.72,1.38,4.38,2.49S6.42,54.34,4.19,53.75Z"/><path class="cls-4" d="M17,52.52a24.68,24.68,0,0,1,6.28.26c2.24.59,4.67,2.07,4.41,3.28s-5.15,2.44-10.91-1.54"/><path class="cls-4" d="M34.08,58.49s5.47-.35,6.89,2.83.16,4.34-1.16,3.53-4.46-1-5.79-2.63"/><path class="cls-4" d="M45.74,68.84c0-.1,2.51-3,5.09-2S55,69.51,54.28,70.6s-3.5,1.8-4.34.66"/><path class="cls-4" d="M60.69,62.88s-4.93-4.67-2.45-8.31,5.28,3.32,5.28,3.32"/><path class="cls-4" d="M58.28,50.48s-3-1.25-3.24-3.37.77-4.6,2.1-4.78"/><path d="M0,41.81l.23-.12a27.13,27.13,0,0,1,3.35-1.41l.06,0h.07a9.73,9.73,0,0,1,4.23,0,8.86,8.86,0,0,1,3.8,2,9.38,9.38,0,0,1,1.45,1.57,8,8,0,0,1,.59,1,5.1,5.1,0,0,1,.26.6c0,.09,0,.09,0,.09h0a.08.08,0,0,1,0,0,2.17,2.17,0,0,0,1,.59,6.15,6.15,0,0,0,1.54.28l-.77.27a6,6,0,0,1,2.74-1.23,14.3,14.3,0,0,1,2.65-.28c.44,0,.87,0,1.29,0l.64,0a6.62,6.62,0,0,1,.7.06,5.88,5.88,0,0,1,2.75,1.19c1.47,1.14,2.5,2.35,3.72,3.33a15.31,15.31,0,0,0,3.9,2.37l-.82,0a9,9,0,0,1,5.73.11,16.43,16.43,0,0,1,2.54,1,12.41,12.41,0,0,1,1.22.68,2.72,2.72,0,0,1,.39.29,2.93,2.93,0,0,1,.35.36,4.69,4.69,0,0,1,.47.69,12.21,12.21,0,0,1,1,2.62c.12.44.23.88.32,1.33,0,.23.08.45.12.7s0,.25,0,.44v0a5.06,5.06,0,0,0,.46.85c.21.33.44.66.68,1a17.59,17.59,0,0,0,1.5,1.81h0l-1.63,0a3.49,3.49,0,0,1,2-.89,7.33,7.33,0,0,1,1.77.06,13.16,13.16,0,0,1,1.59.34l.4.12a3.12,3.12,0,0,1,.49.19,5.87,5.87,0,0,1,.79.46,20.63,20.63,0,0,1,2.38,2.06l.26.24c.07.06,0,0,0,0l-.11,0c-.17,0-.11,0,0,0a4.51,4.51,0,0,0,1-.71l.53-.49.3-.26a.51.51,0,0,0-.12.16.32.32,0,0,0,0,.16c0,.12,0-.05-.08-.2a3.74,3.74,0,0,0-.27-.52,9.75,9.75,0,0,0-1.69-2s-.23-.18-.33-.28l-.33-.35a6.4,6.4,0,0,1-.52-.71,12.49,12.49,0,0,1-.79-1.41c-.23-.46-.44-.93-.64-1.39l-.31-.73a3.06,3.06,0,0,1-.21-1,7.46,7.46,0,0,1,.87-3.32L54.25,52a1.47,1.47,0,0,0,.09-.21.6.6,0,0,1,0,.08.43.43,0,0,0,0,.16.65.65,0,0,0,.06.23.8.8,0,0,0,.5.46c.12,0,0,0-.06,0l-.31,0a12,12,0,0,1-1.62.15,3.26,3.26,0,0,1-1-.17,1.81,1.81,0,0,1-.28-.12l-.17-.08-.35-.19a7.44,7.44,0,0,1-2.61-2.17,5.19,5.19,0,0,1-.91-3.46,5.74,5.74,0,0,1,.4-1.72,12.56,12.56,0,0,1,.73-1.43c.23-.41.25-.55.21-.74a2.69,2.69,0,0,0-.19-.42,4.85,4.85,0,0,0-.34-.5c-.51-.63-.72-.56-2.09-.74a3.39,3.39,0,0,1-1-.35,4,4,0,0,1-.43-.28l-.29-.21c-.39-.29-.81-.58-1.25-1a4,4,0,0,1-1.18-1.56,3.47,3.47,0,0,1-.1-2,7.26,7.26,0,0,1,1.5-3.06c.35-.42.7-.8,1-1.17l.26-.27.13-.13a1.94,1.94,0,0,1,.26-.23,3.07,3.07,0,0,1,1-.48A11.8,11.8,0,0,1,49.43,30c1,0,2,0,3.07.09s2,.17,3,.32l.79.14.45.11.34.1,1.42.36a12.08,12.08,0,0,1,5.66,3,16.27,16.27,0,0,1,3.51,5.27,96.58,96.58,0,0,1,3.76,11.47c1.07,3.83,2.18,7.62,3.46,11.36.61,1.88,1.31,3.73,1.93,5.67s1.14,3.88,1.56,5.87a32.44,32.44,0,0,1,.51,12.28,17.66,17.66,0,0,1-2.16,6,15.48,15.48,0,0,1-4.34,4.7,11,11,0,0,1-2.93,1.57,12.17,12.17,0,0,1-3.24.6A22.4,22.4,0,0,1,60,98.26,57.23,57.23,0,0,1,48.61,94c-3.63-1.78-7.13-3.77-10.55-5.87S31.28,83.8,28,81.52h0l.54.25a30,30,0,0,1-6.12-2.49A38.92,38.92,0,0,1,17,75.77,40.76,40.76,0,0,1,8.12,66.4,46.42,46.42,0,0,1,2.48,54.89,55.11,55.11,0,0,1,.81,48.72c-.23-1-.39-2.09-.58-3.13A20.7,20.7,0,0,1,0,41.81Zm2.25,1,.07.18A7.49,7.49,0,0,1,3,45.14c.2,1,.36,2,.58,3A51.19,51.19,0,0,0,5.17,54a43.47,43.47,0,0,0,5.36,10.76,38,38,0,0,0,8.25,8.64,36.37,36.37,0,0,0,5,3.19c.88.45,1.78.88,2.69,1.25a21.29,21.29,0,0,0,2.72.92l.31.08.23.17h0a146.22,146.22,0,0,0,20,12.6,54.14,54.14,0,0,0,10.81,4.27c3.67.89,7.66,1.24,10.5-1a13.92,13.92,0,0,0,5.62-9.18,30.65,30.65,0,0,0-.45-11.43q-.6-2.85-1.49-5.66c-.58-1.85-1.28-3.73-1.9-5.64-1.27-3.79-2.39-7.64-3.44-11.48a93.43,93.43,0,0,0-3.62-11.21,14.2,14.2,0,0,0-3-4.62A10.07,10.07,0,0,0,58,33.12l-1.47-.37-.38-.12-.27-.06a6.86,6.86,0,0,0-.68-.12c-.94-.15-1.92-.25-2.89-.32S50.42,32,49.46,32a10.87,10.87,0,0,0-2.66.3c-.41.15-.33.12-.78.59s-.67.7-1,1A5.21,5.21,0,0,0,44,36.21a1.45,1.45,0,0,0,.64,1.68c.32.27.71.55,1.12.86L46,39l.19.12a1.36,1.36,0,0,0,.43.15,11.79,11.79,0,0,1,1.57.26,3.36,3.36,0,0,1,1.65,1.19,6.21,6.21,0,0,1,.49.73,3.48,3.48,0,0,1,.4,1,2.56,2.56,0,0,1,0,1.2,4.05,4.05,0,0,1-.38.9,5.26,5.26,0,0,0-.92,2.4A3.22,3.22,0,0,0,50,49.07a5.37,5.37,0,0,0,2,1.58l.31.16.16.08.06,0a1.48,1.48,0,0,0,.43,0,11.21,11.21,0,0,0,1.36-.14l.43,0a1.9,1.9,0,0,1,.68,0,1.18,1.18,0,0,1,.79.67.94.94,0,0,1,.08.32,1,1,0,0,1,0,.25,1.9,1.9,0,0,1,0,.27,3.5,3.5,0,0,1-.2.48l-.65,1.34a5.72,5.72,0,0,0-.67,2.39,1.49,1.49,0,0,0,.08.41l.28.64c.2.45.41.89.62,1.31A6,6,0,0,0,57.13,61a11.1,11.1,0,0,1,2.15,2.51,5,5,0,0,1,.42.8,2.33,2.33,0,0,1,.22,1.25,1.43,1.43,0,0,1-.51,1l-.25.23-.56.52a6.37,6.37,0,0,1-1.45,1,2,2,0,0,1-1.42.2,1.54,1.54,0,0,1-.46-.19,1.9,1.9,0,0,1-.3-.22l-.29-.27A19.85,19.85,0,0,0,52.51,66c-1-.7-3.89-1-4.22-.47l-.62,1-1-1h0a17.54,17.54,0,0,1-1.75-2.1c-.27-.36-.52-.72-.77-1.11A6.12,6.12,0,0,1,43.43,61a2,2,0,0,1-.08-.36c0-.08,0-.24,0-.27h0l0-.2c0-.17,0-.36-.09-.55-.07-.38-.17-.77-.27-1.15a10,10,0,0,0-.81-2.12,3.2,3.2,0,0,0-.24-.36.46.46,0,0,0-.1-.1s0,0-.11-.08c-.31-.2-.66-.39-1-.57a14.62,14.62,0,0,0-2.18-.88,7,7,0,0,0-4.28-.16l-.41.16-.42-.17a17.24,17.24,0,0,1-4.48-2.73c-1.34-1.09-2.48-2.39-3.62-3.26a3.55,3.55,0,0,0-1.7-.77c-.13,0-.33,0-.53,0l-.59,0c-.4,0-.79,0-1.17,0a12.33,12.33,0,0,0-2.24.22,4,4,0,0,0-1.74.73l-.33.29-.44,0a8.14,8.14,0,0,1-2.17-.4,4.06,4.06,0,0,1-2.12-1.44c-.07-.12-.15-.24-.21-.37L11.93,46a2.65,2.65,0,0,0-.11-.26,7,7,0,0,0-.41-.66,7.86,7.86,0,0,0-1.11-1.2,6.56,6.56,0,0,0-2.85-1.48,7.52,7.52,0,0,0-3.27,0l.13,0A10.23,10.23,0,0,1,2.26,42.83Z"/><path class="cls-5" d="M54.45,12.64,37,7.17l-1.9-.12c-3.31-.12-6,.22-10.58,3.64s-7.73,13.19-7.73,13.19a25.69,25.69,0,0,1,11.65-.2c6.82,1.33,9.1,2.95,9.1,2.95s1.22-6.84,4.73-9.75C46.63,13.26,54.45,12.64,54.45,12.64Z"/><path class="cls-5" d="M35.08,7.05s4.29.12,10,7c3.63,4.38,9,16.81,9,16.81a19.54,19.54,0,0,1,6.54-4.18,42.07,42.07,0,0,1,10.09-2.81s-2.78-6.29-8.07-9.51C49.85,6.57,35.08,7.05,35.08,7.05Z"/><path class="cls-6" d="M68.91,22.3A39.13,39.13,0,0,0,61.47,14c-.61-.48-1.27-.95-1.94-1.41a47.84,47.84,0,0,0-6.17-2.57,29.19,29.19,0,0,0-5.71-1.71,57.12,57.12,0,0,0-6.91-1c-.93-.1-1.68-.12-2.42-.17.27.15.58.32.91.52-6.12-.43-10.8.87-13.89,3.87a24.51,24.51,0,0,0-4.46,6.3,33.24,33.24,0,0,0-1.6,3.52l-.29.79h.84c.05,0,5.14,0,7.83.42A43.38,43.38,0,0,1,36.06,25l.59.24.19-.62a25.94,25.94,0,0,1,2.82-6.06,10.39,10.39,0,0,1,4.58-3.77,9,9,0,0,1,2.5-.71V14C49.4,17.52,54,27.94,54,28.05l.26.58.54-.34A51.62,51.62,0,0,1,60.92,25a24.69,24.69,0,0,1,7.56-1.88l.94,0ZM41,8.8l-1.19-.35V8C40.23,8.26,40.63,8.52,41,8.8Zm-2.35,9.1A23.89,23.89,0,0,0,36.56,22a1.57,1.57,0,0,0-2.19,1.14,36.67,36.67,0,0,0-6.55-1.71c-1.6-.23-3.94-.33-5.68-.38a1,1,0,0,0-.78-1.52,25.68,25.68,0,0,1,4.8-7.13,15.49,15.49,0,0,1,10.26-4c-1.45.85-2.39,2.68.58,4a16.36,16.36,0,0,0,6.44,1.51A11.66,11.66,0,0,0,38.69,17.9ZM60.49,24a43.4,43.4,0,0,0-4.44,2.25,1.41,1.41,0,0,0,.26-.74A1.81,1.81,0,0,0,54.39,24a.88.88,0,0,0-.78.49c-1.68-3.66-4.53-9.51-6.37-11.69a28.66,28.66,0,0,0-5.73-5c1.77,1,5.88,3.09,9.09,3.34,3.72.28,4.79-.12,3.56-.74a19.44,19.44,0,0,1,7.07,4.44,57.47,57.47,0,0,1,4.93,5.54,1.58,1.58,0,0,0-.55,2.06A26.52,26.52,0,0,0,60.49,24Z"/><path class="cls-6" d="M58.1,16.88c-.84.28-1.37,1-1.18,1.53s1,.79,1.87.5,1.36-1,1.17-1.53S58.94,16.59,58.1,16.88Z"/><path class="cls-6" d="M32.71,15.92c-.85-.28-1.68,0-1.87.52S31.19,17.69,32,18s1.67.05,1.86-.52S33.55,16.2,32.71,15.92Z"/><path class="cls-5" d="M41.86,48.26C39.08,45.63,36.25,43,34,40.66l-3.62-3.77L17.91,27.25l8.17,14.91a57.72,57.72,0,0,0,13.61,8.57A41.83,41.83,0,0,0,49.26,54,71.45,71.45,0,0,1,41.86,48.26Z"/><path class="cls-5" d="M6.94,20.42a50.08,50.08,0,0,1,12.44,5.46C21.79,27.06,34.1,40.73,34.1,40.73S28.33,34,16.72,34.22c-5.83.1-11.3.71-11.3.71l-3.06-3.3S5.51,20,6.94,20.42Z"/><path class="cls-6" d="M43.78,50.83c-.05,0-5.09-4.56-7.07-6.46-2.76-2.64-7.25-8-7.3-8.08L29,36.6a31.63,31.63,0,0,0-5.84-2.12c-.17-.31-.28-.5-.29-.51l-.72.23c0,.13,1.58,3.18,2.23,4.33s2.21,3.63,2.21,3.63,2.58,2,6.11,4.33a44.75,44.75,0,0,0,4.89,2.73,58.39,58.39,0,0,0,5.68,2.42l2.24.77Zm-1.42-.36a.59.59,0,0,1,0-.08l.25.17Zm-9.1-4.78c-2.11-1.39-3.85-2.64-4.9-3.41a1.43,1.43,0,0,0-1.63-1.77c-.47-.75-1.08-1.76-1.48-2.45L24,35.8a7.39,7.39,0,0,0,2.13,1.25,7.8,7.8,0,0,0,3.17.54c1.31,1.55,4.58,5.36,6.79,7.47.63.61,1.87,1.74,3.19,2.87-.28.09-.4.37-.17.87a1.22,1.22,0,0,0,.12.19A64.2,64.2,0,0,1,33.26,45.69Z"/><path class="cls-6" d="M29.92,36.18l-.43-.46.06,0a1.75,1.75,0,0,1-.2-.18c-.3-.34-.56-.62-1-1.12l-.06,0-2.45-2.59c-1.41-1.5-3-3-3.82-3.78a10.47,10.47,0,0,0-1-1A58.49,58.49,0,0,0,9,21.42c-.88-.29-1.78-.53-2.67-.73l-4,9.06,3.73,3.78.27,0a105.93,105.93,0,0,1,12.44-.35,30.56,30.56,0,0,1,9,2A19.83,19.83,0,0,1,29.92,36.18Zm-21.49-4c.17-.73-.55-1.36-1.13-1.65-1.13-.56-1.85-.14-2,.54l-1.95-2,3.35-7.45c.74.15,1.49.33,2.2.54A53.4,53.4,0,0,1,20.05,27c-.8-.21-1.29,0-.64,1.25.94,1.84,3.11,3.58,5,4.83A26.79,26.79,0,0,0,18.91,32,82.38,82.38,0,0,0,8.43,32.19Z"/><path class="cls-6" d="M29.55,35.75h0Z"/><path class="cls-6" d="M7.36,24.83c-.37.31-.14,1.18.5,1.94s1.46,1.12,1.83.81.14-1.17-.5-1.93S7.72,24.52,7.36,24.83Z"/><path class="cls-6" d="M31.22,42c-.79-.6-1.57-.91-1.74-.69s.34.89,1.13,1.5,1.58.91,1.75.69S32,42.6,31.22,42Z"/><path d="M73.38,64.36a38.43,38.43,0,0,0,7.15-22.55A41.33,41.33,0,0,0,78.63,30a38.31,38.31,0,0,0-5.47-10.66l-.9-1.21a9.61,9.61,0,0,0-1-1.16l-2-2.24-2.22-2-.56-.5-.61-.45-1.2-.91c-.4-.3-.8-.61-1.21-.9L62.2,9.14a23.14,23.14,0,0,0-2.61-1.49c-.91-.43-1.8-.89-2.72-1.3l-2.82-1a41.09,41.09,0,0,0-11.85-2A42.41,42.41,0,0,0,30.31,5.1,38.93,38.93,0,0,0,10.94,18.85,38.77,38.77,0,0,0,10,64.12,39,39,0,0,0,28.91,78.67l-1,2.79A41.91,41.91,0,0,1,.06,41.27,41.6,41.6,0,0,1,8.37,16.93a42.22,42.22,0,0,1,21-15A45.82,45.82,0,0,1,42.22,0,44.45,44.45,0,0,1,55.11,2.09l3.08,1.12c1,.45,2,.94,3,1.41A28.53,28.53,0,0,1,64,6.23l1.4.85c.45.32.88.65,1.32,1L68,9l.66.49.61.54,2.43,2.21,2.21,2.42A10.65,10.65,0,0,1,75,16l1,1.31a41.32,41.32,0,0,1,6,11.61,44.51,44.51,0,0,1,2.13,12.9,42,42,0,0,1-7.75,24.68Z"/></g></g></svg>