<svg xmlns="http://www.w3.org/2000/svg" viewBox="0 0 121.39 180.3"><defs><style>.cls-1{fill:#fff;}.cls-2{fill:#108187;}</style></defs><title>iconoRecurso 145outsours dev</title><g id="Capa_2" data-name="Capa 2"><g id="Capa_1-2" data-name="Capa 1"><path class="cls-1" d="M59.9,115l0,0c-1.13,0-2.27,0-3.39-.13a22.8,22.8,0,0,0-1.29,1.91,14.69,14.69,0,0,0-1.81,4.3,8.91,8.91,0,0,0-.18,1.29c0,.45,0,.72,0,1.09l-.07,2.09L53,129.72l-.51,16.68L52,163.09l-.26,8.34a8.89,8.89,0,0,0,1.62,6.09,7.22,7.22,0,0,0,3.21,2.24,9.87,9.87,0,0,0,3.14.54v-7a4.18,4.18,0,0,1-1-.05.58.58,0,0,0-.23,0s-.14-.09-.22-.4a5.67,5.67,0,0,1-.14-1.42l-.26-8.34-.51-16.69-.51-16.68-.13-4.17-.06-2.09,0-1a5.41,5.41,0,0,1,0-.79A15.35,15.35,0,0,1,59.9,115Z"/><path class="cls-1" d="M46.2,168a2.79,2.79,0,0,1-.37-1.18l0-.44,0-.64,0-1.29-.3-10.35c-.06-1.75-.07-3.39-.17-5.23a30.78,30.78,0,0,0-.78-5.54A16.76,16.76,0,0,0,42.15,138c-.88-1.23-1.74-2.32-2.67-3.42a44.5,44.5,0,0,0,3.1-4.93,20,20,0,0,0,2-7,35.21,35.21,0,0,0,.16-3.52v-1.66a5.26,5.26,0,0,1,.15-1.2,5.67,5.67,0,0,1,1.66-2.59c-1.33-.25-2.65-.53-3.95-.86a8.26,8.26,0,0,0-1.17,2.53,8.83,8.83,0,0,0-.27,2.1v1.68a29.49,29.49,0,0,1-.15,3.14A16.49,16.49,0,0,1,39.38,128c-.87,1.72-2.3,3.61-3.48,5.46l-.29.45v1.53L36,136h0a48.54,48.54,0,0,1,2.77,4.06,12.63,12.63,0,0,1,1.45,4.19c.55,3,.24,6.36.18,9.86l-.3,10.35,0,1.29,0,.66,0,.85a8.51,8.51,0,0,0,1,3.75A7,7,0,0,0,44.45,174a10,10,0,0,0,3.68.73v-6.2a4.37,4.37,0,0,1-1.4-.13A1,1,0,0,1,46.2,168Z"/><path class="cls-1" d="M32,161.17a6.82,6.82,0,0,1-.09-.94l0-1.28,0-2.57-.08-5.13c0-3.38-.24-7.37-1.94-10.85a14.39,14.39,0,0,0-3.5-4.63A26.23,26.23,0,0,0,24.12,134c.37-.28.74-.57,1.09-.87A17.48,17.48,0,0,0,28.09,130a18.69,18.69,0,0,0,3.06-7.88A25.18,25.18,0,0,0,31.4,118v-3.86a3,3,0,0,1,.94-2.25,10.39,10.39,0,0,1,2-1.43c-1.33-.48-2.66-1-4-1.55a6.83,6.83,0,0,0-.58.51A6.67,6.67,0,0,0,28,114.14V118a20.79,20.79,0,0,1-.23,3.58,15.06,15.06,0,0,1-2.5,6.39,12.6,12.6,0,0,1-5,4.2l-1.21.45v2.91l1.21.42a11.14,11.14,0,0,1,3.55,2.49A10.7,10.7,0,0,1,26.34,142a15.45,15.45,0,0,1,1.15,4.38,32.07,32.07,0,0,1,.13,4.86l-.07,5.13,0,2.57,0,1.28a11.08,11.08,0,0,0,.11,1.61,7.85,7.85,0,0,0,1.19,3.32,7.7,7.7,0,0,0,2.68,2.47,13,13,0,0,0,6.08,1.43v-4.92a8.75,8.75,0,0,1-3.88-.62A3,3,0,0,1,32,161.17Z"/><path class="cls-1" d="M70.38,163.09l-.51-16.69-.51-16.68-.13-4.17-.06-2.09c0-.37,0-.64,0-1.09a8.91,8.91,0,0,0-.17-1.29,14.69,14.69,0,0,0-1.81-4.3c-.41-.66-.84-1.3-1.3-1.91-1.12.08-2.26.11-3.39.13l0,0a15.26,15.26,0,0,1,3.26,6.66,7.21,7.21,0,0,1,0,.79l0,1-.07,2.09-.13,4.17L65,146.4l-.51,16.69-.26,8.34a5.67,5.67,0,0,1-.14,1.42c-.08.31-.19.4-.22.4a.55.55,0,0,0-.22,0,4.18,4.18,0,0,1-1,.05v7a9.86,9.86,0,0,0,3.13-.54A7.22,7.22,0,0,0,69,177.52a8.89,8.89,0,0,0,1.62-6.09Z"/><path class="cls-1" d="M83.52,140.05A48.67,48.67,0,0,1,86.3,136h0l.41-.54v-1.53l-.28-.45c-1.19-1.85-2.62-3.74-3.48-5.46a16.5,16.5,0,0,1-1.63-5.78,29.51,29.51,0,0,1-.14-3.14v-1.68a9.39,9.39,0,0,0-.28-2.1,8.24,8.24,0,0,0-1.16-2.53c-1.31.33-2.63.61-4,.86a5.59,5.59,0,0,1,1.66,2.59,5.26,5.26,0,0,1,.16,1.2v1.66a35.21,35.21,0,0,0,.16,3.52,20,20,0,0,0,2,7,47.67,47.67,0,0,0,3.1,4.93c-.93,1.1-1.79,2.19-2.67,3.42a16.76,16.76,0,0,0-2.33,5.38,30.78,30.78,0,0,0-.78,5.54c-.09,1.84-.11,3.48-.17,5.23l-.3,10.35,0,1.29,0,.64,0,.44a2.53,2.53,0,0,1-.37,1.18,1,1,0,0,1-.53.35,4.3,4.3,0,0,1-1.39.13v6.2a10,10,0,0,0,3.67-.73A7,7,0,0,0,81.21,171a8.53,8.53,0,0,0,1-3.75v-1.51l0-1.29-.3-10.35c-.07-3.5-.38-6.84.17-9.86A12.63,12.63,0,0,1,83.52,140.05Z"/><path class="cls-1" d="M96,142a10.7,10.7,0,0,1,2.56-3.57,11.07,11.07,0,0,1,3.56-2.49l1.2-.42v-2.91l-1.21-.45a12.51,12.51,0,0,1-5-4.2,15.2,15.2,0,0,1-2.51-6.39,20.79,20.79,0,0,1-.23-3.58v-3.86a6.64,6.64,0,0,0-1.9-4.72,5.57,5.57,0,0,0-.58-.51c-1.3.55-2.62,1.07-4,1.55a10.09,10.09,0,0,1,2,1.43,3.07,3.07,0,0,1,1,2.25V118a25.22,25.22,0,0,0,.26,4.11,18.54,18.54,0,0,0,3,7.88,17.85,17.85,0,0,0,2.88,3.17c.35.3.72.59,1.1.87a23.27,23.27,0,0,0-2.17,1.74,14.56,14.56,0,0,0-3.51,4.63c-1.7,3.48-2,7.47-1.94,10.85l-.08,5.13,0,2.57,0,1.28a8.74,8.74,0,0,1-.1.94,3,3,0,0,1-1.71,2.35,8.7,8.7,0,0,1-3.87.62v4.92a13.07,13.07,0,0,0,6.08-1.43,7.67,7.67,0,0,0,2.67-2.47,7.87,7.87,0,0,0,1.2-3.32,14.85,14.85,0,0,0,.11-1.61l0-1.28,0-2.57-.08-5.13a33.42,33.42,0,0,1,.13-4.86A15.45,15.45,0,0,1,96,142Z"/><path class="cls-1" d="M121.38,134.82v-3.63l-.54-.17-1.33-.4a13.18,13.18,0,0,1-6.89-5.46,15.62,15.62,0,0,1-2.26-9V108a10.07,10.07,0,0,0-.55-3.54,8.9,8.9,0,0,0-5.18-5.22,16.58,16.58,0,0,0-5.35-1.16v-.05l-.74,0L97.34,98A17.87,17.87,0,0,1,92,96.26a10.14,10.14,0,0,1-2-1.33c.35-.07.71-.14,1.06-.23a13.63,13.63,0,0,0,6.28-3.33,13.49,13.49,0,0,0,3.46-6.07,20.38,20.38,0,0,0,.74-4c.18-2,.4-4,.58-6.08a1.44,1.44,0,0,1,1.11-1.48c.21-.05.41-.14.63-.2a.7.7,0,0,0,.64-.78c0-.72,0-1.43.07-2.15a1.43,1.43,0,0,0-.67-1.32,4.61,4.61,0,0,0-1.09-.54c-1.85-.59-3.7-1.2-5.58-1.69-.45-.12-.91-.21-1.37-.32a92,92,0,0,0,6-31.65c0-7.41-2.52-13.56-7.5-18.28C83.16,6.23,63.28,6.64,60.69,6.75,58.11,6.64,38.23,6.23,27,16.86c-5,4.72-7.5,10.87-7.5,18.28a92.32,92.32,0,0,0,6.2,32.19c-.94.26-1.87.53-2.8.83s-1.78.62-2.65,1a1.43,1.43,0,0,0-1,1.34c0,.78,0,1.57.06,2.35a.7.7,0,0,0,.62.74c.31.09.6.21.9.3a1.06,1.06,0,0,1,.79,1c.06.61.09,1.21.15,1.81.14,1.37.32,2.74.44,4.11a22.08,22.08,0,0,0,1.07,5.35,12.4,12.4,0,0,0,8.21,8.18l.37.1c-.11.11-.22.24-.33.34a10.14,10.14,0,0,1-2.15,1.49A17.94,17.94,0,0,1,24,98L22.86,98l-.74,0v.05a16.57,16.57,0,0,0-5.34,1.16,8.92,8.92,0,0,0-5.19,5.22,10,10,0,0,0-.54,3.54v8.13a15.72,15.72,0,0,1-2.26,9,13.2,13.2,0,0,1-6.9,5.46L.58,131l-.55.17v2.24l0,1.39v.57l.54.17,1.35.43a11.26,11.26,0,0,1,3.62,1.93A14.33,14.33,0,0,1,8.35,141a14.71,14.71,0,0,1,2.23,8.1c0,1.09,0,2.32-.09,3.51,0,.5,0,1-.05,1.48l0,1.27,0,.64v0l0,.82a9.33,9.33,0,0,0,.88,3.73,10.33,10.33,0,0,0,5.55,5.06A18.47,18.47,0,0,0,23,167l.82.05V159.2l-.82.06-.85,0c-2.38,0-4.41-.68-4.92-1.67a3,3,0,0,1-.38-1.17v0h0l-.05-.43,0-.6-.05-1.27L16.59,149A20.5,20.5,0,0,0,13,137.81a19.62,19.62,0,0,0-4.15-4.24c-.17-.12-.34-.25-.53-.37a19.56,19.56,0,0,0,4.85-5.29,21.83,21.83,0,0,0,3-11.75V108a4.51,4.51,0,0,1,.27-1.74v0c.64-1.92,3.67-2.78,6.4-2.78h.22l.79,0v0l.46,0h.15l.2,0a20.83,20.83,0,0,0,7.44-2,16.12,16.12,0,0,0,3.42-2.3,8.29,8.29,0,0,0,2.56-3.54l.07-.21a25,25,0,0,0,7.41-.7,15.48,15.48,0,0,0,7.68-4.6,21.23,21.23,0,0,0,3.86-6.53c.66-1.65,1.36-3.29,2.06-4.93a2.57,2.57,0,0,1,1.54-1.55,4.19,4.19,0,0,1,2.08-.1,2.55,2.55,0,0,1,1.92,1.66c.52,1.2,1,2.4,1.53,3.61a37.1,37.1,0,0,0,2.23,4.89,15.64,15.64,0,0,0,9,7.31,22,22,0,0,0,5.74,1l.06.2a8.39,8.39,0,0,0,2.57,3.54,16.05,16.05,0,0,0,3.41,2.3,20.88,20.88,0,0,0,7.45,2l.19,0h.15l.47,0v0l.78,0h.23c2.72,0,5.76.86,6.4,2.78v0a4.56,4.56,0,0,1,.26,1.75v8.12a21.74,21.74,0,0,0,3,11.73,19.61,19.61,0,0,0,4.85,5.3l-.52.37a19.39,19.39,0,0,0-4.15,4.24A20.42,20.42,0,0,0,104.8,149l-.18,5.16-.05,1.27,0,.6-.05.43h0v0a2.76,2.76,0,0,1-.37,1.15c-.52,1-2.54,1.69-4.93,1.69l-.84,0-.82-.06v7.85l.81-.05a18.34,18.34,0,0,0,6.25-1.34,10.29,10.29,0,0,0,5.54-5,9.49,9.49,0,0,0,.87-3.74l0-.81v0l0-.64,0-1.27-.06-1.48c0-1.19-.1-2.42-.09-3.51A14.82,14.82,0,0,1,113,141a14,14,0,0,1,2.85-3.11,11.32,11.32,0,0,1,3.61-1.93l1.35-.43.55-.17ZM54.23,82.28A15.88,15.88,0,0,1,51.39,88a13.4,13.4,0,0,1-7.9,4.82,17.81,17.81,0,0,1-3.5.42,20.45,20.45,0,0,1-7.4-1.11A10.53,10.53,0,0,1,26,84.77a28,28,0,0,1-.93-5c-.15-1.62-.25-3.25-.31-4.88a6.75,6.75,0,0,1,.44-2.62,4.77,4.77,0,0,1,3.59-3.11c1.69-.4,3.4-.67,5.12-1,1-.16,2.05-.25,3.08-.31s2.05-.06,3.08,0,2.18.05,3.26.15a29.68,29.68,0,0,1,7.47,1.39,6.3,6.3,0,0,1,4.33,5.7A18.49,18.49,0,0,1,54.23,82.28ZM64.71,69.84a16.39,16.39,0,0,1-5,.09,16.62,16.62,0,0,1-5.14-1.6,29.93,29.93,0,0,0-13.12-3q-2.31,0-4.62.15c-1.55.1-3.1.25-4.63.47l-.5.08c-2-7-3-16.17-3.55-26.32a22.26,22.26,0,0,1,8.27-18c6.28-5.29,20.27-8.6,26.79-8.6,7.73,0,18.2-.5,27.23,7.93a20.77,20.77,0,0,1,6.46,15,86.45,86.45,0,0,1-5.73,29.91c-1.69-.24-3.39-.4-5.11-.49a41.22,41.22,0,0,0-10.16.66A24.64,24.64,0,0,0,70.12,68,21.11,21.11,0,0,1,64.71,69.84ZM77.14,91.76a13.54,13.54,0,0,1-6.7-7.21,23.1,23.1,0,0,1-1.73-7.08,10.31,10.31,0,0,1,.4-4.09,6.25,6.25,0,0,1,4-4,17.53,17.53,0,0,1,3.78-.92c1.4-.21,2.81-.39,4.22-.51,1.12-.1,2.25-.1,3.37-.15a43.5,43.5,0,0,1,10.72,1.35,4.91,4.91,0,0,1,3.79,4,14.24,14.24,0,0,1,.14,3.45A38.53,38.53,0,0,1,98,84.3,11,11,0,0,1,94.77,90a11.59,11.59,0,0,1-5,2.61,21.16,21.16,0,0,1-6.82.55A15.29,15.29,0,0,1,77.14,91.76Z"/><path class="cls-1" d="M46.32,72c-6.19-2.53-11.07-.5-14.33.43-3,.85-4.82,4.81-4.82,8A7.06,7.06,0,0,0,34,87.82c2.27.1,3-2.24,5.55-2.65,2.7-.45,5.17,1.31,7,.8,2.26-.63,3.61-3.49,3.61-7C50.17,76.1,48.84,73.06,46.32,72Zm-6.91,5.2c-3.7,0-6.41,4.25-6.4,1.66s2.53-5.5,6.23-5.48,7.15,2.94,7.15,5.53S43.1,77.25,39.41,77.23Z"/><path class="cls-1" d="M96.68,80.5c0-3.23-1.81-7.19-4.81-8-3.26-.93-8.14-3-14.33-.43-2.53,1-3.85,4.07-3.85,6.92,0,3.53,1.34,6.39,3.61,7,1.86.51,4.32-1.25,7-.8,2.52.41,3.28,2.75,5.55,2.65A7,7,0,0,0,96.68,80.5ZM78.51,78.86c0-2.58,2.54-5.49,6.23-5.48s7.16,2.94,7.15,5.53-3.28-1.69-7-1.7S78.5,81.45,78.51,78.86Z"/><path class="cls-1" d="M82.4,28.31a2.89,2.89,0,0,0,3.77-1.53,3.12,3.12,0,0,0-5.85-2A2.89,2.89,0,0,0,82.4,28.31Z"/><path class="cls-1" d="M93.05,34.78a3.51,3.51,0,0,0-.7-4.87,3.49,3.49,0,0,0-4.91-.05,3.5,3.5,0,0,0,.7,4.86A3.5,3.5,0,0,0,93.05,34.78Z"/><path class="cls-1" d="M82.16,31.15a2.05,2.05,0,0,0,3,2.67,2.05,2.05,0,0,0-3-2.67Z"/><path class="cls-1" d="M107.56,64.06h-1.41c.62-4.64,3.95-31,.78-38.61C98.21,4.42,78.56,0,63.62,0H58.93C44,0,24.34,4.42,15.62,25.45c-3.07,7.4,0,32.37.72,38.13h-.18a3.62,3.62,0,0,0-3.63,3.62V93.68a3.63,3.63,0,0,0,3.63,3.63h5.32a3.62,3.62,0,0,0,3.62-3.6,13.66,13.66,0,0,1-5-6.87A24.86,24.86,0,0,1,19,81c-.13-1.49-.32-3-.47-4.45-.07-.65-.1-1.31-.16-2a1.16,1.16,0,0,0-.86-1.08c-.33-.1-.65-.23-1-.33a.77.77,0,0,1-.67-.8c0-.85-.07-1.7-.07-2.55a1.57,1.57,0,0,1,1.06-1.45c.94-.41,1.9-.76,2.87-1.08a40.7,40.7,0,0,1,4.38-1.43,3.63,3.63,0,0,0-3.38-2.33H19.08c-1.21-9-3.47-31-1-37.09C24.66,10.71,38.4,2.71,58.93,2.71h4.69c20.53,0,34.26,8,40.81,23.78,2.55,6.17.16,28.93-1,37.57h-1.18a3.62,3.62,0,0,0-3.38,2.36c.37.09.75.16,1.12.26,2,.54,4,1.2,6,1.83a5.43,5.43,0,0,1,1.18.59,1.57,1.57,0,0,1,.73,1.43c0,.78,0,1.55-.07,2.33,0,.53-.2.71-.71.85-.23.06-.45.16-.68.21a1.56,1.56,0,0,0-1.2,1.61c-.19,2.2-.43,4.39-.63,6.59a22.13,22.13,0,0,1-.8,4.28A14.58,14.58,0,0,1,100.09,93a13.22,13.22,0,0,1-1.48,1.23,3.63,3.63,0,0,0,3.62,3.58h5.33a3.62,3.62,0,0,0,3.62-3.62V67.69A3.63,3.63,0,0,0,107.56,64.06Z"/><rect class="cls-1" x="65.76" y="104.89" width="7.94" height="5.79" rx="1.09"/><path class="cls-1" d="M75.63,109.3v-3H85c4.53-.38,17.1-2.63,17.85-8h3.08c-.65,9.12-18.64,10.83-20.73,11H75.63Z"/><path class="cls-2" d="M105.31,98.81c-1.36,8.37-19.39,9.91-20.19,10h-9v-2H85c4.8-.4,16.82-2.59,18.19-7.94h2.08m1.1-1h-4.07c0,4.92-11.65,7.47-17.38,7.95H75.12v4.07H85.21c2.17-.17,21.2-2,21.2-12Z"/></g></g></svg>