<svg xmlns="http://www.w3.org/2000/svg" xmlns:xlink="http://www.w3.org/1999/xlink" viewBox="0 0 1440.34 2960"><defs><style>.cls-1{fill:#fff;}.cls-2{fill:none;}.cls-3{opacity:0.8;fill:url(#Degradado_sin_nombre_16);}.cls-4{fill:gray;}.cls-5{fill:#666;}.cls-6{fill:#afafaf;}.cls-7{fill:#ffd664;}.cls-8{fill:#eabe3b;}.cls-9{fill:#ffcf51;}.cls-10{fill:url(#Degradado_sin_nombre_8);}.cls-11{fill:#2b809c;}</style><linearGradient id="Degradado_sin_nombre_16" x1="720.34" y1="1567.15" x2="720.34" y2="1984.5" gradientUnits="userSpaceOnUse"><stop offset="0" stop-color="#fff" stop-opacity="0"/><stop offset="0.18" stop-color="#c5d4dc" stop-opacity="0.24"/><stop offset="0.53" stop-color="#5f88a0" stop-opacity="0.65"/><stop offset="0.8" stop-color="#20597b" stop-opacity="0.9"/><stop offset="0.96" stop-color="#09486d"/></linearGradient><linearGradient id="Degradado_sin_nombre_8" x1="720.19" y1="2053.66" x2="720.19" y2="2893.6" gradientUnits="userSpaceOnUse"><stop offset="0" stop-color="#00c5e5"/><stop offset="1" stop-color="#2b809c"/></linearGradient></defs><title>devicesRecurso 129home</title><g id="Capa_2" data-name="Capa 2"><g id="guias"><rect class="cls-1" x="-759.66" y="760" width="2960" height="1440" transform="translate(-759.66 2200.34) rotate(-90)"/><path class="cls-2" d="M676.62,1892.33c-146.51,0-412.6,15.35-676.28,33.52v223.9h1440V1928.88C1145.88,1909.42,840.63,1892.33,676.62,1892.33Z"/><rect class="cls-2" x="0.34" y="1419.46" width="1440" height="147.68"/><path class="cls-3" d="M1440.34,1928.88V1567.15H.34v358.7c263.68-18.17,529.77-33.52,676.28-33.52C840.63,1892.33,1145.88,1909.42,1440.34,1928.88Z"/><path class="cls-2" d="M991.38,2039.42q-1.36,8.13-3.1,16.25c-1.46,6.82-4.19,9.26-10.44,10l7.43-26.25h6.11a267.13,267.13,0,0,0,3.78-60.21c-.39-6.59,3.23-9.18,9.45-8.9,1.17.06,2.35,0,3.53,0,26.93-.47,26.93-.47,26.93-28,0-26.28.41-52.55-.18-78.81-.24-10.49,3.58-13.72,13.69-13.37,18,.62,36.08-.16,54.1.29,9,.23,12.74-2.63,12.76-12.05,0-4,4.07-7.89,6.26-11.85,1.72-3.12,4.61-6.18,4.87-9.43a248.82,248.82,0,0,0,.23-27c-.25-7.58,3-10.53,10.51-10.39,14.51.27,29-.24,43.52.15,8.35.22,12.2-2.44,12-11.38-.56-23.52-2.2-21.59,22.58-21.65,21.17,0,42.35.26,63.51-.13,8.69-.15,12.89,2.14,12.81,11.83-.13,16.48.39,16.49,17,16.52,29.84.07,29.84.07,29.84,29.8q0,12.36,0,24.7a52.36,52.36,0,0,0,.13,5.88c.44,3.85,20.47,14.13,28.29,14.79,7.63.65,8.64-4,9.79-10.09.47-2.48,5.2-5.76,8.13-5.9,12.9-.65,25.86-.2,38.8-.33,6.58-.07,9.46,3.2,8.88,9.43-.7,7.61,2.17,10.91,7.71,11.68V1419.46H.34v455.39c3.33,6.38,9.88,6.23,17.24,6.55,12.25.54,26.35-4.83,34.79,10.43,1.3,2.35,8,2.28,12.18,2.35,16.31.25,32.64-.48,48.91.29,13,.61,18-4.7,16.73-17.22-.32-3.22-1.1-7.44.5-9.56,2.78-3.7,7.28-8.45,11-8.41s9.61,4.89,10.55,8.63c1.79,7.19-.35,15.34,1.34,22.59.9,3.86,6.39,6.64,9.8,9.91,3-3.14,8.36-6.15,8.55-9.46.75-13-1.46-26.38,17.13-29.44,1.87-.3,3.12-10.8,2.84-16.48-.6-12.08,4.43-17.23,16.31-15.94,12.79,1.39,21.19-1.67,20.5-17.18-.12-2.77,5.62-7.09,9.45-8.4,4.39-1.51,9.66-.5,14.55-.52,23.56-.06,23.17-.14,28-22.49.84-3.86,6.06-8,10.19-9.6s9.68-.91,14.52-.46c12.48,1.16,18-3.67,17.28-16.7-.76-13.54.19-27.17-.22-40.75-.37-12.37,5.92-15.88,20.7-13.94a190.2,190.2,0,0,0,52.48.07c16.77-2.47,22,2.43,21.55,15.12-.48,13.57,2.26,27.7-.65,40.63-4.18,18.54,13.24,26.84,15.84,41.57,4.6-1.31,9.48-2,13.73-4.1,4.71-2.27,8.73-7.78,13.26-8,3.16-.16,6.29,6.67,10.1,9.48,4.44,3.27,11.19,9,14.17,7.65,12-5.47,22.08,41.45,32.5,52.06l-18.88,233H.34v63.19h1440V2039.42Z"/><path class="cls-4" d="M977.84,2065.67c6.25-.74,9-3.18,10.44-10q1.72-8.11,3.1-16.25h-6.11Z"/><path class="cls-4" d="M1432.63,1843.26c.58-6.23-2.3-9.5-8.88-9.43-12.94.13-25.9-.32-38.8.33-2.93.14-7.66,3.42-8.13,5.9-1.15,6.09-2.16,10.74-9.79,10.09-7.82-.66-27.85-10.94-28.29-14.79a52.36,52.36,0,0,1-.13-5.88q0-12.35,0-24.7c0-29.73,0-29.73-29.84-29.8-16.65,0-17.17,0-17-16.52.08-9.69-4.12-12-12.81-11.83-21.16.39-42.34.08-63.51.13-24.78.06-23.14-1.87-22.58,21.65.21,8.94-3.64,11.6-12,11.38-14.49-.39-29,.12-43.52-.15-7.48-.14-10.76,2.81-10.51,10.39a248.82,248.82,0,0,1-.23,27c-.26,3.25-3.15,6.31-4.87,9.43-2.19,4-6.25,7.89-6.26,11.85,0,9.42-3.81,12.28-12.76,12.05-18-.45-36.08.33-54.1-.29-10.11-.35-13.93,2.88-13.69,13.37.59,26.26.19,52.53.18,78.81,0,27.52,0,27.52-26.93,28-1.18,0-2.36.09-3.53,0-6.22-.28-9.84,2.31-9.45,8.9a267.13,267.13,0,0,1-3.78,60.21h449V1854.94C1434.8,1854.17,1431.93,1850.87,1432.63,1843.26Z"/><path class="cls-4" d="M516.17,1853.52c-10.42-10.61-20.51-57.53-32.5-52.06-3,1.37-9.73-4.38-14.17-7.65-3.81-2.81-6.94-9.64-10.1-9.48-4.53.23-8.55,5.74-13.26,8-4.25,2.05-9.13,2.79-13.73,4.1-2.6-14.73-20-23-15.84-41.57,2.91-12.93.17-27.06.65-40.63.45-12.69-4.78-17.59-21.55-15.12a190.2,190.2,0,0,1-52.48-.07c-14.78-1.94-21.07,1.57-20.7,13.94.41,13.58-.54,27.21.22,40.75.73,13-4.8,17.86-17.28,16.7-4.84-.45-10.27-1.22-14.52.46s-9.35,5.74-10.19,9.6c-4.84,22.35-4.45,22.43-28,22.49-4.89,0-10.16-1-14.55.52-3.83,1.31-9.57,5.63-9.45,8.4.69,15.51-7.71,18.57-20.5,17.18-11.88-1.29-16.91,3.86-16.31,15.94.28,5.68-1,16.18-2.84,16.48-18.59,3.06-16.38,16.47-17.13,29.44-.19,3.31-5.56,6.32-8.55,9.46-3.41-3.27-8.9-6.05-9.8-9.91-1.69-7.25.45-15.4-1.34-22.59-.94-3.74-6.84-8.58-10.55-8.63s-8.22,4.71-11,8.41c-1.6,2.12-.82,6.34-.5,9.56,1.27,12.52-3.77,17.83-16.73,17.22-16.27-.77-32.6,0-48.91-.29-4.2-.07-10.88,0-12.18-2.35-8.44-15.26-22.54-9.89-34.79-10.43-7.36-.32-13.91-.17-17.24-6.55v211.71h497Z"/><path class="cls-5" d="M119.53,1906.12c-4.59-.68-5.33-3.22-5.38-7.17,0-1.68-1.58-4.78-2.47-4.79-6-.08-5.42-4.07-5.42-8q0-45.84,0-91.68c0-8.93-3-11.78-11.78-12-2.46-.07-6.49-.51-7-1.88-1.56-3.93-4.24-3.79-7.34-3.77-4.2,0-8.45-.39-12.59.15a17.57,17.57,0,0,0-7.65,3.23c-3.42,2.47-9.65,1.33-10.95-2.23-.6-1.66-2.08-4.25-3.22-4.27-4.42-.1-11.16-.93-12.8,1.44-2.91,4.23-6,3.51-9.58,4-7.47,1.11-16.68-3.56-23,4.14V1909.5l119.19-3.38"/><path class="cls-6" d="M536.81,1788.9a9.35,9.35,0,0,0,1,2.84,13.86,13.86,0,0,1,1.47-2.18c.73-.76,1.67-1.93,2.47-1.88a4.46,4.46,0,0,1,3.09,1.76c1.26,1.94,2,2.29,3.28.49,1-1.37,1.92-1.53,3.44-1.11,4.54,1.26,6.5,0,7.54-4.69.21-.94.34-2.17,1-2.69,1.72-1.41,2-3.19,1.8-5.11a17.68,17.68,0,0,1,3.12-11.78,7.44,7.44,0,0,0,1.18-4c-.07-8.57-.37-17.13-.4-25.69a9.11,9.11,0,0,1,1.45-4.5c2.75-4.46,5.82-8.72,8.55-13.18,1.35-2.2,2.85-3.07,5.5-2.79,10.86,1.16,21.74,2.1,32.62,3.13,4.56.43,6.79-1.38,7.07-5.78.2-3.29,2.17-5,5.52-4.84,1.53.1,3,.32,4.56.56,8.17,1.28,8.19-.29,7.28,9-.34,3.48.16,4.13,3.63,4.61,6.45.88,12.91,1.65,19.36,2.58,4.33.62,4.38.76,4.4,5.14.07,16.7.1,33.4.2,50.1,0,9,.19,18,.32,27.08.06,3.5.62,4,4,3.58,1.52-.18,3-.41,4.56-.61,5.14-.67,5.18-.7,5.18-5.83q0-28.3,0-56.61a14.66,14.66,0,0,1,.68-3.91c.44-1.59,1.36-3.09,1.57-4.69.35-2.59.15-5.24.45-7.83a11.85,11.85,0,0,1,1.39-3.31c.6-1.32,1.68-2.61,1.74-4,.22-5,.15-9.93.09-14.89a4.42,4.42,0,0,1,2.31-4.24c2.7-1.64,5.39-3.32,8-5.13,1.84-1.28,3-.9,4.26.84,3.32,4.61,6.74,9.16,10.17,13.7.75,1,1.59,2.21,2.65,2.61q9.24,3.5,18.62,6.6c2,.65,3.16-.43,3.24-2.48,0-1.25-.17-2.52-.13-3.77,0-1,.35-2.06.4-3.1.07-1.34,0-2.69,0-4,0-.83-.53-2.17-.2-2.4,2.76-1.93,2.32-4.75,2.13-7.39s1-3.78,3.34-3.91a68.4,68.4,0,0,1,8.59,0,3.19,3.19,0,0,1,3.13,3.17,31.74,31.74,0,0,0,.57,5.37,3.19,3.19,0,0,0,2.07,2,3.73,3.73,0,0,0,3.06-1c2.84-3.71,5.38-7.65,8.17-11.4a22.07,22.07,0,0,1,3.47-3.2c.61-.52,1.64-.83,1.88-1.46,1.09-2.85,3.68-3.51,6.07-4.52,2.57-1.1,5.11-2.29,7.71-3.32a4.93,4.93,0,0,0,3.4-5c0-2.71.55-5.56-.1-8.1-1.53-6-.66-11.62,1.2-17.28a4.83,4.83,0,0,0-1-5,4.61,4.61,0,0,1-1-3.41c.55-2.52-.39-4.31-1.78-6.22-4.89-6.7-4.17-12.12,2-17.62a26.58,26.58,0,0,0,3.16-4.26c3-4.12,5.69-8.6,9.24-12.22a12.47,12.47,0,0,1,8-3.22c3.42-.07,5-1.09,6.13-4.18,1.36-3.56,1.66-3.45-2.38-3.84a33.12,33.12,0,0,1,1.27-3.24c1-2,.91-3.57-1-5a4,4,0,0,1-1.62-2,58,58,0,0,1-1.34-9c-.14-3.5.21-7,.4-10.53.26-4.85,3.28-8.08,6.86-10.74,1-.78,2.94-.84,4.36-.63,3.81.56,3.79.69,3.65-3-.13-3.22,2.38-6.21,5.17-6.16,3.2,0,5,2.51,4.5,6.28-.16,1.35-.3,2.7-.53,4a4.84,4.84,0,0,0,1.77,4.8c4.16,3.62,8.36,7.16,10,12.8.51,1.67,2.35,2.75,3.86,1.2s2.53-3,4.89-2.59c.41.06,1.09-.62,1.42-1.11,3-4.4,7.86-6.25,12.17-8.77a23,23,0,0,1,8-2.88c2-.3,3.81-.26,4.38-2.06l12.45,13c-.61,1.78-1.56,3.5-1.73,5.29a10.43,10.43,0,0,1-3,6.41,43.83,43.83,0,0,0-5.7,8.11c-1.58,2.82-2.39,6.08-4,8.86a13.75,13.75,0,0,1-4.53,4.41c-.54.35-2.18-1-3.28-1.6-1.68-1-3.09-.35-2.81,1.6.49,3.44.94,7.08,2.41,10.15,2.06,4.28,2.16,7.91-.37,12-1.27,2-1.57,4.69-2.38,7-.26.77-.56,1.9-1.13,2.12-2,.75-2.11,2.18-2.07,3.92.12,4.68.13,9.35.23,14,0,1.53.2,3.06.32,4.58a7.23,7.23,0,0,0,3.38,5.55c5.76,4,11.22,8.55,17.17,12.3,5.54,3.49,9.2,8.69,13.47,13.32,2.95,3.2,5.24,7,7.74,10.63a4.16,4.16,0,0,1,.62,2.3c-.07,9-.28,18-.26,27.06a13.34,13.34,0,0,0,1.29,5.59,11.47,11.47,0,0,1,1.1,7.26,87.66,87.66,0,0,0-.85,12.35c0,.86,1.15,2.52,1.73,2.5a55.82,55.82,0,0,0,10.59-1.14c2.92-.69,5.59-1.26,8.24.52,2.41,1.62,3.17,1.37,3.31-1.49.1-2.2-.54-4.43-.4-6.62.25-4,4.72-7.29,9.21-7.1a7.81,7.81,0,0,1,7.75,7.78c0,1.71,0,3.42.09,5.13.25,5.25,2.48,7.25,7.59,6.83a17.81,17.81,0,0,0,2.41-.29c4.22-.92,5.89-3,5.8-7.27-.06-3-.25-6-.26-8.93,0-.84.19-2.18.7-2.42,2.29-1.06,4.67-2.28,7.12-2.58,4.92-.6,9.9-.7,14.86-.86,2.6-.09,3.66-1.12,3.7-3.79.07-5.29-1.6-10.79,1.58-15.78a.71.71,0,0,0,0-.26,15.42,15.42,0,0,1,4.29-8.86,12.36,12.36,0,0,0,2.24-3.32c1.13-2.61,2-5.33,3.07-8,.29-.7.85-1.63,1.44-1.75s1.37.71,1.75,1.32a22.4,22.4,0,0,1,1.53,3.42c1,2.4,1.48,5.12,2.93,7.17,4.65,6.58,6.22,13.94,6.4,21.78a57.43,57.43,0,0,0,.49,8.62c.24,1.38,1.59,2.61,2.57,3.8,1.45,1.78,3.28,3.29,4.46,5.22,1.52,2.48,2.44,5.31,3.85,7.88a5.61,5.61,0,0,0,2.48,2c4,1.87,5.16,4.79,3.46,9-1,2.62-.54,8.71,1.15,9.75a3.5,3.5,0,0,1,1.67,4.37,41.61,41.61,0,0,1-1.91,5.78c-.7,1.6-.29,2.4,1.3,2.76.61.13,1.26.1,1.88.2,5.1.8,6.14,2,6.21,7.06.15,12.1.34,24.19.47,36.28,0,2.33.6,4,3.38,3.62v82c-5.21,2.69-10.47,5.3-15.62,8.11a16.6,16.6,0,0,1-8.78,2.19,44.44,44.44,0,0,0-19.18,3.79c-15,6.29-30.12-18.25-45.23-12.29a14.33,14.33,0,0,1-5.5,1.07c-10.91-.33-21.82-.88-32.73-1.25-3.05-.1-6.26-.41-9.15.34-27.08,7-54.1-13.44-81.16-6.29a3.86,3.86,0,0,0-3.27,4.22c-.07,6.22-.29,12.45-.42,18.67-.1,4.25-.23,4.43-4.49,4.41-17.51-.09-35-.25-52.53-.29q-73.4-.16-146.77-.21a11,11,0,0,1-7-2.29c-36.62-27.29-73.3,2.55-110-24.69l-.53-63.69c.91-.89-.42-4.12-1.74-4.11Zm323.88-138.42c-1.2-3.44-2.23-6.2-3.11-9-.7-2.24-1.34-2.54-3.15-1.09-1.21,1-2.34,2.25-4,.94s-2.44-3.14-1.46-5,2.52-3.42,3.7-5.19a32.13,32.13,0,0,0,1.73-3.29c-1.29-.17-2.71-.77-3.85-.43-5.18,1.54-10.25,3.45-15.42,5a6,6,0,0,0-4.34,4c-2.14,5.6-2.31,11.75-5.45,17.15-1.63,2.79,1.43,5.24,3.26,7.44,1.45,1.75,3.18,1.21,4.94.59,8.09-2.85,16.19-5.63,24.24-8.57C858.89,1652.54,859.7,1651.34,860.69,1650.48Zm-55.58-5.68a34.19,34.19,0,0,0,.32,4.07c.58,2.86-.65,5-2.74,6.61a2.6,2.6,0,0,1-2.33.21c-2.89-1.6-3.81-1.25-4.59,1.92s-1.7,6.08-2.34,9.17a45.14,45.14,0,0,0-.83,7c-.1,1.77.84,2.91,2.72,2.17q12.46-4.92,24.86-10c1.75-.72,2-2.07.72-3.43a34.5,34.5,0,0,0-4.23-3.78c-1.76-1.34-2.2-2.64-.78-4.54a10.6,10.6,0,0,0,1.72-3.64c.53-2.06,1.25-4.37-1.26-5.77-3.29-1.83-6.7-1.45-8.55.91Z"/><path class="cls-7" d="M1440.28,1928.16q0,76.1,0,152.2c-51.9-6.23-106.48-5.29-156.65-8.78-16.3-1.13-33.78-6.64-50-8.4-25.2-2.74-54-.3-79.12-2.36-22.35-1.83-45.28-14.29-68.11-15.86-27.34-1.88-56.83,2.9-83.67,1.44-23.58-1.29-48.75-9.78-72.56-11.17-18-1-37.5,5.43-55.2,4.94-19.83-.56-41.75-7.22-61.61-7.27-22.16-.06-46.15,7.5-68.8,9.58-32.85,3-67,5.42-100.34,6.74-64.4,2.56-131.73-4.72-194.24,2.32-20.54,2.31-42.61,9.94-62.89,10.77s-43.76-3.74-64.12-2.67c-24.83,1.3-52.43,12.15-76.77,14-17.84,1.32-38.61-6.3-56.58-5.09s-37.89,9.5-56.28,10.65c-23,1.44-49.19-4.35-71.44-2.87-9.42.62-18,8.51-27.47,9.28-10.61.85-22.49.3-33.76-.41q-.19-76-.33-151.94C73.27,1929,145.93,1922.12,219,1920c199.08-5.89,397.58-30.13,596.78-27.09,91.72,1.4,183.89,3.17,275.36,7.38,55.55,2.56,111.54,8.76,167.05,9.74,37.92.67,76.73-.3,114.24,3.87,22.48,2.5,45.33,6,67.94,9.45C1440.32,1925.45,1440.31,1926.4,1440.28,1928.16Z"/><path class="cls-8" d="M387.09,2062.31c-21.39.73-43.22-3.68-64.12-2.67-25.6,1.25-51.39,12-76.77,14-18.93,1.44-56.58-5.09-56.58-5.09s30.62,2.54,43.52-1.49c27.26-8.52,70.54-29,98.33-24.22,12.66,2.17,26,12.83,38.41,15.39C375.09,2059.25,387.09,2062.31,387.09,2062.31Z"/><path class="cls-8" d="M196.46,2081.76c-21,.76-42.37-3.51-62.82-2.53-23.56,1.13-46.76,12-70.46,13.26-16.51.89-47.5-5.52-47.5-5.52s25.86,2.46,36.55-1c24.59-8,64.12-27.6,89.45-23.07,12.25,2.19,25.31,12.54,37.44,14.94C184.32,2078.84,196.46,2081.76,196.46,2081.76Z"/><path class="cls-8" d="M1086.4,2045c-28-1.16-56.62,2.61-83.67,1.44-23.75-1-72.56-11.17-72.56-11.17s22.28,1.46,31.68-1c15.07-4,32.19-12.31,49-11.58,20.47.89,41.13,10.89,61.4,11.51,19.69.6,41.18-7,60.38-5.45,16.82,1.38,34.79,12.59,50.69,14.08,18,1.69,38.59-.11,58.07,3.88,21.57,4.42,44.53,11.66,66.57,11.28,29-.5,58.48-12.79,88.36-10.29,17.21,1.44,32.89,11,43.29,24.58.18,4,.28,5.92.46,9.75-42.74-4.78-85.8-7-128.76-8.59-28.37,2.43-57.15-5.2-84.85-7.46-26.86-2.19-57.24,1.78-82.41-3.25-18.45-3.69-57.61-17.7-57.61-17.7,0-.17,44.66,14.64,68.11,15.86,26.24,1.36,53.33,0,79.12,2.36,16.71,1.5,32.8,7.32,50,8.4"/><path class="cls-6" d="M1440.24,2080.36l0,31-2.35-.35c-33.91-4.69-67.66-12.61-101.33-15.84-36.76-3.54-74.49.39-111.75-2-38.54-2.44-76.4-12.47-113.79-19.06-26.71-4.71-54.88-5.37-82.16-4.07-40.11,1.91-82.79-2.19-122.37-9.09-27.29-4.76-56.26.15-82.67-.24-12.12-.18-25.7-3-37.86-2.55-28.69,1.18-60.14,7.27-89.12,9-22.81,1.38-47.47-4.15-70.38-3.05-20.35,1-42.6,9-61.87,9.47-25.62.68-55.35-9.09-82.8-7.55-30.13,1.69-61.33,10.86-91.1,14.43-30.33,3.64-61.63-1.94-92.56-.91-29.48,1-58.62,10.32-87.51,12.42-28.68,2.08-59.17-5.21-87.9-4.11-33.07,1.27-67.12,14.12-99,20.85-5.63,1.19-23.38.28-23.38.28.14-9.1.2-13.94.33-23.95a311.73,311.73,0,0,0,33.76.41c10.37-.54,17.29-8.89,27.47-9.28,23.42-.92,48.4,4.42,71.44,2.87,18.53-1.25,37.75-9.62,56.28-10.65,18.38-1,37.65,6.53,56.58,5.09,25.38-1.93,51.17-12.7,76.77-14,20.9-1,42.81,3.31,64.12,2.67,21.07-.63,42.11-8.87,62.89-10.77,63.48-5.83,129.84.32,194.24-2.32,33.36-1.36,67.28-4.19,100.34-6.74,22.84-1.75,46.34-8.9,68.8-9.58,20.08-.62,41.45,7,61.61,7.27,18,.26,37.16-5.53,55.2-4.94,23.75.78,48.81,10.14,72.56,11.17,27,1.17,56.14-3,83.67-1.44,23.36,1.3,44.66,14.64,68.11,15.86,26.24,1.36,53.33,0,79.12,2.36,16.71,1.5,33.31,7.87,50,8.4C1334.18,2073.21,1388.39,2073.73,1440.24,2080.36Z"/><path class="cls-9" d="M1405.27,2025.82c-3.65,10.85,7.54,11.49,11.35,10.91s12.49.25,13.63-4.83-5.36-11.44-8.16-12.17S1407.6,2018.94,1405.27,2025.82Z"/><path class="cls-9" d="M1302.88,2009.53c-5,10.71,9,11.46,13.92,10.92s16.24.41,18-4.62-6.55-11.39-10.18-12.15S1306,2002.73,1302.88,2009.53Z"/><path class="cls-9" d="M894.05,1955.67c4.06-10.66-9.6-11.82-14.42-10.76s-16.35,1.19-17.86,6.73,7.45,10.55,11.17,11S891.48,1962.44,894.05,1955.67Z"/><path class="cls-9" d="M767.05,1979.86c3.87-10.71-9.74-10.22-14.53-9.22s-16.32,1.26-17.68,6.27,7.64,10.18,11.35,10.55S764.59,1986.67,767.05,1979.86Z"/><path class="cls-9" d="M1196.8,1952c-10.46,19.55,15,24.1,28.85,23,10.34-.87,34.3,1.18,37.63-10,3.25-11-10.92-21-21.11-22.63C1230.15,1940.35,1203.83,1938.85,1196.8,1952Z"/><path class="cls-9" d="M1218.15,2015.6c-3.87,7.56,7,8.12,10.81,7.76s12.85.33,14.3-3.21-5.17-8.08-8-8.63S1220.6,2010.79,1218.15,2015.6Z"/><path class="cls-9" d="M1069.68,1949.4c-3.44,9.16,7.13,9.52,10.89,9s12.73.31,14.07-4.32-5.44-9.18-8.32-9.68S1071.87,1943.58,1069.68,1949.4Z"/><path class="cls-9" d="M1058.55,2005.31c-3.26,7.47,6.87,7.86,10.48,7.45s12.26.16,13.55-3.33-5.28-7.84-8.06-8.34S1060.63,2000.57,1058.55,2005.31Z"/><path class="cls-9" d="M1357.08,1979.22c-6.18,4.89,13.48,8,20.17,7.92s21.81,1.17,23.81-2-9.43-8-14.27-8.62C1378,1975.3,1363.41,1974.2,1357.08,1979.22Z"/><path class="cls-9" d="M638.08,1973.27c-3,4.11,17.64,5.68,23.54,5.07,9.1-.93,23,.11,28.45-4.67,2.29-2-12-6.22-17.89-6.25C661.15,1967.37,641.76,1968.14,638.08,1973.27Z"/><path class="cls-9" d="M1020.08,1958.56c-2.81,6.64,6.55,7,9.72,6.54s10.8,0,11.85-3.1-4.84-7-7.3-7.49S1021.86,1954.35,1020.08,1958.56Z"/><path class="cls-9" d="M830.86,2019.13c-2.56,6.27,6.23,6,9.47,5.51s10.92-.5,11.92-3.39-4.93-6.13-7.41-6.4S832.48,2015.14,830.86,2019.13Z"/><path class="cls-9" d="M842.46,2010.14c-2.76,6.39,6.43,6.19,9.64,5.66s10.85-.47,11.83-3.42-4.9-6.26-7.36-6.55S844.22,2006.08,842.46,2010.14Z"/><path class="cls-9" d="M1106.16,1978.36c-5,10.46,7.29,16.09,16.69,14.62,5.89-.92,19.93,0,22.23-6.93s-8.21-15.68-12.58-16.43C1123.82,1968.14,1110.17,1970,1106.16,1978.36Z"/><path class="cls-9" d="M974.71,1934.89c4.44-13.11-10.59-10.8-15.83-10.21s-17.78-.26-19.38,5,8.19,14,12.24,14.92S971.89,1943.21,974.71,1934.89Z"/><path class="cls-9" d="M934,1998.82c-4.78,11.86,11.42,11.92,17.08,11.12s19.11-.22,20.8-5.7-8.73-12.09-13.08-12.76S937.06,1991.3,934,1998.82Z"/><path class="cls-9" d="M593.17,2014.55c-2.62,9,7.25,8.24,10.64,7.35s11.37-1.24,12.36-5.39-5.3-8.43-7.95-8.7S594.84,2008.83,593.17,2014.55Z"/><path class="cls-9" d="M506.78,2012.68c-2.5,9.11,8.67,8.21,12.49,7.26s13-1.43,13.82-5.63-6.68-8.41-9.7-8.63S508.37,2006.89,506.78,2012.68Z"/><path class="cls-9" d="M141.87,2008.67c2.34-9.17-9.7-8.26-13.77-7.27s-13.91,1.55-14.63,5.81,7.49,8.37,10.75,8.57S140.38,2014.5,141.87,2008.67Z"/><path class="cls-9" d="M412.77,1978.81c-6.62,15.4,18,16,27,14.11s27.47-3.57,29.17-11.44c1.61-7.46-12.82-16.16-20.66-17.08C437.82,1963.17,417.57,1967.67,412.77,1978.81Z"/><path class="cls-9" d="M3.8,2056.52c-5.83,13.33,11.4,15.6,20.52,13.57,8.07-1.8,22.92-2.35,25.81-10.32,2.33-6.41-12.34-15.83-17.47-16.06C22.66,2043.27,8.22,2046.44,3.8,2056.52Z"/><path class="cls-9" d="M440.06,2026.58c-1.91,6.52,6.93,5.81,10,5.1s10.33-1.1,11-4.11-5.39-6-7.79-6.08S441.28,2022.45,440.06,2026.58Z"/><path class="cls-9" d="M303.35,1989.21c-1.89,6.77,7.64,6,10.92,5.25s11.27-1.25,11.87-4.38-6.07-6.12-8.69-6.24S304.55,1984.92,303.35,1989.21Z"/><path class="cls-9" d="M17.47,2001.94c-1.77,6.7,5,6.22,7.36,5.55s8.29-.94,8.88-4-4.14-6.24-6-6.44S18.59,1997.68,17.47,2001.94Z"/><path class="cls-9" d="M53.69,2029.61c-1.77,6.59,6,6,8.7,5.31s9.4-1,10-4.08-4.91-6.08-7.06-6.24S54.81,2025.42,53.69,2029.61Z"/><path class="cls-9" d="M301.6,2035.16c-1.86,6.46,7.6,5.71,10.85,5s11.17-1.18,11.76-4.16-6-5.85-8.64-6S302.78,2031.06,301.6,2035.16Z"/><path class="cls-9" d="M547.37,1982.55c-4.68,6,12.35,5,18.21,4.23s19.66-1.43,21.32-4.2-9.18-5.2-13.71-5.23S550.34,1978.73,547.37,1982.55Z"/><path class="cls-9" d="M259,2000.59c-1.69,5.8,6.85,5.13,9.79,4.47s10.13-1.08,10.66-3.77-5.47-5.22-7.83-5.32S260.08,1996.91,259,2000.59Z"/><path class="cls-9" d="M94.67,2064.75c-1.64,5.34,6,4.74,8.69,4.16s9.2-.95,9.72-3.41-4.89-4.85-7-5S95.72,2061.35,94.67,2064.75Z"/><path class="cls-9" d="M103.56,2056.74c-1.62,5.43,6.09,4.83,8.77,4.24s9.26-1,9.77-3.46-4.95-4.94-7.08-5.05S104.59,2053.29,103.56,2056.74Z"/><path class="cls-9" d="M340,2008.14c-2.61,12.83,11.93,11.55,16.89,10.2s17.05-2,17.85-8-9.43-11.81-13.43-12.11S341.66,2000,340,2008.14Z"/><path class="cls-9" d="M58.34,1993.57c-2.36,12.83,9.43,11.89,13.58,10.6s14.53-1.83,15.21-7.78-8-12.76-11.35-13.22S59.84,1985.43,58.34,1993.57Z"/><path class="cls-9" d="M214.39,1986.42c2.36-12.89-12-12.87-16.87-11.34s-16.72,3.11-17.35,9.07,9.51,11.82,13.44,12.13S212.89,1994.6,214.39,1986.42Z"/><path class="cls-9" d="M183.54,2041.67c-3,10.17,12.21,8.95,17.46,7.81s18.15-1.85,19.08-6.54-9.89-9.19-14.11-9.38S185.41,2035.21,183.54,2041.67Z"/><path class="cls-10" d="M1440.27,2077.76c-31-1.7-62.48-1.83-88.28,1.52-74.47,9.67-199.54-6.25-254.12-15.35s-150.65-4-168.27-4.55-67.08-6.25-81.86-5.68-159.94,9.1-185,10.23-110.29-8-136.82-8-139.47,22.17-155.76,22.17-117.58.19-165.71.57-117.3-6.25-186.28,4.17q-9.09,1.38-17.85,2.37L0,2882.59c41,6.71,83,11,126.22,11,196.64,0,391.23-63.5,817.3-63.5,175.71,0,346.15,14.34,496.77,30.72C1440.37,2860.38,1440.27,2077.76,1440.27,2077.76Z"/><path class="cls-11" d="M1440.34,2853.09C1289.52,2836.52,1118.8,2785,942.8,2785c-426.31,0-621,100.51-817.78,100.51-42.84,0-84.41-4.22-125-10.81L.24,2960h1440Z"/></g></g></svg>