<svg xmlns="http://www.w3.org/2000/svg" viewBox="0 0 3840 2160"><defs><style>.cls-1{fill:#025680;}.cls-2{fill:#094563;}.cls-3{fill:#002432;}.cls-4{fill:#013344;}</style></defs><title>fondoRecurso 105</title><g id="Capa_2" data-name="Capa 2"><g id="recortes"><path class="cls-1" d="M876.14,0c177.1,32.81,384.34,64,620,65.77,272.75,2.1,508.31-32.2,711.15-65.77Z"/><path class="cls-1" d="M131.17,0C50.19,48.64,0,102.11,0,102.11V0Z"/><path class="cls-1" d="M3420.41,0C3656.13,31.08,3840,62.22,3840,62.22V0Z"/><path class="cls-2" d="M3840,62.22S3656.13,31.08,3420.41,0H2207.25c-202.84,33.57-438.4,67.87-711.15,65.77-235.62-1.82-442.86-33-620-65.77h-745C50.19,48.64,0,102.11,0,102.11V2160H3840V62.22Z"/><path class="cls-3" d="M4.22,432.55c19.6-4.73,39.31-8.78,59.08-12.63s39.6-7.34,59.47-10.6,39.77-6.27,59.72-9,39.92-5.31,59.93-7.55q120-13.67,241-15.89c80.5-1.23,161.22.78,241.26,10.36,40,4.65,79.75,11.59,119.25,19.43s78.79,16.62,118.29,24.24c9.87,2,19.77,3.72,29.66,5.56,4.94.92,9.91,1.72,14.86,2.59s9.91,1.73,14.87,2.52c19.86,3.2,39.75,6.19,59.7,8.75,39.89,5.21,79.94,9.14,120.06,12.16s80.32,4.86,120.53,6.32l30.17.83,15.08.41,15.09.24,30.18.48c10.06.11,20.12.11,30.18.18q241.47.87,482.76-11.57c80.4-4,160.73-9.17,241.07-14.34s160.71-10.31,241.21-13.15c40.25-1.42,80.52-2.28,120.8-2.29s80.63,2.21,120.75,6c80.29,7.6,159.75,21.5,238.91,36.07,39.6,7.29,79.15,14.75,118.76,21.84s79.29,13.76,119.09,19.62c79.57,11.76,159.69,20.05,240,23q30.14,1.11,60.29,1.26l30.2.15c5,.05,10.07,0,15.11.12l15.11.28c40.28.79,80.56,2.57,120.75,5.91,40.15,3.52,80.27,8.43,119.8,16.9,4.93,1.1,9.88,2.12,14.78,3.39l7.36,1.82c2.45.63,4.88,1.33,7.32,2q14.64,4,28.94,9.26a203.4,203.4,0,0,1,27.87,12.47l3.34,1.89c1.12.62,2.19,1.35,3.28,2s2.19,1.36,3.24,2.11,2.14,1.44,3.16,2.25a66.16,66.16,0,0,1,6,5c1,.89,1.88,1.87,2.79,2.86.44.53.88,1,1.31,1.6a15.86,15.86,0,0,1,1.29,1.94l-4.46,2.26a13.32,13.32,0,0,0-.82-1.19c-.33-.44-.72-.88-1.08-1.32-.79-.86-1.59-1.72-2.47-2.53a61.23,61.23,0,0,0-5.57-4.65c-1-.76-2-1.41-3-2.13s-2-1.36-3.08-2-2.06-1.34-3.14-1.94l-3.23-1.82a196.4,196.4,0,0,0-27.19-12.19q-14-5.19-28.53-9.16c-2.41-.66-4.82-1.36-7.24-2l-7.29-1.81c-4.85-1.26-9.76-2.28-14.64-3.38-39.22-8.44-79.17-13.36-119.18-16.9-40.05-3.37-80.23-5.18-120.44-6l-15.08-.29c-5-.1-10.05-.08-15.08-.13l-30.18-.19q-30.23-.16-60.44-1.31c-80.56-3-160.84-11.39-240.52-23.23-39.85-5.9-79.57-12.63-119.2-19.75s-79.19-14.63-118.76-22c-79.13-14.63-158.46-28.58-238.53-36.23-40-3.84-80.19-6-120.38-6.11s-80.46.79-120.67,2.17c-80.43,2.78-160.77,7.87-241.11,12.94s-160.71,10.16-241.13,14.13q-241.26,12.06-482.94,11.14c-10.07-.07-20.14-.08-30.2-.2l-30.2-.51-15.1-.25-15.09-.42-30.19-.86c-40.24-1.5-80.47-3.47-120.64-6.44s-80.25-7-120.19-12.27c-20-2.59-39.89-5.6-59.77-8.82-5-.79-9.93-1.69-14.89-2.54s-9.93-1.67-14.88-2.6c-9.9-1.85-19.82-3.61-29.69-5.59C922.2,425.65,882.9,416.9,843.46,409s-79.1-14.83-119.06-19.51c-79.89-9.63-160.51-11.72-240.95-10.56s-160.86,6.64-240.83,15.67c-20,2.22-40,4.77-59.89,7.49s-39.83,5.71-59.69,9-39.67,6.73-59.42,10.54-39.48,7.86-59,12.56Z"/><path class="cls-3" d="M2.93,315.54c9.59-3.62,19.14-6.73,28.8-9.77s19.33-5.82,29.06-8.5q29.19-8,58.74-14.54,59.08-13.05,119.06-21.31c39.93-5.64,80.07-9.67,120.27-12.55s80.5-4.44,120.82-4.81a1168.27,1168.27,0,0,1,120.92,5c20.1,1.92,40.15,4.41,60.09,7.59s39.79,6.94,59.5,11.28c39.44,8.66,78.27,19.71,116.81,31.29s76.93,23.52,115.68,34,77.8,19.81,117.23,27.29,79.16,13.37,119.07,17.73,80,7.41,120.08,9.3,80.3,2.72,120.48,2.73c10,0,20.09-.06,30.14-.15s20.1-.26,30.15-.4l30.16-.46,30.15-.59,30.16-.66,30.15-.73c20.1-.57,40.2-1.09,60.29-1.78q60.3-1.91,120.56-4.62t120.49-6.05c80.31-4.49,160.56-9.92,240.82-15.51s160.54-11.19,240.94-15q60.3-2.82,120.68-3.9t120.79,1.9c80.46,4,160.54,12.73,240.43,22.3s159.68,19.76,239.73,27.51,160.33,13.12,240.73,14.59c40.2.8,80.4.46,120.61-.3s80.42-1.8,120.6-3.46,80.34-3.87,120.4-7.34c20-1.76,40-3.77,59.92-6.56,9.94-1.39,19.87-2.95,29.7-4.91,4.92-1,9.81-2.07,14.65-3.33,2.42-.65,4.83-1.32,7.18-2.12,1.19-.38,2.35-.81,3.5-1.26.56-.24,1.14-.46,1.68-.73q.42-.18.81-.39c.25-.13.54-.3.69-.4l1.09,1.44a9.26,9.26,0,0,1-.93.55c-.3.16-.59.3-.89.44-.59.29-1.18.52-1.77.77-1.19.47-2.39.92-3.6,1.31-2.41.82-4.84,1.51-7.28,2.17q-7.33,1.92-14.76,3.39c-9.88,2-19.83,3.58-29.8,5-19.94,2.85-40,4.91-60,6.72-40.09,3.56-80.28,5.86-120.48,7.63s-80.42,2.94-120.64,3.76-80.48,1.28-120.72.58c-80.5-1.28-160.9-6.41-241-14-40.06-3.79-80.06-8.16-120-12.79L2875,368.68c-79.87-9.43-159.88-18-240.16-21.87q-60.21-2.91-120.5-1.69t-120.53,4.1c-80.32,3.92-160.55,9.7-240.8,15.38s-160.53,11.29-240.87,15.91q-60.25,3.51-120.55,6.27t-120.62,4.82c-20.1.72-40.21,1.28-60.32,1.88l-30.17.78-30.17.72-30.18.63-30.17.52c-10.06.15-20.11.37-30.18.44s-20.13.22-30.2.2c-40.27.06-80.55-.66-120.8-2.55s-80.45-4.79-120.52-9.14-80-10.17-119.63-17.62-78.92-16.67-117.82-27.22c-77.84-21-153.83-47.86-232.22-64.88q-29.37-6.42-59.06-11.11t-59.64-7.43a1160,1160,0,0,0-120.12-4.77c-40.13.39-80.28,1.91-120.31,4.8l-15,1.1-15,1.28c-10,.8-20,1.86-30,2.83-5,.49-10,1.1-15,1.64s-10,1.08-14.95,1.73l-14.94,1.83-14.92,2Q180,277.41,121.16,290.12c-19.6,4.25-39.11,8.91-58.47,14.13q-14.5,3.9-28.89,8.27c-9.55,2.91-19.16,6-28.41,9.37Z"/><path class="cls-4" d="M698.76,2160c-93.92-20.89-185.21-38.14-273.32-38.14-100.59,0-196.87,18.17-272.32,38.14Z"/></g></g></svg>