<svg xmlns="http://www.w3.org/2000/svg" viewBox="0 0 3840.88 2160"><defs><style>.cls-1{fill:#011f28;}.cls-2,.cls-3{fill:none;stroke:#003750;stroke-miterlimit:10;}.cls-2{stroke-width:4.13px;}.cls-3{stroke-width:6.19px;}.cls-4{fill:#013344;}</style></defs><title>fondoRecurso 127</title><g id="Capa_2" data-name="Capa 2"><g id="recortes"><polygon class="cls-1" points="3840.88 1 3840.88 2160 0.88 2160 0.88 0 3840.88 1"/><path class="cls-2" d="M3833.6,767.1s-199.33-117.53-494.88-117.53-428.9,353.84-944.31,353.84-799-143.67-1083.78-143.67-544.24,257-908.27,257S2.29,1030.07,2.29,1030.07"/><path class="cls-3" d="M3833.6,667.48S3610.14,603,3314.59,603s-428.9,162-944.31,162S1595.37,710,1310.63,710s-544.24,118-908.26,118S2.3,788.27,2.3,788.27"/><path class="cls-2" d="M3833.6,615.21s-223.46-45.35-519-45.35-428.9,93.26-944.31,93.26-774.91-54.9-1059.65-54.9-544.24,89.33-908.26,89.33S2.3,603.29,2.3,603.29"/><path class="cls-4" d="M3840.88,14.6S3451,117,3131.88,117c-560.14,0-1156.26-90-1989.37-90C564.64,27,.88,103,.88,103V0h3840Z"/></g></g></svg>