<svg xmlns="http://www.w3.org/2000/svg" viewBox="0 0 3840 2160"><defs><style>.cls-1{fill:#025680;}.cls-2,.cls-3{fill:none;stroke:#548081;stroke-miterlimit:10;}.cls-2{stroke-width:2px;}.cls-3{stroke-width:4px;}.cls-4{fill:#1d6580;}.cls-5{fill:#094563;}</style></defs><title>fondoRecurso 94</title><g id="Capa_2" data-name="Capa 2"><g id="recortes"><path class="cls-1" d="M3840,2160V1L0,0V1278.59S3.47,2160,0,2160Z"/><path class="cls-2" d="M3836.38,120.42S3105.19,285.54,2690.72,285.54c-258.08,0-2079.44-15.92-2300.91-15.92-217.62,0-386.19-92.68-386.19-92.68"/><path class="cls-3" d="M3836.38,246.27S3105.19,349.78,2690.72,349.78c-126.83,0-631.21-50.87-1137.71-54.78C1028.86,291,480.44,327.86,367.81,327.86c-217.62,0-367-47.34-367-47.34"/><path class="cls-4" d="M87,0c70.23,49,177.31,103.91,300,103.91,218,0,2049.83,16,2305.07,16,211.53,0,505.42-60.42,742.85-119.69Z"/><path class="cls-5" d="M876.14,2160c-204-37.79-368-77.81-489.22-77.81-99.17,0-188.18,37.22-255.75,77.81Z"/><path class="cls-5" d="M2692.17,2098.14c-135.65,0-296.11,30.61-484.92,61.86H3420.41C3185.62,2129,2899.39,2098.14,2692.17,2098.14Z"/></g></g></svg>