<svg xmlns="http://www.w3.org/2000/svg" viewBox="0 0 3842.64 2161"><defs><style>.cls-1{fill:#1d6580;}.cls-2,.cls-3{fill:none;stroke:#548081;stroke-miterlimit:10;}.cls-2{stroke-width:4px;}.cls-3{stroke-width:6px;}.cls-4{fill:#548081;}.cls-5{fill:#2b809c;}.cls-6{fill:#025680;}</style></defs><title>fondoRecurso 83</title><g id="Capa_2" data-name="Capa 2"><g id="recortes"><path class="cls-1" d="M1,0V2160l3839.69,1V0Z"/><path class="cls-2" d="M1,362.53s221.66-42.82,517.74-42.82,429.68,107.51,946,107.51,776.31-36.44,1061.56-36.44,545.23,78.35,909.91,78.35,404.22-26.42,404.22-26.42"/><path class="cls-3" d="M.94,280.41s220.87-45.85,516.93-49.86S949,332.24,1465.25,325.25s775.75-46.94,1061-50.8,546.23,71,910.89,66,403.82-31.84,403.82-31.84"/><path class="cls-4" d="M3841.31,1982.62c-79,16.32-158.13,31.36-237.45,45.76q-59.47,10.83-119.08,20.94T3365.46,2069q-119.43,19-239.39,34.82c-80,10.48-160.16,19.62-240.62,26.61q-30.18,2.59-60.4,4.7t-60.52,3.64c-20.19,1-40.41,1.74-60.65,2.27s-40.54.54-60.67.44c-80.71.09-161.36-1.68-242-4s-161.15-5.51-241.68-8.83l-241.48-10.43-60.36-2.52-30.18-1.26-30.17-1.18-60.35-2.38-60.35-2.12-30.18-1.05-30.18-.9L1556,2105l-60.35-1.43-30.18-.72-30.17-.49-60.36-1c-20.12-.24-40.23-.32-60.35-.49l-60.42-.46c-20.18-.19-40.35-.28-60.53-.55q-121-2-241.95-8.56c-161.16-8.9-322-24.66-481.51-49.92-10-1.6-19.93-3.13-29.88-4.81l-29.84-5.13c-5-.87-9.94-1.69-14.91-2.6l-14.88-2.75c-9.92-1.85-19.85-3.62-29.76-5.54l-29.7-5.86-7.42-1.46-7.41-1.56-14.81-3.1-14.82-3.11-14.77-3.27-14.78-3.3-7.38-1.66-7.37-1.74c-39.31-9.14-78.44-19.1-117.26-30.18l-14.54-4.21c-4.85-1.41-9.67-2.91-14.51-4.36s-9.66-2.91-14.47-4.45-9.63-3-14.43-4.58C38,1941.53,18.91,1935,0,1927.5l2.23-5.57c9.31,3.46,18.88,6.67,28.41,9.76L45,1936.25l14.41,4.39c4.81,1.45,9.65,2.82,14.47,4.23s9.66,2.77,14.5,4.11,9.68,2.72,14.53,4l14.57,3.87c38.87,10.28,78,19.46,117.36,27.8s78.81,16,118.41,23c9.9,1.75,19.82,3.36,29.73,5l14.87,2.51c5,.82,9.93,1.56,14.9,2.35l29.8,4.64c9.94,1.51,19.9,2.88,29.84,4.34C631.61,2049.45,792,2063.46,952.7,2071q120.51,5.6,241.18,6.85l120.76.43c20.16.08,40.33.07,60.5.21l60.48.76,30.25.41,30.23.63,60.47,1.27,60.45,1.69,30.23.87,30.21,1,60.43,2.06,60.41,2.33,30.21,1.18,30.2,1.28,60.39,2.57,241.46,10.81,60.35,2.61c20.12.84,40.23,1.76,60.35,2.51l60.34,2.39,60.34,2.11,30.17,1,30.17.83,30.17.83,15.09.42c5,.14,10.05.21,15.08.32l60.34,1.18c5,.12,10.05.16,15.08.2l15.08.13,30.16.27,15.09.14,7.54.06h7.51c5,0,10,0,15-.07l15-.19c20-.37,40.08-.93,60.13-1.8,40.1-1.7,80.2-4.28,120.27-7.39,80.14-6.23,160.17-14.69,240.08-24.18q59.92-7.17,119.77-15.21t119.6-16.74q59.76-8.67,119.45-17.94l59.66-9.42,59.63-9.63q59.61-9.72,119.14-20t118.95-21.09Z"/><path class="cls-5" d="M1052.94,0C763.23,35,522.68,80.76,387.86,80.76,258.71,80.76,146.72,36.22,76.94,0Z"/><path class="cls-5" d="M3028.94,0c-106.57,26.56-218.23,52-335.83,52-139,0-278.72-27.41-465.17-52Z"/><path class="cls-5" d="M3840.94,71.9s-60.83-36.78-150-71.9h150Z"/><path class="cls-6" d="M87.9,2160c-54.63-38.11-87-72-87-72v72Z"/><path class="cls-6" d="M3435.78,2160.22c228.75-57.1,405.16-113.16,405.16-113.16v113.65Z"/></g></g></svg>