<svg xmlns="http://www.w3.org/2000/svg" viewBox="0 0 551.58 345.51"><defs><style>.cls-1,.cls-7{fill:#548081;}.cls-1,.cls-4{opacity:0.3;}.cls-2,.cls-4{fill:#1d6580;}.cls-3{fill:#09486d;}.cls-5{fill:#003750;}.cls-6{fill:#002432;}.cls-8{fill:#2d7580;}</style></defs><title>1Recurso 142cueva</title><g id="Capa_2" data-name="Capa 2"><g id="Capa_1-2" data-name="Capa 1"><path class="cls-1" d="M400.5,204.29c-1.29,22.72-13.64,30.36-13.64,30.36.85,33.14-27.72,49.14-32,50.28s-12.43-7.14-14.57-7.42-3.43,2.85-5.29,3.85-10-4.14-16.14-2.14-4.86,9.43-7,14.57c-3-5.71-10.15-7.43-15-5.57s-1.43,17-6.57,17.71-8-23-13.15-23.57-4,15-14.57,15.86-6.45-37.37-14.71-36.71c-6.79.53,1.68,37-30.29,44.85-21.11,5.21-11.28-8.85-25.28-9.28s-9.86,5.57-20,6-17.43-9.86-19.72-13-8.86-5.72-20.28-.29-20.15,1.43-23.58-.57c-7,4.86-18,2.57-27.85-4.86s-11-21.57-12.07-26.5c-49.93-.21-39.65-33.43-39-39.85-18.22-13.5,3.92-36.08,7.92-44.79s-1-14.57-5.57-17.57c-3.85-2.72-4.07-15-.64-23.57s21-7.29,28.93-16.93,2.14-21.22,5.43-34.64,10-12.15,16.85-14.29,15.65-13,22.4-25.32S126.64,22.58,137,27.18s8.39,25.33,11.1,33.61,6.25,2.82,7.11,1,4.71-27.11,6.21-36.21,8.79-7.4,13.18-7.4,8,4.5,9.22,7S193.5,66.72,201,66.51s16.5-29.79,16.82-31.29,4.93-5.14,5.89,2,20.47,2.78,23.58,2.67c0,9,3.64,15.75,9.42,17.25s4.83-2.25,8.9-2.14,8.25,28.82,14,28.82,4.72-20.57,10.5-19.71S301,117.22,308,117.22s8-41.86,17.14-40.14,2.29,22.14,7.72,22.57,9.71-14.43,12.57-14.29,3.21,13.07,8.36,20.36,20.35,2.57,32.35,21.64,7.29,27.86,7.72,40.93S401.79,181.58,400.5,204.29Z"/><path class="cls-2" d="M511.14,200.36c-.85-13.71,25.15-19.14,23.43-56.85s-23.43-74.72-27.14-72.43c-2.68,1.65.44,16.46-1.75,25.7,12.32,6.46,22.63,32.59,25.32,51.58,3,21.15-17.14,34.43-22.71,37.86s-8.58,9.86-3.43,18.29,10.43,24.85,14.85,34.42,3.15,18.72-13.28,29.72a18.72,18.72,0,0,1-7.83,3.12c2.76,2.54,6.07,5.89,11,7.52,9,3,31.93-13.5,33.43-26.78S512,214.08,511.14,200.36Z"/><path class="cls-2" d="M474.43,258.93c-1.86-.71-3,6.72-5,5s-2.43-19-3.29-24.42a16.27,16.27,0,0,0-5.14-9s-3.57,5.28-12.57,5.71-9.72-5.29-10.57-14.14,6-24.57,6-24.57-4-3.15-13.43-16.43-8.07-37.75-8.5-41.18c-7.5-.64-19.36-8.68-20.93-24.54s17.57-26.57,17.57-26.57,8.43,31.36,11.43,31,3.93-15.93,4.43-17.43,3.36-3.78,3.36-3.78,1.85,9.5,3.92,9.28,1.93-7.64,3.08-7.64,3.28,15.07,6,14.57,4.28-15.57,4.5-17.93,4.14-8.35,4.14-8.35,7.14,28.78,9.28,28.64,2.65-3.57,3.08-6.86c1.78,2.22,6.35,2.36,6.35,2.36s1.57,17.14,6,17.14,2.43-28.14,4.15-28.71,5,23.43,7.85,23.43c2.12,0,3.3-11.37,4.29-20.71l-.29.1c-5.38,1.45-7-26.57-9.16-26.57s-1.84,1.89-4.41,1.89-5.86-22-8-21.86-1,39.29-10,39.43-10-39.86-11.71-39.86-3,9-9.29,8.58-8.28-8.43-11.14-7-2.72,39.5-8.29,38.85-2.35-24.85-16.93-24.64-19.71,25.93-14.78,44.36,22.07,28.71,22.07,28.71c-7.07,38.14,9,55.14,10.29,56.79s.64,3.78.35,17.35,3.72,18.43,9,21.72,8,28.43,12.72,27.36,1.07-12,6.21-12.22,9.22,33.86,18,32.57c7.2-1.05,10.95-13.62,14.66-18.71C481.46,267.46,475.6,259.38,474.43,258.93Z"/><path class="cls-2" d="M166.57,54.65s-6.14,22.86-6.43,26.71-1.14,25.72-4.28,26-4.25-15-6.72-21.57a99,99,0,0,1-4.5-14.36c-.64-3.21-3.79-26-19.78-25.64-26.29.57-29.29,66.79-35.72,67.86s-7-24.32-8.78-24.32S78.54,118,77,118.15s-6.22-12-7.29-11.89c-.21,3.75-2.61,34.25-24.46,29.39-1.86,2-8.72,20.57,7,30.28s10.28,16.29-1.58,28.58-5.14,23.28,3.86,28.42S89.14,239.65,77.36,272c2.35,1.07,19.78-6.08,28.07,1.64s18.57,6.86,23,3.14,7.28-8.57,12.71-8.28,18.72,23,36.43,22.57,42.43-12.15,53.57-12.57c5.43,2.28,16.15,5.17,27,3.35s27.21.86,32.57,2.25,9.86-2.25,9.75-7.82,1.28-11.78,10.39-9.53,18.64,4,20.68,2.35,7.93-13.93,13.5-14.25,8.79,9.22,19,8,27.33-18.82,24.9-34.25-6.15-25.43-11.18-28c.11-1.5,3.86-3.7,4.82-4.93s11.25-15.43,10.18-26.68-6.64-18.53-14.25-19.82c1.28-2.25,11.25-14.36,1.5-23.89s-17.25-9.86-18.32-6.43-3.11,8.82-6,8.75-7.46-23.54-12.61-23.54-6.53,25.4-8.67,25.5S327.64,105,325.71,105s-1.92,14.68-4.39,14.79S314.93,95.22,313,95.22s-2.36,9.07-4.93,9.21-6.71-7.42-8.64-7.28-2.14,26.43-6.36,26.5-7.93-28.07-10.36-28.07,1.75,14.1-6.82,12.5c-1.07,3.64-1.6,10.34-3.59,10.39s-7.8-27-10-26.75-1.79,15.57-4.15,15.57-9.57-29.53-12.35-29.53-.65,17.35-5.25,17.57-1.08-9.75-4.08-9.75-1.82,8.57-4.28,8.68-4.29-14.79-6.32-15.11-3.22,11.46-11,11.36-6.11-11.58-8.14-11.58-.86,16.5-4.61,17.15-5.57-17.15-7.5-17.47l-1.93-.32s1.29,7.5-1.39,7.82-4.88-15.91-6.54-15.69-2.46,23.09-6.1,23.09-11.79-38.15-11.79-38.15"/><path class="cls-3" d="M369.14,259.51s-7.32-4.43-11.18-5.83-13.5-2.14-15.64-8.35-.11-7.61-1.28-7.72-1.4,8.68-3,9.32-1.4-18.85-3.43-18.85-.32,21.1-14.25,29.78-30.11,5.57-31.5,1.4-2.25-20.15-4.18-20.15-3.75,18.86-5.79,19.4-.64-35.15-4.6-35.15-7,31.4-9.11,35-5.14,8.68-8.57,9.86-16.18,4.6-20.25,1.71-3.11-15.32-5.36-15.64-1,4-2.14,4.39-.43-17.89-3.11-17.89-4.39,28.6-7.29,28.82-.53-18.32-3.53-18.11-2.57,19.72-5.36,20.47,0-8.47-1.61-8.47-2,12.22-10.17,15.75-15,4.07-17.9.11S178.18,266.33,176,266s-2,11.35-3.86,11.78-.43-9.32-2.25-9.32-1.82,9-4.07,9.11-11.9-7-13-12.65-2.78-36.32-5.46-36.53-3.86,23.46-7,24.11.65-12.33-1.82-12.33-3,17.47-8.78,22-20.25,5.14-25.93-2.79-2-22.39-3.43-23.14-15.86,2.46-18.32-13.71c-3.86-1-15.64-2.79-16.82-15.86s8.46-20.79,8.57-28.82-9-15.43-7.39-29.15,20.25-26.57,23.35-26,3.43,5.68,3.43,7-.43,8.15,1.29,8.25,1.39-8,3.1-8.25,3.22,17,5.25,17.68.75-5.14,1-7.82-2.14-63.11,15.43-70.18,12.21,42.43,19.28,43.07,0-16.93,3.86-16.71.64,9.43,3.21,10.28,2.58-22.07,18.65-26.14,18.21,1.5,22.5,8.79,8.14,32.35,12,32.93,2.85-19.72,5.14-19.43,1,11.43,3.43,11.28,3.43-28.43,6-28.43,17-5.71,28,18.43c2.14,8.57,3.14,19.57,6,19.86s.28-11.86,2.71-11.71,2.29,25.28,7.15,25.57,5.42-43.29,7.71-44,22.29,0,22.29,0l11.14,15s1.86,25.57,5.43,26.14.85-19.57,3-20,2.43,38.86,9,39.29,2.43-30,5.28-30,2,17.14,6,17.42,4.15-14.71,5.86-14.71,6.43,3.86,8.14,8.29S345,166.79,350,167.79s6.14-32.71,8.14-32.71,1.72,9.85,3.86,10.57,5-17.43,15.86-24.86c6.28,6.57,13,26.43,13,26.43l4.85,43.43-3.14,51.43-18.28,20Z"/><path class="cls-4" d="M369.14,259.51s-7.32-4.43-11.18-5.83-13.5-2.14-15.64-8.35-.11-7.61-1.28-7.72-1.4,8.68-3,9.32-1.4-18.85-3.43-18.85-.32,21.1-14.25,29.78-30.11,5.57-31.5,1.4-2.25-20.15-4.18-20.15-3.75,18.86-5.79,19.4-.64-35.15-4.6-35.15-7,31.4-9.11,35-5.14,8.68-8.57,9.86-16.18,4.6-20.25,1.71-3.11-15.32-5.36-15.64-1,4-2.14,4.39-.43-17.89-3.11-17.89-4.39,28.6-7.29,28.82-.53-18.32-3.53-18.11-2.57,19.72-5.36,20.47,0-8.47-1.61-8.47-2,12.22-10.17,15.75-15,4.07-17.9.11S178.18,266.33,176,266s-2,11.35-3.86,11.78-.43-9.32-2.25-9.32-1.82,9-4.07,9.11-11.9-7-13-12.65-2.78-36.32-5.46-36.53-3.86,23.46-7,24.11.65-12.33-1.82-12.33-3,17.47-8.78,22-20.25,5.14-25.93-2.79-2-22.39-3.43-23.14-15.86,2.46-18.32-13.71c-3.86-1-15.64-2.79-16.82-15.86s8.46-20.79,8.57-28.82-9-15.43-7.39-29.15,20.25-26.57,23.35-26,3.43,5.68,3.43,7-.43,8.15,1.29,8.25,1.39-8,3.1-8.25,3.22,17,5.25,17.68.75-5.14,1-7.82-2.14-63.11,15.43-70.18,12.21,42.43,19.28,43.07,0-16.93,3.86-16.71.64,9.43,3.21,10.28,2.58-22.07,18.65-26.14,18.21,1.5,22.5,8.79,8.14,32.35,12,32.93,2.85-19.72,5.14-19.43,1,11.43,3.43,11.28,3.43-28.43,6-28.43,17-5.71,28,18.43c2.14,8.57,3.14,19.57,6,19.86s.28-11.86,2.71-11.71,2.29,25.28,7.15,25.57,5.42-43.29,7.71-44,22.29,0,22.29,0l11.14,15s1.86,25.57,5.43,26.14.85-19.57,3-20,2.43,38.86,9,39.29,2.43-30,5.28-30,2,17.14,6,17.42,4.15-14.71,5.86-14.71,6.43,3.86,8.14,8.29S345,166.79,350,167.79s6.14-32.71,8.14-32.71,1.72,9.85,3.86,10.57,5-17.43,15.86-24.86c6.28,6.57,13,26.43,13,26.43l4.85,43.43-3.14,51.43-18.28,20Z"/><path class="cls-5" d="M385.93,260.43s-18.32-8.14-23.68-10.5-31.93-13.17-41.89-4.07-17.9,6.43-23,4.29-19.93-5.79-27.75.64c-1.39-.86-3.43-7.18-5.46-7.39s-3.54,7.71-16.93,7.28-9.22-16.5-9.75-17.25-4.72-5.89-4-9.42,2.68-5.47,2.25-7.4-5.46-3.21-8.14-3.1-16.18,8.57-22.28,23.25-25.4,16.28-34,15-27.43-9.65-30.53-22.72-4.93-37.39-6.65-37.71-4.28,21-6.64,20.57-20.36-11.54-19.36-31.39,8.43-30.22,10.15-30.72c-1.22-1.43-16.61-19.32.75-34.64s33,3.64,34.17,10.61,2.29,7.1,3,6.89,2.47-11.93,2.79-15.14.86-19,2-19.29,3.1,18.75,5.57,19.39,1.71-20.14,4.71-22.07,8.57-4.5,13.39-1.71,17.9,3.85,17.9,3.85,13.44-.48,15.59,2,4,16.69,6.59,16.48.71-14.07,2.28-14.07,2.07,5.43,3.29,5.57,1.07-8.29,2.5-8.72,8.35.29,13.14,4.29,42.86,4.43,42.86,4.43l55.93,2.57,45.85,16.29,17.15,32.57v36l-1.93,42-13.5,14.35Z"/><path class="cls-6" d="M386.57,132.79s-18.71.14-23.14,3.29c-5.72-2.86-18.29-2.86-18.29-2.86l-16.28-12.14-12.86.85-8.29-10.71L301,116.65s-27-3-36.57-2.29-33.57-.14-34.86,1.43-4,36-6.86,35.57-2-22.57-4.28-22.85-1.72,10.71-3.86,11.14-1-12.57-4-12.29-3.71,20.57-8.14,20.72-.72-15.29-2.72-15.86-4,7.29-5.57,8.14-15.28.29-18.43,7.29-3.53,19.78.75,24.07c-5.35-.32-26.67-1.93-28.07,16.71s7.4,24.22,12.65,24.43c2.14,3.43,6,13.07,15.32,13.82s15.32-2.35,17.78-5.78c2.25,3.75,6.22,21.32,46.93,13.61,5.79-2.15,11.57-2.08,13.5-1.58s18,4.25,21.43-5.39,2.79-13,4.93-13.07,3.53,15.32,7.18,18.86,11.14,10.71,25,6.1,12.86-28,17.14-28.71,4.72,12.32,6,12.64,3.54,5.47,4.08,7.72,5.67,10.28,12.53,10.82,19.93,3,28-8.68,20.07-4.43,20.07-4.43l5.43-45.71-7.72-34.29Z"/><path class="cls-7" d="M551.57,141.51c.57-27.86-22.71-67.72-41.57-84S445.12,22,427.14,22.93C380,25.51,382.71,59.22,328.29,59.65,270,60.11,213-2.49,141.86.08S0,138.08,0,203.22,152.54,345.86,197.14,345.51c53.57-.43,100.29-46.29,155.15-45.43s115.41,41.53,167.14-5.57c48-43.72,23.14-68.58,22.71-101.15C541.7,159.5,551.14,162.51,551.57,141.51ZM400.5,204.29c-1.29,22.72-13.64,30.36-13.64,30.36.85,33.14-27.72,49.14-32,50.28s-12.43-7.14-14.57-7.42-3.43,2.85-5.29,3.85-10-4.14-16.14-2.14-4.86,9.43-7,14.57c-3-5.71-10.15-7.43-15-5.57s-1.43,17-6.57,17.71-8-23-13.15-23.57-4,15-14.57,15.86-6.45-37.37-14.71-36.71c-6.79.53,1.68,37-30.29,44.85-21.11,5.21-11.28-8.85-25.28-9.28s-9.86,5.57-20,6-17.43-9.86-19.72-13-8.86-5.72-20.28-.29-20.15,1.43-23.58-.57c-7,4.86-18,2.57-27.85-4.86s-11-21.57-12.07-26.5c-49.93-.21-39.65-33.43-39-39.85-18.22-13.5,3.92-36.08,7.92-44.79s-1-14.57-5.57-17.57c-3.85-2.72-4.07-15-.64-23.57s21-7.29,28.93-16.93,2.14-21.22,5.43-34.64,10-12.15,16.85-14.29,15.65-13,22.4-25.32S126.64,22.58,137,27.18s8.39,25.33,11.1,33.61,6.25,2.82,7.11,1,4.71-27.11,6.21-36.21,8.79-7.4,13.18-7.4,8,4.5,9.22,7S193.5,66.72,201,66.51s16.5-29.79,16.82-31.29,4.93-5.14,5.89,2,20.47,2.78,23.58,2.67c0,9,3.64,15.75,9.42,17.25s4.83-2.25,8.9-2.14,8.25,28.82,14,28.82,4.72-20.57,10.5-19.71S301,117.22,308,117.22s8-41.86,17.14-40.14,2.29,22.14,7.72,22.57,9.71-14.43,12.57-14.29,3.21,13.07,8.36,20.36,20.35,2.57,32.35,21.64,7.29,27.86,7.72,40.93S401.79,181.58,400.5,204.29ZM543,252.51c-1.5,13.28-24.43,29.78-33.43,26.78s-12.64-11.78-17.36-10.71-8.35,19.5-17.14,20.78-12.86-32.78-18-32.57-1.5,11.14-6.21,12.22-7.43-24.08-12.72-27.36-9.28-8.14-9-21.72.93-15.71-.35-17.35-17.36-18.65-10.29-56.79c0,0-17.14-10.28-22.07-28.71s.21-44.15,14.78-44.36,11.36,24,16.93,24.64,5.43-37.43,8.29-38.85,4.86,6.57,11.14,7,7.57-8.58,9.29-8.58,2.71,40,11.71,39.86,7.86-39.28,10-39.43,5.43,21.86,8,21.86,2.22-1.89,4.41-1.89,3.78,28,9.16,26.57c11-3,3.57-30.54,7.29-32.82s25.43,34.71,27.14,72.43-24.28,43.14-23.43,56.85S544.5,239.22,543,252.51Z"/><path class="cls-8" d="M231.14,278.51c-11.14.42-35.85,12.14-53.57,12.57s-31-22.29-36.43-22.57-8.28,4.57-12.71,8.28-14.72,4.57-23-3.14-25.72-.57-28.07-1.64c11.78-32.36-13.79-43.93-22.79-49.08s-15.71-16.14-3.86-28.42S68,175.65,52.29,165.93s-8.86-28.28-7-30.28c21.85,4.86,24.25-25.64,24.46-29.39,1.07-.11,5.79,12,7.29,11.89s1.5-28.82,3.32-28.82,2.35,25.39,8.78,24.32,9.43-67.29,35.72-67.86c16-.35,19.14,22.43,19.78,25.64a99,99,0,0,0,4.5,14.36c2.47,6.54,3.57,21.86,6.72,21.57s4-22.14,4.28-26,6.43-26.71,6.43-26.71l.25.71S175,93.51,178.61,93.51s4.44-22.88,6.1-23.09,3.86,16,6.54,15.69,1.39-7.82,1.39-7.82l1.93.32c1.93.32,3.75,18.11,7.5,17.47s2.57-17.15,4.61-17.15.32,11.47,8.14,11.58,9-11.68,11-11.36,3.85,15.21,6.32,15.11,1.28-8.68,4.28-8.68-.53,10,4.08,9.75,2.46-17.57,5.25-17.57,10,29.53,12.35,29.53,1.93-15.28,4.15-15.57,8,26.8,10,26.75,2.52-6.75,3.59-10.39c8.57,1.6,4.4-12.5,6.82-12.5s6.15,28.14,10.36,28.07,4.43-26.36,6.36-26.5a1.31,1.31,0,0,1,.59.16c-3.4-14.85-6.52-32.66-9.88-33.16-5.78-.86-4.71,19.71-10.5,19.71s-10-28.71-14-28.82-3.11,3.64-8.9,2.14-9.42-8.25-9.42-17.25c-3.11.11-22.61,4.5-23.58-2.67s-5.57-3.54-5.89-2S208.5,66.29,201,66.51s-16-38.9-17.14-41.36-4.82-7-9.22-7-11.68-1.71-13.18,7.4S156.11,60,155.25,61.79s-4.39,7.29-7.11-1-.71-29-11.1-33.61-25.18,1.4-31.93,13.72S89.57,64.08,82.71,66.22s-13.57.86-16.85,14.29,2.5,25-5.43,34.64-25.5,8.36-28.93,16.93-3.21,20.85.64,23.57c4.57,3,9.57,8.86,5.57,17.57S11.57,204.51,29.79,218c-.65,6.42-10.93,39.64,39,39.85,1.07,4.93,2.21,19.07,12.07,26.5s20.85,9.72,27.85,4.86c3.43,2,12.15,6,23.58.57s18-2.86,20.28.29,9.57,13.43,19.72,13,6-6.43,20-6,4.17,14.49,25.28,9.28c15.75-3.89,21.68-14.7,24.46-24.74A53.15,53.15,0,0,1,231.14,278.51Z"/><path class="cls-2" d="M364,262.9c-10.17,1.18-13.39-8.36-19-8s-11.46,12.65-13.5,14.25-11.57-.1-20.68-2.35-10.5,4-10.39,9.53-4.39,9.22-9.75,7.82-21.75-4.07-32.57-2.25c-1.15.2-2.29.32-3.42.42,1.28,8.52,3,16.33,7.88,15.94,10.57-.86,9.43-16.43,14.57-15.86s8,24.29,13.15,23.57,1.71-15.85,6.57-17.71,12-.14,15,5.57c2.14-5.14.85-12.57,7-14.57s14.28,3.14,16.14,2.14,3.14-4.14,5.29-3.85,10.28,8.57,14.57,7.42c3.92-1,28.21-14.57,31.61-42.3C381.62,253.18,371.09,262.07,364,262.9Z"/><path class="cls-2" d="M386.14,127.36c-12-19.07-27.21-14.35-32.35-21.64s-5.5-20.21-8.36-20.36-7.14,14.72-12.57,14.29,1.43-20.86-7.72-22.57c-5.08-1-7.65,11.55-10.13,22.86,2,7.14,4.54,19.89,6.31,19.82,2.47-.11,2.47-14.79,4.39-14.79s6.43,24.75,8.58,24.64,3.53-25.5,8.67-25.5,9.68,23.47,12.61,23.54,5-5.32,6-8.75,8.57-3.11,18.32,6.43-.22,21.64-1.5,23.89c7.61,1.29,13.18,8.57,14.25,19.82s-9.22,25.45-10.18,26.68-4.71,3.43-4.82,4.93c5,2.57,8.75,12.57,11.18,28a19.84,19.84,0,0,1,.19,4.22c3.61-3.37,10.51-11.92,11.45-28.58,1.29-22.71-6.21-22.93-6.64-36S398.14,146.43,386.14,127.36Z"/></g></g></svg>