<svg xmlns="http://www.w3.org/2000/svg" xmlns:xlink="http://www.w3.org/1999/xlink" viewBox="0 0 828.63 623.69"><defs><style>.cls-1{fill:#333;}.cls-2{fill:#1a1a1a;}.cls-3{fill:#fff;}.cls-4{fill:#008b9a;}.cls-5{fill:url(#Degradado_sin_nombre_10);}.cls-6{fill:url(#Degradado_sin_nombre_10-2);}.cls-7{fill:url(#Degradado_sin_nombre_69);}.cls-8{fill:#969696;}.cls-9{fill:url(#Degradado_sin_nombre_10-3);}.cls-10{fill:gray;}.cls-11{fill:#cacaca;}.cls-12{fill:url(#Degradado_sin_nombre_10-4);}.cls-13{fill:url(#Degradado_sin_nombre_28);}.cls-14{fill:url(#Degradado_sin_nombre_10-5);}.cls-15{fill:#002432;}.cls-16{fill:url(#Degradado_sin_nombre_19);}.cls-17{fill:url(#Degradado_sin_nombre_19-2);}.cls-18{fill:url(#Degradado_sin_nombre_10-6);}.cls-19{fill:#548081;}.cls-20{fill:#666;}.cls-21{fill:#4999b0;}.cls-22{fill:#306845;}.cls-23{fill:#99b5a7;}.cls-24{fill:#c1633d;}.cls-25{fill:#d1d1d1;}.cls-26,.cls-27{fill:none;stroke:#d1d1d1;stroke-miterlimit:10;}.cls-26{stroke-width:0.17px;}.cls-27{stroke-width:0.11px;}</style><linearGradient id="Degradado_sin_nombre_10" x1="608.06" y1="409.74" x2="608.06" y2="246.87" gradientUnits="userSpaceOnUse"><stop offset="0.11" stop-color="#ff72b3"/><stop offset="0.83" stop-color="#8044a4"/></linearGradient><linearGradient id="Degradado_sin_nombre_10-2" x1="113.06" y1="-4566.14" x2="113.06" y2="-4751.85" gradientTransform="matrix(0.84, -0.54, -0.54, -0.84, -1908.51, -3626.32)" xlink:href="#Degradado_sin_nombre_10"/><linearGradient id="Degradado_sin_nombre_69" x1="675.99" y1="125.2" x2="714.66" y2="125.2" gradientUnits="userSpaceOnUse"><stop offset="0" stop-color="#2980ac"/><stop offset="0.99" stop-color="#2e3180"/></linearGradient><linearGradient id="Degradado_sin_nombre_10-3" x1="668.17" y1="123.72" x2="678.85" y2="123.72" xlink:href="#Degradado_sin_nombre_10"/><linearGradient id="Degradado_sin_nombre_10-4" x1="11340.07" y1="7904.58" x2="11049.34" y2="7781.08" gradientTransform="matrix(-0.37, -0.93, -0.93, 0.37, 11816.89, 7743.88)" xlink:href="#Degradado_sin_nombre_10"/><linearGradient id="Degradado_sin_nombre_28" x1="436.37" y1="576.55" x2="436.37" y2="7.04" gradientUnits="userSpaceOnUse"><stop offset="0" stop-color="#ff72b3"/><stop offset="1" stop-color="#8026a4"/></linearGradient><linearGradient id="Degradado_sin_nombre_10-5" x1="11460.04" y1="7928.95" x2="11480.42" y2="7928.95" gradientTransform="translate(9077.91 -10686.87) rotate(92.47)" xlink:href="#Degradado_sin_nombre_10"/><linearGradient id="Degradado_sin_nombre_19" x1="350.68" y1="321.56" x2="666.17" y2="321.56" gradientUnits="userSpaceOnUse"><stop offset="0" stop-color="#042836"/><stop offset="1" stop-color="#548081"/></linearGradient><linearGradient id="Degradado_sin_nombre_19-2" x1="508.42" y1="576.51" x2="508.42" y2="82.35" xlink:href="#Degradado_sin_nombre_19"/><linearGradient id="Degradado_sin_nombre_10-6" x1="311.15" y1="151.41" x2="326.82" y2="145.08" xlink:href="#Degradado_sin_nombre_10"/></defs><title>1Recurso 132blog</title><g id="Capa_2" data-name="Capa 2"><g id="Capa_1-2" data-name="Capa 1"><path class="cls-1" d="M102.6,403.67l55.13-2.78a2.53,2.53,0,0,0,2.53-2.53v-214a2.53,2.53,0,0,0-2.53-2.53L17.59,189a2.53,2.53,0,0,0-2.53,2.53v214a2.53,2.53,0,0,0,2.53,2.53l51.73-2.36.16,45h32.86ZM152.7,189V392.88L21.79,400.05V196.19Z"/><polygon class="cls-2" points="815.77 454.28 0 454.28 0 623.69 13.75 621.55 13.75 471.99 815.77 471.99 815.77 454.28"/><polygon class="cls-1" points="414.28 441.47 413.98 435.75 406.75 435.75 406.49 441.47 405.37 441.47 405.07 435.75 397.85 435.75 397.59 441.47 396 441.47 395.7 435.75 386.19 435.75 385.92 441.47 379.29 441.47 378.99 435.75 369.47 435.75 369.21 441.47 368.04 441.47 367.74 435.75 358.22 435.75 357.96 441.47 356.48 441.47 356.18 435.75 346.66 435.75 346.4 441.47 342.09 441.47 341.79 435.75 330 435.75 329.74 441.47 328.24 441.47 327.94 435.75 316.15 435.75 315.88 441.47 314.39 441.47 314.09 435.75 302.3 435.75 302.03 441.47 300.54 441.47 300.24 435.75 288.44 435.75 288.18 441.47 286.6 441.47 286.3 435.75 233.87 435.75 233.61 441.47 232.38 441.47 232.08 435.75 220.28 435.75 220.02 441.47 218.73 441.47 218.43 435.75 206.64 435.75 206.37 441.47 204.46 441.47 204.16 435.75 192.37 435.75 192.11 441.47 186.63 441.47 186.63 450.74 418.87 450.74 418.87 441.47 414.28 441.47"/><rect class="cls-3" x="178.03" y="152.26" width="331.34" height="212.77"/><image width="2235" height="1106" transform="translate(175.85 201.61) scale(0.16)" xlink:href="../img/1Recurso%20117SCREEN1.jpg"/><rect class="cls-4" x="177.81" y="360.69" width="62.07" height="4.79"/><path class="cls-1" d="M517,141.33H169.12a4.11,4.11,0,0,0-4.11,4.11V373.21a4.11,4.11,0,0,0,4.11,4.11H325.5v50.2h35.61v-50.2H517a4.11,4.11,0,0,0,4.11-4.11V145.44A4.11,4.11,0,0,0,517,141.33ZM509.37,365H178V152.26H509.37Z"/><path class="cls-5" d="M525,299.63s25.7,11,42.71,14.61,47.69,12.76,50,14.82,4.13,4.12,3.87,7,6.44,8.72,10.74,8.21c2.75-.26,4.38-.78,4.9,0s.77,5.15,2.06,7.3,2.32,5.84.17,6.44-8.33.61-10.4,4.82-3.09,13.83.13,18c1.81,1.67.82,4.21-.64,4.38s-2.75,1.55-3.61.94-12-4.29-21,5c-2.19,1.8-5.16.26-6.44-1.55s-6.58-4.51-11.35-4a17,17,0,0,0-8.55,4c.35,4.3-12.72-6.53-13.06,2.24s19.35,16.06,26.3,17c10.65,1.46,57.57.86,57.57.86,55.68,2.58,44.85-63.93,33.77-84.81l-.13-.22c-11.09-20.88-40-22.69-68.32-30.42S567,278.45,563.37,276c-3.44-2.41-28.92-21.27-34.07-29.17Z"/><path class="cls-6" d="M599.3,326.7c14.31,23.09,38.3,80.82,46.21,35.32,7.11-40.87,36.56-70.83,70.08-71.36S816.47,285.55,826,262s-8.1-45.65-34.48-63.65-51.72-21.66-62.86-39.81-7.61-38.83-9.88-40.68L716.52,116s-10.32,7.63-10.95,12.41-3,17.23-5.23,20.86S695.9,161.57,701,167s7.47,4.58,9.69,8.66-4.3,11.67,1.16,16.25,13.53,7.5,16.32,7,5.59-1,6.28.41.8,9.9,4.86,12.27,8,4.59,10.8,4.66,10.61,2,10.09,4.38-1.07,7.53-3.49,7.33-7.95-1.17-10.7-.17-8.12,3.33-8.61,6.74c-3.2-.44-10.92-2.82-11.74-4.13s-8.1-7.78-11.64-7.6-14.46,2-18.78,8.61c-14.05,3.48-22.46-2.88-29.24,1.42s-10.65,8.27-11.45,11.82c-2.73,1.85-7.1,3.4-9.26,1.72s-14-6.13-23.33,4.31-5.7,13.48-8.83,15.46-13.89-4.9-24.73,3.07-15.64,18.85-15.45,22-2.32,5.85-4.37,5.5-10.44-3.79-10.44-3.79L555.28,295S587.93,308.37,599.3,326.7Z"/><path class="cls-2" d="M681,89.21h31.1a4.69,4.69,0,0,1,4.72,4.89s-1.22,11.06-1.22,26.21c0,15.56-3.11,19.39-3.11,24.66,0,3.5,2.11,12.67,2.11,12.67a5.09,5.09,0,0,1-5.06,4.88h-31.1a4.69,4.69,0,0,1-4.72-4.88l2.22-63.54A5.11,5.11,0,0,1,681,89.21Z"/><path class="cls-7" d="M713.1,96.33l-33.87.1a1.55,1.55,0,0,0-1.55,1.51L676,152.47a1.57,1.57,0,0,0,1.56,1.61l33.61-.1a1.56,1.56,0,0,0,1.55-1.51l1.95-54.54A1.55,1.55,0,0,0,713.1,96.33Z"/><rect class="cls-8" x="686.88" y="93.06" width="17.53" height="0.81" rx="0.17"/><path class="cls-9" d="M673.69,138.89s2.83-.33,3.49-2,1.67-11.66,1.67-14-1.33-13.33-3.16-14.33c-.89-.49-7.26,9.83-7.5,14.66C667.85,129.89,672,137.06,673.69,138.89Z"/><path d="M635.44,450.64h56.21s-.91-15-38-15C639.72,435.64,635.44,450.64,635.44,450.64Z"/><path class="cls-10" d="M302.63,136.6c-24-.54-29.2,3.11-29.2,3.11s.83,13.91,1,16.16c-.38,0-.8-2-6.3-2.68s-10.82,7-10.95,11.5,3.68,10,8.59,12.91a87.9,87.9,0,0,1,11.69,8.49c.38.54.51,9.31,5.68,18.48s9.76,11.32,17.88,11.14,11.73-3.29,14-6.94,3.66-3.79,7-17.05,5.66-51.37,5.66-51.37C327.63,138.52,326.6,137.15,302.63,136.6Zm-27.22,44.59c-1.23-.92-2.88-2.93-4.74-3.9s-8.88-5.42-8.37-12,4.36-8.46,5.29-8.83a19.81,19.81,0,0,1,4.77-.3A3.08,3.08,0,0,1,274.6,159l1.9,21.79S276.63,182.1,275.41,181.19Z"/><path class="cls-3" d="M275.71,139.94c0,.95,9.1,1.69,25.27,1.5s25.55-.41,25.59-1.37-11-2.4-26.22-2.16S275.77,138.8,275.71,139.94Z"/><path class="cls-11" d="M320.64,196.8c.42-1.45.86-3.12,1.35-5.08,3.3-13.27,5.66-51.37,5.66-51.37,0-1.83,3.39,4-33.64,2.8a179.78,179.78,0,0,0,8.49,48C308.84,210.19,320.64,196.8,320.64,196.8Z"/><path d="M323,186.54c-3.73,12.35-6.33,16.56-10.77,21.73s-11.8,4.32-11.8,4.32l-4.73-.49c-4.74-.48-7.74-3.95-11.71-10.28s-6.64-25.93-7.36-32.14-3.24-30-3.24-30,.83,13.91,1,16.16c-.38,0-.8-2-6.3-2.68s-10.82,7-10.95,11.5,3.68,10,8.59,12.91a87.9,87.9,0,0,1,11.69,8.49c.38.54.51,9.31,5.68,18.48s9.76,11.32,17.88,11.14,11.73-3.29,14-6.94,3.66-3.79,7-17.05C322.35,190.26,323.6,184.68,323,186.54Zm-47.63-5.35c-1.23-.92-2.88-2.93-4.74-3.9s-8.88-5.42-8.37-12,4.36-8.46,5.29-8.83a19.81,19.81,0,0,1,4.77-.3A3.08,3.08,0,0,1,274.6,159l1.9,21.79S276.63,182.1,275.41,181.19Z"/><path class="cls-12" d="M280,197.48c-.37-1.38,7-1.67,8.25.28,2.37,3.76,8,4.67,11,1.29s.53-6.88,2.93-6.5,5.08-.62,6-.44,1.26.45,2,3c1.1,4,2.62,5.79,7.22,5.67,2.76-.07,6.45-.84,9.28.19,17.36,6.31-1.7,35.82,26,55,13,9-10,64.07,2.47,123.18,6,28.67,15.17,79.52,59.54,82.31L419.1,437l8.35-50.31c-34.16-.75-18.81-136.62-40.53-167.81-16.29-23.39-41.81-52.76-72.1-56.36l-.37,0c-22.8-2.38-67.16,1.44-64.11,25.68.88,6.94,7,16,31.86,14.64A19,19,0,0,1,280,197.48Z"/><path class="cls-13" d="M420.42,316.41c-10.86,48.93-75.27,42.4-91.93,26.57-15.15-14.39-45-24-57.43-14.14s-32.71,40.41-23.92,58.27,19.06,18,19.06,31.24c0,15.68-9.17,9-9.4,11.22a12.13,12.13,0,0,0,.83,4.48s12.7.84,14.5-1.56a35,35,0,0,1,4.61-5.62c2.5-2.29,7.27-1.64,7.19-6.1s-4.26-5.38-3.88-8.25c.56-4.28,3.09-4.93,2.18-8.44-.83-3.22-5.34-2.38-5.72-4.06-.73-3.23,2.25-4.76,2.39-6.77.18-2.56-2.24-2.75-3.17-5.52-1.2-3.54,3.46-2.49,5.46-6.24,1.67-3.13-2.1-6.11-1.56-7.5.94-2.4,4.9-1.58,6.15-.73s0,4.79,3.33,7.7c3,2.59,8-.69,9.27-2.39,1.6,1.22,5.2,1.14,6.25,3.85.34.9.83,7.34,2.81,8.33s5,5.19,9.37,2.92c8.69,2.42,3.53,8.79,8.12,12.29,4.38,3.33,11.6,2.28,13.12.6,2.05-.17,4.9.33,5.56,1.91a11.51,11.51,0,0,0,14,4.82c8.24-2.81,7.24-5.56,9.54-5.67s6,6.92,14.35,5.93,16.95-9.46,17.82-11.24a14.72,14.72,0,0,1,3-3l4.65,2.61,4.06,2.5,1.14,6.45s-1.32,38.18-4.27,43.22c0,0-23.53,48-47.9,34s-56.45,14.78-64.36,25.62c-11.37,15.54-16.46,35.82,3.95,60.82l51.16,2,9.25.09,114.14-2.5s52.07-26.24,52.07-32.91,54.77-178.41,54.77-178.41c-3.49-11.5-4.65-37.29-6.71-48.89A111.43,111.43,0,0,0,555.77,270c-11.2-16.13-14.66-27.06-15.06-29.26a15.4,15.4,0,0,1,1.08-7.27c.7-1.48,20.29-4.48,47.8-16.63s36-34.15,37.85-48.29-5-26.91-9.72-36.69-8.24-26.16-13.46-50-28-43.22-39.22-51.65S529.49,7.3,488.39,7,413.59,51.84,402,61.66s-20.34,34.9-32.22,54.24-11.11,34.7-6.78,49.63,17.66,24.54,32.85,46.13,55,33.23,54.22,36.61-5,17.71-10.67,26.66c-5.53,8.64-17,17.55-18.57,36.76Z"/><path class="cls-14" d="M629.08,428.92s.45,6.07,3.94,7.64,15.63-4.82,28.72-4.26c18.71.81,29.7,13,32,9.19,1.11-1.85-19.13-19.85-29.4-20.81C650.16,419.35,633.14,425.54,629.08,428.92Z"/><path class="cls-15" d="M395.65,544.68s4.19-97.65,3-103.52-10.2-24-18.18-24.67c11.5-.71,39.58-.32,39.58-.32s-5.63,29.57-5.87,37.55-2.82,92.84-2.82,92.84Z"/><path class="cls-16" d="M350.68,576.46s181,1.64,268.74-13.85c6.57-12.2,29-55.06,27-126.27C643.36,327.44,667.3,334,666.12,280c-.91-42.26-22.29-38.49-28.16-126-4.81-71.74-19-88.71-56.33-87.31S525.42,79.29,520.37,123c-15,130.26-52.57,108.67-55.62,157-2.72,43.07,19.48,49.29,15.49,96.46-3.28,38.82-22.53,50-23.24,88s26.76,67.59,9.86,85.19C447.86,569.5,373.92,498.3,350.68,576.46Z"/><path class="cls-17" d="M350.68,576.46s181,1.64,268.74-13.85c6.57-12.2,29-55.06,27-126.27C643.36,327.44,667.3,334,666.12,280c-.91-42.26-22.29-38.49-28.16-126-4.81-71.74-27.93-72.05-57.5-71.58S532.86,101.6,531.64,142c-3.29,108.44-51.4,89.66-54.45,138-2.72,43.07,14.45,49.86,12.67,97.17-1.41,37.55-22.76,51.16-23.47,89.18s30,63.84,7.51,90.6C456.22,578,373.92,498.3,350.68,576.46Z"/><path class="cls-15" d="M453.48,413.85c-3.45-1.87-23.34-10.78-51.23-14.56a13,13,0,0,0-3,3c-.87,1.78-9.49,10.25-17.82,11.24s-12-6.05-14.35-5.93-1.3,2.86-9.54,5.67a11.51,11.51,0,0,1-14-4.82c-.47-1.13-2.07-1.7-3.69-1.87-5.63,3.67-7.87,7.41-7.72,9,.35,3.69,2.46,10,27.81,3.87s92.42-.35,92.42-.35S457.71,416.14,453.48,413.85Z"/><path class="cls-18" d="M326.27,159.54s-4.63-4.92-8.25-4.62-11.67-5.73-7.19-14.47,4.82-4.3,4.43-3.36-3.07,6-2.45,8.15,1.75,4.55,5.42,4.94,7.81-1,9.76.07,2.19,3.46,2.14,4.82S328.72,160.69,326.27,159.54Z"/><path class="cls-15" d="M423,135S417,7,498.55,7C535.63,7,563,21.78,580.38,43.35a113.05,113.05,0,0,1,15.1,18.21C583.18,33,556.46,0,498.65,0c-100.81,0-101,125.81-101,125.81Z"/><ellipse class="cls-15" cx="411.43" cy="152.47" rx="25.36" ry="39.37"/><ellipse class="cls-19" cx="407.14" cy="152.36" rx="18.96" ry="29.43"/><polygon class="cls-20" points="152.7 189.01 152.7 392.88 21.79 400.05 21.79 196.19 152.7 189.01"/><path class="cls-21" d="M36.62,210.76l-4.67.29v-1.7l4.66-.28Z"/><path class="cls-21" d="M36.61,204.64l-4.63.28c0-.68,0-1,0-1.7l4.61-.28C36.61,203.62,36.61,204,36.61,204.64Z"/><path class="cls-21" d="M36.5,214l-2.3.13v-1.69l2.29-.14C36.49,213,36.5,213.3,36.5,214Z"/><path class="cls-21" d="M42.08,260.68l-3.27.19c0-.67,0-1,0-1.69l3.27-.2C42.07,259.66,42.08,260,42.08,260.68Z"/><path class="cls-22" d="M59.19,259.64l-15.57.94c0-.68,0-1,0-1.69l15.57-.95C59.18,258.62,59.18,259,59.19,259.64Z"/><path class="cls-22" d="M55.66,203.58l-18.09,1.09V203l18.06-1.1C55.64,202.56,55.65,202.9,55.66,203.58Z"/><path class="cls-21" d="M40.59,216.84l-3,.18c0-.68,0-1,0-1.7l3-.18C40.58,215.82,40.58,216.16,40.59,216.84Z"/><path class="cls-21" d="M45.58,219.69l-3.63.22c0-.67,0-1,0-1.69l3.63-.22C45.57,218.68,45.57,219,45.58,219.69Z"/><path class="cls-21" d="M51.34,222.46l-4.16.25c0-.68,0-1,0-1.7l4.16-.25C51.33,221.44,51.33,221.78,51.34,222.46Z"/><path class="cls-21" d="M57.66,225.23l-4.59.27c0-.67,0-1,0-1.69l4.59-.28C57.65,224.21,57.65,224.55,57.66,225.23Z"/><path class="cls-21" d="M64.58,227.92l-4.95.3c0-.68,0-1,0-1.7l4.94-.3C64.56,226.9,64.57,227.24,64.58,227.92Z"/><path class="cls-21" d="M71.91,230.58l-5.21.32,0-1.7,5.2-.31C71.89,229.57,71.9,229.91,71.91,230.58Z"/><path class="cls-21" d="M40.79,263.85l-3.1.19c0-.68,0-1,0-1.7l3.1-.18C40.79,262.84,40.79,263.17,40.79,263.85Z"/><path class="cls-21" d="M45.91,266.7l-3.72.23c0-.68,0-1,0-1.7l3.71-.22C45.9,265.68,45.9,266,45.91,266.7Z"/><path class="cls-21" d="M51.77,269.46l-4.23.25c0-.68,0-1,0-1.69l4.23-.26C51.76,268.44,51.76,268.78,51.77,269.46Z"/><path class="cls-21" d="M58.18,272.22l-4.66.28c0-.68,0-1,0-1.69l4.65-.28C58.16,271.2,58.17,271.54,58.18,272.22Z"/><path class="cls-21" d="M65.15,274.91l-5,.3,0-1.69,5-.31C65.14,273.89,65.14,274.23,65.15,274.91Z"/><path class="cls-21" d="M72.53,277.57l-5.23.32c0-.68,0-1,0-1.69l5.24-.32C72.52,276.56,72.52,276.9,72.53,277.57Z"/><path class="cls-23" d="M48.18,216.38l-6.19.37c0-.67,0-1,0-1.69l6.18-.38C48.17,215.36,48.17,215.7,48.18,216.38Z"/><path class="cls-23" d="M42.77,213.6l-5.19.31v-1.7l5.17-.31C42.76,212.58,42.76,212.92,42.77,213.6Z"/><path class="cls-23" d="M60.7,221.86l-7.7.47c0-.68,0-1,0-1.7l7.69-.47C60.68,220.84,60.69,221.18,60.7,221.86Z"/><path class="cls-23" d="M54.12,219.15l-7,.42c0-.68,0-1,0-1.69l7-.43C54.11,218.13,54.11,218.47,54.12,219.15Z"/><path class="cls-23" d="M67.92,224.59l-8.25.5c0-.68,0-1,0-1.7l8.25-.5C67.91,223.57,67.91,223.91,67.92,224.59Z"/><path class="cls-23" d="M82.74,229.93l-8.87.54c0-.68,0-1,0-1.7l8.87-.54C82.72,228.91,82.73,229.25,82.74,229.93Z"/><path class="cls-23" d="M86.93,239.08l-9,.54c0-.68,0-1,0-1.7l8.94-.54C86.91,238.06,86.91,238.4,86.93,239.08Z"/><path class="cls-23" d="M75.2,227.27l-8.63.53,0-1.7,8.63-.52C75.18,226.26,75.19,226.6,75.2,227.27Z"/><path class="cls-23" d="M39.43,210.6l-1.89.11V209l1.88-.12C39.42,209.58,39.42,209.92,39.43,210.6Z"/><path class="cls-24" d="M46.77,210.15l-4.85.3c0-.68,0-1,0-1.7l4.85-.29C46.77,209.14,46.77,209.48,46.77,210.15Z"/><path class="cls-24" d="M57.69,215.76l-6.26.38c0-.68,0-1,0-1.69l6.26-.38C57.67,214.74,57.68,215.08,57.69,215.76Z"/><path class="cls-24" d="M92.36,213.66l-20.17,1.22c0-.67,0-1,0-1.69L92.33,212C92.34,212.65,92.35,213,92.36,213.66Z"/><path class="cls-24" d="M114,212.35l-19.33,1.17c0-.67,0-1,0-1.69L114,210.66C114,211.34,114,211.68,114,212.35Z"/><path class="cls-24" d="M77.62,224.12l-5.76.35c0-.68,0-1,0-1.69l5.77-.35C77.61,223.11,77.61,223.44,77.62,224.12Z"/><path class="cls-24" d="M85.07,226.69,79.2,227c0-.67,0-1,0-1.69L85,225C85.05,225.67,85.06,226,85.07,226.69Z"/><path class="cls-24" d="M90.94,226.33l-4,.24c0-.67,0-1,0-1.69l4-.24C90.92,225.32,90.93,225.66,90.94,226.33Z"/><path class="cls-24" d="M96.38,238.54l-5.18.32c0-.68,0-1,0-1.7l5.18-.31C96.36,237.52,96.37,237.86,96.38,238.54Z"/><path class="cls-24" d="M104,238.08l-5.13.31c0-.68,0-1,0-1.69l5.13-.31C103.94,237.07,104,237.4,104,238.08Z"/><path class="cls-24" d="M123.89,236.88l-4.24.25c0-.68,0-1,0-1.69l4.24-.26Z"/><path class="cls-24" d="M129.59,236.53l-3.76.23c0-.68,0-1,0-1.7l3.75-.23C129.58,235.51,129.58,235.85,129.59,236.53Z"/><path class="cls-24" d="M118,237.23l-11.74.71c0-.67,0-1,0-1.69l11.75-.71C118,236.22,118,236.55,118,237.23Z"/><path class="cls-24" d="M94.6,226.11l-2,.12c0-.68,0-1,0-1.69l2-.12C94.59,225.09,94.59,225.43,94.6,226.11Z"/><path class="cls-24" d="M68,218.25l-10,.61c0-.68,0-1,0-1.7l10-.61C68,217.23,68,217.57,68,218.25Z"/><path class="cls-24" d="M78.92,217.59l-8.75.53c0-.68,0-1,0-1.7l8.74-.53C78.9,216.57,78.91,216.91,78.92,217.59Z"/><path class="cls-24" d="M57.42,209.51l-8.85.54c0-.68,0-1,0-1.7l8.85-.54C57.41,208.49,57.42,208.83,57.42,209.51Z"/><path class="cls-24" d="M49.64,213.14l-4,.24v-1.7l4-.24C49.63,212.12,49.63,212.46,49.64,213.14Z"/><path class="cls-24" d="M64.38,212.25,51.46,213c0-.68,0-1,0-1.7l12.9-.78C64.36,211.23,64.37,211.57,64.38,212.25Z"/><path class="cls-24" d="M81.19,220.7l-16.35,1c0-.68,0-1,0-1.69l16.34-1Z"/><path class="cls-24" d="M101.82,228.79l-14.86.9,0-1.7,14.86-.9C101.8,227.77,101.81,228.11,101.82,228.79Z"/><path class="cls-24" d="M94.82,260.51l-18.49,1.11c0-.67,0-1,0-1.69l18.49-1.12Z"/><path class="cls-24" d="M83,267.66l-18.06,1.09c0-.68,0-1,0-1.69L82.93,266Z"/><path class="cls-24" d="M97.78,273,79.3,274.1c0-.68,0-1,0-1.7l18.48-1.11C97.76,272,97.77,272.3,97.78,273Z"/><path class="cls-24" d="M102.19,275.92l-14.36.87c0-.68,0-1,0-1.7l14.36-.87C102.17,274.9,102.18,275.24,102.19,275.92Z"/><path class="cls-24" d="M97.23,285.46l-6.78.41c0-.68,0-1,0-1.7l6.77-.41C97.21,284.44,97.22,284.78,97.23,285.46Z"/><path class="cls-24" d="M103.68,285.07l-4.48.27c0-.68,0-1,0-1.7l4.48-.27C103.67,284.05,103.67,284.39,103.68,285.07Z"/><path class="cls-24" d="M124.55,283.8l-4.32.26c0-.67,0-1,0-1.69l4.32-.26C124.54,282.79,124.54,283.13,124.55,283.8Z"/><path class="cls-24" d="M140.68,282.83l-3.29.2v-1.7l3.29-.2Z"/><path class="cls-24" d="M142.44,282.72l-1.25.08c0-.68,0-1,0-1.7l1.25-.08C142.45,281.7,142.45,282,142.44,282.72Z"/><path class="cls-24" d="M129.87,283.48l-3.82.23c0-.68,0-1,0-1.69l3.83-.23C129.86,282.46,129.86,282.8,129.87,283.48Z"/><path class="cls-24" d="M118.27,284.18l-11.73.71,0-1.69,11.74-.71C118.26,283.17,118.26,283.51,118.27,284.18Z"/><path class="cls-24" d="M118.1,275l-13.1.79c0-.68,0-1,0-1.7l13.11-.79C118.09,273.94,118.09,274.28,118.1,275Z"/><path class="cls-24" d="M61.64,262.51l-9.74.59c0-.67,0-1,0-1.69l9.74-.59C61.63,261.5,61.63,261.84,61.64,262.51Z"/><path class="cls-24" d="M68.82,265.33,58.4,266c0-.68,0-1,0-1.69l10.41-.63C68.8,264.31,68.81,264.65,68.82,265.33Z"/><path class="cls-24" d="M79.92,270.88l-8.9.54c0-.68,0-1,0-1.7l8.9-.53C79.9,269.86,79.91,270.2,79.92,270.88Z"/><path class="cls-24" d="M81.86,264.54l-11.14.68c0-.68,0-1,0-1.7l11.14-.67C81.84,263.52,81.85,263.86,81.86,264.54Z"/><path class="cls-24" d="M112.91,259.41l-15.45.94c0-.68,0-1,0-1.7l15.46-.94C112.9,258.39,112.9,258.73,112.91,259.41Z"/><path class="cls-24" d="M137.42,257.93l-22.53,1.36c0-.68,0-1,0-1.7l22.54-1.36C137.42,256.91,137.42,257.25,137.42,257.93Z"/><path class="cls-24" d="M116.05,227.92l-11.83.72c0-.68,0-1,0-1.7l11.82-.71C116,226.91,116,227.25,116.05,227.92Z"/><path class="cls-21" d="M69.8,215.14l-8.69.53c0-.68,0-1,0-1.7l8.69-.52C69.79,214.12,69.8,214.46,69.8,215.14Z"/><path class="cls-21" d="M68.49,243.42l5.26-.32c0-.68,0-1,0-1.7l-5.26.32C68.47,242.4,68.48,242.74,68.49,243.42Z"/><path class="cls-21" d="M61.33,247l5-.3c0-.68,0-1,0-1.7l-5,.31C61.32,246,61.33,246.35,61.33,247Z"/><path class="cls-21" d="M54.66,250.51l4.7-.28c0-.68,0-1,0-1.7l-4.7.29C54.64,249.49,54.65,249.83,54.66,250.51Z"/><path class="cls-21" d="M48.73,254l4.32-.27c0-.67,0-1,0-1.69l-4.31.26C48.72,253,48.73,253.34,48.73,254Z"/><path class="cls-21" d="M43.23,257.53,47,257.3c0-.68,0-1,0-1.7l-3.82.24C43.22,256.51,43.22,256.85,43.23,257.53Z"/><path class="cls-21" d="M69.2,290.32l5.28-.32c0-.68,0-1,0-1.7l-5.29.32C69.18,289.3,69.19,289.64,69.2,290.32Z"/><path class="cls-21" d="M62,293.94l5.07-.31c0-.68,0-1,0-1.7l-5.07.31C62,292.92,62,293.26,62,293.94Z"/><path class="cls-21" d="M55.23,297.42l4.76-.29c0-.68,0-1,0-1.69l-4.76.29C55.21,296.4,55.22,296.74,55.23,297.42Z"/><path class="cls-21" d="M49.21,300.93l4.39-.26c0-.68,0-1,0-1.7l-4.39.27Z"/><path class="cls-21" d="M43.58,304.45l3.91-.23c0-.68,0-1,0-1.7l-3.9.24C43.58,303.44,43.58,303.78,43.58,304.45Z"/><path class="cls-21" d="M77.65,233.33l-3.65.22c0-.68,0-1,0-1.69l3.65-.23C77.63,232.31,77.64,232.65,77.65,233.33Z"/><path class="cls-21" d="M75.74,237.16l-1.63.1c0-.68,0-1,0-1.7l1.64-.1C75.73,236.14,75.73,236.48,75.74,237.16Z"/><path class="cls-21" d="M77,239.94l-2.8.17c0-.68,0-1,0-1.7l2.8-.17C76.93,238.92,76.94,239.26,77,239.94Z"/><path class="cls-21" d="M78.29,280.38l-3.66.22c0-.68,0-1,0-1.7l3.67-.22C78.28,279.36,78.28,279.7,78.29,280.38Z"/><path class="cls-25" d="M89.68,279.69l-9.44.57c0-.68,0-1,0-1.7l9.43-.57C89.66,278.67,89.67,279,89.68,279.69Z"/><path class="cls-25" d="M84.27,283.27l-6.14.37c0-.68,0-1,0-1.7l6.13-.37C84.25,282.25,84.26,282.59,84.27,283.27Z"/><path class="cls-25" d="M102.94,282.14l-16.81,1,0-1.69,16.82-1C102.93,281.12,102.93,281.46,102.94,282.14Z"/><path class="cls-25" d="M116.72,281.3l-12,.73c0-.68,0-1,0-1.7l12-.72C116.71,280.29,116.71,280.62,116.72,281.3Z"/><path class="cls-25" d="M129.88,280.51l-11.1.67c0-.68,0-1,0-1.7l11.11-.67C129.87,279.49,129.88,279.83,129.88,280.51Z"/><path class="cls-25" d="M136.42,280.11l-5.13.31c0-.68,0-1,0-1.7l5.14-.31Z"/><path class="cls-21" d="M140.35,279.87l-2.77.17c0-.68,0-1,0-1.7l2.78-.17Z"/><path class="cls-25" d="M126.66,277.41l-5.69.35,0-1.7,5.7-.34C126.65,276.4,126.66,276.73,126.66,277.41Z"/><path class="cls-25" d="M109.41,278.46l-7,.42c0-.68,0-1,0-1.69l7-.43C109.4,277.44,109.4,277.78,109.41,278.46Z"/><path class="cls-21" d="M76.38,284.2l-1.64.1c0-.67,0-1,0-1.69l1.65-.1C76.37,283.19,76.37,283.53,76.38,284.2Z"/><path class="cls-21" d="M77.59,287l-2.81.17c0-.68,0-1,0-1.69l2.8-.17C77.58,286,77.58,286.3,77.59,287Z"/><path class="cls-21" d="M88.92,232.88l-7.37.45c0-.65,0-1,0-1.62l7.38-.45C88.91,231.91,88.91,232.23,88.92,232.88Z"/><path class="cls-21" d="M48.79,263.36l-5.31.32c0-.65,0-1,0-1.63l5.3-.32C48.78,262.38,48.78,262.71,48.79,263.36Z"/><path class="cls-21" d="M70.53,262l-7,.42c0-.65,0-1,0-1.62l7-.42Z"/><path class="cls-21" d="M54.09,266.24l-5.88.36c0-.65,0-1,0-1.63l5.87-.35C54.08,265.27,54.08,265.59,54.09,266.24Z"/><path class="cls-21" d="M59.88,268.91l-6.36.38c0-.65,0-1,0-1.62l6.36-.39C59.87,267.93,59.87,268.26,59.88,268.91Z"/><path class="cls-21" d="M67,271.78l-6.8.41c0-.65,0-1,0-1.63l6.8-.41C67,270.8,67,271.13,67,271.78Z"/><path class="cls-21" d="M74.51,274.43l-7.12.43c0-.65,0-1,0-1.62l7.12-.43C74.5,273.46,74.5,273.78,74.51,274.43Z"/><path class="cls-21" d="M82.28,277.12l-7.32.44c0-.65,0-1,0-1.62l7.31-.45C82.26,276.14,82.26,276.47,82.28,277.12Z"/><path class="cls-21" d="M101.21,279l-7.25.43c0-.64,0-1,0-1.62l7.24-.44C101.19,278.06,101.2,278.39,101.21,279Z"/><path class="cls-21" d="M87.8,286.16l-9.19.56c0-.65,0-1,0-1.62l9.2-.56C87.79,285.19,87.79,285.51,87.8,286.16Z"/><path class="cls-21" d="M118.38,278l-6.43.39c0-.65,0-1,0-1.63l6.44-.39C118.36,277,118.37,277.35,118.38,278Z"/><path class="cls-21" d="M133.59,277.08l-2.49.15c0-.65,0-1,0-1.63l2.49-.15C133.58,276.1,133.58,276.43,133.59,277.08Z"/><path class="cls-21" d="M135.5,283.13l-4.61.28c0-.65,0-1,0-1.62l4.62-.28Z"/><path class="cls-21" d="M112.85,231.43l-6.81.42c0-.65,0-1,0-1.63l6.81-.41C112.84,230.46,112.84,230.78,112.85,231.43Z"/><path class="cls-25" d="M101.77,232.11l-10.67.64c0-.7,0-1,0-1.74l10.67-.65C101.75,231.06,101.76,231.41,101.77,232.11Z"/><path class="cls-25" d="M91,235.73l-13.09.79c0-.7,0-1.05,0-1.74L91,234C91,234.68,91,235,91,235.73Z"/><path class="cls-25" d="M117.78,234.11l-13.45.81,0-1.74,13.46-.82Z"/><path class="cls-25" d="M102.17,235.05,93,235.6c0-.69,0-1,0-1.74l9.14-.55C102.16,234,102.16,234.35,102.17,235.05Z"/><path class="cls-25" d="M124.05,233.73l-4.45.27c0-.7,0-1.05,0-1.75L124,232C124,232.68,124,233,124.05,233.73Z"/><path class="cls-25" d="M125.24,230.54l-10.71.65c0-.7,0-1,0-1.74l10.72-.65C125.23,229.5,125.24,229.85,125.24,230.54Z"/><path class="cls-25" d="M134.35,233.28l-8.58.52c0-.7,0-1.05,0-1.74l8.58-.52C134.34,232.23,134.35,232.58,134.35,233.28Z"/><path class="cls-25" d="M141.91,232.93l-6.36.38v-1.74l6.37-.39Z"/><path class="cls-25" d="M143,232.86l-.64,0c0-.7,0-1,0-1.74l.64,0Z"/><path class="cls-25" d="M136.19,229.88l-9.2.56c0-.7,0-1.05,0-1.75l9.21-.55C136.19,228.83,136.19,229.18,136.19,229.88Z"/><path class="cls-25" d="M142.83,229.48l-3,.18v-1.74l3-.19C142.83,228.43,142.83,228.78,142.83,229.48Z"/><path class="cls-25" d="M139,229.71l-1.77.11v-1.75L139,228Z"/><path class="cls-26" d="M65.06,241.28c-.06-3.77-.09-5.65-.14-9.42"/><path class="cls-26" d="M58.18,244.78,58,229.19"/><path class="cls-26" d="M51.79,248.28c-.09-8.72-.14-13.08-.24-21.81"/><path class="cls-26" d="M46,252l-.24-28.46"/><path class="cls-26" d="M40.89,255.3q-.09-17.27-.2-34.53"/><path class="cls-26" d="M36.68,258.59q-.06-20.37-.11-40.73"/><path class="cls-26" d="M33.47,261.9q0-23.41.05-46.85"/><path class="cls-26" d="M31.3,265.24q.14-26.64.27-53.28"/><path class="cls-26" d="M30.37,265.3q.24-26.66.5-53.29"/><path class="cls-26" d="M65.74,288.32c-.06-3.76-.08-5.65-.14-9.41"/><path class="cls-26" d="M58.8,291.83l-.2-15.59"/><path class="cls-26" d="M52.32,295.33c-.1-8.72-.15-13.08-.24-21.8"/><path class="cls-26" d="M46.38,299q-.14-14.24-.26-28.46"/><path class="cls-26" d="M41.19,302.37q-.11-17.26-.22-34.53"/><path class="cls-26" d="M36.83,305.66q-.07-20.36-.13-40.72"/><path class="cls-26" d="M33.46,309q0-23.43,0-46.85"/><path class="cls-26" d="M31.1,312.34q.11-26.64.23-53.28"/><path class="cls-26" d="M30,312.41q.22-26.66.46-53.29"/><path class="cls-21" d="M51.73,375.49l-3.21.22.06,1.17,3.21-.22C51.77,376.19,51.76,376,51.73,375.49Z"/><path class="cls-21" d="M51.93,379.7l-3.18.22.06,1.16,3.18-.22C52,380.4,52,380.17,51.93,379.7Z"/><path class="cls-21" d="M51.54,373.3l-1.58.11.06,1.16,1.57-.11Z"/><path class="cls-21" d="M53.76,340.75l-2.25.15.05,1.17,2.25-.16Z"/><path class="cls-22" d="M65.53,339.93l-10.72.74,0,1.17,10.71-.74C65.55,340.63,65.55,340.4,65.53,339.93Z"/><path class="cls-22" d="M65,378.73l-12.44.86c0,.46,0,.7.06,1.16l12.43-.85Z"/><path class="cls-21" d="M54.24,371l-2.07.14c0,.47,0,.7.06,1.17l2.06-.15Z"/><path class="cls-21" d="M57.57,368.57l-2.5.17,0,1.16,2.5-.17Z"/><path class="cls-21" d="M61.43,366.16l-2.87.19,0,1.17,2.86-.2C61.45,366.86,61.44,366.62,61.43,366.16Z"/><path class="cls-21" d="M65.67,363.69l-3.17.22,0,1.17,3.16-.22C65.69,364.39,65.68,364.16,65.67,363.69Z"/><path class="cls-21" d="M70.32,361.23l-3.41.23,0,1.17,3.4-.23Z"/><path class="cls-21" d="M75.25,358.75l-3.58.24c0,.47,0,.7,0,1.17l3.58-.25C75.28,359.45,75.27,359.21,75.25,358.75Z"/><path class="cls-21" d="M52.77,338.68l-2.14.15,0,1.16,2.14-.15Z"/><path class="cls-21" d="M56.18,336.27l-2.56.17.05,1.17,2.55-.18C56.2,337,56.19,336.73,56.18,336.27Z"/><path class="cls-21" d="M60.1,333.86l-2.91.2.05,1.16,2.91-.2Z"/><path class="cls-21" d="M64.4,331.39l-3.2.22c0,.46,0,.7,0,1.16l3.2-.22C64.43,332.09,64.42,331.85,64.4,331.39Z"/><path class="cls-21" d="M69.09,328.92l-3.43.24c0,.46,0,.7,0,1.16l3.44-.23Z"/><path class="cls-21" d="M74.06,326.44l-3.6.24c0,.47,0,.7,0,1.17l3.6-.25C74.09,327.14,74.08,326.9,74.06,326.44Z"/><path class="cls-23" d="M59.47,370.61l-4.26.29,0,1.17,4.25-.3C59.49,371.31,59.48,371.08,59.47,370.61Z"/><path class="cls-23" d="M55.85,373l-3.57.25c0,.46,0,.7.06,1.16l3.56-.24Z"/><path class="cls-23" d="M67.86,365.73l-5.29.37c0,.46,0,.7,0,1.16l5.3-.36Z"/><path class="cls-23" d="M63.45,368.18l-4.83.33.05,1.17,4.82-.33C63.47,368.88,63.46,368.65,63.45,368.18Z"/><path class="cls-23" d="M72.73,363.22l-5.68.39c0,.47,0,.7,0,1.17l5.68-.4C72.75,363.92,72.74,363.68,72.73,363.22Z"/><path class="cls-23" d="M82.7,358.23l-6.1.42c0,.47,0,.7,0,1.17l6.1-.42C82.73,358.93,82.72,358.7,82.7,358.23Z"/><path class="cls-23" d="M85.26,351.58l-6.15.42c0,.47,0,.7,0,1.17l6.15-.42C85.28,352.28,85.28,352.05,85.26,351.58Z"/><path class="cls-23" d="M77.62,360.73l-5.94.41,0,1.16,5.93-.41C77.65,361.43,77.64,361.19,77.62,360.73Z"/><path class="cls-23" d="M53.66,375.36l-1.29.09.05,1.16,1.3-.09C53.69,376.05,53.68,375.82,53.66,375.36Z"/><path class="cls-24" d="M58.72,375l-3.34.23,0,1.16,3.34-.23Z"/><path class="cls-24" d="M66,370.19l-4.31.29,0,1.17,4.3-.3C66,370.89,66,370.65,66,370.19Z"/><path class="cls-24" d="M89.86,368.54,76,369.5c0,.47,0,.7,0,1.16l13.87-1C89.89,369.24,89.88,369,89.86,368.54Z"/><path class="cls-24" d="M104.74,367.52l-13.29.91,0,1.17,13.3-.92Z"/><path class="cls-24" d="M79.39,362.67l-4,.28c0,.46,0,.7,0,1.16l4-.27C79.42,363.37,79.41,363.14,79.39,362.67Z"/><path class="cls-24" d="M84.41,360.25l-4,.28c0,.46,0,.7,0,1.16l4-.27Z"/><path class="cls-24" d="M88.45,360l-2.73.19,0,1.17,2.74-.19C88.48,360.67,88.47,360.44,88.45,360Z"/><path class="cls-24" d="M91.76,351.11l-3.56.24,0,1.17,3.56-.25C91.79,351.81,91.78,351.57,91.76,351.11Z"/><path class="cls-24" d="M97,350.75l-3.53.24c0,.47,0,.7,0,1.17l3.53-.25C97,351.45,97,351.21,97,350.75Z"/><path class="cls-24" d="M110.69,349.8l-2.92.2,0,1.17,2.91-.2C110.72,350.5,110.71,350.27,110.69,349.8Z"/><path class="cls-24" d="M114.61,349.53l-2.58.18c0,.47,0,.7,0,1.17l2.59-.18Z"/><path class="cls-24" d="M106.63,350.08l-8.08.56c0,.47,0,.7,0,1.17l8.08-.56C106.65,350.78,106.65,350.55,106.63,350.08Z"/><path class="cls-24" d="M91,359.8l-1.36.09c0,.47,0,.7,0,1.17L91,361C91,360.5,91,360.26,91,359.8Z"/><path class="cls-24" d="M73,367.56,66.1,368c0,.46,0,.7,0,1.16l6.88-.47C73,368.26,73,368,73,367.56Z"/><path class="cls-24" d="M80.51,367l-6,.42c0,.47,0,.7,0,1.17l6-.42C80.53,367.74,80.53,367.51,80.51,367Z"/><path class="cls-24" d="M66,374.5l-6.09.42,0,1.17,6.09-.42Z"/><path class="cls-24" d="M60.58,372.7l-2.74.19,0,1.17,2.73-.19Z"/><path class="cls-24" d="M70.72,372l-8.89.62.05,1.16,8.88-.61C70.74,372.7,70.74,372.47,70.72,372Z"/><path class="cls-24" d="M82,364.7l-11.25.78,0,1.17L82,365.87C82,365.4,82,365.17,82,364.7Z"/><path class="cls-24" d="M95.83,357.32l-10.22.7c0,.47,0,.7,0,1.17l10.22-.7C95.86,358,95.85,357.79,95.83,357.32Z"/><path class="cls-24" d="M89.94,336.17l-12.72.88c0,.46,0,.7,0,1.16L90,337.34C90,336.87,90,336.64,89.94,336.17Z"/><path class="cls-24" d="M81.55,332.32l-12.42.85,0,1.17,12.42-.86C81.58,333,81.57,332.78,81.55,332.32Z"/><path class="cls-24" d="M91.54,327.34l-12.72.88c0,.46,0,.7,0,1.16l12.72-.87C91.56,328,91.55,327.81,91.54,327.34Z"/><path class="cls-24" d="M94.46,324.93l-9.88.68c0,.47,0,.7,0,1.17l9.88-.68C94.48,325.63,94.47,325.4,94.46,324.93Z"/><path class="cls-24" d="M90.73,318.83l-4.66.32c0,.46,0,.7,0,1.16l4.66-.32C90.75,319.53,90.74,319.29,90.73,318.83Z"/><path class="cls-24" d="M95.17,318.52l-3.08.21c0,.47,0,.7,0,1.17l3.08-.21C95.2,319.22,95.19,319,95.17,318.52Z"/><path class="cls-24" d="M109.53,317.53l-3,.21c0,.46,0,.7,0,1.16l3-.2C109.55,318.23,109.54,318,109.53,317.53Z"/><path class="cls-24" d="M120.62,316.77l-2.26.15.06,1.17,2.26-.16C120.66,317.47,120.65,317.23,120.62,316.77Z"/><path class="cls-24" d="M121.83,316.68l-.85.06c0,.47,0,.7.06,1.17l.86-.06C121.88,317.38,121.86,317.15,121.83,316.68Z"/><path class="cls-24" d="M113.19,317.28l-2.63.18,0,1.17,2.63-.19Z"/><path class="cls-24" d="M105.21,317.83l-8.08.56.05,1.16,8.07-.56C105.23,318.53,105.22,318.3,105.21,317.83Z"/><path class="cls-24" d="M105.41,324.18l-9,.62c0,.47,0,.7,0,1.17l9-.63C105.43,324.88,105.43,324.64,105.41,324.18Z"/><path class="cls-24" d="M67.11,337.74l-6.7.46.05,1.17,6.7-.46Z"/><path class="cls-24" d="M71.94,335.17l-7.17.49c0,.47,0,.7,0,1.17l7.17-.49C72,335.87,72,335.64,71.94,335.17Z"/><path class="cls-24" d="M79.36,330.37l-6.12.42c0,.47,0,.7,0,1.17l6.12-.42C79.38,331.07,79.37,330.84,79.36,330.37Z"/><path class="cls-24" d="M80.91,334.55l-7.66.53c0,.47,0,.7,0,1.17l7.66-.53C80.93,335.25,80.93,335,80.91,334.55Z"/><path class="cls-24" d="M102.39,335.31,91.75,336c0,.47,0,.7,0,1.17l10.64-.73C102.41,336,102.4,335.78,102.39,335.31Z"/><path class="cls-24" d="M119.24,334.15l-15.5,1.07.05,1.16,15.51-1.07Z"/><path class="cls-24" d="M105.62,356.65l-8.14.56c0,.46,0,.7,0,1.16l8.14-.56C105.64,357.34,105.63,357.11,105.62,356.65Z"/><path class="cls-21" d="M74.34,369.54l-6,.41,0,1.16,6-.41C74.37,370.23,74.36,370,74.34,369.54Z"/><path class="cls-21" d="M72.47,350.24l3.61-.25c0,.47,0,.7,0,1.17l-3.61.25C72.49,350.94,72.48,350.71,72.47,350.24Z"/><path class="cls-21" d="M67.43,348.4l3.46-.24c0,.47,0,.7,0,1.17l-3.45.23Z"/><path class="cls-21" d="M62.73,346.6l3.24-.22,0,1.17-3.24.22Z"/><path class="cls-21" d="M58.55,344.72l3-.2c0,.47,0,.7,0,1.17l-3,.2Z"/><path class="cls-21" d="M54.65,342.8l2.63-.18,0,1.17L54.7,344Z"/><path class="cls-21" d="M71.34,318l3.63-.25c0,.47,0,.7,0,1.17l-3.63.25C71.36,318.68,71.35,318.45,71.34,318Z"/><path class="cls-21" d="M66.26,316.14l3.49-.24c0,.47,0,.7,0,1.17l-3.48.24Z"/><path class="cls-21" d="M61.51,314.35l3.28-.22c0,.46,0,.7,0,1.16l-3.28.23C61.54,315.05,61.53,314.82,61.51,314.35Z"/><path class="cls-21" d="M57.26,312.48l3-.21,0,1.17-3,.2Z"/><path class="cls-21" d="M53.28,310.56l2.69-.18c0,.46,0,.7,0,1.16l-2.68.19Z"/><path class="cls-21" d="M79.09,356.35l-2.51.17c0,.47,0,.7,0,1.17l2.51-.17C79.12,357.05,79.11,356.82,79.09,356.35Z"/><path class="cls-21" d="M77.66,353.89l-1.13.08c0,.47,0,.7,0,1.17l1.13-.08C77.68,354.59,77.67,354.36,77.66,353.89Z"/><path class="cls-21" d="M78.39,351.88l-1.93.13c0,.47,0,.7,0,1.17l1.93-.13C78.41,352.58,78.4,352.35,78.39,351.88Z"/><path class="cls-21" d="M77.92,324l-2.52.17c0,.47,0,.7,0,1.17l2.52-.17C77.94,324.7,77.93,324.47,77.92,324Z"/><path class="cls-25" d="M85.75,323.46l-6.49.45c0,.46,0,.7,0,1.16l6.49-.44Z"/><path class="cls-25" d="M81.92,321.48l-4.22.29c0,.47,0,.7,0,1.17l4.22-.29C81.94,322.18,81.93,322,81.92,321.48Z"/><path class="cls-25" d="M94.77,320.6l-11.57.8c0,.46,0,.7,0,1.16l11.58-.8C94.79,321.3,94.78,321.06,94.77,320.6Z"/><path class="cls-25" d="M104.24,319.94l-8.25.57c0,.47,0,.7,0,1.17l8.26-.57Z"/><path class="cls-25" d="M113.3,319.32l-7.64.53,0,1.16,7.64-.52Z"/><path class="cls-25" d="M117.8,319l-3.54.24,0,1.17,3.54-.24Z"/><path class="cls-21" d="M120.5,318.82l-1.91.14c0,.46,0,.69.06,1.16l1.91-.13Z"/><path class="cls-25" d="M111.2,321.73l-3.92.27c0,.47,0,.7,0,1.17l3.92-.27C111.22,322.43,111.21,322.2,111.2,321.73Z"/><path class="cls-25" d="M99.33,322.55l-4.83.33,0,1.17,4.82-.34Z"/><path class="cls-21" d="M76.48,321.54l-1.14.08,0,1.17,1.13-.08C76.5,322.24,76.49,322,76.48,321.54Z"/><path class="cls-21" d="M77.21,319.53l-1.93.13c0,.47,0,.7,0,1.17l1.93-.14C77.23,320.23,77.23,320,77.21,319.53Z"/><path class="cls-21" d="M86.84,355.65l-5.07.35c0,.45,0,.67,0,1.12l5.07-.35C86.87,356.33,86.86,356.1,86.84,355.65Z"/><path class="cls-21" d="M58.27,338.31l-3.65.25.05,1.12,3.64-.26C58.29,339,58.28,338.75,58.27,338.31Z"/><path class="cls-21" d="M73.23,337.28l-4.79.33c0,.44,0,.67,0,1.11l4.79-.33Z"/><path class="cls-21" d="M61.8,335.86l-4,.28.05,1.11,4-.28Z"/><path class="cls-21" d="M65.68,333.51l-4.37.3c0,.45,0,.67,0,1.12l4.37-.3C65.71,334.18,65.7,334,65.68,333.51Z"/><path class="cls-21" d="M70.44,330.91l-4.68.32,0,1.12,4.67-.32Z"/><path class="cls-21" d="M75.53,328.42l-4.9.33,0,1.12,4.9-.34C75.55,329.09,75.55,328.86,75.53,328.42Z"/><path class="cls-21" d="M80.76,325.88l-5,.35c0,.45,0,.67,0,1.12l5-.35C80.78,326.55,80.78,326.33,80.76,325.88Z"/><path class="cls-21" d="M93.68,322.88l-5,.34c0,.45,0,.67,0,1.12l5-.34Z"/><path class="cls-21" d="M84.24,319.18l-6.33.44c0,.44,0,.67,0,1.11l6.33-.43C84.27,319.85,84.26,319.63,84.24,319.18Z"/><path class="cls-21" d="M105.49,322.07l-4.42.3c0,.45,0,.67,0,1.12l4.42-.31C105.52,322.74,105.51,322.51,105.49,322.07Z"/><path class="cls-21" d="M116,321.35l-1.72.11.05,1.12,1.72-.12Z"/><path class="cls-21" d="M117.06,317l-3.17.21,0,1.12,3.17-.22Z"/><path class="cls-21" d="M103.31,354.52l-4.69.32c0,.45,0,.67,0,1.12l4.69-.32C103.33,355.19,103.32,355,103.31,354.52Z"/><path class="cls-25" d="M95.68,355.05l-7.34.5c0,.48,0,.72,0,1.2l7.34-.51Z"/><path class="cls-25" d="M88.18,353.52l-9,.62c0,.48,0,.72,0,1.2l9-.62Z"/><path class="cls-25" d="M106.6,352.25l-9.26.64c0,.48,0,.72,0,1.19l9.26-.63C106.62,353,106.61,352.73,106.6,352.25Z"/><path class="cls-25" d="M95.86,353l-6.29.43c0,.48,0,.72,0,1.2l6.29-.43Z"/><path class="cls-25" d="M110.91,352l-3.06.21c0,.48,0,.72,0,1.2l3.06-.21C110.93,352.67,110.92,352.43,110.91,352Z"/><path class="cls-25" d="M111.84,354l-7.38.51.05,1.2,7.37-.51C111.86,354.75,111.86,354.51,111.84,354Z"/><path class="cls-25" d="M118,351.34l-5.9.41,0,1.2,5.9-.41Z"/><path class="cls-25" d="M123.19,350.91l-4.38.3c0,.48,0,.72.06,1.2l4.38-.3C123.23,351.63,123.21,351.39,123.19,350.91Z"/><path class="cls-25" d="M123.91,350.86l-.44,0c0,.48,0,.72.07,1.2l.44,0C124,351.58,123.94,351.34,123.91,350.86Z"/><path class="cls-25" d="M119.37,353.51,113,354l0,1.19,6.33-.43Z"/><path class="cls-25" d="M123.93,353.2l-2.06.14c0,.48,0,.72.06,1.19l2.07-.14C124,353.91,124,353.67,123.93,353.2Z"/><path class="cls-25" d="M121.3,353.38l-1.22.08c0,.48,0,.72.06,1.2l1.22-.09C121.34,354.1,121.32,353.86,121.3,353.38Z"/><path class="cls-27" d="M70.18,352c.1,2.6.14,3.89.24,6.48"/><path class="cls-27" d="M65.35,350.22l.4,10.72"/><path class="cls-27" d="M60.85,348.39c.23,6,.35,9,.58,15"/><path class="cls-27" d="M56.72,346.39c.32,7.82.48,11.73.81,19.55"/><path class="cls-27" d="M53.13,344.54l1,23.72"/><path class="cls-27" d="M50.13,342.66c.53,11.19.79,16.78,1.32,28"/><path class="cls-27" d="M47.81,340.67l1.65,32.16"/><path class="cls-27" d="M46.21,338.57l2,36.55"/><path class="cls-27" d="M45.57,338.62q1.08,18.25,2.18,36.53"/><path class="cls-27" d="M69,319.66c.1,2.59.14,3.89.23,6.48"/><path class="cls-27" d="M64.15,317.87l.4,10.72"/><path class="cls-27" d="M59.59,316c.23,6,.35,9,.58,15"/><path class="cls-27" d="M55.39,314c.31,7.83.48,11.74.8,19.56"/><path class="cls-27" d="M51.71,312.2c.42,9.49.62,14.24,1,23.73"/><path class="cls-27" d="M48.61,310.33c.52,11.19.78,16.78,1.31,28"/><path class="cls-27" d="M46.18,308.35l1.62,32.16"/><path class="cls-27" d="M44.45,306.26q1,18.27,2,36.55"/><path class="cls-27" d="M43.66,306.31q1.08,18.27,2.16,36.54"/></g></g></svg>