<svg xmlns="http://www.w3.org/2000/svg" viewBox="0 0 1785.71 391.82"><defs><style>.cls-1{opacity:0.7;}.cls-2{fill:#09486d;}.cls-3{fill:#025680;}.cls-4{fill:#1d6580;}.cls-10,.cls-5,.cls-6,.cls-7,.cls-8,.cls-9{fill:none;stroke:#1d6580;stroke-miterlimit:10;}.cls-5{stroke-width:0.45px;}.cls-6{stroke-width:0.39px;}.cls-7{stroke-width:0.33px;}.cls-8{stroke-width:0.36px;}.cls-9{stroke-width:0.33px;}.cls-10{stroke-width:0.24px;}</style></defs><title>1Recurso 134pecesitos</title><g id="Capa_2" data-name="Capa 2"><g id="Why_us_" data-name="Why us?"><g class="cls-1"><path class="cls-2" d="M1081.6,249c-1.92-2.08-3.8-3.89-5.36-5.95-.63-.83-.57-2.19-.82-3.32,1.13.17,2.44,0,3.36.58a47.29,47.29,0,0,1,4.8,3.6c3.09,2.38,5.1,2.53,8.32.27q3.75-2.62,7.24-5.62c14.71-12.6,30.12-5.37,37.53,6.45a47.55,47.55,0,0,1,3.41,6.76c1.89,4.48,1.72,4.86-2.4,7.21a20.28,20.28,0,0,1-3.66,1.85c-4.9,1.61-9.6,3.47-13.4,7.22-1,.95-2.84,1-4.29,1.39a32.29,32.29,0,0,0-1.09-3.91c-.29-.71-1-1.64-1.6-1.79-8.59-2-16.77-4.86-24.23-9.7-1-.66-2.88-.41-4.23-.09-2.46.57-4.78,1.7-7.24,2.23-1.12.23-2.42-.43-3.64-.68.57-1,.91-2.29,1.75-3A53.52,53.52,0,0,1,1081.6,249Zm46.19-4.68.3-.76a22.82,22.82,0,0,0-2.93-1.89,18.27,18.27,0,0,0-15.61-.07c-6.92,3.12-12.77,8.52-20.8,9.6,1.36.68,2.75,1.16,3.84.78,5.14-1.79,10.29-3.59,15.25-5.82,5.85-2.63,11.67-4.22,18-2A7.71,7.71,0,0,0,1127.79,244.27Zm-.74,3.14.17-1.08a13,13,0,0,0-2-1.09,18,18,0,0,0-13.24.65c-6.3,2.78-12.55,5.68-18.46,8.37,3.57,1,7.32-.62,11-1.91C1111.82,249.79,1118.78,245.94,1127.05,247.41ZM1089,249a42,42,0,0,0,6.79-1.93,108.73,108.73,0,0,0,10-5.35,21.27,21.27,0,0,1,15.56-2.54c2.61.57,5.08,1.75,8.37,2.93a16.24,16.24,0,0,0-9.06-5.32c-6.29-1.44-11.81.42-17.12,3.75C1098.54,243.71,1093.29,246.53,1089,249Zm37.26.49c-10.82-2.85-18.88,5.24-28.57,7C1108,257.22,1116.28,250.06,1126.25,249.5Zm4-9.28c-9.82-9.74-22.3-9-33.89,3.13C1107,235.67,1117.91,230.32,1130.21,240.22Zm-4.76,12.34c-8.43-1.21-15,4.64-22.7,6.2C1111.08,259.64,1117.38,252.79,1125.45,252.56Zm2.67,9.06c-.36-3.49-1.79-4.47-4.18-3.64-3,1.06-5.91,2.33-8.87,3.51l.23,1Zm-2-5.72c-3.13-2-12.39.73-16.57,4.66l.27.88Z"/><circle class="cls-3" cx="1133.13" cy="251.74" r="2.85"/><circle class="cls-2" cx="1133.04" cy="251.74" r="1.21"/><path class="cls-2" d="M873.4,136.51c-1.92-2.09-3.8-3.9-5.36-5.95-.64-.84-.57-2.2-.83-3.32,1.14.17,2.45,0,3.37.58a44.49,44.49,0,0,1,4.8,3.6c3.09,2.38,5.1,2.52,8.32.26q3.75-2.62,7.24-5.62c14.71-12.59,30.12-5.37,37.53,6.46a47.54,47.54,0,0,1,3.41,6.76c1.89,4.47,1.72,4.85-2.4,7.21a20.23,20.23,0,0,1-3.66,1.84c-4.9,1.62-9.6,3.48-13.4,7.23-1,.94-2.84.95-4.29,1.39A31.79,31.79,0,0,0,907,153c-.29-.72-.95-1.64-1.6-1.79-8.59-2-16.77-4.86-24.23-9.71-1-.66-2.88-.41-4.23-.09-2.46.58-4.78,1.71-7.24,2.23-1.12.24-2.42-.42-3.64-.67.56-1,.91-2.29,1.75-3A53.53,53.53,0,0,1,873.4,136.51Zm46.19-4.69.3-.76a22.75,22.75,0,0,0-2.93-1.88,18.2,18.2,0,0,0-15.61-.07c-6.92,3.11-12.77,8.51-20.8,9.6,1.36.67,2.75,1.15,3.84.77,5.14-1.79,10.29-3.59,15.25-5.81,5.85-2.63,11.67-4.23,18-2A7.28,7.28,0,0,0,919.59,131.82Zm-.74,3.14.17-1.08a13.48,13.48,0,0,0-2-1.09,18,18,0,0,0-13.24.66c-6.3,2.77-12.55,5.68-18.46,8.36,3.57,1.05,7.32-.61,11-1.91C903.61,137.35,910.58,133.49,918.85,135Zm-38.06,1.61a42.2,42.2,0,0,0,6.79-1.94,106.37,106.37,0,0,0,10-5.35,21.32,21.32,0,0,1,15.56-2.54c2.61.58,5.07,1.76,8.37,2.94a16.12,16.12,0,0,0-9.06-5.32c-6.29-1.44-11.81.41-17.12,3.74C890.34,131.26,885.09,134.09,880.79,136.57Zm37.26.48c-10.82-2.84-18.88,5.24-28.57,7C899.75,144.78,908.08,137.62,918.05,137.05Zm4-9.28c-9.82-9.73-22.3-9-33.89,3.13C898.81,123.22,909.71,117.87,922,127.77Zm-4.76,12.34c-8.43-1.21-15,4.65-22.7,6.21C902.88,147.2,909.18,140.35,917.25,140.11Zm2.67,9.06c-.36-3.49-1.79-4.47-4.18-3.63-3,1.05-5.92,2.33-8.87,3.51l.23,1Zm-2-5.72c-3.13-2-12.39.73-16.57,4.67l.27.87Z"/><circle class="cls-3" cx="924.93" cy="139.3" r="2.85"/><circle class="cls-2" cx="924.84" cy="139.29" r="1.21"/><path class="cls-2" d="M558.59,159.52c-1.91-2.08-3.8-3.89-5.36-6-.63-.83-.57-2.19-.82-3.32,1.14.17,2.44.05,3.37.58a47.17,47.17,0,0,1,4.79,3.6c3.09,2.38,5.1,2.53,8.32.27,2.5-1.75,4.93-3.63,7.25-5.62,14.7-12.6,30.11-5.37,37.52,6.45a47.61,47.61,0,0,1,3.42,6.76c1.89,4.48,1.71,4.86-2.4,7.21a20.36,20.36,0,0,1-3.67,1.85c-4.9,1.61-9.6,3.47-13.4,7.22-1,1-2.83,1-4.28,1.39a32.29,32.29,0,0,0-1.09-3.91c-.3-.71-1-1.64-1.6-1.79-8.59-2-16.77-4.86-24.23-9.7-1-.66-2.88-.41-4.24-.09-2.45.57-4.78,1.7-7.24,2.23-1.11.23-2.42-.43-3.64-.68.57-1,.92-2.29,1.75-3A55.75,55.75,0,0,1,558.59,159.52Zm46.2-4.68.3-.76a22.82,22.82,0,0,0-2.93-1.89,18.29,18.29,0,0,0-15.62-.07c-6.91,3.11-12.77,8.52-20.79,9.6,1.35.68,2.74,1.16,3.83.78,5.14-1.79,10.3-3.59,15.25-5.82,5.86-2.63,11.68-4.22,18-2A7.83,7.83,0,0,0,604.79,154.84ZM604,158l.17-1.08a13.38,13.38,0,0,0-2-1.09,18,18,0,0,0-13.24.65c-6.3,2.78-12.55,5.68-18.46,8.37,3.57,1,7.32-.62,11-1.92C588.81,160.36,595.77,156.51,604,158Zm-38,1.6a43.36,43.36,0,0,0,6.79-1.93,108.73,108.73,0,0,0,10.05-5.35,21.27,21.27,0,0,1,15.56-2.54c2.6.57,5.07,1.75,8.36,2.93a16.17,16.17,0,0,0-9.06-5.32c-6.29-1.44-11.8.42-17.12,3.75C575.53,154.28,570.29,157.1,566,159.58Zm37.26.49c-10.82-2.85-18.88,5.24-28.57,7C585,167.79,593.28,160.63,603.25,160.07Zm4-9.28c-9.81-9.74-22.29-9-33.88,3.13C584,146.24,594.91,140.89,607.2,150.79Zm-4.75,12.34c-8.44-1.21-15,4.64-22.7,6.2C588.07,170.21,594.38,163.36,602.45,163.13Zm2.66,9.06c-.36-3.49-1.79-4.47-4.17-3.64-3,1.06-5.92,2.33-8.87,3.51l.23,1Zm-2-5.72c-3.13-2-12.39.73-16.57,4.66l.27.88Z"/><circle class="cls-3" cx="610.12" cy="162.31" r="2.85"/><circle class="cls-2" cx="610.03" cy="162.31" r="1.21"/><path class="cls-4" d="M1388.63,169.33c-2.31-1.64-4.53-3-6.48-4.7-.79-.68-1-2-1.5-3.07,1.15-.07,2.4-.47,3.41-.14a47.85,47.85,0,0,1,5.45,2.52c3.52,1.68,5.51,1.41,8.19-1.47,2.08-2.24,4.06-4.59,5.91-7,11.75-15.39,28.33-11.55,38.05-1.53a47.35,47.35,0,0,1,4.75,5.9c2.78,4,2.69,4.39-.84,7.55a20,20,0,0,1-3.2,2.57c-4.46,2.61-8.67,5.4-11.6,9.87-.74,1.12-2.57,1.52-3.9,2.25a29.8,29.8,0,0,0-1.88-3.59,3.1,3.1,0,0,0-1.94-1.42c-8.81-.14-17.42-1.25-25.72-4.43-1.14-.44-2.9.2-4.16.79-2.28,1.08-4.32,2.67-6.62,3.69-1,.47-2.45.1-3.7.1.35-1.1.42-2.42,1.09-3.26A55.77,55.77,0,0,1,1388.63,169.33Zm44.2-14.23.14-.8a22.64,22.64,0,0,0-3.26-1.23,18.26,18.26,0,0,0-15.29,3.19c-6.11,4.49-10.71,11-18.33,13.73,1.47.38,2.93.56,3.91,0,4.65-2.82,9.32-5.66,13.7-8.87,5.18-3.8,10.53-6.57,17.2-5.72A7.23,7.23,0,0,0,1432.83,155.1Zm-.07,3.23-.06-1.09a12.83,12.83,0,0,0-2.23-.64,18,18,0,0,0-12.81,3.41c-5.58,4-11.09,8.17-16.31,12,3.71.28,7-2.13,10.4-4.17C1418.36,163.85,1424.36,158.62,1432.76,158.33Zm-36.88,9.52a42.76,42.76,0,0,0,6.24-3.31,110.2,110.2,0,0,0,8.7-7.33,21.35,21.35,0,0,1,14.69-5.74c2.67,0,5.33.66,8.79,1.13a16.11,16.11,0,0,0-10-3.31c-6.45-.1-11.46,2.87-16,7.23C1404.11,160.66,1399.56,164.53,1395.88,167.85Zm36.54-7.31c-11.18-.52-17.38,9.07-26.49,12.78C1416.13,171.92,1422.78,163.18,1432.42,160.54Zm1.93-9.9c-11.63-7.47-23.67-4.1-32.49,10.14C1410.71,151,1420.25,143.53,1434.35,150.64Zm-2.08,13.06c-8.5.58-13.67,7.67-20.9,10.81C1419.69,173.63,1424.43,165.62,1432.27,163.7Zm4.5,8.31c-1.08-3.34-2.68-4-4.84-2.68-2.71,1.65-5.3,3.51-7.94,5.28l.43.94Zm-3.1-5.19c-3.49-1.33-12,3.3-15.24,8l.45.8Z"/><circle class="cls-3" cx="1439.61" cy="161.3" r="2.85"/><circle class="cls-2" cx="1439.52" cy="161.32" r="1.21"/><path class="cls-4" d="M1088.49,334.77c-2.31-1.64-4.52-3-6.48-4.69-.79-.69-1-2-1.5-3.08,1.15-.07,2.4-.47,3.42-.14a48.51,48.51,0,0,1,5.44,2.52c3.52,1.68,5.51,1.41,8.19-1.47,2.08-2.24,4.06-4.58,5.91-7,11.75-15.39,28.33-11.54,38-1.52a46.53,46.53,0,0,1,4.75,5.89c2.78,4,2.69,4.39-.84,7.55a20.67,20.67,0,0,1-3.2,2.58c-4.46,2.6-8.66,5.4-11.6,9.86-.73,1.12-2.57,1.52-3.9,2.25a29.8,29.8,0,0,0-1.88-3.59,3.1,3.1,0,0,0-1.94-1.42c-8.81-.14-17.42-1.25-25.72-4.43-1.14-.44-2.9.2-4.16.79-2.28,1.08-4.32,2.67-6.61,3.69-1.05.47-2.46.1-3.71.11.35-1.11.42-2.43,1.09-3.27A57.34,57.34,0,0,1,1088.49,334.77Zm44.2-14.22.14-.81a23.89,23.89,0,0,0-3.26-1.23,18.26,18.26,0,0,0-15.29,3.19c-6.11,4.49-10.71,11-18.33,13.73,1.47.38,2.93.56,3.92,0,4.65-2.82,9.31-5.66,13.69-8.87,5.18-3.79,10.54-6.57,17.2-5.72A7.63,7.63,0,0,0,1132.69,320.55Zm-.07,3.22-.06-1.09a13.78,13.78,0,0,0-2.23-.64,18,18,0,0,0-12.81,3.41c-5.58,4-11.08,8.17-16.31,12,3.71.27,7-2.13,10.4-4.18C1118.22,329.29,1124.23,324.06,1132.62,323.77Zm-36.88,9.52A42.76,42.76,0,0,0,1102,330a108.1,108.1,0,0,0,8.7-7.33,21.31,21.31,0,0,1,14.7-5.73c2.66,0,5.32.65,8.79,1.12a16.14,16.14,0,0,0-10-3.31c-6.46-.09-11.46,2.87-16,7.23C1104,326.11,1099.43,330,1095.74,333.29Zm36.54-7.31c-11.18-.52-17.37,9.07-26.49,12.78C1116,337.36,1122.65,328.62,1132.28,326Zm1.93-9.9c-11.63-7.47-23.67-4.1-32.48,10.14C1110.57,316.48,1120.12,309,1134.21,316.08Zm-2.08,13.06c-8.5.58-13.67,7.67-20.9,10.81C1119.56,339.07,1124.29,331.06,1132.13,329.14Zm4.51,8.31c-1.09-3.34-2.69-4-4.85-2.68-2.71,1.65-5.3,3.51-7.94,5.28l.44.95Zm-3.11-5.19c-3.48-1.32-12,3.31-15.23,8l.45.8Z"/><circle class="cls-3" cx="1139.47" cy="326.74" r="2.85"/><circle class="cls-2" cx="1139.38" cy="326.76" r="1.21"/><path class="cls-4" d="M735.83,205c-2.31-1.64-4.52-3-6.48-4.7-.79-.68-1-2-1.5-3.07,1.15-.07,2.4-.47,3.42-.14a45.2,45.2,0,0,1,5.44,2.52c3.52,1.68,5.51,1.4,8.19-1.48,2.08-2.23,4.06-4.58,5.91-7,11.75-15.39,28.33-11.54,38.05-1.52a47.35,47.35,0,0,1,4.75,5.9c2.78,4,2.69,4.39-.84,7.55a20.6,20.6,0,0,1-3.2,2.57c-4.46,2.6-8.67,5.4-11.6,9.86-.74,1.13-2.57,1.53-3.9,2.26a30.71,30.71,0,0,0-1.88-3.6,3.1,3.1,0,0,0-1.94-1.42c-8.81-.13-17.42-1.25-25.72-4.43-1.14-.43-2.9.2-4.16.8-2.28,1.07-4.32,2.66-6.62,3.69-1,.46-2.45.09-3.7.1.35-1.1.42-2.43,1.09-3.26A54.28,54.28,0,0,1,735.83,205ZM780,190.72l.14-.8a24,24,0,0,0-3.26-1.24,18.27,18.27,0,0,0-15.29,3.2c-6.11,4.48-10.71,11-18.33,13.73,1.47.38,2.93.56,3.91,0,4.65-2.83,9.32-5.66,13.7-8.88,5.18-3.79,10.54-6.57,17.2-5.71A7.65,7.65,0,0,0,780,190.72ZM780,194l-.06-1.09a12.83,12.83,0,0,0-2.23-.64,18,18,0,0,0-12.81,3.4c-5.58,4-11.09,8.18-16.31,12,3.71.27,7-2.13,10.4-4.18C765.56,199.46,771.56,194.24,780,194Zm-36.88,9.52a43.77,43.77,0,0,0,6.24-3.31,108.22,108.22,0,0,0,8.7-7.34,21.29,21.29,0,0,1,14.69-5.73c2.67,0,5.33.66,8.8,1.13a16.16,16.16,0,0,0-10-3.32c-6.46-.09-11.46,2.87-16,7.24C751.31,196.28,746.76,200.14,743.08,203.47Zm36.54-7.31c-11.18-.53-17.37,9.06-26.49,12.78C763.33,207.53,770,198.79,779.62,196.16Zm1.93-9.9c-11.63-7.47-23.67-4.1-32.49,10.13C757.91,186.65,767.46,179.14,781.55,186.26Zm-2.08,13.06c-8.5.58-13.67,7.67-20.9,10.81C766.89,209.25,771.63,201.23,779.47,199.32Zm4.5,8.3c-1.08-3.33-2.68-4-4.84-2.68-2.71,1.65-5.3,3.51-7.94,5.28l.43.95Zm-3.1-5.18c-3.49-1.33-12,3.3-15.24,8l.45.8Z"/><circle class="cls-3" cx="786.81" cy="196.92" r="2.85"/><circle class="cls-2" cx="786.72" cy="196.93" r="1.21"/><path class="cls-2" d="M919.71,198.77c5,0,9.37-.86,13.13.28,11.37,3.45,22.57,7.56,31.92,15.33,3.14,2.61,3.13,3.24.17,6-4.58,4.3-10.11,6.74-16.11,8.37a13.94,13.94,0,0,0-5.2,2.81,27.1,27.1,0,0,1-14,6.08c-1.3.2-2.75-.59-4.14-.93a32,32,0,0,1,1.26-4,18.81,18.81,0,0,1,2.2-3,31.4,31.4,0,0,0-3.1-1,64.55,64.55,0,0,1-21.77-8.47c-1.63-1-2.54-.86-3.69.7a15.81,15.81,0,0,1-12,6.56c-1.54.11-3.14-.88-4.72-1.37.6-1.29,1.12-2.63,1.84-3.85a16,16,0,0,1,2-2.51c1.83-2.05,1.86-4.22.51-6.51-.71-1.21-1.4-2.42-2.07-3.64-1.77-3.24-.86-4.79,2.91-4.66A13.09,13.09,0,0,1,899,210.55c1.92,2.52,3.28,2.17,5.75.63a82.09,82.09,0,0,1,12.89-6.45C920.08,203.73,921.7,202.94,919.71,198.77ZM951,225.6c1.38-.75,2.22-1.64,2.91-1.52,4.52.74,7-2.56,10-4.83,1.64-1.25,1.45-2.5-.13-3.6-2.64-1.85-5.33-3.6-8-5.47-2.4-1.71-4.31-1.11-6.2.89-2.1,2.21-4.61,4.33-2.9,7.76A70.48,70.48,0,0,0,951,225.6Z"/><circle class="cls-2" cx="954.06" cy="216.37" r="2.9"/><circle class="cls-3" cx="953.97" cy="216.37" r="1.23"/><path class="cls-2" d="M32.72,17.29c4.53,0,8.51-.78,11.92.25C55,20.67,65.12,24.4,73.6,31.45c2.86,2.38,2.85,2.94.17,5.45-4.16,3.9-9.18,6.11-14.63,7.6A12.67,12.67,0,0,0,54.42,47a24.49,24.49,0,0,1-12.67,5.53c-1.18.18-2.5-.54-3.75-.85a26.65,26.65,0,0,1,1.14-3.65,16,16,0,0,1,2-2.68,26.68,26.68,0,0,0-2.81-.89,58.75,58.75,0,0,1-19.76-7.69c-1.48-.92-2.3-.78-3.35.63a14.34,14.34,0,0,1-10.93,6c-1.39.1-2.85-.8-4.28-1.24.55-1.17,1-2.39,1.67-3.5a15.17,15.17,0,0,1,1.82-2.28A4.6,4.6,0,0,0,4,30.47c-.65-1.09-1.27-2.19-1.88-3.3-1.61-2.94-.78-4.34,2.64-4.23a11.9,11.9,0,0,1,9.18,5c1.75,2.28,3,2,5.22.57a75.66,75.66,0,0,1,11.7-5.86C33.06,21.79,34.52,21.07,32.72,17.29ZM61.07,41.64c1.25-.69,2-1.49,2.64-1.39,4.11.68,6.35-2.32,9.07-4.38,1.49-1.13,1.31-2.26-.12-3.26-2.39-1.68-4.84-3.27-7.21-5-2.18-1.55-3.91-1-5.63.81-1.91,2-4.19,3.93-2.63,7A61.92,61.92,0,0,0,61.07,41.64Z"/><circle class="cls-2" cx="63.9" cy="33.26" r="2.63"/><circle class="cls-3" cx="63.81" cy="33.26" r="1.12"/><path class="cls-2" d="M1484.45,170.64c4.45-.47,8.25-1.72,11.71-1.09,10.46,1.91,20.85,4.41,29.95,10.37,3.06,2,3.12,2.56.77,5.32-3.63,4.29-8.3,7-13.47,9.09a12.48,12.48,0,0,0-4.34,3,24.23,24.23,0,0,1-11.79,6.84c-1.14.3-2.51-.25-3.78-.41a27,27,0,0,1,.71-3.71,16.23,16.23,0,0,1,1.65-2.85,27,27,0,0,0-2.85-.55,57.89,57.89,0,0,1-20.23-5.31c-1.55-.73-2.35-.51-3.21,1a14.12,14.12,0,0,1-10,7.07c-1.35.25-2.89-.46-4.34-.73.41-1.21.73-2.46,1.24-3.62a15.08,15.08,0,0,1,1.54-2.43,4.53,4.53,0,0,0-.22-5.85c-.75-1-1.49-2-2.21-3-1.9-2.71-1.25-4.17,2.11-4.44a11.73,11.73,0,0,1,9.57,3.9c2,2,3.14,1.59,5.18,0a75.09,75.09,0,0,1,10.8-7.06C1485.29,175,1486.65,174.15,1484.45,170.64ZM1515,191.31c1.15-.81,1.81-1.68,2.43-1.65,4.1.19,6-3,8.39-5.32,1.34-1.27,1-2.36-.48-3.19-2.53-1.37-5.11-2.65-7.63-4.05-2.31-1.27-3.94-.54-5.42,1.43-1.65,2.18-3.66,4.32-1.79,7.2A62.46,62.46,0,0,0,1515,191.31Z"/><circle class="cls-2" cx="1516.8" cy="182.78" r="2.6"/><circle class="cls-3" cx="1516.72" cy="182.79" r="1.1"/><path class="cls-2" d="M1333.35,139.68c3.27-.24,6.08-1.06,8.6-.52,7.61,1.65,15.15,3.74,21.67,8.32,2.2,1.54,2.22,2,.44,3.92a24.2,24.2,0,0,1-10.09,6.32,9.27,9.27,0,0,0-3.24,2.11,17.69,17.69,0,0,1-8.8,4.72,8,8,0,0,1-2.76-.38,20,20,0,0,1,.61-2.7,11.8,11.8,0,0,1,1.28-2.05A19,19,0,0,0,1339,159a42.62,42.62,0,0,1-14.68-4.38c-1.12-.58-1.7-.43-2.37.65a10.37,10.37,0,0,1-7.52,4.93c-1,.15-2.1-.41-3.16-.64.33-.88.59-1.78,1-2.62a11.19,11.19,0,0,1,1.18-1.75,3.3,3.3,0,0,0,0-4.28c-.52-.75-1-1.5-1.54-2.27-1.33-2-.82-3.08,1.65-3.19a8.55,8.55,0,0,1,6.91,3.08c1.39,1.54,2.26,1.24,3.79.11a54.06,54.06,0,0,1,8.08-4.91C1333.86,142.9,1334.87,142.3,1333.35,139.68Zm21.85,15.87c.86-.57,1.36-1.19,1.82-1.15,3,.24,4.43-2,6.27-3.69,1-.9.81-1.7-.28-2.34-1.82-1.07-3.67-2.07-5.48-3.15s-2.88-.5-4,.91c-1.25,1.56-2.78,3.07-1.48,5.22A46.29,46.29,0,0,0,1355.2,155.55Z"/><circle class="cls-2" cx="1356.74" cy="149.35" r="1.9"/><circle class="cls-3" cx="1356.68" cy="149.36" r="0.81"/><path class="cls-4" d="M1276.87,161.47c3.27,0,6.14-.56,8.6.19,7.45,2.26,14.79,5,20.92,10,2.06,1.71,2,2.12.11,3.94a24.23,24.23,0,0,1-10.56,5.48,9.16,9.16,0,0,0-3.4,1.84,17.78,17.78,0,0,1-9.15,4,7.79,7.79,0,0,1-2.71-.61,19.26,19.26,0,0,1,.82-2.64,12.52,12.52,0,0,1,1.44-1.94c-.79-.25-1.39-.51-2-.64a42.6,42.6,0,0,1-14.27-5.55,1.5,1.5,0,0,0-2.42.45,10.32,10.32,0,0,1-7.89,4.31c-1,.07-2.06-.58-3.09-.9.4-.85.74-1.72,1.2-2.53a12.15,12.15,0,0,1,1.32-1.64,3.32,3.32,0,0,0,.34-4.27c-.47-.79-.92-1.58-1.36-2.38-1.16-2.13-.56-3.14,1.91-3.05a8.56,8.56,0,0,1,6.63,3.63c1.26,1.65,2.15,1.42,3.77.42a52.93,52.93,0,0,1,8.45-4.23C1277.11,164.72,1278.17,164.21,1276.87,161.47Zm20.47,17.59c.9-.5,1.46-1.08,1.9-1,3,.48,4.59-1.68,6.55-3.17,1.08-.81,1-1.63-.08-2.36-1.73-1.21-3.5-2.36-5.21-3.58s-2.82-.73-4.06.58-3,2.84-1.91,5.09A47.37,47.37,0,0,0,1297.34,179.06Z"/><circle class="cls-2" cx="1299.38" cy="173.01" r="1.9"/><circle class="cls-3" cx="1299.32" cy="173.01" r="0.81"/><path class="cls-4" d="M558.1,187.57c3.19.75,6.12.8,8.36,2.07,6.77,3.85,13.34,8.09,18.19,14.4,1.63,2.12,1.54,2.52-.75,3.87a24.43,24.43,0,0,1-11.51,3,9.11,9.11,0,0,0-3.73,1,17.78,17.78,0,0,1-9.8,1.88,8.19,8.19,0,0,1-2.51-1.19,20.21,20.21,0,0,1,1.38-2.4,13.39,13.39,0,0,1,1.83-1.57,19.25,19.25,0,0,0-1.83-1.07,42.45,42.45,0,0,1-12.7-8.55c-.9-.88-1.5-.92-2.46-.09a10.34,10.34,0,0,1-8.64,2.46c-1-.15-1.89-1-2.82-1.55.57-.74,1.09-1.52,1.73-2.2a10.48,10.48,0,0,1,1.64-1.31,3.33,3.33,0,0,0,1.27-4.1c-.28-.87-.55-1.74-.8-2.62-.67-2.33.14-3.18,2.53-2.56a8.59,8.59,0,0,1,5.67,5c.87,1.88,1.79,1.86,3.58,1.23a54.49,54.49,0,0,1,9.18-2.27C557.62,190.8,558.77,190.53,558.1,187.57Zm16.11,21.66c1-.29,1.66-.73,2.08-.56,2.78,1.13,4.84-.63,7.08-1.65,1.23-.55,1.28-1.38.43-2.32-1.41-1.56-2.89-3.07-4.29-4.64s-2.59-1.33-4.09-.32c-1.66,1.11-3.57,2.1-3,4.54A45.17,45.17,0,0,0,574.21,209.23Z"/><circle class="cls-2" cx="577.53" cy="203.77" r="1.9"/><circle class="cls-3" cx="577.47" cy="203.76" r="0.81"/><path class="cls-2" d="M1202.31,106.82c3.18-.77,5.82-2,8.39-1.91,7.78.38,15.55,1.2,22.73,4.65,2.42,1.16,2.51,1.56,1.07,3.79a24.25,24.25,0,0,1-8.9,7.89,9.15,9.15,0,0,0-2.86,2.61,17.83,17.83,0,0,1-7.91,6.1,7.74,7.74,0,0,1-2.77.06,21.09,21.09,0,0,1,.15-2.76,11.46,11.46,0,0,1,.93-2.22,17,17,0,0,0-2.13-.13,42.46,42.46,0,0,1-15.19-1.92c-1.19-.38-1.75-.14-2.23,1a10.36,10.36,0,0,1-6.61,6.1c-1,.31-2.14-.06-3.21-.12a27.67,27.67,0,0,1,.55-2.74,10.07,10.07,0,0,1,.88-1.92,3.32,3.32,0,0,0-.72-4.22q-1-1-1.89-2c-1.65-1.78-1.31-2.91,1.1-3.42a8.56,8.56,0,0,1,7.32,1.91c1.62,1.29,2.43.85,3.76-.52a54,54,0,0,1,7.16-6.16C1203.34,109.92,1204.24,109.16,1202.31,106.82Zm24.14,12.08c.75-.7,1.15-1.4,1.6-1.44,3-.25,4-2.74,5.58-4.66.85-1,.52-1.82-.65-2.27-2-.75-4-1.44-5.93-2.21-1.8-.7-2.91,0-3.8,1.56-1,1.74-2.24,3.49-.6,5.39A46.15,46.15,0,0,0,1226.45,118.9Z"/><circle class="cls-2" cx="1226.95" cy="112.53" r="1.9"/><circle class="cls-3" cx="1226.89" cy="112.55" r="0.81"/><path class="cls-2" d="M1184.51,239.2c3.19-.77,5.83-2,8.4-1.91,7.77.38,15.55,1.2,22.73,4.65,2.41,1.16,2.51,1.56,1.07,3.79a24.28,24.28,0,0,1-8.91,7.89,9.26,9.26,0,0,0-2.86,2.61,17.68,17.68,0,0,1-7.9,6.1,7.8,7.8,0,0,1-2.78.06,19.48,19.48,0,0,1,.16-2.76,12.27,12.27,0,0,1,.92-2.22,16.88,16.88,0,0,0-2.12-.13,42.24,42.24,0,0,1-15.19-1.92c-1.2-.38-1.75-.14-2.24,1a10.35,10.35,0,0,1-6.6,6.09c-1,.31-2.14-.06-3.22-.12.18-.92.29-1.85.55-2.74a11.85,11.85,0,0,1,.88-1.92,3.32,3.32,0,0,0-.71-4.22c-.64-.65-1.28-1.31-1.9-2-1.64-1.78-1.31-2.9,1.11-3.42a8.57,8.57,0,0,1,7.32,1.91c1.62,1.29,2.43.85,3.75-.52a55.37,55.37,0,0,1,7.16-6.16C1185.54,242.3,1186.44,241.54,1184.51,239.2Zm24.14,12.08c.76-.7,1.15-1.4,1.61-1.44,3-.25,4-2.74,5.58-4.66.84-1.05.52-1.81-.66-2.26-2-.76-4-1.44-5.93-2.21-1.79-.71-2.91,0-3.79,1.55-1,1.74-2.25,3.49-.61,5.4A47.55,47.55,0,0,0,1208.65,251.28Z"/><circle class="cls-2" cx="1209.16" cy="244.91" r="1.9"/><circle class="cls-3" cx="1209.1" cy="244.93" r="0.81"/><path class="cls-2" d="M438.8,136.37c2.93,1.45,5.77,2.18,7.66,3.93,5.71,5.29,11.13,10.92,14.41,18.18,1.1,2.44.92,2.8-1.62,3.59a24.17,24.17,0,0,1-11.89.31,9.36,9.36,0,0,0-3.87.16,17.7,17.7,0,0,1-10-.41c-.83-.26-1.45-1.14-2.17-1.74a20,20,0,0,1,1.89-2,12.93,12.93,0,0,1,2.14-1.11,16.68,16.68,0,0,0-1.54-1.46,42.5,42.5,0,0,1-10.4-11.24c-.67-1.06-1.25-1.23-2.37-.65a10.34,10.34,0,0,1-9,.42c-.94-.38-1.6-1.42-2.39-2.16a26.11,26.11,0,0,1,2.19-1.74,9.74,9.74,0,0,1,1.9-.9,3.32,3.32,0,0,0,2.17-3.7q-.1-1.36-.18-2.73c-.11-2.42.87-3.07,3.05-1.91a8.54,8.54,0,0,1,4.37,6.17c.42,2,1.32,2.22,3.21,2a54.21,54.21,0,0,1,9.45-.1C437.6,139.4,438.77,139.4,438.8,136.37Zm10.72,24.77c1,0,1.78-.33,2.15-.07,2.45,1.73,4.85.5,7.27,0,1.33-.26,1.57-1.06,1-2.16-1-1.84-2.11-3.65-3.12-5.5s-2.22-1.89-3.91-1.26c-1.87.71-4,1.23-3.93,3.75A45.67,45.67,0,0,0,449.52,161.14Z"/><circle class="cls-2" cx="454" cy="156.59" r="1.9"/><circle class="cls-3" cx="453.94" cy="156.56" r="0.81"/><path class="cls-2" d="M106.92,55c2.65,1.32,5.23,2,6.94,3.56,5.17,4.8,10.08,9.9,13.06,16.48,1,2.21.83,2.54-1.47,3.25a22,22,0,0,1-10.78.28,8.28,8.28,0,0,0-3.5.15,16.16,16.16,0,0,1-9-.38c-.74-.23-1.31-1-2-1.57A17.46,17.46,0,0,1,101.88,75a11.75,11.75,0,0,1,1.94-1,18.28,18.28,0,0,0-1.4-1.33A38.38,38.38,0,0,1,93,62.44c-.61-1-1.13-1.12-2.15-.58a9.42,9.42,0,0,1-8.14.38c-.84-.35-1.45-1.29-2.16-2a24.47,24.47,0,0,1,2-1.58,9.79,9.79,0,0,1,1.73-.82,3,3,0,0,0,2-3.35c-.06-.82-.12-1.65-.16-2.48-.1-2.19.78-2.77,2.76-1.73a7.79,7.79,0,0,1,4,5.6c.37,1.84,1.19,2,2.9,1.82a48.94,48.94,0,0,1,8.56-.09C105.83,57.75,106.89,57.75,106.92,55Zm9.71,22.44c.93,0,1.61-.3,2-.06,2.22,1.57,4.4.45,6.59,0,1.2-.24,1.42-1,.86-2-.93-1.67-1.91-3.3-2.82-5s-2-1.71-3.54-1.14c-1.7.64-3.59,1.12-3.57,3.39A42,42,0,0,0,116.63,77.45Z"/><circle class="cls-2" cx="120.69" cy="73.33" r="1.72"/><circle class="cls-3" cx="120.64" cy="73.31" r="0.73"/><path class="cls-2" d="M610.92,271.08c3.27-.21,6.09-1,8.6-.43,7.59,1.73,15.1,3.89,21.57,8.54,2.17,1.56,2.2,2,.39,3.92a24.22,24.22,0,0,1-10.14,6.22,9.23,9.23,0,0,0-3.27,2.07,17.71,17.71,0,0,1-8.84,4.63,7.75,7.75,0,0,1-2.75-.42,21.91,21.91,0,0,1,.63-2.69,12.28,12.28,0,0,1,1.3-2,18.51,18.51,0,0,0-2.07-.5,42.26,42.26,0,0,1-14.62-4.53c-1.11-.58-1.7-.44-2.38.63a10.37,10.37,0,0,1-7.57,4.85c-1,.14-2.09-.43-3.15-.68.34-.87.61-1.77,1-2.6a10.1,10.1,0,0,1,1.2-1.73,3.33,3.33,0,0,0,0-4.28c-.52-.76-1-1.52-1.52-2.29-1.31-2-.79-3.08,1.68-3.17a8.54,8.54,0,0,1,6.87,3.15c1.38,1.56,2.25,1.27,3.79.15a54,54,0,0,1,8.13-4.82C611.39,274.3,612.41,273.71,610.92,271.08Zm21.67,16.09c.86-.56,1.37-1.18,1.82-1.13,3,.27,4.46-2,6.31-3.62,1-.89.83-1.7-.25-2.35-1.81-1.08-3.65-2.11-5.45-3.21-1.65-1-2.87-.52-4,.87-1.27,1.55-2.82,3-1.54,5.21A45.25,45.25,0,0,0,632.59,287.17Z"/><circle class="cls-2" cx="634.19" cy="280.99" r="1.9"/><circle class="cls-3" cx="634.13" cy="280.99" r="0.81"/><path class="cls-4" d="M975.56,129.7c3.28,0,6.14-.57,8.61.18,7.45,2.26,14.79,5,20.91,10.05,2.06,1.71,2.06,2.12.12,3.93a24.41,24.41,0,0,1-10.56,5.49,9.18,9.18,0,0,0-3.41,1.83,17.7,17.7,0,0,1-9.15,4,7.89,7.89,0,0,1-2.71-.61,23.11,23.11,0,0,1,.82-2.64,12,12,0,0,1,1.44-1.93,16.92,16.92,0,0,0-2-.64,42.25,42.25,0,0,1-14.27-5.56c-1.07-.66-1.67-.56-2.42.46a10.37,10.37,0,0,1-7.89,4.3c-1,.07-2.06-.58-3.09-.9.39-.84.73-1.72,1.2-2.52a10.31,10.31,0,0,1,1.32-1.64,3.31,3.31,0,0,0,.33-4.27c-.46-.79-.91-1.59-1.35-2.39-1.16-2.12-.57-3.13,1.9-3.05a8.58,8.58,0,0,1,6.63,3.64c1.26,1.65,2.16,1.42,3.77.41a55.11,55.11,0,0,1,8.45-4.23C975.8,133,976.86,132.43,975.56,129.7ZM996,147.28c.91-.49,1.46-1.07,1.91-1,3,.49,4.58-1.68,6.55-3.16,1.07-.82.94-1.64-.09-2.36-1.72-1.21-3.49-2.36-5.21-3.59s-2.82-.72-4.06.59-3,2.83-1.9,5.08A47.42,47.42,0,0,0,996,147.28Z"/><circle class="cls-2" cx="998.07" cy="141.23" r="1.9"/><circle class="cls-3" cx="998.01" cy="141.23" r="0.81"/><path class="cls-4" d="M1003.86,238.55c3.28,0,6.15-.57,8.61.18,7.45,2.26,14.79,5,20.91,10.05,2.06,1.71,2.06,2.12.12,3.93a24.14,24.14,0,0,1-10.56,5.49,9.18,9.18,0,0,0-3.41,1.83,17.63,17.63,0,0,1-9.15,4,7.89,7.89,0,0,1-2.71-.61,21.85,21.85,0,0,1,.83-2.64,12.53,12.53,0,0,1,1.43-1.93,19,19,0,0,0-2-.64,42.41,42.41,0,0,1-14.27-5.56,1.5,1.5,0,0,0-2.42.46,10.36,10.36,0,0,1-7.89,4.3c-1,.07-2.06-.58-3.09-.9.39-.84.73-1.72,1.2-2.52a10.31,10.31,0,0,1,1.32-1.64,3.31,3.31,0,0,0,.33-4.27c-.46-.79-.91-1.58-1.35-2.39-1.16-2.12-.57-3.13,1.9-3.05a8.61,8.61,0,0,1,6.64,3.64c1.26,1.65,2.15,1.42,3.76.41a55.56,55.56,0,0,1,8.45-4.23C1004.11,241.8,1005.17,241.28,1003.86,238.55Zm20.48,17.58c.9-.49,1.45-1.07,1.9-1,3,.49,4.58-1.67,6.55-3.16,1.08-.82,1-1.64-.09-2.36-1.72-1.21-3.49-2.36-5.21-3.59-1.57-1.12-2.82-.72-4.06.59s-3,2.84-1.9,5.08A44.89,44.89,0,0,0,1024.34,256.13Z"/><circle class="cls-2" cx="1026.37" cy="250.08" r="1.9"/><circle class="cls-3" cx="1026.31" cy="250.08" r="0.81"/><path class="cls-4" d="M1754.63,213.41c3.28,0,6.15-.56,8.61.18,7.45,2.26,14.79,4.95,20.91,10,2.06,1.71,2.06,2.12.12,3.93a24.14,24.14,0,0,1-10.56,5.49,9.18,9.18,0,0,0-3.41,1.83,17.72,17.72,0,0,1-9.15,4,8.15,8.15,0,0,1-2.71-.62,21.85,21.85,0,0,1,.83-2.64,12,12,0,0,1,1.44-1.93,19.83,19.83,0,0,0-2-.64,42.41,42.41,0,0,1-14.27-5.56,1.5,1.5,0,0,0-2.42.46,10.35,10.35,0,0,1-7.89,4.31c-1,.06-2.06-.58-3.09-.9a27.91,27.91,0,0,1,1.2-2.53,10.31,10.31,0,0,1,1.32-1.64,3.31,3.31,0,0,0,.33-4.27c-.46-.79-.91-1.58-1.35-2.39-1.16-2.12-.57-3.13,1.9-3a8.6,8.6,0,0,1,6.64,3.64c1.26,1.65,2.15,1.42,3.76.41a55.56,55.56,0,0,1,8.45-4.23C1754.88,216.66,1755.94,216.14,1754.63,213.41ZM1775.11,231c.9-.49,1.45-1.07,1.9-1,3,.49,4.59-1.67,6.55-3.16,1.08-.82,1-1.63-.09-2.36-1.72-1.21-3.49-2.36-5.21-3.58-1.57-1.13-2.82-.73-4.06.58s-3,2.84-1.9,5.08A44.89,44.89,0,0,0,1775.11,231Z"/><circle class="cls-2" cx="1777.15" cy="224.94" r="1.9"/><circle class="cls-3" cx="1777.09" cy="224.94" r="0.81"/><path class="cls-4" d="M534.8,245.15c3.17.84,6.09,1,8.29,2.32,6.65,4.05,13.09,8.49,17.75,15,1.56,2.18,1.46,2.57-.87,3.84a24.27,24.27,0,0,1-11.6,2.68,9.15,9.15,0,0,0-3.76.93,17.85,17.85,0,0,1-9.85,1.58,8.07,8.07,0,0,1-2.47-1.27,20,20,0,0,1,1.45-2.35,12,12,0,0,1,1.88-1.52,19.53,19.53,0,0,0-1.81-1.13,42.13,42.13,0,0,1-12.42-8.94,1.51,1.51,0,0,0-2.46-.16,10.33,10.33,0,0,1-8.72,2.2c-1-.18-1.85-1.07-2.77-1.64.6-.72,1.14-1.49,1.8-2.15a10.61,10.61,0,0,1,1.69-1.26,3.32,3.32,0,0,0,1.39-4c-.26-.88-.5-1.76-.72-2.65-.59-2.34.23-3.17,2.6-2.47a8.56,8.56,0,0,1,5.52,5.17c.81,1.91,1.73,1.91,3.55,1.34a54.77,54.77,0,0,1,9.23-2C534.23,248.36,535.38,248.12,534.8,245.15Zm15.44,22.14c1-.26,1.68-.68,2.09-.5,2.75,1.21,4.86-.47,7.13-1.42,1.25-.52,1.33-1.35.51-2.31-1.37-1.6-2.79-3.16-4.15-4.77s-2.55-1.41-4.08-.45c-1.7,1.06-3.63,2-3.11,4.45A45.49,45.49,0,0,0,550.24,267.29Z"/><circle class="cls-2" cx="553.72" cy="261.94" r="1.9"/><circle class="cls-3" cx="553.66" cy="261.92" r="0.81"/><path class="cls-4" d="M1066.41,60.75c3-1.38,5.31-3.14,7.85-3.52,7.71-1.14,15.49-1.85,23.21.13,2.59.67,2.76,1,1.79,3.51a24.2,24.2,0,0,1-7.2,9.47,9.28,9.28,0,0,0-2.29,3.12A17.7,17.7,0,0,1,1083.2,81a7.87,7.87,0,0,1-2.71.61,19.62,19.62,0,0,1-.38-2.74,12.47,12.47,0,0,1,.47-2.36,20,20,0,0,0-2.11.29,42.47,42.47,0,0,1-15.27,1.08c-1.25-.14-1.74.21-2,1.45a10.35,10.35,0,0,1-5.29,7.27c-.88.49-2.11.36-3.18.51,0-.93-.07-1.87,0-2.8a10.72,10.72,0,0,1,.49-2.05,3.32,3.32,0,0,0-1.53-4c-.75-.51-1.5-1-2.24-1.57-2-1.43-1.86-2.59.41-3.57a8.56,8.56,0,0,1,7.55.44c1.85.95,2.56.36,3.58-1.24a55.68,55.68,0,0,1,5.83-7.44C1068,63.58,1068.76,62.66,1066.41,60.75Zm26,7.13c.6-.83.85-1.59,1.29-1.72,2.89-.83,3.43-3.47,4.57-5.66.62-1.2.15-1.88-1.09-2.1-2.08-.35-4.17-.63-6.24-1-1.9-.34-2.86.56-3.43,2.27-.62,1.9-1.51,3.86.46,5.41A46.57,46.57,0,0,0,1092.44,67.88Z"/><circle class="cls-2" cx="1091.69" cy="61.54" r="1.9"/><circle class="cls-3" cx="1091.64" cy="61.57" r="0.81"/><path class="cls-2" d="M1013.29,110.85c.5-2.61-.83-5.57-1.49-9.06a34.5,34.5,0,0,1,4.32,2.35,26.27,26.27,0,0,1,3.12,3.12c1.47,1.53,3,1.91,4.92.64a32.5,32.5,0,0,1,13.3-5.16c.67-.1,1.78-.87,1.77-1.31-.11-3.89,2.37-2.84,4-1.83,6.57,4.14,13.3,8.14,18.48,14.1a21.11,21.11,0,0,1,2.28,3.46c1.93,3.41,1.66,4.5-1.43,7-3.87,3.18-8.52,4.2-13.28,5.06a15.58,15.58,0,0,0-3.88,1.74c-2.18,1.11-4.27,3-6.52,3.19-1.81.16-3.81-1.65-5.73-2.59.68-1.16,1.37-2.31,2-3.47.08-.14,0-.34,0,.3-4.18-3.85-8.17-7.22-11.8-11-2.89-3-2.69-3.17-6.05-.59-3,2.34-6,2.66-8.39,1C1010.44,115.55,1012.81,113.38,1013.29,110.85Zm48.44,12.47c2.32-1.24,2.74-3.34,1-5.59-1.5-2-2.89-4.08-4.57-5.91a2.7,2.7,0,0,0-2.62-.23c-5,4.14-5.69,8.94-1.91,15A74.61,74.61,0,0,0,1061.73,123.32Zm-47.49-9.89c2-1.08,3.27-2.18.92-4.33Z"/><path class="cls-2" d="M1060.39,120a3.09,3.09,0,0,1-3.59,3,3.13,3.13,0,0,1-3-3.64c.18-2.06,1.65-3,3.67-3.1C1059.36,116.78,1060.6,117.9,1060.39,120Z"/><circle class="cls-3" cx="1057.03" cy="119.66" r="2.49"/><circle class="cls-2" cx="1057.11" cy="119.67" r="1.06"/><path class="cls-2" d="M1038.66,279.53c.9-2.51,0-5.64-.06-9.2a37,37,0,0,1,3.9,3,26.56,26.56,0,0,1,2.59,3.58c1.21,1.75,2.71,2.37,4.76,1.41a32.38,32.38,0,0,1,14-3c.67,0,1.89-.58,2-1,.51-3.86,2.78-2.44,4.22-1.18,5.84,5.12,11.85,10.12,16,16.83a20.35,20.35,0,0,1,1.71,3.77c1.37,3.67.94,4.7-2.52,6.73-4.32,2.53-9.07,2.8-13.91,2.91a15,15,0,0,0-4.1,1.11c-2.33.75-4.69,2.27-6.94,2.12-1.82-.12-3.51-2.23-5.26-3.46.86-1,1.72-2.06,2.56-3.11.1-.12.1-.32-.08.3-3.52-4.46-6.93-8.42-9.92-12.67-2.39-3.4-2.16-3.56-5.89-1.53-3.37,1.83-6.4,1.67-8.44-.34C1035.1,283.72,1037.78,282,1038.66,279.53Zm45.86,19.92c2.49-.86,3.24-2.87,1.92-5.36-1.16-2.2-2.21-4.48-3.58-6.55a2.7,2.7,0,0,0-2.55-.64c-5.63,3.3-7,7.93-4.25,14.52A75,75,0,0,0,1084.52,299.45Zm-45.33-17.24c2.12-.75,3.57-1.63,1.59-4.12Z"/><path class="cls-2" d="M1083.73,296a3.07,3.07,0,0,1-4,2.4,3.12,3.12,0,0,1-2.39-4.06c.5-2,2.09-2.66,4.11-2.48C1083.22,292.62,1084.27,293.92,1083.73,296Z"/><circle class="cls-3" cx="1080.47" cy="295.09" r="2.49"/><circle class="cls-2" cx="1080.54" cy="295.12" r="1.06"/><path class="cls-2" d="M315.58,97.27c.5-2.61-.84-5.58-1.5-9.07a35.85,35.85,0,0,1,4.32,2.35,25.63,25.63,0,0,1,3.12,3.13c1.47,1.53,3.05,1.91,4.92.64a32.28,32.28,0,0,1,13.3-5.16c.67-.11,1.78-.88,1.77-1.31-.1-3.89,2.37-2.85,4-1.83,6.58,4.14,13.3,8.13,18.48,14.1a20.7,20.7,0,0,1,2.28,3.46c1.93,3.4,1.67,4.49-1.43,7-3.87,3.18-8.52,4.19-13.28,5a15.62,15.62,0,0,0-3.88,1.75c-2.18,1.11-4.26,3-6.51,3.18-1.82.17-3.82-1.65-5.74-2.59.68-1.15,1.37-2.31,2-3.47.08-.14.05-.34,0,.3-4.18-3.84-8.17-7.22-11.79-11-2.9-3-2.7-3.17-6.06-.58-3,2.33-6.05,2.65-8.39,1C312.73,102,315.09,99.8,315.58,97.27ZM364,109.74c2.32-1.25,2.74-3.35,1.05-5.6-1.5-2-2.89-4.07-4.56-5.9a2.68,2.68,0,0,0-2.62-.23c-5.05,4.14-5.7,8.93-1.92,15A78.93,78.93,0,0,0,364,109.74Zm-47.48-9.9c2-1.07,3.26-2.17.92-4.32Z"/><path class="cls-2" d="M362.67,106.41a3.07,3.07,0,0,1-3.59,3,3.13,3.13,0,0,1-3-3.64c.18-2,1.65-3,3.67-3.09C361.64,103.2,362.88,104.31,362.67,106.41Z"/><circle class="cls-3" cx="359.32" cy="106.07" r="2.49"/><circle class="cls-2" cx="359.4" cy="106.08" r="1.06"/><path class="cls-4" d="M990.47,195c6.81-6.72,2.41-15.73,4.74-24,3.95,2.38,7.09,4.63,10.54,6.22a9.07,9.07,0,0,0,5.85.24c2.18-.64,3-2.3,2-5-3.37-8.95-2.52-10.2,7-12.22,22.41-4.76,39.44,5.93,45.35,23.79,1.44,4.35,4.37,8.18,6,12.48.59,1.54.18,4.51-1,5.52-10.61,9.5-21.91,17.66-37.18,17.38-9.65-.19-17.64-3.9-24.48-10.52-2.3-2.23-2.69-4.38,0-6.31,4-2.81,1.3-5.29-.07-8-1.56-3-3.85-2.18-6.15-1.36s-4.41,1.91-6.71,2.53a30.39,30.39,0,0,1-5.34.51Zm61.12.83c.59,4.2,1,7.57,1.57,10.9.48,2.62,2.17,3.63,4.55,2.18a128.12,128.12,0,0,0,11.45-7.65,4.49,4.49,0,0,0,1-4.2,146.63,146.63,0,0,0-7.54-13.1c-1.48-2.33-3.57-2.27-4.94.11C1055.43,188,1053.49,192.12,1051.59,195.84Z"/><circle class="cls-5" cx="1060.66" cy="192.26" r="4.04"/><circle class="cls-4" cx="1060.53" cy="192.25" r="1.72"/><path class="cls-2" d="M1174.48,356.75c7.59-3.58,6.57-12.32,10.9-18.48a100.06,100.06,0,0,0,6.91,8.22,8,8,0,0,0,4.77,1.9c2,.1,3.13-1,3.08-3.53-.19-8.39.87-9.18,9.34-8.09,19.94,2.58,30.93,16.37,30.63,32.88-.07,4,1.24,8,1.38,12.08,0,1.45-1.17,3.79-2.39,4.3-11.54,4.78-23.27,8.25-35.83,3.58-7.94-3-13.47-8.35-17.21-15.82-1.26-2.52-1-4.41,1.86-5.21,4.11-1.17,2.62-4,2.26-6.62-.4-3-2.55-2.93-4.7-2.91s-4.2.29-6.28.14a26.86,26.86,0,0,1-4.58-1.13Zm50.36,18.45c-.73,3.65-1.41,6.55-1.87,9.48-.36,2.31.75,3.64,3.13,3.12a111.63,111.63,0,0,0,11.71-3,4,4,0,0,0,2-3.19,131.61,131.61,0,0,0-2.44-13c-.54-2.36-2.3-2.92-4.12-1.34C1230.29,369.84,1227.49,372.68,1224.84,375.2Z"/><circle class="cls-6" cx="1233.39" cy="374.88" r="3.54"/><circle class="cls-4" cx="1233.29" cy="374.83" r="1.5"/><path class="cls-2" d="M675.34,182.61c2.91-6.46-2.53-11.51-3.13-17.83a85.24,85.24,0,0,0,8.94,1.49,6.72,6.72,0,0,0,4.11-1.4c1.33-1,1.44-2.38,0-4-4.72-5.28-4.47-6.37,1.57-10.31,14.22-9.27,28.83-6.43,37.68,4.33,2.16,2.62,5.2,4.49,7.5,7a4.56,4.56,0,0,1,.82,4.07c-4.79,9.39-10.42,18-21,21.93a25.92,25.92,0,0,1-19.72-.74c-2.18-.92-3-2.3-1.65-4.36,2-3-.51-4-2.18-5.49-1.88-1.68-3.24-.48-4.61.7s-2.54,2.5-4,3.54a21.47,21.47,0,0,1-3.56,1.77Zm42.44-15.73c1.53,2.74,2.69,5,4,7.11,1,1.68,2.47,1.92,3.72.29a94.13,94.13,0,0,0,5.87-8.34,3.33,3.33,0,0,0-.43-3.17,109.17,109.17,0,0,0-8.7-7c-1.65-1.21-3.08-.61-3.38,1.4C718.35,160.45,718.11,163.8,717.78,166.88Z"/><circle class="cls-7" cx="723.1" cy="161.99" r="2.99"/><circle class="cls-4" cx="723.01" cy="162.01" r="1.27"/><path class="cls-4" d="M1255.73,117.25c3.92-1.89,3.35-6.42,5.57-9.64a49.06,49.06,0,0,0,3.63,4.24,4.14,4.14,0,0,0,2.48,1c1,0,1.62-.55,1.58-1.84-.13-4.36.42-4.77,4.82-4.24,10.36,1.25,16.12,8.36,16,16.93,0,2.09.68,4.17.77,6.27a2.83,2.83,0,0,1-1.22,2.24c-6,2.53-12.05,4.39-18.59,2a15.89,15.89,0,0,1-9-8.13c-.67-1.3-.52-2.29.94-2.72,2.13-.62,1.34-2.08,1.15-3.44-.23-1.54-1.34-1.51-2.45-1.49s-2.19.17-3.27.1a13.71,13.71,0,0,1-2.38-.57Zm26.22,9.36c-.37,1.9-.7,3.41-.93,4.93-.18,1.2.4,1.88,1.64,1.61a59.36,59.36,0,0,0,6.06-1.61,2,2,0,0,0,1-1.67,64.88,64.88,0,0,0-1.32-6.75c-.29-1.22-1.21-1.51-2.14-.68C1284.76,123.8,1283.32,125.29,1282,126.61Z"/><circle class="cls-2" cx="1286.39" cy="126.41" r="1.84"/><circle class="cls-2" cx="1286.33" cy="126.38" r="0.78"/><path class="cls-4" d="M359.36,139.61c3.61-2.43,2.41-6.83,4.15-10.33A53.07,53.07,0,0,0,367.7,133a4.17,4.17,0,0,0,2.6.6c1-.1,1.52-.78,1.3-2.05-.75-4.29-.26-4.78,4.17-4.88,10.43-.23,17.15,6,18.28,14.49.28,2.07,1.26,4,1.65,6.1a2.84,2.84,0,0,1-.9,2.39c-5.55,3.35-11.3,6-18.11,4.63a15.93,15.93,0,0,1-10.06-6.79c-.85-1.19-.84-2.18.55-2.81,2-.93,1-2.26.64-3.58-.44-1.49-1.54-1.3-2.64-1.13s-2.13.48-3.21.57a13.6,13.6,0,0,1-2.44-.23Zm27.28,5.55c-.09,1.93-.21,3.47-.22,5,0,1.22.67,1.81,1.85,1.36a58.91,58.91,0,0,0,5.78-2.45,2.06,2.06,0,0,0,.8-1.8,68.44,68.44,0,0,0-2.26-6.5c-.47-1.17-1.41-1.32-2.22-.37C389,142,387.81,143.66,386.64,145.16Z"/><circle class="cls-2" cx="391.01" cy="144.33" r="1.84"/><circle class="cls-2" cx="390.95" cy="144.31" r="0.78"/><path class="cls-4" d="M86.81,26.84c3.09-3.08,1.07-7.17,2.11-10.94a51.05,51.05,0,0,0,4.82,2.82,4.17,4.17,0,0,0,2.66.1c1-.3,1.35-1.06.89-2.26-1.55-4.07-1.17-4.65,3.16-5.59,10.2-2.21,18,2.63,20.71,10.76.66,2,2,3.71,2.77,5.67a2.84,2.84,0,0,1-.42,2.52c-4.81,4.34-10,8.08-16.9,8a15.93,15.93,0,0,1-11.17-4.74c-1.06-1-1.24-2,0-2.88,1.81-1.28.59-2.41,0-3.63s-1.75-1-2.8-.6-2,.87-3,1.16a13.9,13.9,0,0,1-2.43.24Zm27.84.26c.28,1.91.45,3.45.74,5,.22,1.2,1,1.65,2.07,1a57.08,57.08,0,0,0,5.21-3.5,2,2,0,0,0,.44-1.92,68.17,68.17,0,0,0-3.46-5.95c-.67-1.06-1.63-1-2.25.06C116.39,23.53,115.51,25.4,114.65,27.1Z"/><circle class="cls-2" cx="118.78" cy="25.45" r="1.84"/><circle class="cls-2" cx="118.72" cy="25.45" r="0.78"/><path class="cls-4" d="M1125.55,156.91c-11.81-8.66-12.57-8.67-24.78-.71a31.42,31.42,0,0,1-4.8,2.14l-1.32-1.74,9.29-10.27a22.14,22.14,0,0,1-3.44-3.62,46.5,46.5,0,0,1-2.67-6.07,54.42,54.42,0,0,1,6,2.1c2.71,1.3,5.13,3.29,7.93,4.24a7.82,7.82,0,0,0,6-.36c5.54-3.57,10.75-7.66,16.32-11.71.07-1.56-5.15-3.9-.13-5.41,6.11-1.83,12.44-1.72,17.66,2.68,5.06,4.27,9.83,8.88,14.62,13.46,1.62,1.55,3.39,3.29,4.17,5.3.69,1.77.88,4.53-.06,6a30.31,30.31,0,0,1-17.41,13c-1.28.38-3,.61-3.67,1.53-5.16,6.71-12.63,3-19,4.31-.79.17-2.45-1-2.69-1.86s.77-2.18,1.59-2.84a55.11,55.11,0,0,1,5.68-3.5C1131.39,161.13,1128.45,159.05,1125.55,156.91Zm31.45,4.16c4.07-3.07,8-5.75,11.48-8.85.84-.73,1.16-3.45.49-4.26-3.17-3.9-6.76-7.45-10.85-11.81C1152.44,144.92,1153,152.33,1157,161.07Zm-6.2-21.39c-11.69-1.24-23-.33-32.22,8.28-.16.15-.09.54-.14.83,10.63-4.37,21.7-5.48,33.41-4.84C1152.78,142.39,1154.49,140.07,1150.8,139.68Zm-18.64,13c3.76-.62,7.14-2.74,11.36-1.65,2.16.56,4.75-.52,8-1-.74-.8-1.6-2.55-2.53-2.59a68.44,68.44,0,0,0-26.49,3.7v1.46C1125.74,152.66,1129,153.18,1132.16,152.66Zm-2.09,4c2.24,1.85,3.59,4.51,7.53,2.55,2.69-1.33,6.51-.22,9.76-.68,1.59-.22,3-1.54,4.54-2.36l-.06-1.34C1144.4,151.81,1137.4,156.8,1130.07,156.65Zm-1.58-18.53c9.18-2.87,17.69-3.75,27.41-.23C1149.93,130.15,1136.23,130.57,1128.49,138.12ZM1141.63,163c6.91,1.87,10.66,1.36,13.14-2.58Z"/><circle class="cls-8" cx="1159.82" cy="146.02" r="3.21"/><circle class="cls-4" cx="1159.92" cy="146.02" r="1.36"/><path class="cls-4" d="M1662.08,190.06c-10-10.73-10.73-10.87-24.21-5.34a32,32,0,0,1-5.11,1.21l-1-2,11-8.35a22.05,22.05,0,0,1-2.7-4.21,45.81,45.81,0,0,1-1.49-6.45,51.76,51.76,0,0,1,5.46,3.17c2.41,1.79,4.42,4.19,7,5.65,1.64.94,4.3,1.43,6,.76,6.11-2.47,12-5.5,18.23-8.44.36-1.52-4.33-4.8.88-5.33,6.34-.66,12.55.63,16.85,5.93,4.17,5.14,8,10.56,11.84,16,1.3,1.84,2.71,3.87,3.1,6,.35,1.87,0,4.62-1.18,5.88a30.31,30.31,0,0,1-19.54,9.54c-1.33.13-3,0-3.89.81-6.32,5.63-13,.58-19.43.69-.81,0-2.22-1.46-2.3-2.33s1.17-2,2.1-2.49a55.77,55.77,0,0,1,6.23-2.38C1667,195.29,1664.53,192.7,1662.08,190.06Zm30.11,10c4.58-2.25,8.9-4.16,12.94-6.54,1-.57,1.78-3.18,1.28-4.1-2.39-4.42-5.25-8.59-8.45-13.63C1690.74,183.31,1689.92,190.7,1692.19,200Zm-2.08-22.18c-11.26-3.4-22.53-4.62-33.2,2.11-.18.12-.2.51-.29.79,11.26-2.3,22.34-1.33,33.72,1.49C1691.54,180.89,1693.66,178.92,1690.11,177.85Zm-20.75,9.27c3.82.09,7.54-1.36,11.48.51,2,1,4.76.37,8.05.52-.58-.92-1.09-2.8-2-3a68.77,68.77,0,0,0-26.72-1.33l-.26,1.45C1663.06,185.91,1666.2,187,1669.36,187.12Zm-2.79,3.52c1.85,2.24,2.68,5.11,6.92,3.92,2.89-.81,6.44,1,9.71,1.16,1.61.08,3.27-.95,4.91-1.47l.18-1.32C1681.56,188.57,1673.74,192.16,1666.57,190.64Zm1.92-18.5c9.55-1.09,18.07-.37,27,4.91C1691,168.33,1677.5,166.18,1668.49,172.14Zm8.25,26.88c6.44,3.14,10.21,3.34,13.39-.07Z"/><circle class="cls-8" cx="1697.78" cy="185.77" r="3.21"/><circle class="cls-4" cx="1697.88" cy="185.79" r="1.36"/><path class="cls-4" d="M462.17,199.58c-7.43-12.62-8.14-12.92-22.49-10.42a31.68,31.68,0,0,1-5.25.08l-.54-2.12,12.58-5.78a22.49,22.49,0,0,1-1.72-4.69,45.64,45.64,0,0,1-.07-6.62,53.86,53.86,0,0,1,4.65,4.26c2,2.27,3.42,5.05,5.61,7,1.4,1.27,3.89,2.32,5.65,2,6.5-1.1,12.9-2.8,19.61-4.33.68-1.4-3.19-5.61,2-5,6.33.73,12.11,3.32,15.17,9.42,3,5.91,5.54,12,8.13,18.12.88,2.07,1.82,4.36,1.75,6.52-.06,1.9-1,4.51-2.41,5.49a30.42,30.42,0,0,1-21.14,5.12c-1.33-.16-3-.61-4,0-7.39,4.13-12.8-2.22-19.13-3.5a3.32,3.32,0,0,1-1.74-2.77c.11-.79,1.56-1.71,2.59-2a56.87,56.87,0,0,1,6.59-1C465.88,205.75,464,202.68,462.17,199.58Zm27.27,16.21c4.95-1.22,9.58-2.15,14-3.61,1.06-.35,2.42-2.72,2.14-3.73-1.39-4.83-3.29-9.51-5.33-15.12C491.61,199.14,489.22,206.18,489.44,215.79Zm2.74-22.11c-10.27-5.74-21-9.36-32.88-5.07-.21.07-.31.45-.46.7,11.49.17,22.1,3.51,32.62,8.71C492.92,197,495.41,195.49,492.18,193.68Zm-22.26,4.59c3.71.91,7.65.29,11.1,3,1.76,1.37,4.57,1.39,7.75,2.25-.37-1-.47-3-1.31-3.38a68.44,68.44,0,0,0-25.8-7l-.57,1.35C464,195.74,466.85,197.52,469.92,198.27Zm-3.48,2.84c1.32,2.58,1.51,5.57,5.91,5.32,3-.17,6.07,2.36,9.24,3.22,1.55.42,3.39-.23,5.1-.39l.47-1.25C481.52,202.31,473.12,204.14,466.44,201.11Zm5.84-17.65c9.56,1,17.74,3.52,25.29,10.58C495.12,184.58,482.36,179.57,472.28,183.46Zm2.29,28c5.61,4.45,9.25,5.45,13.09,2.81Z"/><circle class="cls-8" cx="497.96" cy="203.06" r="3.21"/><circle class="cls-4" cx="498.06" cy="203.1" r="1.36"/><path class="cls-2" d="M1367.11,285.57c-11.8-8.66-12.57-8.67-24.77-.71a31.42,31.42,0,0,1-4.8,2.14l-1.33-1.74L1345.5,275a21.38,21.38,0,0,1-3.43-3.63,43.31,43.31,0,0,1-2.67-6.06,54.42,54.42,0,0,1,5.95,2.1c2.7,1.3,5.13,3.29,7.93,4.24,1.78.61,4.48.6,6-.36,5.54-3.57,10.76-7.66,16.32-11.71.08-1.56-5.14-3.9-.12-5.41,6.11-1.83,12.44-1.72,17.66,2.68,5.06,4.26,9.83,8.87,14.61,13.46,1.63,1.55,3.39,3.29,4.18,5.3.69,1.76.87,4.53-.06,6a30.3,30.3,0,0,1-17.42,13c-1.28.38-3,.61-3.66,1.52-5.16,6.71-12.64,3-19,4.32-.79.17-2.46-1-2.69-1.86s.76-2.18,1.59-2.84a53.77,53.77,0,0,1,5.67-3.5C1373,289.79,1370,287.7,1367.11,285.57Zm31.46,4.16c4.06-3.07,8-5.75,11.48-8.85.83-.73,1.15-3.45.49-4.27-3.17-3.89-6.77-7.44-10.85-11.8C1394,273.58,1394.58,281,1398.57,289.73Zm-6.2-21.4c-11.7-1.23-23-.32-32.22,8.29-.16.15-.1.54-.14.83,10.63-4.37,21.7-5.48,33.41-4.85C1394.34,271.05,1396.06,268.72,1392.37,268.33Zm-18.65,13c3.77-.62,7.15-2.74,11.37-1.65,2.16.56,4.75-.53,8-1-.74-.8-1.6-2.55-2.53-2.59a68.49,68.49,0,0,0-26.5,3.7l0,1.46C1367.3,281.31,1370.6,281.84,1373.72,281.32Zm-2.08,4c2.23,1.86,3.58,4.52,7.53,2.56,2.69-1.34,6.51-.22,9.76-.68,1.59-.22,3-1.54,4.54-2.36l-.07-1.34C1386,280.47,1379,285.46,1371.64,285.3Zm-1.58-18.53c9.17-2.86,17.68-3.74,27.41-.22C1391.49,258.81,1377.79,259.23,1370.06,266.77Zm13.14,24.86c6.91,1.88,10.65,1.37,13.14-2.57Z"/><circle class="cls-8" cx="1401.39" cy="274.68" r="3.21"/><circle class="cls-4" cx="1401.49" cy="274.68" r="1.36"/><path class="cls-4" d="M1391.36,209.91c-1.41,1.76-3,2.87-3,3.9.14,3-1.27,6.71,3.27,8.81C1391.55,218.5,1391.47,214.87,1391.36,209.91Z"/><path class="cls-4" d="M1382.59,219.75c-.06-2.91-.13-5.82-.22-10.12-1.5,1.89-3,3-3,3.89.15,2.22,1.06,4.39,1.67,6.58Z"/><path class="cls-4" d="M1387.4,225.18c-10.83-2.56-21.72-4.89-32.48-7.71-8.45-2.22-16.87-4.71-25.64-2.91-4.71,1-9.16,3.17-13.81,4.55-1.21.36-2.72-.29-4.09-.48.54-1.16.83-2.59,1.69-3.43,2.06-2,4.38-3.78,6.63-5.62,3-2.49,3.45-5.09.69-8.17a32.14,32.14,0,0,1-4.27-5.92c-.71-1.3-.66-3-.95-4.52,1.63.36,3.49.33,4.83,1.16a21.19,21.19,0,0,1,4.21,4.15c6.36,7,13.39,10.27,23.52,8.24a388.73,388.73,0,0,1,49.26-7.05c16-1.12,31.14,3.28,43.86,14,2.92,2.46,3.17,4.35-.26,6.67-8.67,5.86-18,9.43-28.58,9.87-2.91.13-5.77,2-8.62,3.17-3.61,1.47-7.11,3.94-10.79,4.2-2.25.16-4.75-3-7.13-4.67l4.07-4.77A20,20,0,0,0,1387.4,225.18Zm-16.68-5.79,2.37-8.8c1.26.74,1.73.91,1.71,1-1.07,8.06-1.1,8.15,7,10.06,11.14,2.61,22.3,5.07,33.9,3.89,6.73-.69,6.84-.72,5.43-7.12-2.08-9.37-2.06-10.09-11.67-10.28-12.44-.26-24.91.81-37.38,1.23-10.89.37-21.78.63-33.89,1Zm63.26.38c2.43-1.27,4.43-3.37,6.63-5.09-1.93-1.82-3.82-3.7-5.83-5.43a17.94,17.94,0,0,0-3.09-1.91c-6.39-3.59-8.48-2.39-8.9,5.06C1422.29,221.27,1426.1,223.87,1434,219.77Zm-104.17-12.29-4.82-4.55-.4,5.58Z"/><path class="cls-4" d="M1400.91,223.8c-.1-4.24-.2-8.49-.32-13.39-.84.61-3,1.58-2.87,2.16.65,3.84-1.24,8.31,1.87,11.58Z"/><path class="cls-4" d="M1408.92,212c-3.81.19-3.25,3.44-3.05,5.92.17,2.13-.78,5.46,3,5.61C1408.88,219.72,1408.9,216.06,1408.92,212Z"/><circle class="cls-9" cx="1430.8" cy="213.35" r="2.93"/><circle class="cls-4" cx="1430.9" cy="213.35" r="1.24"/><path class="cls-4" d="M271.07,115.13c-1.1,1.29-2.32,2.08-2.36,2.88-.11,2.29-1.35,5.13,1.66,7C270.6,121.77,270.8,119,271.07,115.13Z"/><path class="cls-4" d="M264.27,122.34c.16-2.25.32-4.5.56-7.83-1.19,1.4-2.32,2.14-2.34,2.88a28.56,28.56,0,0,0,.7,5.16Z"/><path class="cls-4" d="M267.24,126.76c-7.37-2.46-14.79-4.74-22.09-7.41-5.73-2.09-11.43-4.39-17.66-3.38-3.36.53-6.61,2-10,2.9-.87.22-1.87-.35-2.82-.55a9.51,9.51,0,0,1,1.42-2.58c1.58-1.47,3.32-2.73,5-4,2.31-1.79,2.77-3.78,1.06-6.28a24.28,24.28,0,0,1-2.56-4.77,13,13,0,0,1-.34-3.53c1.11.34,2.41.41,3.28,1.1a15.86,15.86,0,0,1,2.65,3.4c3.93,5.7,8.61,8.53,15.81,7.41a247.91,247.91,0,0,1,34.82-3.26,38.21,38.21,0,0,1,29.58,12.74c1.86,2,1.91,3.51-.65,5.15-6.45,4.14-13.19,6.49-20.61,6.36-2,0-4.16,1.29-6.23,2.06-2.61,1-5.23,2.73-7.81,2.77-1.58,0-3.1-2.53-4.64-3.93l3.17-3.5A11.09,11.09,0,0,0,267.24,126.76ZM256,121.54l2.27-6.7c.83.63,1.14.78,1.12.87-1.31,6.18-1.34,6.25,4.18,8.08,7.58,2.52,15.19,4.92,23.35,4.52,4.74-.24,4.82-.26,4.28-5.26-.79-7.34-.72-7.89-7.4-8.47-8.66-.75-17.43-.48-26.14-.71-7.62-.2-15.23-.48-23.69-.75Zm44.06,3.1c1.78-.87,3.32-2.41,5-3.64-1.22-1.49-2.41-3-3.68-4.46a13.1,13.1,0,0,0-2-1.61c-4.2-3.05-5.75-2.22-6.56,3.52C291.83,125.28,294.3,127.46,300.08,124.64Zm-71.73-14.13-3-3.73-.67,4.3Z"/><path class="cls-4" d="M276.75,126.29c.23-3.28.46-6.57.72-10.37-.63.44-2.18,1.09-2.16,1.55.19,3-1.44,6.37.5,9Z"/><path class="cls-4" d="M283.16,117.54c-2.67,0-2.51,2.51-2.54,4.44,0,1.65-.93,4.19,1.68,4.47C282.59,123.49,282.86,120.66,283.16,117.54Z"/><ellipse class="cls-10" cx="298.32" cy="119.54" rx="2.28" ry="2.04" transform="translate(121.4 387.83) rotate(-78.44)"/><ellipse class="cls-4" cx="298.38" cy="119.54" rx="0.97" ry="0.87" transform="translate(121.45 387.9) rotate(-78.44)"/><path class="cls-2" d="M1583.26,232.05c-1.14,1.94-2.59,3.27-2.39,4.29.56,2.91-.3,6.82,4.49,8.25Z"/><path class="cls-2" d="M1576,243c-.47-2.87-1-5.74-1.66-10-1.22,2.08-2.58,3.35-2.38,4.27.47,2.18,1.69,4.2,2.6,6.28Z"/><path class="cls-2" d="M1581.53,247.73c-11.08-1-22.19-1.73-33.24-3-8.69-1-17.38-2.24-25.8.8-4.52,1.63-8.61,4.45-13,6.47-1.15.53-2.74.11-4.13.12.38-1.23.46-2.68,1.19-3.64,1.75-2.29,3.79-4.37,5.75-6.51,2.67-2.91,2.69-5.54-.47-8.18a31.65,31.65,0,0,1-5.09-5.26c-.88-1.18-1.07-2.87-1.58-4.33,1.67.12,3.5-.17,4.95.46a21.45,21.45,0,0,1,4.76,3.5c7.29,6,14.72,8.25,24.46,4.79a386.58,386.58,0,0,1,47.74-14c15.71-3.41,31.29-1.21,45.4,7.54,3.25,2,3.77,3.85.7,6.64-7.74,7-16.45,11.9-26.87,13.86-2.87.54-5.43,2.81-8.08,4.37-3.36,2-6.47,4.91-10.07,5.7-2.21.48-5.13-2.29-7.74-3.6l3.36-5.31A22.66,22.66,0,0,0,1581.53,247.73Zm-17.34-3.35,1.09-9c1.36.56,1.84.66,1.84.77.09,8.13.08,8.23,8.38,9,11.4,1,22.8,1.83,34.11-1,6.56-1.65,6.66-1.69,4.35-7.82-3.4-9-3.48-9.69-13-8.51-12.35,1.53-24.54,4.37-36.82,6.57-10.72,1.93-21.47,3.75-33.4,5.82Zm62.66-8.67c2.23-1.61,3.91-4,5.84-6-2.17-1.53-4.31-3.11-6.54-4.54a18.33,18.33,0,0,0-3.33-1.45c-6.84-2.63-8.75-1.15-8.09,6.28C1615.5,238.86,1619.64,240.89,1626.85,235.71ZM1522,238.45l-5.42-3.81.4,5.58Z"/><path class="cls-2" d="M1594.71,244.43c-.71-4.19-1.42-8.38-2.23-13.21-.75.72-2.72,2-2.54,2.55,1.2,3.7,0,8.41,3.51,11.19Z"/><path class="cls-2" d="M1601,231.62c-3.74.74-2.73,3.87-2.18,6.3.48,2.08,0,5.52,3.76,5.12C1602,239.24,1601.51,235.63,1601,231.62Z"/><circle class="cls-9" cx="1622.8" cy="229.8" r="2.93"/><circle class="cls-4" cx="1622.89" cy="229.79" r="1.24"/><path class="cls-2" d="M649.48,229.09c-.75,2.12-1.92,3.7-1.54,4.66,1.11,2.75,1,6.76,6,7.25C652.49,237.13,651.21,233.73,649.48,229.09Z"/><path class="cls-2" d="M644.44,241.26c-1-2.72-2-5.45-3.54-9.48-.8,2.28-1.89,3.78-1.51,4.65.87,2,2.45,3.8,3.74,5.67Z"/><path class="cls-2" d="M650.77,244.81c-11.07,1.15-22.11,2.54-33.2,3.41-8.72.69-17.49,1.11-25.17,5.7-4.14,2.46-7.61,6-11.55,8.84-1,.74-2.66.62-4,.9.13-1.28-.07-2.72.47-3.8,1.28-2.59,2.89-5,4.41-7.48,2.06-3.37,1.58-5.95-2-7.95a31.71,31.71,0,0,1-6-4.19c-1.09-1-1.61-2.61-2.38-4,1.65-.2,3.4-.83,4.94-.5a22.24,22.24,0,0,1,5.34,2.53c8.31,4.53,16,5.29,24.92,0a389.84,389.84,0,0,1,44.19-22.88c14.78-6.34,30.49-7.15,46-1.25,3.57,1.36,4.43,3.06,1.95,6.38-6.26,8.39-13.88,14.83-23.73,18.73-2.71,1.08-4.79,3.8-7.1,5.83-2.92,2.58-5.42,6.06-8.8,7.52-2.08.89-5.47-1.27-8.28-2.06l2.28-5.84A19.36,19.36,0,0,0,650.77,244.81Zm-17.66,0-.65-9.09a9.73,9.73,0,0,1,1.95.4c1.64,8,1.64,8.07,9.92,7.19,11.38-1.2,22.74-2.55,33.3-7.48,6.13-2.87,6.22-2.93,2.78-8.51-5-8.17-5.27-8.85-14.4-5.87-11.84,3.86-23.26,9-34.89,13.47-10.16,3.94-20.37,7.77-31.68,12.08ZM693,224.37c1.88-2,3.08-4.65,4.59-7-2.43-1.08-4.83-2.23-7.29-3.21a18.26,18.26,0,0,0-3.55-.78c-7.22-1.28-8.8.53-6.74,7.71C682.43,229.63,686.88,230.83,693,224.37Zm-102.4,22.69-6.06-2.71,1.46,5.4Z"/><path class="cls-2" d="M663.08,239.06c-1.5-4-3-7.95-4.71-12.54-.6.85-2.3,2.47-2,3,1.88,3.4,1.57,8.25,5.58,10.31Z"/><path class="cls-2" d="M666.76,225.3c-3.53,1.43-1.94,4.32-.93,6.6.86,1.95,1.06,5.41,4.66,4.31C669.25,232.58,668.07,229.12,666.76,225.3Z"/><circle class="cls-9" cx="687.86" cy="219.34" r="2.93"/><circle class="cls-4" cx="687.95" cy="219.32" r="1.24"/><path class="cls-2" d="M1261.29,210.84c-9.18,3.08-18.44,5.92-27.61,9.06a26.77,26.77,0,0,0-8,4c-4.12,3.27-7.57,3.37-11.41-.2a6.86,6.86,0,0,0-4-1.9c-21.59-.49-41.87-6.13-61.11-15.65a16.12,16.12,0,0,0-12.11-1.42c-4.21,1.18-8.38,2.54-12.65,3.42-2.14.44-4.47,0-6.71-.1a46.7,46.7,0,0,1,4.38-5.55,38.68,38.68,0,0,1,5.46-3.71c-3.58-3.3-6.84-6-9.58-9.06-.83-1-.21-3.19-.25-4.84,1.49,0,3.2-.55,4.4,0a67.14,67.14,0,0,1,7.43,4.58,19.18,19.18,0,0,0,17.57,2.2c6-2,12.08-4.13,18.28-4.72,13.49-1.28,27.06-1.65,40.6-2.31,2.45-.12,5,.43,5.46-3.15.79-5.86,2.09-6.35,6.74-2.63,1.64,1.31,3,3.05,4.74,4.16a97.31,97.31,0,0,0,10.73,6c8,3.72,16.34,6.9,24.25,10.86,3.17,1.59,5.6,4.64,9.25,7.79C1264.35,209.21,1262.91,210.3,1261.29,210.84Zm-98.45-1.57c9.61,4.76,20.27,2.71,30.32,4.66,1.91.38,3.83.71,5.74,1.06l0,1.19-5.92,1.34c17.53,2.1,34.42,2.42,49.89-2.5.26-6.41.16-12,.83-17.47.42-3.39-1.62-3.81-3.73-4.54-15.52-5.38-31.62-6.74-47.87-6.45a148.37,148.37,0,0,0-26.39,2.92l9.81-.23.18,1.43c-11.37,3.7-23.68,3.14-35.34,6.56,6.82,5.95,14.58,9.2,22.54,12.06Z"/><circle class="cls-3" cx="1250.54" cy="203.17" r="3.11"/><circle class="cls-2" cx="1250.64" cy="203.17" r="1.32"/><path class="cls-2" d="M1271.17,308.07c-7,2.33-14,4.49-20.93,6.87a20.34,20.34,0,0,0-6.06,3c-3.12,2.49-5.74,2.56-8.65-.14a5.25,5.25,0,0,0-3-1.45c-16.38-.37-31.75-4.64-46.34-11.86a12.24,12.24,0,0,0-9.19-1.08c-3.19.89-6.35,1.93-9.59,2.59-1.62.33-3.39,0-5.09-.07a35.15,35.15,0,0,1,3.32-4.21,29,29,0,0,1,4.15-2.82,96.64,96.64,0,0,1-7.27-6.87c-.64-.72-.16-2.42-.19-3.66,1.12,0,2.43-.43,3.34,0a51.33,51.33,0,0,1,5.63,3.47,14.54,14.54,0,0,0,13.32,1.67c4.51-1.55,9.17-3.13,13.87-3.58,10.22-1,20.52-1.25,30.79-1.75,1.85-.09,3.77.33,4.13-2.39.6-4.45,1.59-4.82,5.12-2a44.11,44.11,0,0,0,3.59,3.16,72.25,72.25,0,0,0,8.14,4.56c6.1,2.82,12.39,5.23,18.39,8.24,2.4,1.2,4.25,3.51,7,5.9A34.62,34.62,0,0,1,1271.17,308.07Zm-74.66-1.2c7.29,3.62,15.37,2.06,23,3.54,1.45.29,2.91.54,4.36.8l0,.91-4.49,1c13.29,1.6,26.1,1.83,37.83-1.89.2-4.87.12-9.09.63-13.25.32-2.57-1.23-2.89-2.82-3.45-11.77-4.07-24-5.11-36.31-4.89a112.06,112.06,0,0,0-20,2.22l7.43-.18.14,1.09c-8.62,2.8-18,2.38-26.8,5,5.18,4.51,11.06,7,17.1,9.15Z"/><circle class="cls-3" cx="1263.02" cy="302.25" r="2.36"/><circle class="cls-2" cx="1263.09" cy="302.25" r="1"/><path class="cls-4" d="M886.84,188.28c-8.26,1.28-16.54,2.36-24.79,3.69a23.13,23.13,0,0,0-7.36,2.23c-4,2.19-6.93,1.77-9.68-1.82a5.93,5.93,0,0,0-3.14-2.2c-18.29-3.54-34.72-11.28-49.69-22.16a14,14,0,0,0-10.1-3c-3.74.39-7.49.95-11.24,1.07-1.89.06-3.8-.68-5.7-1a41.51,41.51,0,0,1,4.53-4.09,33.38,33.38,0,0,1,5.19-2.37,110.78,110.78,0,0,1-6.84-9.09c-.57-.93.29-2.74.49-4.14,1.27.19,2.8,0,3.74.64a57.73,57.73,0,0,1,5.65,5,16.54,16.54,0,0,0,14.62,4.41c5.35-.87,10.88-1.76,16.23-1.36,11.65.87,23.25,2.52,34.86,3.92,2.09.25,4.16,1.09,5.09-1.89,1.52-4.87,2.7-5.09,6.12-1.26,1.2,1.36,2.09,3,3.42,4.23a83.63,83.63,0,0,0,8.26,6.67c6.3,4.32,12.89,8.23,19,12.75,2.46,1.8,4.09,4.75,6.74,7.95C889.67,187.33,888.29,188.05,886.84,188.28Zm-83.49-15.61c7.49,5.44,16.85,5.24,25.1,8.36,1.58.59,3.16,1.15,4.74,1.73l-.21,1-5.23.28c14.6,4.33,28.92,7,42.78,5.1,1.15-5.41,1.88-10.17,3.24-14.73.85-2.82-.82-3.48-2.51-4.4-12.42-6.82-25.91-10.31-39.77-12.42a126.17,126.17,0,0,0-22.86-1.34l8.37,1.22,0,1.24c-10.21,1.5-20.59-.76-31,.46,4.94,6,11.06,9.93,17.42,13.52Z"/><circle class="cls-3" cx="878.81" cy="180.19" r="2.68"/><circle class="cls-2" cx="878.89" cy="180.21" r="1.14"/><path class="cls-4" d="M268.44,23.46c-7,3.08-14,6-21,9.11a20.82,20.82,0,0,0-5.95,3.7c-3,2.87-5.69,3.2-9,.68a5.38,5.38,0,0,0-3.29-1.19C212.33,37,196,34,180.28,28a12.7,12.7,0,0,0-9.59-.23c-3.21,1.23-6.38,2.61-9.66,3.6-1.64.5-3.5.3-5.26.42a37.67,37.67,0,0,1,3-4.67,31,31,0,0,1,4-3.31,102.42,102.42,0,0,1-8.17-6.39c-.72-.68-.39-2.48-.55-3.77,1.16-.13,2.47-.67,3.45-.31a53.24,53.24,0,0,1,6.16,3,15.05,15.05,0,0,0,13.91.44c4.51-2,9.17-4.12,14-5,10.47-2,21.07-3.27,31.63-4.78,1.9-.27,3.92,0,4-2.86.19-4.65,1.17-5.13,5.09-2.56a43.84,43.84,0,0,0,4,2.91,75,75,0,0,0,8.85,3.93c6.57,2.32,13.3,4.21,19.79,6.73,2.59,1,4.72,3.22,7.81,5.42A34.56,34.56,0,0,1,268.44,23.46Zm-77.22,6c7.88,3,16.08.65,24.09,1.44,1.52.15,3.05.27,4.57.41l.06.93-4.54,1.49c13.88.36,27.13-.63,38.89-5.61-.27-5-.75-9.4-.62-13.74.07-2.69-1.55-2.87-3.26-3.29-12.55-3.07-25.26-3-38-1.55A116.73,116.73,0,0,0,192,13.72l7.66-.9.25,1.11c-8.63,3.73-18.32,4.19-27.19,7.72,5.77,4.16,12.08,6.14,18.53,7.8Z"/><circle class="cls-3" cx="259.46" cy="18.23" r="2.44"/><circle class="cls-2" cx="259.54" cy="18.23" r="1.04"/><path class="cls-4" d="M1308,240.21a79.34,79.34,0,0,1,14.19,8c4.19,2.88,4,6.72-.21,9.52a22.4,22.4,0,0,1-8.33,3.46c-14.62,2.37-29.28,4.5-44,6.48a17.64,17.64,0,0,1-7.46-.87c-3.88-1.23-4.26-3.92-1.47-6.89a19.39,19.39,0,0,0,2.13-3.56c-1.54-.22-3.25-1-4.58-.56-2.88.92-5.48,2.64-8.34,3.65-1.64.59-3.55.45-5.34.64.25-1.75,0-3.84.85-5.18,2.88-4.4,3.35-8.59.43-13.13-.51-.81-.69-2.77-.26-3.05a4.08,4.08,0,0,1,3.41-.45c3.17,1.55,6.12,3.55,9.25,5.18a19.32,19.32,0,0,0,4.08,1.12c-.19-1.51-.35-3-.59-4.52-.06-.33-.45-.6-.64-.93-1.79-3-1.22-4.66,2.32-5.46,3.19-.72,6.48-1,8.71-1.32C1285.23,233.49,1297,235.6,1308,240.21Zm7.41,18.82c3.25-1,7.21-1.86,7.89-5.66s-3.42-4.85-5.84-6.63a66,66,0,0,0-6.26-3.55c-2.79-1.6-4.54-.95-5.14,2.3-.33,1.86-.64,3.72-1,5.57C1305.14,260.32,1306.79,261.65,1315.45,259Z"/><circle class="cls-4" cx="1312.45" cy="249.17" r="2.43"/><circle class="cls-3" cx="1312.53" cy="249.17" r="1.03"/><path class="cls-4" d="M196.44,66a65.82,65.82,0,0,1,9.29,9.87c2.63,3.33,1.57,6.35-2.51,7.52a18.67,18.67,0,0,1-7.49.69q-18.31-2.61-36.56-5.73a14.71,14.71,0,0,1-5.72-2.54C150.66,73.9,151,71.67,154,70a15.93,15.93,0,0,0,2.58-2.3c-1.17-.56-2.34-1.59-3.51-1.58-2.51,0-5,.74-7.53.84a19.76,19.76,0,0,1-4.41-.82c.64-1.33.94-3.06,2-3.9,3.38-2.8,4.8-6,3.6-10.34-.21-.77.13-2.37.54-2.49a3.36,3.36,0,0,1,2.83.49c2.14,2,4,4.33,6.07,6.41a16.67,16.67,0,0,0,3,1.89c.22-1.24.47-2.48.65-3.73,0-.29-.21-.6-.28-.9-.68-2.84.19-4,3.19-3.77,2.72.22,5.41.81,7.26,1.11C180,55,188.77,59.63,196.44,66Zm1.23,16.8c2.83,0,6.19.31,7.67-2.55s-1.51-4.7-3-6.72a54.26,54.26,0,0,0-4.09-4.37c-1.83-2-3.39-1.88-4.66.56-.73,1.39-1.44,2.79-2.15,4.19C189.15,81.31,190.13,82.78,197.67,82.84Z"/><circle class="cls-4" cx="197.72" cy="74.25" r="2.03"/><circle class="cls-3" cx="197.78" cy="74.27" r="0.86"/><path class="cls-4" d="M646.47,184.86a47.45,47.45,0,0,1,9.29,2.91c2.82,1.16,3.21,3.42,1.07,5.59a13.38,13.38,0,0,1-4.44,3.06c-8.25,3.21-16.55,6.28-24.89,9.27a10.33,10.33,0,0,1-4.46.42c-2.43-.23-3-1.76-1.73-3.84a11.23,11.23,0,0,0,.81-2.35c-.93.06-2-.17-2.75.25-1.57.89-2.88,2.22-4.42,3.17a13.8,13.8,0,0,1-3,1c-.07-1-.49-2.24-.15-3.13,1.13-2.94.89-5.45-1.39-7.74-.4-.4-.74-1.52-.53-1.74a2.46,2.46,0,0,1,1.94-.69c2,.51,4,1.31,6.05,1.87a11.7,11.7,0,0,0,2.52.15c-.29-.86-.57-1.72-.91-2.57-.07-.19-.33-.3-.48-.46-1.43-1.54-1.3-2.57.67-3.48,1.77-.82,3.67-1.39,4.93-1.86C632.3,183.78,639.42,183.55,646.47,184.86Zm6.68,10.08c1.78-1,4-2,3.91-4.29s-2.61-2.41-4.25-3.15a39.73,39.73,0,0,0-4.09-1.3c-1.83-.58-2.78,0-2.72,2,0,1.13.09,2.25.13,3.38C647.29,197,648.42,197.55,653.15,194.94Z"/><circle class="cls-4" cx="650.17" cy="189.55" r="1.45"/><circle class="cls-3" cx="650.21" cy="189.54" r="0.62"/><path class="cls-2" d="M1148.75,85.48a67.27,67.27,0,0,1,13,4.74c3.94,1.83,4.36,5.08,1.17,8a19.12,19.12,0,0,1-6.52,4.08c-12,4-24,7.9-36.06,11.63a14.94,14.94,0,0,1-6.39.32c-3.45-.49-4.14-2.7-2.21-5.59a16.31,16.31,0,0,0,1.29-3.29c-1.33,0-2.87-.38-3.94.17-2.28,1.17-4.23,3-6.49,4.24a19.65,19.65,0,0,1-4.4,1.29c0-1.51-.56-3.22,0-4.47,1.79-4.11,1.61-7.71-1.49-11.11-.55-.61-1-2.23-.65-2.53a3.47,3.47,0,0,1,2.81-.85c2.88.85,5.64,2.12,8.51,3a16.17,16.17,0,0,0,3.58.37c-.37-1.24-.71-2.49-1.13-3.72-.1-.27-.46-.44-.67-.69-1.93-2.28-1.68-3.74,1.18-4.91,2.58-1.06,5.32-1.75,7.15-2.34C1128.62,83,1138.79,83.16,1148.75,85.48Zm8.88,14.79c2.59-1.29,5.8-2.58,5.83-5.87s-3.55-3.6-5.84-4.75a54.26,54.26,0,0,0-5.76-2.12c-2.57-1-4-.15-4,2.67,0,1.6,0,3.21,0,4.82C1149.14,102.8,1150.71,103.69,1157.63,100.27Z"/><circle class="cls-4" cx="1153.72" cy="92.4" r="2.07"/><circle class="cls-3" cx="1153.78" cy="92.39" r="0.88"/></g></g></g></svg>