<svg xmlns="http://www.w3.org/2000/svg" viewBox="0 0 170.91 253.86"><defs><style>.cls-1{fill:#1d6580;}</style></defs><title>icono NRecurso 131outsours dev</title><g id="Capa_2" data-name="Capa 2"><g id="Fronts"><path d="M84.34,161.94l0,0c-1.6,0-3.2-.08-4.78-.18a30.77,30.77,0,0,0-1.82,2.68,20.37,20.37,0,0,0-2.55,6.06,11.78,11.78,0,0,0-.25,1.81c0,.63,0,1-.06,1.54l-.09,2.94-.18,5.87-.72,23.49-.73,23.49-.36,11.75c-.06,1.9-.17,5.49,2.28,8.57a10.27,10.27,0,0,0,4.52,3.16,14,14,0,0,0,4.42.76v-9.81a5.13,5.13,0,0,1-1.37-.07c-.27-.06-.27,0-.32,0s-.19-.14-.31-.58a8.23,8.23,0,0,1-.2-2l-.36-11.75-.72-23.49L80,182.64l-.18-5.87-.09-2.94,0-1.39a8.59,8.59,0,0,1,.07-1.11A21.56,21.56,0,0,1,84.34,161.94Z"/><path d="M65.05,236.54a3.64,3.64,0,0,1-.52-1.66l-.06-.62,0-.9-.06-1.82L64,217c-.09-2.47-.11-4.78-.24-7.37a43.35,43.35,0,0,0-1.1-7.79,23.49,23.49,0,0,0-3.29-7.58c-1.23-1.74-2.44-3.27-3.75-4.81A65.85,65.85,0,0,0,60,182.48a28.36,28.36,0,0,0,2.79-9.85,49.09,49.09,0,0,0,.23-5v-2.33a8,8,0,0,1,.22-1.7A7.86,7.86,0,0,1,65.53,160c-1.87-.36-3.73-.76-5.57-1.22a11.78,11.78,0,0,0-1.64,3.57,12.91,12.91,0,0,0-.39,2.95v2.36a42.87,42.87,0,0,1-.2,4.43,23.25,23.25,0,0,1-2.29,8.13c-1.22,2.43-3.23,5.09-4.9,7.69l-.4.63v2.16l.59.76h0a66.41,66.41,0,0,1,3.9,5.72,17.6,17.6,0,0,1,2,5.9c.77,4.25.33,8.95.24,13.88l-.42,14.57,0,1.82,0,.93,0,1.19a11.91,11.91,0,0,0,1.44,5.29,9.78,9.78,0,0,0,4.69,4.15,14.25,14.25,0,0,0,5.17,1v-8.73a6.28,6.28,0,0,1-2-.19A1.31,1.31,0,0,1,65.05,236.54Z"/><path d="M45,226.93a11.1,11.1,0,0,1-.13-1.33l0-1.81-.05-3.61L44.68,213c0-4.75-.34-10.37-2.73-15.28A20.88,20.88,0,0,0,37,191.15,37.29,37.29,0,0,0,34,188.7c.54-.39,1-.8,1.55-1.22a24.63,24.63,0,0,0,4-4.45,26.15,26.15,0,0,0,4.3-11.1,34.83,34.83,0,0,0,.36-5.79V160.7a4.31,4.31,0,0,1,1.33-3.16,14.76,14.76,0,0,1,2.86-2q-2.82-1-5.58-2.19a10.72,10.72,0,0,0-.81.72,9.3,9.3,0,0,0-2.67,6.64v5.44a30.42,30.42,0,0,1-.33,5,21.27,21.27,0,0,1-3.52,9c-1.76,2.45-4.63,5-7,5.92l-1.71.63v4.09l1.7.6a15.62,15.62,0,0,1,5,3.5,15.4,15.4,0,0,1,3.6,5,21.81,21.81,0,0,1,1.62,6.18,46.08,46.08,0,0,1,.18,6.83l-.11,7.23-.05,3.61,0,1.81a16.16,16.16,0,0,0,.16,2.27,10.92,10.92,0,0,0,1.68,4.67A10.76,10.76,0,0,0,44.3,236a18.51,18.51,0,0,0,8.57,2V231.1a12,12,0,0,1-5.46-.87A4.15,4.15,0,0,1,45,226.93Z"/><path d="M99.1,229.62l-.72-23.49-.72-23.49-.19-5.87-.09-2.94c0-.52,0-.91-.06-1.54a13.15,13.15,0,0,0-.24-1.81,20.65,20.65,0,0,0-2.56-6.06,28.68,28.68,0,0,0-1.82-2.68c-1.58.1-3.18.14-4.77.18l0,0a21.56,21.56,0,0,1,4.58,9.39,8.59,8.59,0,0,1,.07,1.11l0,1.39-.09,2.94-.18,5.87-.72,23.49-.72,23.49-.36,11.75a8.23,8.23,0,0,1-.2,2c-.12.44-.27.57-.31.58s-.05,0-.32,0a5.08,5.08,0,0,1-1.36.07v9.81a14,14,0,0,0,4.41-.76,10.27,10.27,0,0,0,4.52-3.16c2.45-3.08,2.34-6.67,2.28-8.57Z"/><path d="M117.6,197.19a66.41,66.41,0,0,1,3.9-5.72h0l.59-.76v-2.16l-.4-.63c-1.67-2.6-3.68-5.26-4.9-7.69a23.25,23.25,0,0,1-2.29-8.13,42.87,42.87,0,0,1-.2-4.43v-2.36a12.38,12.38,0,0,0-.39-2.95,11.78,11.78,0,0,0-1.64-3.57c-1.84.46-3.7.86-5.57,1.22a7.86,7.86,0,0,1,2.34,3.63,8,8,0,0,1,.22,1.7v2.33a49.09,49.09,0,0,0,.23,5,28.36,28.36,0,0,0,2.79,9.85,65.85,65.85,0,0,0,4.36,6.94c-1.31,1.54-2.51,3.07-3.75,4.81a23.25,23.25,0,0,0-3.28,7.58,41.63,41.63,0,0,0-1.1,7.79c-.14,2.59-.16,4.9-.25,7.37l-.42,14.57,0,1.82,0,.9-.06.62a3.64,3.64,0,0,1-.52,1.66,1.31,1.31,0,0,1-.75.49,6.28,6.28,0,0,1-2,.19V246a14.34,14.34,0,0,0,5.18-1,9.83,9.83,0,0,0,4.69-4.15,12.18,12.18,0,0,0,1.44-5.29l0-1.19,0-.93,0-1.82L115.31,217c-.09-4.93-.53-9.63.24-13.88A17.6,17.6,0,0,1,117.6,197.19Z"/><path d="M135.16,199.94a15.22,15.22,0,0,1,3.59-5,15.62,15.62,0,0,1,5-3.5l1.7-.6v-4.09l-1.71-.63c-2.41-.89-5.28-3.47-7-5.92a21.29,21.29,0,0,1-3.53-9,30.42,30.42,0,0,1-.33-5V160.7a9.3,9.3,0,0,0-2.67-6.64,7.87,7.87,0,0,0-.81-.72c-1.83.78-3.7,1.51-5.58,2.19a14.76,14.76,0,0,1,2.86,2A4.27,4.27,0,0,1,128,160.7v5.44a34.83,34.83,0,0,0,.36,5.79,26.15,26.15,0,0,0,4.3,11.1,24.32,24.32,0,0,0,4.06,4.45c.49.42,1,.83,1.54,1.22a37.29,37.29,0,0,0-3.06,2.45,20.88,20.88,0,0,0-4.94,6.52c-2.39,4.91-2.77,10.53-2.73,15.28l-.11,7.23,0,3.61,0,1.81a11.1,11.1,0,0,1-.13,1.33,4.15,4.15,0,0,1-2.41,3.3,12,12,0,0,1-5.45.87V238a18.5,18.5,0,0,0,8.56-2,10.76,10.76,0,0,0,3.76-3.48,10.92,10.92,0,0,0,1.68-4.67,16.16,16.16,0,0,0,.16-2.27l0-1.81,0-3.61-.11-7.23a47.48,47.48,0,0,1,.18-6.83A21.83,21.83,0,0,1,135.16,199.94Z"/><path d="M170.9,189.82v-5.11l-.76-.24-1.87-.56a18.6,18.6,0,0,1-9.71-7.69,22.06,22.06,0,0,1-3.18-12.63V152.12a14.28,14.28,0,0,0-.78-5,12.56,12.56,0,0,0-7.29-7.35,23.19,23.19,0,0,0-7.53-1.63v-.06l-1-.05-1.67-.07a25.37,25.37,0,0,1-7.58-2.44,14.44,14.44,0,0,1-2.75-1.87c.5-.1,1-.19,1.49-.32a17.86,17.86,0,0,0,13.72-13.24,29.15,29.15,0,0,0,1-5.56c.25-2.86.56-5.71.81-8.56a2,2,0,0,1,1.56-2.09c.3-.07.59-.19.89-.27a1,1,0,0,0,.91-1.11c0-1,.06-2,.1-3a2,2,0,0,0-1-1.86,6.82,6.82,0,0,0-1.53-.76c-2.61-.83-5.21-1.69-7.85-2.38-.64-.17-1.29-.3-1.93-.45,4.05-10.86,8.44-26.73,8.44-44.56,0-10.44-3.55-19.1-10.55-25.75C117.09,8.78,89.1,9.36,85.46,9.5c-3.64-.14-31.64-.73-47.41,14.23-7,6.65-10.56,15.31-10.56,25.75,0,18.25,4.61,34.45,8.73,45.32-1.32.36-2.63.74-3.93,1.17s-2.52.88-3.74,1.4a2.05,2.05,0,0,0-1.37,1.89c0,1.1,0,2.21.1,3.31,0,.62.27.87.87,1,.43.13.84.29,1.27.43a1.5,1.5,0,0,1,1.11,1.39c.08.85.12,1.71.21,2.55.2,1.93.45,3.85.61,5.78a31.82,31.82,0,0,0,1.51,7.54,17.45,17.45,0,0,0,11.57,11.51l.51.15c-.15.16-.3.33-.46.47a14.4,14.4,0,0,1-3,2.09,25.21,25.21,0,0,1-7.6,2.45l-1.66.07-1,.05v.06a23.13,23.13,0,0,0-7.53,1.63,12.63,12.63,0,0,0-7.3,7.35,14.48,14.48,0,0,0-.77,5v11.46a22.08,22.08,0,0,1-3.18,12.65,18.6,18.6,0,0,1-9.71,7.69l-1.87.56-.76.24v5.91l.76.25,1.9.6a15.56,15.56,0,0,1,5.1,2.72,19.88,19.88,0,0,1,4,4.37A20.72,20.72,0,0,1,14.9,210c0,1.54-.06,3.27-.13,4.94,0,.71,0,1.41-.07,2.09l-.07,1.79,0,.9v.06l0,1.15a13.28,13.28,0,0,0,1.23,5.25,14.5,14.5,0,0,0,7.81,7.12,25.89,25.89,0,0,0,8.78,1.88l1.15.07v-11l-1.16.08c-.39,0-.79,0-1.18,0-3.36,0-6.21-1-6.93-2.36a3.79,3.79,0,0,1-.53-1.65v0l-.07-.6,0-.85L23.61,217l-.25-7.26a28.86,28.86,0,0,0-5-15.68,27.77,27.77,0,0,0-5.84-6c-.24-.18-.49-.36-.75-.53a27.47,27.47,0,0,0,6.83-7.45,30.69,30.69,0,0,0,4.18-16.54V152.12a6.17,6.17,0,0,1,.37-2.45l0,0v0c.9-2.7,5.17-3.91,9-3.91h.32l1.1,0v0l.66,0h.21l.27,0a29.2,29.2,0,0,0,10.49-2.83A22.78,22.78,0,0,0,50,139.61a11.71,11.71,0,0,0,3.6-5l.1-.3a34.59,34.59,0,0,0,10.43-1A21.76,21.76,0,0,0,75,126.87a29.68,29.68,0,0,0,5.44-9.19c.93-2.33,1.92-4.64,2.9-6.94a3.61,3.61,0,0,1,2.16-2.18,5.87,5.87,0,0,1,2.94-.15,3.63,3.63,0,0,1,2.7,2.34c.73,1.68,1.46,3.38,2.15,5.08a52.07,52.07,0,0,0,3.14,6.88A22.07,22.07,0,0,0,109.1,133a30.9,30.9,0,0,0,8.09,1.33l.09.29a11.71,11.71,0,0,0,3.6,5,22.78,22.78,0,0,0,4.81,3.24,29.2,29.2,0,0,0,10.48,2.83l.28,0h.21l.66,0v0l1.1,0h.32c3.84,0,8.11,1.21,9,3.91v0l0,0a6.21,6.21,0,0,1,.37,2.47v11.43a30.62,30.62,0,0,0,4.18,16.51,27.21,27.21,0,0,0,6.83,7.46c-.26.17-.51.35-.74.52a27.4,27.4,0,0,0-5.85,6,28.85,28.85,0,0,0-5,15.67L147.3,217l-.07,1.79,0,.85-.08.6v0a4.08,4.08,0,0,1-.52,1.63c-.73,1.41-3.58,2.38-6.94,2.38-.39,0-.79,0-1.18,0l-1.16-.08v11l1.15-.07a26,26,0,0,0,8.79-1.88,14.51,14.51,0,0,0,7.8-7.12,13.29,13.29,0,0,0,1.23-5.26l0-1.14v-.06l0-.9-.07-1.79c0-.68-.05-1.38-.08-2.09-.06-1.67-.13-3.4-.12-4.93a20.73,20.73,0,0,1,3.14-11.4,20.15,20.15,0,0,1,4-4.38,15.63,15.63,0,0,1,5.1-2.71l1.9-.6.76-.25Zm-94.55-74a22.24,22.24,0,0,1-4,8.11,18.84,18.84,0,0,1-11.12,6.78,26.38,26.38,0,0,1-4.93.59,28.77,28.77,0,0,1-10.42-1.56,14.84,14.84,0,0,1-9.29-10.4,38.93,38.93,0,0,1-1.3-7c-.22-2.28-.36-4.58-.45-6.87a10,10,0,0,1,.63-3.69,6.7,6.7,0,0,1,5.05-4.37c2.37-.56,4.79-1,7.2-1.34a42.44,42.44,0,0,1,4.35-.44c1.44-.08,2.89-.08,4.33,0s3.07.07,4.6.21a41.76,41.76,0,0,1,10.51,1.95,8.89,8.89,0,0,1,6.1,8A26.29,26.29,0,0,1,76.35,115.84Zm14.76-17.5a23.15,23.15,0,0,1-14.33-2.13,42.05,42.05,0,0,0-18.47-4.15c-2.17,0-4.35.06-6.51.2s-4.36.35-6.52.66c-.24,0-.47.09-.71.12-2.85-9.93-4.25-22.76-5-37.06-.43-8.21,2.91-18,11.65-25.38S79.76,18.49,89,18.49c10.88,0,25.61-.7,38.33,11.16a29.27,29.27,0,0,1,9.1,21.05c0,16.85-4.23,31.9-8.07,42.11q-3.57-.5-7.19-.69a58.18,58.18,0,0,0-14.31.93,35.38,35.38,0,0,0-8.09,2.67A29.56,29.56,0,0,1,91.11,98.34Zm17.51,30.86A19.09,19.09,0,0,1,99.17,119a33,33,0,0,1-2.43-10,14.56,14.56,0,0,1,.57-5.75,8.76,8.76,0,0,1,5.58-5.58,24.82,24.82,0,0,1,5.31-1.3c2-.28,4-.54,5.94-.71,1.58-.14,3.17-.14,4.75-.21a60.56,60.56,0,0,1,15.1,1.9,6.89,6.89,0,0,1,5.32,5.65,19.87,19.87,0,0,1,.21,4.87,55.56,55.56,0,0,1-1.5,10.75,15.62,15.62,0,0,1-4.59,8.09,16.3,16.3,0,0,1-7.06,3.67,29.81,29.81,0,0,1-9.6.77A21.46,21.46,0,0,1,108.62,129.2Z"/><path d="M65.21,101.41c-8.71-3.56-15.58-.7-20.17.61-4.22,1.2-6.78,6.77-6.78,11.32a9.92,9.92,0,0,0,9.58,10.31c3.2.15,4.26-3.16,7.81-3.74,3.81-.63,7.29,1.85,9.9,1.13,3.19-.89,5.08-4.9,5.08-9.87C70.63,107.14,68.77,102.87,65.21,101.41Zm-9.73,7.33c-5.2,0-9,6-9,2.33s3.57-7.73,8.77-7.72,10.08,4.15,10.07,7.79S60.68,108.76,55.48,108.74Z"/><path d="M136.13,113.34c0-4.55-2.56-10.12-6.78-11.32-4.59-1.31-11.47-4.17-20.18-.61-3.55,1.46-5.42,5.73-5.42,9.76,0,5,1.89,9,5.09,9.87,2.61.72,6.09-1.76,9.89-1.13,3.56.58,4.62,3.89,7.82,3.74A9.93,9.93,0,0,0,136.13,113.34ZM110.54,111c0-3.64,3.57-7.74,8.77-7.72s10.08,4.14,10.07,7.79-4.63-2.38-9.83-2.4S110.53,114.68,110.54,111Z"/><path d="M116,39.86c2.28.76,4.65-.2,5.3-2.15s-.66-4.14-2.94-4.91-4.64.21-5.29,2.16S113.75,39.1,116,39.86Z"/><path d="M131,49c1.64-1.87,1.2-4.94-1-6.85s-5.27-1.95-6.91-.08-1.21,4.93,1,6.85S129.37,50.83,131,49Z"/><path d="M115.68,43.85A2.89,2.89,0,0,0,120,47.62a2.89,2.89,0,0,0-4.29-3.77Z"/><path d="M151.44,90.2h-2c.87-6.53,5.56-43.62,1.11-54.36C138.28,6.22,110.61,0,89.57,0H83c-21,0-48.7,6.22-61,35.84-4.32,10.41,0,45.57,1,53.68h-.26a5.1,5.1,0,0,0-5.11,5.1V131.9a5.1,5.1,0,0,0,5.11,5.1h7.49a5.09,5.09,0,0,0,5.1-5.06,19.22,19.22,0,0,1-7-9.67,34.42,34.42,0,0,1-1.63-8.17c-.18-2.09-.45-4.17-.67-6.26-.09-.92-.14-1.85-.22-2.77a1.62,1.62,0,0,0-1.21-1.51c-.46-.15-.91-.33-1.38-.46a1.08,1.08,0,0,1-.94-1.14c-.06-1.19-.11-2.39-.1-3.58a2.23,2.23,0,0,1,1.48-2c1.33-.57,2.68-1.07,4.05-1.52a60.68,60.68,0,0,1,6.16-2,5.08,5.08,0,0,0-4.75-3.27h-2.3C25.16,76.86,22,45.83,25.52,37.3,34.73,15.09,54.06,3.82,83,3.82h6.6c28.92,0,48.25,11.27,57.46,33.48,3.6,8.69.24,40.72-1.43,52.9h-1.66a5.09,5.09,0,0,0-4.77,3.32c.53.13,1.06.23,1.58.37,2.87.75,5.69,1.68,8.52,2.58a6.79,6.79,0,0,1,1.66.83,2.16,2.16,0,0,1,1,2c0,1.09-.05,2.18-.1,3.28,0,.74-.28,1-1,1.19-.33.09-.64.23-1,.3a2.19,2.19,0,0,0-1.69,2.26c-.27,3.1-.61,6.19-.88,9.28a31.59,31.59,0,0,1-1.13,6,20.55,20.55,0,0,1-5.29,9.26,16.89,16.89,0,0,1-2.08,1.73,5.11,5.11,0,0,0,5.1,5.05h7.5a5.1,5.1,0,0,0,5.1-5.11V95.3A5.1,5.1,0,0,0,151.44,90.2Z"/><rect x="92.58" y="147.68" width="11.17" height="8.15" rx="1.09"/><path d="M106.48,153.89v-4.3h13.14c6.38-.53,24.07-3.7,25.14-11.19h4.32c-.91,12.84-26.24,15.25-29.17,15.48H106.48Z"/><path class="cls-1" d="M148.28,139.12c-1.92,11.78-27.31,14-28.43,14H107.2v-2.86h12.54c6.76-.56,23.68-3.65,25.61-11.18h2.93m1.55-1.43h-5.74c0,6.92-16.41,10.51-24.47,11.19H105.77v5.73H120c3-.25,29.86-2.8,29.86-16.91Z"/></g></g></svg>