<svg xmlns="http://www.w3.org/2000/svg" viewBox="0 0 170.91 225.74"><defs><style>.cls-1{font-size:72.6px;font-family:MuseoSlab-1000, Museo Slab;font-weight:100;}</style></defs><title>icono NRecurso 133soft consult</title><g id="Capa_2" data-name="Capa 2"><g id="Fronts"><path d="M117.75,123.91l-.73.45.26.81a11.75,11.75,0,0,0,3.6,5,22.74,22.74,0,0,0,4.81,3.23,29.41,29.41,0,0,0,10.48,2.84l.28,0h.21l.66,0v0l1.1,0h.32c3.84,0,8.11,1.21,9,3.91v0l0,0a6.12,6.12,0,0,1,.37,2.46v11.43a30.67,30.67,0,0,0,4.18,16.52,27.31,27.31,0,0,0,6.83,7.45c-.26.17-.51.35-.74.53a27.58,27.58,0,0,0-5.85,6,28.88,28.88,0,0,0-5,15.68l-.25,7.26-.07,1.79,0,.86-.08.6h0v0a4,4,0,0,1-.52,1.63c-.73,1.41-3.58,2.38-6.94,2.38-.39,0-.79,0-1.18,0l-1.16-.07v11l1.15-.06a25.76,25.76,0,0,0,8.79-1.89,14.5,14.5,0,0,0,7.8-7.11,13.34,13.34,0,0,0,1.23-5.27l0-1.13v-.07l0-.9-.07-1.79c0-.68-.05-1.38-.08-2.08-.06-1.68-.13-3.41-.12-4.94a20.72,20.72,0,0,1,3.14-11.39,19.93,19.93,0,0,1,4-4.38,15.65,15.65,0,0,1,5.1-2.72l1.89-.6.77-.24v-5.92l-.76-.23-1.87-.57a18.56,18.56,0,0,1-9.71-7.69,22,22,0,0,1-3.18-12.62V142.67a14.25,14.25,0,0,0-.78-5,12.53,12.53,0,0,0-7.29-7.35,23.45,23.45,0,0,0-7.53-1.64v-.06l-1,0-1.67-.07a25.65,25.65,0,0,1-7.58-2.44,14.74,14.74,0,0,1-3-2.1,14.41,14.41,0,0,1-1.08-1.12C124.84,122.3,117.75,123.91,117.75,123.91Z"/><path d="M47.29,121.17a14.67,14.67,0,0,0-1.73,1.69A14.41,14.41,0,0,1,44.48,124a14.78,14.78,0,0,1-3,2.09,25.49,25.49,0,0,1-7.6,2.45l-1.66.07-1,0v.06a23.39,23.39,0,0,0-7.53,1.64,12.58,12.58,0,0,0-7.3,7.35,14.46,14.46,0,0,0-.77,5v11.46a22,22,0,0,1-3.18,12.65,18.56,18.56,0,0,1-9.71,7.69L.81,175l-.76.23v5.92l.76.24,1.9.6a15.75,15.75,0,0,1,5.1,2.72,20.11,20.11,0,0,1,4,4.37,20.77,20.77,0,0,1,3.14,11.4c0,1.53-.06,3.26-.13,4.94,0,.7,0,1.4-.07,2.09l-.07,1.78,0,.9v.07l0,1.14a13.24,13.24,0,0,0,1.23,5.25,14.52,14.52,0,0,0,7.81,7.13,25.89,25.89,0,0,0,8.78,1.88l1.15.06v-11l-1.16.07c-.39,0-.79,0-1.18,0-3.36,0-6.21-1-6.93-2.36a3.79,3.79,0,0,1-.53-1.65v0h0l-.07-.6,0-.86-.07-1.79-.25-7.26a28.88,28.88,0,0,0-5-15.68,28,28,0,0,0-5.84-6c-.24-.18-.49-.35-.75-.53a27.32,27.32,0,0,0,6.83-7.45,30.68,30.68,0,0,0,4.18-16.53V142.67a6.1,6.1,0,0,1,.37-2.45l0,0v0c.9-2.7,5.17-3.91,9-3.91h.32l1.1,0v0l.66,0h.21l.27,0a29.61,29.61,0,0,0,10.49-2.83A23.16,23.16,0,0,0,50,130.16a11.75,11.75,0,0,0,3.6-5l.26-.81-.73-.45-4.51-2.52Z"/><path d="M65.21,92c-8.71-3.57-15.58-.71-20.17.6-4.22,1.21-6.78,6.77-6.78,11.33a9.92,9.92,0,0,0,9.58,10.3c3.2.15,4.26-3.15,7.81-3.73,3.81-.63,7.29,1.85,9.9,1.12,3.19-.88,5.08-4.9,5.08-9.87C70.63,97.69,68.77,93.41,65.21,92Zm-9.73,7.33c-5.2,0-9,6-9,2.33S50,93.88,55.24,93.9,65.32,98,65.31,101.68,60.68,99.3,55.48,99.29Z"/><path d="M129.35,92.56c-4.59-1.31-11.47-4.17-20.18-.6-3.55,1.45-5.42,5.73-5.42,9.75,0,5,1.9,9,5.09,9.87,2.61.73,6.09-1.75,9.89-1.12,3.56.58,4.62,3.88,7.82,3.73a9.92,9.92,0,0,0,9.58-10.3C136.13,99.33,133.57,93.77,129.35,92.56Zm-9.8,6.69c-5.2,0-9,6-9,2.33s3.57-7.73,8.77-7.71,10.08,4.14,10.07,7.78S124.75,99.27,119.55,99.25Z"/><path d="M119,124.94a32.23,32.23,0,0,1-9.85-1.39,22,22,0,0,1-12.7-10.29,52.66,52.66,0,0,1-3.14-6.88c-.69-1.71-1.42-3.4-2.16-5.09A3.6,3.6,0,0,0,88.41,99a5.65,5.65,0,0,0-2.94.15,3.6,3.6,0,0,0-2.16,2.17c-1,2.31-2,4.62-2.9,7A29.68,29.68,0,0,1,75,117.42a21.76,21.76,0,0,1-10.81,6.47,35.49,35.49,0,0,1-11.39,1,32.39,32.39,0,0,1-8.34-1.48,17.47,17.47,0,0,1-11.57-11.51,31.82,31.82,0,0,1-1.51-7.54c-.16-1.93-.41-3.85-.61-5.78-.09-.85-.13-1.7-.21-2.55a1.52,1.52,0,0,0-1.11-1.4c-.43-.13-.84-.3-1.27-.42-.6-.17-.85-.42-.87-1-.06-1.1-.11-2.2-.1-3.3a2,2,0,0,1,1.37-1.89c1.22-.53,2.47-1,3.74-1.41a76.11,76.11,0,0,1,13-3c2.16-.31,4.34-.52,6.52-.67s4.34-.22,6.51-.2a42.19,42.19,0,0,1,18.47,4.15A23.36,23.36,0,0,0,84,89a23.09,23.09,0,0,0,7.09-.12,29.54,29.54,0,0,0,7.61-2.61,34.93,34.93,0,0,1,8.09-2.68,58.67,58.67,0,0,1,14.31-.93A79.27,79.27,0,0,1,136.9,85c2.64.7,5.24,1.56,7.85,2.38a6.46,6.46,0,0,1,1.53.77,2,2,0,0,1,1,1.85c0,1-.06,2-.1,3,0,.68-.26.92-.91,1.1-.3.08-.59.21-.89.28a2,2,0,0,0-1.56,2.08c-.25,2.86-.56,5.71-.81,8.56a29.15,29.15,0,0,1-1,5.56,17.82,17.82,0,0,1-13.72,13.24A38,38,0,0,1,119,124.94ZM56.3,121.86a25.38,25.38,0,0,0,4.93-.58,18.8,18.8,0,0,0,11.12-6.79,22.11,22.11,0,0,0,4-8.1,26.31,26.31,0,0,0,1.26-10.08,8.88,8.88,0,0,0-6.1-8,41.33,41.33,0,0,0-10.51-2c-1.53-.14-3.07-.18-4.6-.21s-2.89,0-4.33,0-2.91.21-4.35.44c-2.41.39-4.83.78-7.2,1.34a6.71,6.71,0,0,0-5.05,4.38A9.92,9.92,0,0,0,34.84,96c.09,2.29.23,4.58.45,6.87a39,39,0,0,0,1.3,7,14.88,14.88,0,0,0,9.29,10.41A28.57,28.57,0,0,0,56.3,121.86Zm62.59-35.79c-1.58.06-3.17.06-4.75.2-2,.18-4,.43-5.94.72a24.8,24.8,0,0,0-5.31,1.29,8.78,8.78,0,0,0-5.58,5.59,14.54,14.54,0,0,0-.57,5.75,33,33,0,0,0,2.43,10,19.16,19.16,0,0,0,9.45,10.16,21.64,21.64,0,0,0,8.15,2,30.1,30.1,0,0,0,9.6-.77,16.4,16.4,0,0,0,7.06-3.67,15.66,15.66,0,0,0,4.59-8.09,55.67,55.67,0,0,0,1.5-10.75,19.85,19.85,0,0,0-.21-4.87A6.89,6.89,0,0,0,134,88,61,61,0,0,0,118.89,86.07Z"/><ellipse cx="117.2" cy="26.88" rx="3.72" ry="4.34" transform="translate(54.53 129.5) rotate(-71.5)"/><path d="M132.86,14.28C117.09-.68,89.1-.1,85.46,0,81.82-.1,53.82-.68,38.05,14.28c-7,6.64-10.56,15.31-10.56,25.74,0,19.2,5.1,36.15,9.37,47l8.07-2.13c-3.11-10.1-4.58-23.45-5.36-38.35-.43-8.22,2.91-18,11.65-25.39S79.76,9,89,9c10.88,0,25.61-.7,38.33,11.16a29.28,29.28,0,0,1,9.1,21.06c0,17.92-4.79,33.82-8.8,44L134.05,87c4.27-10.84,9.36-27.79,9.36-47C143.41,29.59,139.86,20.92,132.86,14.28Z"/><ellipse cx="127.06" cy="36.05" rx="4.5" ry="5.25" transform="translate(16.16 107.77) rotate(-48.73)"/><ellipse cx="117.82" cy="36.28" rx="2.45" ry="2.86" transform="matrix(0.66, -0.75, 0.75, 0.66, 12.84, 100.91)"/><text class="cls-1" transform="translate(20.64 197.81)">&lt;/&gt;</text></g></g></svg>