<svg xmlns="http://www.w3.org/2000/svg" viewBox="0 0 121.39 160.33"><defs><style>.cls-1,.cls-2{fill:#fff;}.cls-2{font-size:51.56px;font-family:MuseoSlab-1000, Museo Slab;font-weight:100;}</style></defs><title>iconoRecurso 143soft consult</title><g id="Capa_2" data-name="Capa 2"><g id="Capa_1-2" data-name="Capa 1"><path class="cls-1" d="M83.63,88l-.52.31.18.58a8.33,8.33,0,0,0,2.57,3.54,15.69,15.69,0,0,0,3.41,2.3,20.88,20.88,0,0,0,7.45,2h1.82c2.72,0,5.76.86,6.4,2.77v.06a4.53,4.53,0,0,1,.26,1.75v8.12a21.78,21.78,0,0,0,3,11.73,19.57,19.57,0,0,0,4.85,5.29l-.52.37a19.43,19.43,0,0,0-4.15,4.25,20.39,20.39,0,0,0-3.58,11.13l-.18,5.16-.05,1.27,0,.61-.05.43h0a2.81,2.81,0,0,1-.37,1.16c-.52,1-2.54,1.69-4.93,1.69q-.42,0-.84,0l-.82,0v7.84l.81-.05a18.35,18.35,0,0,0,6.25-1.33,10.31,10.31,0,0,0,5.54-5.06,9.49,9.49,0,0,0,.87-3.73l0-.81v0l0-.64,0-1.27c0-.48,0-1-.06-1.48,0-1.19-.1-2.42-.09-3.51a14.84,14.84,0,0,1,2.23-8.09,14.17,14.17,0,0,1,2.85-3.11,11.32,11.32,0,0,1,3.61-1.93l1.35-.43.55-.17v-4.2l-.54-.16-1.33-.41a13.18,13.18,0,0,1-6.89-5.46,15.6,15.6,0,0,1-2.26-9v-8.14a10.12,10.12,0,0,0-.55-3.55,8.92,8.92,0,0,0-5.18-5.21,16.32,16.32,0,0,0-5.35-1.17v0l-.74,0-1.18,0A18.45,18.45,0,0,1,92,89.55a10.64,10.64,0,0,1-2.15-1.49c-.27-.25-.51-.51-.77-.8S83.63,88,83.63,88Z"/><path class="cls-1" d="M33.59,86.06a10.05,10.05,0,0,0-1.23,1.2c-.26.28-.5.55-.77.79a10.14,10.14,0,0,1-2.15,1.49A18.21,18.21,0,0,1,24,91.28l-1.18,0-.74,0v0a16.57,16.57,0,0,0-5.34,1.16,9,9,0,0,0-5.19,5.22,10.08,10.08,0,0,0-.54,3.54v8.14a15.69,15.69,0,0,1-2.26,9,13.2,13.2,0,0,1-6.9,5.46l-1.32.41-.55.16v2.24l0,1.39v.57l.54.17,1.35.43a11.26,11.26,0,0,1,3.62,1.93,14.37,14.37,0,0,1,2.84,3.11,14.68,14.68,0,0,1,2.23,8.09c0,1.09,0,2.32-.09,3.51,0,.5,0,1-.05,1.48l0,1.27,0,.64v0l0,.81a9.33,9.33,0,0,0,.88,3.73A10.29,10.29,0,0,0,16.81,159,18.23,18.23,0,0,0,23,160.28l.82.05v-7.84l-.82,0c-.28,0-.57,0-.85,0-2.38,0-4.41-.69-4.92-1.68a2.92,2.92,0,0,1-.38-1.17h0l-.05-.43,0-.61-.05-1.27-.18-5.16A20.47,20.47,0,0,0,13,131.1a19.4,19.4,0,0,0-4.15-4.24c-.17-.13-.34-.26-.53-.38a19.41,19.41,0,0,0,4.85-5.29,21.82,21.82,0,0,0,3-11.74v-8.12a4.48,4.48,0,0,1,.27-1.74v-.06c.64-1.91,3.67-2.77,6.4-2.77h1.82a20.83,20.83,0,0,0,7.44-2,15.76,15.76,0,0,0,3.42-2.3,8.23,8.23,0,0,0,2.56-3.54l.19-.58L37.76,88l-3.2-1.8Z"/><path class="cls-1" d="M46.32,65.31c-6.19-2.53-11.07-.5-14.33.43-3,.86-4.82,4.81-4.82,8.05A7.06,7.06,0,0,0,34,81.11c2.27.1,3-2.25,5.55-2.66,2.7-.45,5.17,1.32,7,.8,2.26-.63,3.61-3.48,3.61-7C50.17,69.38,48.84,66.34,46.32,65.31Zm-6.91,5.21c-3.7,0-6.41,4.24-6.4,1.65s2.53-5.49,6.23-5.48,7.15,2.94,7.15,5.53S43.1,70.53,39.41,70.52Z"/><path class="cls-1" d="M91.87,65.74c-3.26-.93-8.14-3-14.33-.43-2.53,1-3.85,4.07-3.85,6.93,0,3.53,1.34,6.38,3.61,7,1.86.52,4.32-1.25,7-.8,2.52.41,3.28,2.76,5.55,2.66a7.05,7.05,0,0,0,6.8-7.32C96.68,70.55,94.87,66.6,91.87,65.74Zm-7,4.75c-3.69,0-6.41,4.25-6.4,1.66s2.54-5.5,6.23-5.48,7.16,2.94,7.15,5.53S88.61,70.51,84.91,70.49Z"/><path class="cls-1" d="M84.48,88.73a22.63,22.63,0,0,1-7-1,15.68,15.68,0,0,1-9-7.31,36.52,36.52,0,0,1-2.23-4.89c-.49-1.21-1-2.41-1.53-3.61a2.56,2.56,0,0,0-1.92-1.65,4,4,0,0,0-2.08.1,2.55,2.55,0,0,0-1.54,1.54c-.7,1.64-1.4,3.28-2.06,4.94a21.35,21.35,0,0,1-3.86,6.53A15.54,15.54,0,0,1,45.57,88a25.34,25.34,0,0,1-8.09.68,23,23,0,0,1-5.93-1.06,12.39,12.39,0,0,1-8.21-8.17,22.26,22.26,0,0,1-1.07-5.36c-.12-1.37-.3-2.73-.44-4.1-.06-.6-.09-1.21-.15-1.81a1,1,0,0,0-.79-1c-.3-.1-.59-.22-.9-.31s-.6-.29-.62-.74c0-.78-.07-1.56-.06-2.35a1.44,1.44,0,0,1,1-1.34c.87-.37,1.75-.7,2.65-1a54,54,0,0,1,9.23-2.16c1.53-.22,3.08-.37,4.63-.47s3.08-.16,4.62-.14a29.79,29.79,0,0,1,13.12,2.95,16.56,16.56,0,0,0,10.18,1.51,21.13,21.13,0,0,0,5.41-1.86,24.64,24.64,0,0,1,5.74-1.9A41.22,41.22,0,0,1,86,58.71a55.81,55.81,0,0,1,11.21,1.68c1.88.5,3.73,1.11,5.58,1.69a4.65,4.65,0,0,1,1.09.55,1.42,1.42,0,0,1,.67,1.31c0,.72,0,1.44-.07,2.15,0,.49-.18.66-.64.79-.22.05-.42.14-.63.19a1.44,1.44,0,0,0-1.11,1.48c-.18,2-.4,4.06-.58,6.08a20.24,20.24,0,0,1-.74,4,13.44,13.44,0,0,1-3.46,6.07A13.65,13.65,0,0,1,91.06,88,27,27,0,0,1,84.48,88.73ZM40,86.55a17.81,17.81,0,0,0,3.51-.42,13.43,13.43,0,0,0,7.9-4.81,16,16,0,0,0,2.84-5.76,18.49,18.49,0,0,0,.89-7.16,6.28,6.28,0,0,0-4.33-5.69,29.24,29.24,0,0,0-7.47-1.39c-1.08-.1-2.17-.13-3.26-.15s-2.05,0-3.08,0-2.06.15-3.08.31c-1.72.28-3.43.56-5.12,1a4.75,4.75,0,0,0-3.59,3.1,6.75,6.75,0,0,0-.44,2.62c.06,1.63.16,3.26.31,4.88a28.3,28.3,0,0,0,.93,5,10.55,10.55,0,0,0,6.6,7.39A20.23,20.23,0,0,0,40,86.55ZM84.44,61.13c-1.12,0-2.25,0-3.37.14-1.41.13-2.82.31-4.22.51a18.14,18.14,0,0,0-3.78.92,6.24,6.24,0,0,0-4,4,10.25,10.25,0,0,0-.4,4.08,23,23,0,0,0,1.73,7.08,13.56,13.56,0,0,0,6.7,7.22,15.28,15.28,0,0,0,5.79,1.43,21.41,21.41,0,0,0,6.82-.54,11.59,11.59,0,0,0,5-2.61A11,11,0,0,0,98,77.58,38.43,38.43,0,0,0,99.09,70,14.32,14.32,0,0,0,99,66.49a4.91,4.91,0,0,0-3.79-4A43.49,43.49,0,0,0,84.44,61.13Z"/><ellipse class="cls-1" cx="83.24" cy="19.09" rx="2.64" ry="3.08" transform="translate(38.73 91.97) rotate(-71.5)"/><path class="cls-1" d="M94.36,10.14C83.16-.48,63.28-.07,60.69,0,58.11-.07,38.23-.48,27,10.14c-5,4.72-7.5,10.87-7.5,18.29A93,93,0,0,0,26.18,61.8l5.73-1.52c-2.21-7.16-3.25-16.65-3.81-27.23a22.31,22.31,0,0,1,8.28-18c6.28-5.29,20.27-8.6,26.79-8.6,7.73,0,18.2-.49,27.23,7.93a20.77,20.77,0,0,1,6.46,15,87.07,87.07,0,0,1-6.25,31.25l4.6,1.25a93,93,0,0,0,6.65-33.37C101.86,21,99.34,14.86,94.36,10.14Z"/><ellipse class="cls-1" cx="90.25" cy="25.6" rx="3.2" ry="3.73" transform="translate(11.48 76.55) rotate(-48.73)"/><ellipse class="cls-1" cx="83.68" cy="25.77" rx="1.74" ry="2.03" transform="translate(9.12 71.67) rotate(-48.73)"/><text class="cls-2" transform="translate(14.66 140.5)">&lt;/&gt;</text></g></g></svg>