<svg xmlns="http://www.w3.org/2000/svg" xmlns:xlink="http://www.w3.org/1999/xlink" viewBox="0 0 84.37 104.49"><defs><style>.cls-1{fill:url(#Degradado_sin_nombre_10);}.cls-2{fill:#b0b0b0;}.cls-3{fill:#a3aa21;}.cls-3,.cls-4,.cls-5{stroke:#000;stroke-miterlimit:10;}.cls-3,.cls-4{stroke-width:0.61px;}.cls-4,.cls-5{fill:none;}.cls-5{stroke-width:3.64px;}.cls-6{fill:#548081;}.cls-7{fill:#fff;}</style><linearGradient id="Degradado_sin_nombre_10" x1="1.94" y1="63.81" x2="78.71" y2="63.81" gradientUnits="userSpaceOnUse"><stop offset="0.11" stop-color="#ff72b3"/><stop offset="0.83" stop-color="#8044a4"/></linearGradient></defs><title>iconoRecurso 141latest tecno</title><g id="Capa_2" data-name="Capa 2"><g id="Capa_1-2" data-name="Capa 1"><path class="cls-1" d="M26.45,84c11.59,8.23,35.77,23.57,45,17.9s8.68-17.64,4.18-30.41S63.33,51.1,64.08,42.1s7.14-15.19,6.83-16.39l-.31-1.2s-5.45,0-6.86,1.5-5.34,5.14-7,5.81-4.61,3.1-4.23,6.21,1.4,3.44,1.14,5.39-4.4,2.91-3.68,5.84,2.74,6,3.82,6.5,2.15,1.06,2,1.71-2.21,3.59-1.42,5.41,1.59,3.59,2.53,4.31,3.11,3.36,2.35,4-2.26,2.3-3,1.63-2.42-2.4-3.61-2.74S49,69.2,48,70.25c-1-1-3-3.71-3-4.36s-.81-4.69-2.07-5.52-5.43-2.95-8.58-1.77C28.68,56.27,27.4,52,24,51.75s-5.72.15-6.88,1.17c-1.39-.05-3.28-.62-3.6-1.73a7.82,7.82,0,0,0-9-4.39,18.5,18.5,0,0,0-2.53.71S5.2,65.58,8.31,70.21,26.45,84,26.45,84Z"/><path class="cls-2" d="M1.47,49.3S-.29,47.8,4.2,46.79a7.82,7.82,0,0,1,9.06,4.38c.32,1.11,2.2,1.68,3.6,1.73,1.16-1,3.48-1.4,6.88-1.17s4.67,4.52,10.35,6.85c3.14-1.18,7.33.94,8.58,1.77s2.12,4.87,2.07,5.52,2,3.41,3,4.36c1-1,3.45-.48,4.64-.14S55.2,72.15,56,72.83s2.27-1,3-1.63-1.41-3.31-2.34-4-1.74-2.48-2.53-4.3,1.31-4.77,1.42-5.42-1-1.18-2-1.71-3.1-3.56-3.81-6.49,3.41-3.9,3.68-5.85S52.6,41.12,52.23,38s2.54-5.53,4.23-6.21,5.61-4.33,7-5.81,3.62-.21,3.62-.21-4.93,6-5.87,9.11-2.48,11.24-.76,15,7,13.51,5.34,20S60,81.13,53.19,80.49,36.94,71.24,31,68.47,14.47,62.27,4.59,62.2Z"/><path class="cls-3" d="M54.94,100.9S55,95,58.61,93.28s7.11-2.93,9.8-1.34,7.47,5.76,5.43,7.45-4.77,4.49-6.92,4S54.94,100.9,54.94,100.9Z"/><path class="cls-3" d="M69.2,86.74c-.25-1.5.58-4.59,2.23-4.48s4.07.63,4.57,2.24a4.26,4.26,0,0,1-1.11,4.73C73.41,90.36,69.2,86.74,69.2,86.74Z"/><path class="cls-4" d="M17.21,58a24.5,24.5,0,0,1,6.28.25c2.23.59,4.67,2.07,4.41,3.28S22.75,64,17,60"/><path class="cls-4" d="M34.34,64s5.46-.35,6.89,2.83.16,4.34-1.16,3.53-4.46-1-5.79-2.63"/><path class="cls-4" d="M46,74.31c0-.1,2.51-3,5.09-2s4.18,2.65,3.45,3.75-3.5,1.79-4.34.65"/><path class="cls-4" d="M61.47,67.83s-4.93-4.67-2.45-8.3,5.28,3.31,5.28,3.31"/><path class="cls-4" d="M58.54,56s-3-1.25-3.25-3.37.78-4.6,2.1-4.77"/><path d="M29.67,83.87c2.15,1.69,4.34,3.31,6.59,4.85s4.51,3,6.85,4.43a78.7,78.7,0,0,0,14.53,7.09,27.43,27.43,0,0,0,7.64,1.63,10.81,10.81,0,0,0,3.63-.41,6.59,6.59,0,0,0,1.57-.72A17,17,0,0,0,72,99.65a13.29,13.29,0,0,0,4.17-6.12,21.46,21.46,0,0,0,.93-7.65A51.45,51.45,0,0,0,73.5,70.33c-1.9-5-4.62-9.72-7.19-14.63a39.74,39.74,0,0,1-3.26-7.86,17.81,17.81,0,0,1-.62-4.38,20.34,20.34,0,0,1,.46-4.38A28.87,28.87,0,0,1,66,31c.68-1.25,1.44-2.45,2.19-3.6.36-.57.75-1.16,1-1.63a1.37,1.37,0,0,0,.09-.2.76.76,0,0,0,0,.33c0,.18,0,.06,0,0l0-.12-.26-1,1.4,1.08h0a21.91,21.91,0,0,0-4.41.45,3.57,3.57,0,0,0-1.47.59c-.59.6-1.18,1.16-1.77,1.71a46.92,46.92,0,0,1-3.78,3.17c-.34.25-.7.49-1.09.73a5.19,5.19,0,0,1-.67.35l-.5.23A6.48,6.48,0,0,0,55,34.3a4.49,4.49,0,0,0-1.58,3.25,6.61,6.61,0,0,0,.11,1,8.15,8.15,0,0,0,.23,1c.17.68.54,1.31.76,2.41a5.1,5.1,0,0,1,0,1.56,3.24,3.24,0,0,1-.81,1.67,19.81,19.81,0,0,1-1.9,1.7,3,3,0,0,0-1,1.33,1.4,1.4,0,0,0,0,.65c.06.28.17.68.28,1a14.28,14.28,0,0,0,2,3.9,5.57,5.57,0,0,0,.65.75,3,3,0,0,0,.25.2l.53.27a8,8,0,0,1,1.18.72,2.49,2.49,0,0,1,.67.72,1.69,1.69,0,0,1,.25.72,1.56,1.56,0,0,1-.1.77c-.22.54-.39.82-.57,1.18s-.34.68-.49,1A4.94,4.94,0,0,0,55,62a1.66,1.66,0,0,0,.23.78l.47,1.07a12.66,12.66,0,0,0,1,1.94,3.65,3.65,0,0,0,.29.37l.15.15.19.16a8.57,8.57,0,0,1,1,1,9.6,9.6,0,0,1,1.5,2.19,3.48,3.48,0,0,1,.26.79,1.85,1.85,0,0,1,0,.59,1.42,1.42,0,0,1-.34.77,1.56,1.56,0,0,1-.19.18l-.1.1-.22.19-.45.41a9,9,0,0,1-1.08.83,3.57,3.57,0,0,1-.78.34,1.69,1.69,0,0,1-1.25-.1,2.11,2.11,0,0,1-.29-.2l-.13-.12L55,73.2l-.43-.41c-.29-.27-.57-.53-.86-.77a5.43,5.43,0,0,0-1.67-1.1,10.64,10.64,0,0,0-2.15-.43,2.27,2.27,0,0,0-1.6.33l-.58.62-.6-.61h0a20.65,20.65,0,0,1-1.79-2q-.41-.52-.78-1.08a6,6,0,0,1-.73-1.35,1.77,1.77,0,0,1-.08-.33,2.45,2.45,0,0,1,0-.25h0l0-.21c0-.18-.07-.37-.11-.56-.09-.39-.2-.77-.31-1.15a9.61,9.61,0,0,0-.89-2.1,2.12,2.12,0,0,0-.26-.35.27.27,0,0,0-.1-.09l-.11-.07a10.89,10.89,0,0,0-1-.53,14.18,14.18,0,0,0-2.2-.8,6.51,6.51,0,0,0-4.12,0l-.49.21-.56-.23h0A17.66,17.66,0,0,1,29,57.14c-1.36-1.11-2.51-2.41-3.61-3.24a3.26,3.26,0,0,0-1.56-.72l-.5,0-.59,0c-.39,0-.77,0-1.15,0a12.59,12.59,0,0,0-2.18.21A3.69,3.69,0,0,0,17.8,54l-.42.38-.57,0a7.77,7.77,0,0,1-2.62-.55A4.89,4.89,0,0,1,12.86,53a3.31,3.31,0,0,1-.64-.73,3.75,3.75,0,0,1-.34-.75A5.31,5.31,0,0,0,11,50.14,6.91,6.91,0,0,0,9.58,49a6.27,6.27,0,0,0-3.4-1,9,9,0,0,0-1.85.21,14.21,14.21,0,0,0-1.92.63,1.37,1.37,0,0,1-1-2.57h0a17.12,17.12,0,0,1,2.23-.74,11.39,11.39,0,0,1,2.49-.3,9.1,9.1,0,0,1,4.9,1.42A9.64,9.64,0,0,1,13,48.24a8,8,0,0,1,1.49,2.25c-.11.45,1.27.95,2.38,1l-1,.35a6.32,6.32,0,0,1,2.88-1.3,14.25,14.25,0,0,1,2.71-.28c.44,0,.88,0,1.31,0l.65,0c.2,0,.42,0,.72.06a6.23,6.23,0,0,1,2.9,1.25c1.51,1.18,2.52,2.38,3.72,3.34a14.51,14.51,0,0,0,3.83,2.33h0l-1,0a9.14,9.14,0,0,1,5.88.25A15.82,15.82,0,0,1,42,58.58a13.6,13.6,0,0,1,1.2.72,2.92,2.92,0,0,1,.4.3c.13.13.24.25.34.37a4.32,4.32,0,0,1,.45.7,11.76,11.76,0,0,1,1,2.65c.11.44.2.88.28,1.33,0,.22.07.45.09.69a2.58,2.58,0,0,1,0,.42v.17s0-.08,0-.1,0,0,0,0a5,5,0,0,0,.45.91c.2.34.42.68.65,1a19.69,19.69,0,0,0,1.48,1.89h0l-1.18,0a2.84,2.84,0,0,1,1.48-.77,5.67,5.67,0,0,1,1.4-.1,12.83,12.83,0,0,1,2.54.45,6.94,6.94,0,0,1,2.35,1.42c.32.27.62.54.92.81l.44.41.22.19.09.08,0,0c-.09,0-.15,0-.08,0a1.51,1.51,0,0,0,.3-.16,5.92,5.92,0,0,0,.81-.64l.79-.73c-.17.22-.1.32-.13.23a1.77,1.77,0,0,0-.12-.34,8.81,8.81,0,0,0-1.23-1.71,8.41,8.41,0,0,0-.74-.73l-.26-.21-.28-.27c-.17-.19-.32-.37-.46-.56a15.39,15.39,0,0,1-1.27-2.23l-.5-1.11a5.69,5.69,0,0,1-.28-.67,3.52,3.52,0,0,1-.14-.83,6.81,6.81,0,0,1,.59-2.76c.17-.4.35-.79.53-1.15s.38-.77.46-1a.67.67,0,0,0,0,.19.58.58,0,0,0,0,.16s0,0-.15-.12a5.59,5.59,0,0,0-.87-.5L53,56.69a3.63,3.63,0,0,1-.71-.51,8,8,0,0,1-.94-1,16.38,16.38,0,0,1-2.42-4.51,12.26,12.26,0,0,1-.37-1.28,3.58,3.58,0,0,1,0-1.72,5.21,5.21,0,0,1,1.71-2.48,19.37,19.37,0,0,0,1.65-1.5.84.84,0,0,0,.24-.43,2.78,2.78,0,0,0,0-.82c-.08-.47-.48-1.26-.73-2.12a11.69,11.69,0,0,1-.31-1.3A8.54,8.54,0,0,1,51,37.63a6.11,6.11,0,0,1,.63-2.91,8.63,8.63,0,0,1,1.66-2.27,9.24,9.24,0,0,1,2.24-1.64l.58-.27c.11-.05.25-.14.39-.22s.58-.39.88-.61a42.48,42.48,0,0,0,3.49-3c.56-.53,1.12-1.08,1.64-1.63a4.27,4.27,0,0,1,1.46-1,8.37,8.37,0,0,1,1.34-.44,23.85,23.85,0,0,1,5.06-.6h1.14l.28,1.08.25,1,0,.12a1.26,1.26,0,0,1,0,.28,2,2,0,0,1-.06.84,4.84,4.84,0,0,1-.3.74c-.4.76-.79,1.29-1.17,1.88-.75,1.15-1.47,2.26-2.11,3.42a25.7,25.7,0,0,0-2.87,7.24,15.47,15.47,0,0,0,.06,7.53,34.47,34.47,0,0,0,3,7.32c2.51,4.8,5.32,9.65,7.31,14.89a53.94,53.94,0,0,1,3.78,16.38,23.88,23.88,0,0,1-1.06,8.6,15.92,15.92,0,0,1-5,7.29,18.76,18.76,0,0,1-1.81,1.3,10,10,0,0,1-2.16,1,13.52,13.52,0,0,1-4.51.53,30.35,30.35,0,0,1-8.4-1.77,92.7,92.7,0,0,1-15.06-7.22c-2.39-1.39-4.76-2.82-7.11-4.27l-7-4.45a1.78,1.78,0,1,1,1.9-3l.15.1Z"/><path class="cls-5" d="M28.65,85.32A40.37,40.37,0,1,1,75.09,70.67"/><path class="cls-6" d="M53.24,16.12a1.32,1.32,0,0,1-.49,1.37c-.73.68-1.43,1.41-2.17,2.15.75.78,1.57,1.47,1.57,2.67s-.79,1.91-1.56,2.68l.31.34,2,2A.93.93,0,0,1,53,28.8a.91.91,0,0,1-1.41-.12l-2.32-2.31-1.77,1.77.29.29,2,2.05a1,1,0,1,1-1.36,1.35c-.68-.67-1.35-1.34-2-2l-.32-.32-1.77,1.77,1,1,1.36,1.37A.9.9,0,0,1,46.81,35a.93.93,0,0,1-1.4,0c-.68-.65-1.33-1.32-2-2L43,32.63a.63.63,0,0,0-.15.08l-1.63,1.63c.09.1.18.21.28.31l2.1,2.11A1,1,0,0,1,43.78,38a.94.94,0,0,1-1.18.32,1.58,1.58,0,0,1-.43-.35c-.76-.74-1.5-1.49-2.27-2.26l-1.76,1.76,2.35,2.36a1,1,0,0,1-.3,1.64,1,1,0,0,1-1.06-.28c-.68-.69-1.37-1.37-2.05-2.05l-.3-.31L35,40.61,36.43,42l1,1a.94.94,0,0,1-1.29,1.38c-.57-.53-1.11-1.1-1.66-1.65l-.82-.82c-.79.75-1.47,1.57-2.68,1.57s-1.9-.79-2.68-1.57l-.39.38c-.69.69-1.36,1.38-2.06,2a.92.92,0,0,1-1.21.11,1,1,0,0,1-.32-1.18,1.76,1.76,0,0,1,.27-.34l2.35-2.35-1.77-1.77-.3.29-2.05,2a.93.93,0,0,1-1.42.06,1,1,0,0,1,.07-1.42l2.34-2.34L22,35.71l-1.92,1.92c-.17.17-.33.35-.51.51a.89.89,0,0,1-1.29,0,.9.9,0,0,1-.07-1.33c.52-.56,1.08-1.09,1.62-1.63l.82-.82-1.75-1.75-.3.28c-.68.67-1.36,1.34-2,2a1,1,0,0,1-1.05.33.94.94,0,0,1-.39-1.58l2-2,.44-.44L15.81,29.5l-.29.29-2,2a1,1,0,1,1-1.35-1.36l2-2,.29-.29-1.77-1.77-.43.42c-.65.66-1.3,1.32-2,2A.9.9,0,0,1,9,28.8a.92.92,0,0,1,0-1.36c.68-.7,1.37-1.37,2.05-2.06l.37-.37c-.75-.78-1.57-1.46-1.57-2.67s.79-1.9,1.56-2.68L11,19.32c-.7-.7-1.41-1.4-2.1-2.11A1,1,0,0,1,10,15.68a1.86,1.86,0,0,1,.31.26l2.35,2.35,1.77-1.77L12.8,14.86l-.74-.74a1,1,0,1,1,1.35-1.36L15.66,15l.16.14,1.76-1.76L16,11.85c-.29-.28-.58-.56-.86-.85a.95.95,0,1,1,1.33-1.35c.7.67,1.38,1.36,2.06,2l.37.38.88-.88.88-.89-.86-.86L18.33,7.93a.94.94,0,0,1,0-1.42.9.9,0,0,1,1.38.08L22,8.94l1.76-1.77L22.42,5.8c-.33-.33-.67-.66-1-1a1,1,0,1,1,1.36-1.35L24.84,5.5l.32.32,1.77-1.77-.28-.28L24.58,1.69A.9.9,0,0,1,24.49.31a.93.93,0,0,1,1.42,0c.68.66,1.35,1.34,2,2l.38.37c.33-.33.63-.65,1-1a2.61,2.61,0,0,1,3.65.2l.72.71L34,2.4c.63-.62,1.27-1.24,1.88-1.88A1.28,1.28,0,0,1,37.18.05l.45.45a1.11,1.11,0,0,1-.36,1.29c-.68.64-1.33,1.32-2,2L35,4.05l1.77,1.77c.75-.75,1.49-1.46,2.19-2.21a1.26,1.26,0,0,1,1.35-.43l.46.46a1.17,1.17,0,0,1-.39,1.29,8.21,8.21,0,0,0-.59.59L38.14,7.17l1.77,1.77c.76-.77,1.52-1.51,2.25-2.27a1.1,1.1,0,0,1,1.28-.35l.46.45a1.33,1.33,0,0,1-.5,1.37c-.64.6-1.24,1.23-1.85,1.85l-.29.31L43,12.05c.72-.73,1.45-1.43,2.14-2.16a1.36,1.36,0,0,1,1.37-.5l.46.46a1.13,1.13,0,0,1-.38,1.31c-.7.66-1.36,1.34-2,2-.07.07-.13.16-.2.24l1.74,1.75c.74-.74,1.48-1.46,2.19-2.21a1.25,1.25,0,0,1,1.35-.43l.46.45a1.1,1.1,0,0,1-.26,1.17c-.13.12-.25.25-.37.37l-2,2,1.77,1.77c.76-.77,1.53-1.5,2.25-2.27a1.13,1.13,0,0,1,1.29-.36ZM17,19.44l.1.13c.92.92,1.87,1.81,2.74,2.78a2.4,2.4,0,0,0,2.18.91,2.06,2.06,0,0,1,1.66.68c.64.65,1.3,1.28,1.93,1.94a.45.45,0,0,0,.61.12,2.54,2.54,0,0,1,3.08.95,2.54,2.54,0,0,1-3.54,3.49,2.51,2.51,0,0,1-.92-3.06.43.43,0,0,0-.11-.58c-.65-.62-1.25-1.29-1.92-1.89a2.08,2.08,0,0,0-.89-.37,2.21,2.21,0,0,0-.68,0A2.15,2.15,0,0,1,19.73,24c-.72-.68-1.42-1.39-2.13-2.08l-1.52-1.53-1.95,1.95,14,14c.66-.66,1.32-1.31,2-2,1.31-1.33,1.15-.89,1.14-2.79a2.42,2.42,0,0,1,.73-1.76l1.51-1.5A2.53,2.53,0,0,1,37.14,25a2.53,2.53,0,0,1-.49,4.35,2.56,2.56,0,0,1-2.3-.13c-.48.49-.94,1-1.42,1.42a1.34,1.34,0,0,0-.44,1.07c0,.21,0,.41,0,.61a2.88,2.88,0,0,1-1,2.49c-.84.78-1.64,1.62-2.45,2.44l1.94,2L47.8,22.33l-1.94-1.95c-1,1-2,1.95-2.92,2.92-.48.47-.94,1-1.43,1.42a1.31,1.31,0,0,1-2,0,10.38,10.38,0,0,1-1-1,3.42,3.42,0,0,0-3.34-1.4c-1.63.13-1.32-.16-2.55,1.08a2.29,2.29,0,0,1-1.69.71c-.72,0-1.45,0-2.17,0a2.22,2.22,0,0,1-1.62-.69l-6.72-6.72-.32-.32Zm20.84-7.08-2.07,2.07a1.35,1.35,0,0,1-2.11,0l-2.85-2.85-.33-.34-.34.34c-.82.82-1.63,1.64-2.45,2.45a1.27,1.27,0,0,1-1.95,0l-.57-.57-1.09-1.09L21,15.46l.36.36c2,1.95,3.91,3.92,5.87,5.86,1.29,1.28.77,1.11,2.68,1.11,1.59,0,1.32.18,2.55-1.07A2.24,2.24,0,0,1,34.16,21c.71,0,1.43,0,2.14,0a2.77,2.77,0,0,1,2.37,1c.58.63,1.21,1.21,1.82,1.82l4.43-4.42-3.08-3.08c-.55.54-1.09,1.06-1.61,1.61a2.47,2.47,0,0,1-1.9.78c-1.88,0-3.76,0-5.64,0a.46.46,0,0,0-.52.34,2.53,2.53,0,0,1-3.86,1,2.54,2.54,0,0,1,1.39-4.55,2.46,2.46,0,0,1,2.49,1.59.39.39,0,0,0,.43.3c1.94,0,3.87,0,5.8,0a1,1,0,0,0,.64-.17c.64-.58,1.24-1.21,1.86-1.84Zm-.93-.91-6-6-6,6,1.74,1.74.3-.29c.86-.86,1.72-1.73,2.59-2.59a1.19,1.19,0,0,1,1.72,0c.34.32.66.66,1,1l2.36,2.36ZM28.07,29.21a1.25,1.25,0,0,0-1.77-1.76,1.25,1.25,0,1,0,1.77,1.76Zm.93-12A1.19,1.19,0,0,0,29,19a1.21,1.21,0,0,0,1.75,0A1.23,1.23,0,1,0,29,17.22Zm5.74,10.63a1.24,1.24,0,1,0,0-1.76A1.24,1.24,0,0,0,34.74,27.85Z"/><path class="cls-7" d="M17,19.44l3.08-3.09.32.32,6.72,6.72a2.22,2.22,0,0,0,1.62.69c.72,0,1.45,0,2.17,0a2.29,2.29,0,0,0,1.69-.71c1.23-1.24.92-.95,2.55-1.08a3.42,3.42,0,0,1,3.34,1.4,10.38,10.38,0,0,0,1,1,1.31,1.31,0,0,0,2,0c.49-.46,1-.95,1.43-1.42,1-1,1.93-1.94,2.92-2.92l1.94,1.95L31,39.17l-1.94-2c.81-.82,1.61-1.66,2.45-2.44a2.88,2.88,0,0,0,1-2.49c0-.2,0-.4,0-.61a1.34,1.34,0,0,1,.44-1.07c.48-.45.94-.93,1.42-1.42a2.56,2.56,0,0,0,2.3.13A2.53,2.53,0,0,0,37.14,25a2.53,2.53,0,0,0-3.69,3.31l-1.51,1.5a2.42,2.42,0,0,0-.73,1.76c0,1.9.17,1.46-1.14,2.79-.65.66-1.31,1.31-2,2l-14-14,1.95-1.95,1.52,1.53c.71.69,1.41,1.4,2.13,2.08a2.15,2.15,0,0,0,1.52.54,2.21,2.21,0,0,1,.68,0,2.08,2.08,0,0,1,.89.37c.67.6,1.27,1.27,1.92,1.89a.43.43,0,0,1,.11.58,2.51,2.51,0,0,0,.92,3.06A2.53,2.53,0,1,0,26.23,26a.45.45,0,0,1-.61-.12c-.63-.66-1.29-1.29-1.93-1.94A2.06,2.06,0,0,0,22,23.26a2.4,2.4,0,0,1-2.18-.91c-.87-1-1.82-1.86-2.74-2.78Z"/><path class="cls-7" d="M37.85,12.36l3.07,3.07c-.62.63-1.22,1.26-1.86,1.84a1,1,0,0,1-.64.17c-1.93,0-3.86,0-5.8,0a.39.39,0,0,1-.43-.3,2.46,2.46,0,0,0-2.49-1.59,2.53,2.53,0,1,0,2.47,3.52.46.46,0,0,1,.52-.34c1.88,0,3.76,0,5.64,0a2.47,2.47,0,0,0,1.9-.78c.52-.55,1.06-1.07,1.61-1.61l3.08,3.08-4.43,4.42c-.61-.61-1.24-1.19-1.82-1.82a2.77,2.77,0,0,0-2.37-1c-.71,0-1.43,0-2.14,0a2.24,2.24,0,0,0-1.69.68c-1.23,1.25-1,1.07-2.55,1.07-1.91,0-1.39.17-2.68-1.11-2-1.94-3.91-3.91-5.87-5.86L21,15.46l3.08-3.09,1.09,1.09.57.57a1.27,1.27,0,0,0,1.95,0c.82-.81,1.63-1.63,2.45-2.45l.34-.34.33.34,2.85,2.85a1.35,1.35,0,0,0,2.11,0Z"/><path class="cls-7" d="M36.92,11.45l-2.2,2.2-2.36-2.36c-.34-.33-.66-.67-1-1a1.19,1.19,0,0,0-1.72,0c-.87.86-1.73,1.73-2.59,2.59l-.3.29L25,11.45l6-6Z"/><path class="cls-7" d="M28.07,29.21a1.25,1.25,0,1,1,0-1.77A1.25,1.25,0,0,1,28.07,29.21Z"/><path class="cls-7" d="M29,17.22A1.23,1.23,0,1,1,30.73,19,1.21,1.21,0,0,1,29,19,1.19,1.19,0,0,1,29,17.22Z"/><path class="cls-7" d="M34.74,27.85a1.24,1.24,0,1,1,1.73.07A1.24,1.24,0,0,1,34.74,27.85Z"/></g></g></svg>