<svg xmlns="http://www.w3.org/2000/svg" viewBox="0 0 245.18 220.51"><title>icono NRecurso 132dev teams</title><g id="Capa_2" data-name="Capa 2"><g id="Fronts"><path d="M150.38,113.13l-.66.41.23.74a10.72,10.72,0,0,0,3.3,4.56,20.75,20.75,0,0,0,4.38,3,26.66,26.66,0,0,0,9.58,2.59l.25,0h.19l.6,0v0h1.3c3.5,0,7.41,1.11,8.23,3.57V128a5.64,5.64,0,0,1,.34,2.25v10.44A28.1,28.1,0,0,0,182,155.79a25,25,0,0,0,6.24,6.8l-.68.48a25.58,25.58,0,0,0-5.34,5.46,26.29,26.29,0,0,0-4.59,14.31l-.24,6.64-.06,1.63,0,.78-.07.55h0v0a3.64,3.64,0,0,1-.47,1.49c-.67,1.28-3.27,2.17-6.34,2.17-.36,0-.72,0-1.08,0l-1.06-.07v10.09l1.05-.06a23.64,23.64,0,0,0,8-1.72,13.22,13.22,0,0,0,7.12-6.5,12,12,0,0,0,1.12-4.8l0-1v-.06l0-.82-.07-1.64c0-.62,0-1.26-.07-1.9-.06-1.53-.13-3.11-.11-4.51a19,19,0,0,1,2.86-10.4,18.18,18.18,0,0,1,3.66-4,14.45,14.45,0,0,1,4.65-2.48l1.73-.55.7-.22v-2.85l0-1.82V160l-.7-.21-1.71-.52a16.94,16.94,0,0,1-8.86-7,20.12,20.12,0,0,1-2.9-11.53V130.26a13.17,13.17,0,0,0-.7-4.56,11.5,11.5,0,0,0-6.67-6.71,21.14,21.14,0,0,0-6.87-1.49v-.06l-.95,0-1.52-.06a23.4,23.4,0,0,1-6.93-2.23,13.71,13.71,0,0,1-2.77-1.91c-.34-.32-.66-.66-1-1C156.85,111.66,150.38,113.13,150.38,113.13Z"/><path d="M86.05,110.63a13.69,13.69,0,0,0-1.58,1.55c-.33.36-.64.7-1,1a13.55,13.55,0,0,1-2.77,1.9,23.29,23.29,0,0,1-6.93,2.24l-1.52.06-1,0v.06A21.2,21.2,0,0,0,64.44,119a11.48,11.48,0,0,0-6.66,6.71,12.92,12.92,0,0,0-.7,4.55v10.46a20.12,20.12,0,0,1-2.91,11.55,16.9,16.9,0,0,1-8.86,7l-1.7.52-.7.21v2.88l0,1.79v.73l.69.22,1.74.55A14.45,14.45,0,0,1,50,168.66a18.38,18.38,0,0,1,3.65,4,18.89,18.89,0,0,1,2.87,10.4c0,1.4,0,3-.11,4.51,0,.64-.06,1.28-.08,1.91l-.06,1.63,0,.82V192l0,1a12.2,12.2,0,0,0,1.13,4.8,13.2,13.2,0,0,0,7.13,6.5,23.42,23.42,0,0,0,8,1.72l1,.06V196l-1.06.07c-.36,0-.72,0-1.08,0-3.07,0-5.67-.89-6.33-2.15a3.71,3.71,0,0,1-.49-1.51v0h0l-.06-.55,0-.78-.07-1.64-.23-6.63a26.31,26.31,0,0,0-4.6-14.31,25,25,0,0,0-5.33-5.45c-.22-.17-.45-.33-.68-.49a24.84,24.84,0,0,0,6.23-6.8,28.05,28.05,0,0,0,3.82-15.1V130.26A6,6,0,0,1,64,128l0,0v0c.82-2.46,4.72-3.57,8.23-3.57h1.3v0l.6,0h.19l.25,0a26.55,26.55,0,0,0,9.57-2.59,20.82,20.82,0,0,0,4.39-3,10.63,10.63,0,0,0,3.29-4.56l.24-.74-.67-.41-4.11-2.3Z"/><path d="M102.42,84c-8-3.25-14.23-.64-18.43.55-3.85,1.1-6.18,6.19-6.18,10.34a9.06,9.06,0,0,0,8.75,9.41c2.91.14,3.89-2.88,7.13-3.41,3.48-.57,6.65,1.69,9,1,2.91-.81,4.64-4.48,4.64-9C107.37,89.19,105.67,85.29,102.42,84Zm-8.89,6.69c-4.75,0-8.24,5.46-8.22,2.13s3.26-7.06,8-7,9.21,3.78,9.2,7.11S98.28,90.67,93.53,90.65Z"/><path d="M161,84.51c-4.2-1.19-10.47-3.8-18.43-.55-3.24,1.33-4.94,5.23-4.94,8.9,0,4.54,1.72,8.21,4.64,9,2.38.66,5.56-1.6,9-1,3.25.53,4.22,3.55,7.14,3.41a9.06,9.06,0,0,0,8.74-9.41C167.16,90.7,164.83,85.61,161,84.51ZM152,90.62c-4.75,0-8.24,5.45-8.23,2.13s3.26-7.07,8-7,9.2,3.78,9.19,7.11S156.78,90.64,152,90.62Z"/><path d="M151.48,114.07a29.39,29.39,0,0,1-9-1.26,20.18,20.18,0,0,1-11.6-9.4A47.3,47.3,0,0,1,128,97.13c-.63-1.56-1.3-3.11-2-4.65a3.31,3.31,0,0,0-2.46-2.13,5.22,5.22,0,0,0-2.69.14,3.3,3.3,0,0,0-2,2c-.9,2.11-1.79,4.22-2.64,6.34a27.45,27.45,0,0,1-5,8.4,19.92,19.92,0,0,1-9.87,5.9,32.57,32.57,0,0,1-10.41.88,29.9,29.9,0,0,1-7.61-1.36,15.92,15.92,0,0,1-10.56-10.51,29,29,0,0,1-1.38-6.88c-.15-1.77-.38-3.52-.56-5.28-.08-.78-.12-1.55-.19-2.33a1.37,1.37,0,0,0-1-1.27c-.39-.13-.77-.28-1.17-.39a.91.91,0,0,1-.79-1c0-1-.09-2-.08-3A1.84,1.84,0,0,1,69,80.27c1.11-.48,2.25-.9,3.4-1.28a69.13,69.13,0,0,1,11.87-2.78c2-.28,4-.48,6-.61s4-.2,5.94-.18A38.49,38.49,0,0,1,113,79.21a21.53,21.53,0,0,0,6.61,2.05,21,21,0,0,0,6.47-.11A27.08,27.08,0,0,0,133,78.77a31.67,31.67,0,0,1,7.38-2.45,53.53,53.53,0,0,1,13.07-.85,71.58,71.58,0,0,1,14.41,2.17c2.41.63,4.79,1.42,7.17,2.17a5.92,5.92,0,0,1,1.4.7,1.85,1.85,0,0,1,.87,1.69c0,.92-.05,1.84-.09,2.76,0,.63-.24.85-.84,1-.27.07-.53.19-.8.25a1.86,1.86,0,0,0-1.43,1.91c-.23,2.6-.51,5.21-.74,7.81a25.72,25.72,0,0,1-.95,5.08,17.35,17.35,0,0,1-4.45,7.8,17.55,17.55,0,0,1-8.07,4.29A35,35,0,0,1,151.48,114.07Zm-57.2-2.8a24.42,24.42,0,0,0,4.5-.54,17.15,17.15,0,0,0,10.15-6.2,20.25,20.25,0,0,0,3.66-7.39,24,24,0,0,0,1.15-9.21,8.12,8.12,0,0,0-5.57-7.32,37.4,37.4,0,0,0-9.6-1.78c-1.4-.13-2.8-.17-4.2-.2s-2.64,0-4,.05a37.58,37.58,0,0,0-4,.4c-2.2.35-4.41.71-6.58,1.22a6.1,6.1,0,0,0-4.61,4,9.05,9.05,0,0,0-.57,3.37q.12,3.14.4,6.27a34.73,34.73,0,0,0,1.2,6.4,13.54,13.54,0,0,0,8.48,9.5A26.27,26.27,0,0,0,94.28,111.27Zm57.15-32.69c-1.45.06-2.9.06-4.34.19-1.81.16-3.62.39-5.43.65a22.62,22.62,0,0,0-4.85,1.19,8,8,0,0,0-5.09,5.09A13.34,13.34,0,0,0,131.2,91a30,30,0,0,0,2.22,9.1,17.44,17.44,0,0,0,8.63,9.28,19.7,19.7,0,0,0,7.44,1.85,27.53,27.53,0,0,0,8.77-.71,14.92,14.92,0,0,0,6.45-3.35,14.31,14.31,0,0,0,4.18-7.38,50.72,50.72,0,0,0,1.37-9.82,17.84,17.84,0,0,0-.19-4.44,6.31,6.31,0,0,0-4.86-5.17A55.66,55.66,0,0,0,151.43,78.58Z"/><ellipse cx="149.89" cy="24.54" rx="3.4" ry="3.96" transform="translate(79.06 158.9) rotate(-71.5)"/><path d="M164.18,13C149.78-.62,124.23-.09,120.9,0,117.58-.09,92-.62,77.62,13,71.22,19.1,68,27,68,36.54c0,17.53,4.65,33,8.55,42.9L83.9,77.5c-2.84-9.22-4.19-21.41-4.89-35C78.61,35,81.66,26,89.64,19.3S115.7,8.24,124.09,8.24c9.93,0,23.39-.63,35,10.19a26.7,26.7,0,0,1,8.31,19.23c0,16.36-4.37,30.88-8,40.17l5.9,1.61c3.91-9.89,8.56-25.37,8.56-42.9C173.82,27,170.57,19.1,164.18,13Z"/><ellipse cx="158.89" cy="32.91" rx="4.11" ry="4.8" transform="translate(29.35 130.63) rotate(-48.73)"/><ellipse cx="150.45" cy="33.12" rx="2.23" ry="2.61" transform="translate(26.32 124.36) rotate(-48.73)"/><path d="M83.81,195.91a10.77,10.77,0,0,1-.12-1.21l0-1.65,0-3.29-.1-6.6c0-4.35-.31-9.47-2.49-13.95a19.06,19.06,0,0,0-4.51-6A32.06,32.06,0,0,0,73.73,161c.48-.36,1-.73,1.4-1.12a21.89,21.89,0,0,0,3.71-4.07,23.92,23.92,0,0,0,3.92-10.12,32.1,32.1,0,0,0,.33-5.3v-5a3.92,3.92,0,0,1,1.21-2.89,14.72,14.72,0,0,1,2.8-1.95q-2.6-.95-5.11-2a9.78,9.78,0,0,0-.91.81,8.55,8.55,0,0,0-2.44,6.06v5a27.48,27.48,0,0,1-.3,4.61,19.47,19.47,0,0,1-3.22,8.21,16.21,16.21,0,0,1-6.42,5.41l-1.56.57V163l1.55.54a14.35,14.35,0,0,1,4.57,3.2,14,14,0,0,1,3.29,4.59,19.78,19.78,0,0,1,1.48,5.64,42.31,42.31,0,0,1,.16,6.24l-.09,6.6,0,3.29,0,1.65a14.83,14.83,0,0,0,.14,2.08A10.06,10.06,0,0,0,79.74,201a9.72,9.72,0,0,0,3.44,3.17A16.72,16.72,0,0,0,91,206.05v-6.33a10.92,10.92,0,0,1-5-.79A3.8,3.8,0,0,1,83.81,195.91Z"/><path d="M101.46,204.7a3.56,3.56,0,0,1-.47-1.52l0-.57,0-.82,0-1.66-.38-13.31c-.08-2.25-.1-4.36-.23-6.72a38.61,38.61,0,0,0-1-7.12,21.44,21.44,0,0,0-3-6.92c-1.13-1.59-2.23-3-3.42-4.39a60.22,60.22,0,0,0,4-6.34,25.72,25.72,0,0,0,2.54-9,43.46,43.46,0,0,0,.22-4.53v-2.13a6.5,6.5,0,0,1,.2-1.54,7.12,7.12,0,0,1,2.2-3.39c-1.71-.33-3.42-.7-5.1-1.12A10.71,10.71,0,0,0,95.32,137a11.3,11.3,0,0,0-.35,2.7v2.15a38.43,38.43,0,0,1-.19,4.05,21.11,21.11,0,0,1-2.09,7.42c-1.11,2.22-3,4.65-4.47,7l-.37.58v2l.54.69h0A61.07,61.07,0,0,1,92,168.77a16.08,16.08,0,0,1,1.87,5.38c.7,3.88.3,8.17.22,12.67l-.38,13.31,0,1.66,0,.84,0,1.1a11.07,11.07,0,0,0,1.31,4.82,8.93,8.93,0,0,0,4.28,3.79,12.81,12.81,0,0,0,4.73.94v-8a5.65,5.65,0,0,1-1.79-.17A1.26,1.26,0,0,1,101.46,204.7Z"/><path d="M118.61,136.58l0,0c-1.45,0-2.89-.08-4.32-.17a29.19,29.19,0,0,0-1.69,2.48,18.84,18.84,0,0,0-2.33,5.53A10.76,10.76,0,0,0,110,146c-.05.58,0,.93-.06,1.41l-.08,2.68-.17,5.36-.65,21.45-.66,21.45-.33,10.72c-.06,1.74-.16,5,2.08,7.83a9.3,9.3,0,0,0,4.12,2.88,13,13,0,0,0,4,.7v-9a4.77,4.77,0,0,1-1.25-.06c-.24-.06-.25-.05-.29,0s-.18-.13-.29-.53a8.26,8.26,0,0,1-.18-1.82L116,198.38l-.66-21.45-.65-21.45-.17-5.36-.08-2.68,0-1.28a5.94,5.94,0,0,1,.06-1A19.55,19.55,0,0,1,118.61,136.58Z"/><path d="M133.35,198.38l-.65-21.45L132,155.48l-.17-5.36-.08-2.68c0-.48,0-.83,0-1.41a12.15,12.15,0,0,0-.23-1.65,18.84,18.84,0,0,0-2.33-5.53,28.41,28.41,0,0,0-1.66-2.45c-1.45.09-2.91.13-4.37.16l0,0a19.68,19.68,0,0,1,4.19,8.57,7.11,7.11,0,0,1,.05,1l0,1.28-.08,2.68-.17,5.36-.65,21.45-.66,21.45-.33,10.72a7.67,7.67,0,0,1-.18,1.82c-.11.4-.25.52-.28.53s0,0-.3,0a4.72,4.72,0,0,1-1.24.06v9a13,13,0,0,0,4-.7,9.3,9.3,0,0,0,4.12-2.88c2.24-2.81,2.14-6.09,2.08-7.83Z"/><path d="M149.05,153.28a21.33,21.33,0,0,1-2.09-7.42,38.46,38.46,0,0,1-.18-4.05v-2.15a11.3,11.3,0,0,0-.35-2.7,10.51,10.51,0,0,0-1.5-3.25c-1.67.41-3.37.78-5.08,1.11a7.12,7.12,0,0,1,2.13,3.32,6.5,6.5,0,0,1,.2,1.54v2.13a43.42,43.42,0,0,0,.21,4.53,25.72,25.72,0,0,0,2.54,9,60.22,60.22,0,0,0,4,6.34c-1.19,1.41-2.29,2.8-3.42,4.39a21.44,21.44,0,0,0-3,6.92,38.61,38.61,0,0,0-1,7.12c-.13,2.36-.15,4.47-.23,6.72l-.38,13.31,0,1.66,0,.82-.05.57a3.56,3.56,0,0,1-.47,1.52,1.26,1.26,0,0,1-.69.44,5.65,5.65,0,0,1-1.79.17v8a12.81,12.81,0,0,0,4.73-.94,8.89,8.89,0,0,0,4.28-3.79,10.93,10.93,0,0,0,1.31-4.82l0-1.1,0-.84,0-1.66-.39-13.31c-.08-4.5-.48-8.79.22-12.67a16.08,16.08,0,0,1,1.87-5.38c1-1.7,2.32-3.61,3.56-5.23h0l.54-.69v-2l-.37-.58C152,157.93,150.16,155.5,149.05,153.28Z"/><path d="M173,158.64a16.21,16.21,0,0,1-6.42-5.41,19.47,19.47,0,0,1-3.22-8.21,27.48,27.48,0,0,1-.3-4.61v-5a8.51,8.51,0,0,0-2.44-6.06,7.6,7.6,0,0,0-.74-.66q-2.5,1.07-5.1,2a13.1,13.1,0,0,1,2.62,1.83,3.92,3.92,0,0,1,1.21,2.89v5a32.1,32.1,0,0,0,.33,5.3,23.92,23.92,0,0,0,3.92,10.12,22.24,22.24,0,0,0,3.71,4.07c.45.39.92.76,1.41,1.12a30.77,30.77,0,0,0-2.8,2.23,18.88,18.88,0,0,0-4.5,6c-2.19,4.48-2.54,9.6-2.5,13.95l-.1,6.6,0,3.29,0,1.65a8.85,8.85,0,0,1-.12,1.21,3.8,3.8,0,0,1-2.2,3,10.9,10.9,0,0,1-5,.79v6.33a16.79,16.79,0,0,0,7.82-1.84A9.69,9.69,0,0,0,162,201a10.06,10.06,0,0,0,1.54-4.26,14.83,14.83,0,0,0,.14-2.08l0-1.65,0-3.29-.1-6.6a42.31,42.31,0,0,1,.16-6.24,19.47,19.47,0,0,1,1.49-5.64,13.81,13.81,0,0,1,3.28-4.59,14.46,14.46,0,0,1,4.57-3.2l1.55-.54v-3.74Z"/><path d="M245.18,135.15v-3.51l-.52-.16-1.28-.39a12.72,12.72,0,0,1-6.67-5.28,15.11,15.11,0,0,1-2.18-8.66v-7.88a9.81,9.81,0,0,0-.53-3.42,8.65,8.65,0,0,0-5-5,15.85,15.85,0,0,0-5.17-1.12v0l-.71,0-1.14,0a17.41,17.41,0,0,1-5.21-1.68,9.94,9.94,0,0,1-1.89-1.28c.34-.07.69-.13,1-.22a12.2,12.2,0,0,0,9.41-9.09,19.81,19.81,0,0,0,.72-3.82c.17-2,.38-3.91.56-5.87a1.37,1.37,0,0,1,1.07-1.43c.2,0,.4-.14.6-.19.45-.12.61-.29.63-.76,0-.69,0-1.38.07-2.08a1.4,1.4,0,0,0-.66-1.27,4.71,4.71,0,0,0-1.05-.53c-1.79-.56-3.58-1.15-5.39-1.63l-1.33-.31a88.85,88.85,0,0,0,5.8-30.58c0-7.17-2.44-13.11-7.25-17.67-10.82-10.27-30-9.87-32.53-9.77a62.93,62.93,0,0,0-17.92,2.08,30.16,30.16,0,0,1,5.06,7,54.62,54.62,0,0,1,15.25-2.94c7.47,0,17.59-.48,26.32,7.66a20.09,20.09,0,0,1,6.24,14.46,83.36,83.36,0,0,1-5.55,28.9c-1.63-.23-3.27-.39-4.92-.47a39.89,39.89,0,0,0-9.82.63,24,24,0,0,0-5.55,1.84,20.61,20.61,0,0,1-5.23,1.79,15.91,15.91,0,0,1-4.87.09,16.34,16.34,0,0,1-5-1.55,27.33,27.33,0,0,0-8.34-2.52c-.25.84-.5,1.61-.76,2.41A23.58,23.58,0,0,1,177,72a6.07,6.07,0,0,1,4.18,5.5,15.82,15.82,0,0,1-.5,5.53c0,.44,0,.88,0,1.31a.87.87,0,0,1-.59.92,14.54,14.54,0,0,1-2.48,4.72c-.08.1-.17.18-.26.28L176.91,94a14.53,14.53,0,0,0,2.43-2.1,20.64,20.64,0,0,0,3.73-6.31c.64-1.6,1.31-3.18,2-4.76a2.47,2.47,0,0,1,1.48-1.5,4,4,0,0,1,2-.1,2.5,2.5,0,0,1,1.85,1.6c.5,1.16,1,2.32,1.48,3.49A35.93,35.93,0,0,0,194,89.09a15.15,15.15,0,0,0,8.72,7.06,21.41,21.41,0,0,0,5.55.92l.06.19a8,8,0,0,0,2.48,3.43,15.63,15.63,0,0,0,3.3,2.22,20,20,0,0,0,7.19,1.94l.19,0h.15l.45,0v0h1c2.64,0,5.57.82,6.19,2.68v0a4.62,4.62,0,0,1,.26,1.69v7.85a21,21,0,0,0,2.86,11.33,18.92,18.92,0,0,0,4.69,5.12l-.51.36a19,19,0,0,0-4,4.1,19.89,19.89,0,0,0-3.46,10.76l-.17,5,0,1.23,0,.58,0,.42h0a2.93,2.93,0,0,1-.36,1.12c-.5,1-2.46,1.63-4.76,1.63l-.82,0-.79-.06v7.58l.79,0a18,18,0,0,0,6-1.29,10,10,0,0,0,5.35-4.89,9.19,9.19,0,0,0,.84-3.61l0-.78v-.05l0-.61,0-1.23-.06-1.43c0-1.15-.09-2.34-.08-3.39a14.18,14.18,0,0,1,2.15-7.82,14,14,0,0,1,2.75-3,10.7,10.7,0,0,1,3.5-1.86l1.3-.41.52-.17ZM208,94.93a14.85,14.85,0,0,1-5.59-1.39,13.05,13.05,0,0,1-6.48-7,22.05,22.05,0,0,1-1.67-6.84,9.74,9.74,0,0,1,.39-3.94,6,6,0,0,1,3.82-3.84,17.68,17.68,0,0,1,3.65-.89c1.35-.19,2.72-.37,4.08-.49,1.08-.09,2.17-.09,3.26-.14a41.55,41.55,0,0,1,10.36,1.3,4.75,4.75,0,0,1,3.66,3.89,13.82,13.82,0,0,1,.14,3.34,38.25,38.25,0,0,1-1,7.38,10.77,10.77,0,0,1-3.15,5.55,11.3,11.3,0,0,1-4.85,2.52A20.85,20.85,0,0,1,208,94.93Z"/><path d="M24.75,176.08c-2.66,0-4.92-.77-5.49-1.87a3.18,3.18,0,0,1-.42-1.31h0v0l-.06-.47,0-.68-.06-1.42-.2-5.75a22.89,22.89,0,0,0-4-12.42,22.22,22.22,0,0,0-4.62-4.72l-.6-.42a21.75,21.75,0,0,0,5.41-5.9A24.41,24.41,0,0,0,18,128v-9a5.2,5.2,0,0,1,.3-1.94v-.06c.71-2.14,4.1-3.1,7.14-3.1h.25l.88,0v0l.52,0h.16l.22,0a23.15,23.15,0,0,0,8.3-2.25A17.89,17.89,0,0,0,39.62,109a9.33,9.33,0,0,0,2.86-4l.07-.23a27.45,27.45,0,0,0,8.27-.79,17.14,17.14,0,0,0,8.56-5.12,23.73,23.73,0,0,0,4.31-7.28c.74-1.85,1.51-3.67,2.29-5.5a4.12,4.12,0,0,1,.47-.79l-.23-.08a.89.89,0,0,1-.79-1c-.05-1-.09-2-.08-3a1.85,1.85,0,0,1,1.25-1.73c1.11-.47,2.25-.9,3.4-1.28s2.39-.73,3.6-1.06q-.21-.56-.42-1.14c-.34.08-.67.17-1,.23a18.58,18.58,0,0,1-5.62.09,18.36,18.36,0,0,1-5.73-1.78,33.22,33.22,0,0,0-14.63-3.28c-1.72,0-3.44,0-5.15.16s-3.46.28-5.17.52c-.19,0-.37.07-.56.09-2.26-7.86-3.37-18-4-29.35a24.86,24.86,0,0,1,9.22-20.1c7-5.91,22.61-9.6,29.89-9.6,1.3,0,2.69,0,4.12,0,.24-.25.45-.5.7-.74A36.86,36.86,0,0,1,82.5,7.07,73.39,73.39,0,0,0,67.68,6C64.8,5.86,42.63,5.4,30.14,17.25c-5.55,5.26-8.36,12.12-8.36,20.39a102.89,102.89,0,0,0,6.91,35.9c-1.05.28-2.09.58-3.12.92s-2,.7-3,1.11a1.63,1.63,0,0,0-1.08,1.5c0,.87,0,1.75.07,2.62a.8.8,0,0,0,.69.83c.34.1.67.23,1,.33A1.19,1.19,0,0,1,24.18,82c.06.67.1,1.35.17,2,.15,1.53.35,3,.48,4.58a24.91,24.91,0,0,0,1.2,6,13.82,13.82,0,0,0,9.16,9.12l.4.11-.36.38a11.58,11.58,0,0,1-2.4,1.65,20.26,20.26,0,0,1-6,1.94l-1.31.06-.83,0v.05a18.32,18.32,0,0,0-6,1.3A9.92,9.92,0,0,0,12.93,115a11.25,11.25,0,0,0-.61,3.94V128a17.42,17.42,0,0,1-2.52,10,14.7,14.7,0,0,1-7.69,6.09l-1.48.45-.6.19v4.68l.6.19,1.51.48a12.66,12.66,0,0,1,4,2.15,15.93,15.93,0,0,1,3.16,3.47,16.29,16.29,0,0,1,2.49,9c0,1.22,0,2.59-.1,3.91,0,.56,0,1.12-.06,1.66l-.05,1.41,0,.71v.06l0,.9a10.53,10.53,0,0,0,1,4.16,11.52,11.52,0,0,0,6.19,5.65,20.42,20.42,0,0,0,7,1.48l.91.06V176l-.92.06C25.38,176.07,25.06,176.08,24.75,176.08ZM29,93a30.94,30.94,0,0,1-1-5.56c-.17-1.81-.28-3.62-.35-5.44a7.7,7.7,0,0,1,.49-2.92,5.32,5.32,0,0,1,4-3.47c1.88-.44,3.8-.75,5.71-1.06,1.14-.18,2.29-.28,3.44-.35s2.29-.06,3.43,0,2.43.06,3.64.17a32.85,32.85,0,0,1,8.33,1.55,7,7,0,0,1,4.83,6.35,20.77,20.77,0,0,1-1,8,17.4,17.4,0,0,1-3.17,6.42A14.93,14.93,0,0,1,48.5,102a21.09,21.09,0,0,1-3.91.46,22.66,22.66,0,0,1-8.25-1.23A11.76,11.76,0,0,1,29,93Z"/></g></g></svg>