<svg xmlns="http://www.w3.org/2000/svg" xmlns:xlink="http://www.w3.org/1999/xlink" viewBox="0 0 84.37 99.4"><defs><style>.cls-1,.cls-11,.cls-9{fill:none;}.cls-2{clip-path:url(#clip-path);}.cls-3{fill:#002432;}.cls-4{fill:#548081;}.cls-5{fill:#fff;}.cls-6{fill:url(#Degradado_sin_nombre_10);}.cls-7{fill:#b0b0b0;}.cls-8{fill:#a3aa21;}.cls-11,.cls-8,.cls-9{stroke:#000;stroke-miterlimit:10;}.cls-8,.cls-9{stroke-width:0.61px;}.cls-10{clip-path:url(#clip-path-2);}.cls-11{stroke-width:3.64px;}</style><clipPath id="clip-path"><rect class="cls-1" x="12.54" y="47.31" width="45.67" height="20.88" transform="translate(51.2 -8.1) rotate(45)"/></clipPath><linearGradient id="Degradado_sin_nombre_10" x1="1.94" y1="58.72" x2="78.71" y2="58.72" gradientUnits="userSpaceOnUse"><stop offset="0.11" stop-color="#ff72b3"/><stop offset="0.83" stop-color="#8044a4"/></linearGradient><clipPath id="clip-path-2"><rect class="cls-1" x="30.13" y="22.03" width="47.2" height="32.57" transform="translate(42.83 -26.77) rotate(45)"/></clipPath></defs><title>iconoRecurso 139time to focus</title><g id="Capa_2" data-name="Capa 2"><g id="Capa_1-2" data-name="Capa 1"><g class="cls-2"><path class="cls-3" d="M65.52,49.61a20.78,20.78,0,1,1-20.74-21C55.93,28.49,65.93,38.05,65.52,49.61Zm-20.84,19a19.17,19.17,0,1,0-19.12-19A19.22,19.22,0,0,0,44.68,68.57Z"/><path d="M44.75,17.77a5.27,5.27,0,0,1,5.37,5.29,5.38,5.38,0,1,1-10.75.11A5.26,5.26,0,0,1,44.75,17.77Zm2.1,9.64a4.64,4.64,0,0,0,2.76-5.18,5,5,0,0,0-5-4.05,4.9,4.9,0,0,0-4.77,4.24,4.5,4.5,0,0,0,2.75,5l.35-2c-.41-.33-1.07-.6-1.12-1a13.87,13.87,0,0,1,0-3.09,1,1,0,0,1,.69-.72c1.54-.06,3.09,0,4.63,0,.19,0,.41.25.54.43a3.36,3.36,0,0,1-1.13,4.24ZM44.69,24.5c2.44,0,2.49,0,2.45-1.65s0-1.58-1.63-1.59a15.55,15.55,0,0,0-2.16,0,1.24,1.24,0,0,0-.88.58c-.62,1.77,0,2.63,1.86,2.63Zm0,3.16c.53-.17,1.52.45,1.49-.84s-.93-.85-1.56-.91-1.29-.07-1.3.91S44.05,27.59,44.67,27.66Z"/><path d="M60.05,30.72c-1-1-1-1.39-.13-2.41.16-.18.32-.36.49-.53,1.4-1.52,1.76-1.53,3.28-.11.58.55,1.17,1.08,1.73,1.64a1.35,1.35,0,0,1,.09,2.1c-.3.32-.61.64-.87,1a1.63,1.63,0,0,1-2.56.39Zm3.12,1.77a3.86,3.86,0,0,0,.43-.15c1.54-.74,1.76-2.07.54-3.23a10.75,10.75,0,0,0-1.42-1.29,1.33,1.33,0,0,0-1.16-.1c-1.64,1-1.71,1.83-.33,3.1.38.35.75.72,1.14,1.06S62.93,32.31,63.17,32.49Z"/><path d="M60.05,30.72l2,2.06c-.16,1.11-1.18,2.35-1.74,2A7.75,7.75,0,0,1,58,32.45C57.59,31.85,58.93,30.8,60.05,30.72Zm1.76,2.48c-.75-.65-1.26-1.15-1.84-1.57a.87.87,0,0,0-.79-.08c-.29.23-.69.82-.61.91a6.49,6.49,0,0,0,1.7,1.61C60.49,34.2,61.11,33.61,61.81,33.2Z"/><path class="cls-4" d="M44.68,68.57A19.17,19.17,0,1,1,64,49.63,19.17,19.17,0,0,1,44.68,68.57Zm.12-1.83a17.31,17.31,0,1,0,0-34.61c-9.41.12-17.27,7.61-17.36,16.95A17.22,17.22,0,0,0,44.8,66.74Z"/><path class="cls-5" d="M46.85,27.41l-.31-2.07a3.36,3.36,0,0,0,1.13-4.24c-.13-.18-.35-.42-.54-.43-1.54-.05-3.09-.08-4.63,0a1,1,0,0,0-.69.72,13.87,13.87,0,0,0,0,3.09c0,.36.71.63,1.12,1l-.35,2a4.5,4.5,0,0,1-2.75-5,4.9,4.9,0,0,1,4.77-4.24,5,5,0,0,1,5,4.05A4.64,4.64,0,0,1,46.85,27.41Z"/><path class="cls-5" d="M44.69,24.5h-.36c-1.84,0-2.48-.86-1.86-2.63a1.24,1.24,0,0,1,.88-.58,15.55,15.55,0,0,1,2.16,0c1.59,0,1.6,0,1.63,1.59S47.13,24.51,44.69,24.5Z"/><path class="cls-5" d="M44.67,27.66c-.62-.07-1.38.25-1.37-.84s.65-1,1.3-.91,1.54-.26,1.56.91S45.2,27.49,44.67,27.66Z"/><path class="cls-5" d="M63.17,32.49c-.24-.18-.53-.38-.8-.61s-.76-.71-1.14-1.06c-1.38-1.27-1.31-2.09.33-3.1a1.33,1.33,0,0,1,1.16.1,10.75,10.75,0,0,1,1.42,1.29c1.22,1.16,1,2.49-.54,3.23A3.86,3.86,0,0,1,63.17,32.49Z"/><path class="cls-5" d="M61.81,33.2c-.7.41-1.32,1-1.54.87a6.49,6.49,0,0,1-1.7-1.61c-.08-.09.32-.68.61-.91a.87.87,0,0,1,.79.08C60.55,32.05,61.06,32.55,61.81,33.2Z"/><path class="cls-3" d="M44.8,66.74A17.22,17.22,0,0,1,27.45,49.08c.09-9.34,8-16.83,17.36-16.95a17.31,17.31,0,1,1,0,34.61ZM36.29,35.16a16.78,16.78,0,0,0-5.63,5.64,20.53,20.53,0,0,1,2.16,1.26c.37.28.91.93.8,1.16-.34.78-.91.23-1.38,0-.73-.39-1.46-.8-2.25-1.24a14.05,14.05,0,0,0-1.69,6.83c1,0,1.92-.06,2.78,0,.34,0,.63.42,1,.64-.33.22-.65.59-1,.62-.91.09-1.83,0-3.05,0l1.64,6.65c1.16-.6,2-1.1,2.87-1.45.3-.12.74.12,1.12.2-.18.31-.28.75-.55.92-.8.51-1.66.92-2.6,1.43A17.59,17.59,0,0,0,36,63.53a21.59,21.59,0,0,1,1.21-2.16c.28-.38,1-.94,1.15-.84.82.42.19,1-.05,1.5-.35.71-.74,1.4-1.14,2.17a14.21,14.21,0,0,0,6.91,1.71c0-1-.05-1.87,0-2.74,0-.36.36-.69.55-1,.25.34.68.65.73,1a30.46,30.46,0,0,1,0,3.09l6.7-1.61c-.59-1.11-1.07-1.89-1.43-2.73a2.85,2.85,0,0,1,.06-1.15c.36.19.86.29,1.07.59a27,27,0,0,1,1.36,2.4,17.93,17.93,0,0,0,5.62-5.51A21.38,21.38,0,0,1,56.59,57a4.46,4.46,0,0,1-.78-1.12,4.48,4.48,0,0,1,1.47,0,20.77,20.77,0,0,1,2.27,1.19,14.46,14.46,0,0,0,1.68-7,18.12,18.12,0,0,1-2.46,0,4.79,4.79,0,0,1-1.31-.67,5.3,5.3,0,0,1,1.37-.6,19.61,19.61,0,0,1,2.44,0,13.14,13.14,0,0,0-1.62-6.59c-.93.5-1.72,1-2.56,1.33-.31.13-.75-.05-1.14-.1.19-.35.28-.83.57-1,.77-.53,1.63-.93,2.52-1.42a18,18,0,0,0-5.49-5.62,27.8,27.8,0,0,1-1.47,2.47c-.2.28-.68.35-1,.52,0-.38-.2-.83-.07-1.14.38-.85.88-1.65,1.51-2.8l-7-1.76a30.61,30.61,0,0,1,0,3.12c0,.33-.44.62-.68.93-.2-.29-.55-.57-.58-.87-.07-.94,0-1.89,0-3.18L37.3,34.32c.66,1.2,1.19,2,1.6,3,.13.28-.06.71-.11,1.06-.35-.15-.84-.21-1-.47C37.23,37,36.81,36.12,36.29,35.16Z"/><path class="cls-5" d="M36.29,35.16c.52,1,.94,1.87,1.48,2.7.18.26.67.32,1,.47.05-.35.24-.78.11-1.06-.41-.9-.94-1.75-1.6-3l6.83-1.67c0,1.29,0,2.24,0,3.18,0,.3.38.58.58.87.24-.31.65-.6.68-.93a30.61,30.61,0,0,0,0-3.12l7,1.76c-.63,1.15-1.13,2-1.51,2.8-.13.31,0,.76.07,1.14.36-.17.84-.24,1-.52a27.8,27.8,0,0,0,1.47-2.47A18,18,0,0,1,59,41c-.89.49-1.75.89-2.52,1.42-.29.19-.38.67-.57,1,.39,0,.83.23,1.14.1.84-.35,1.63-.83,2.56-1.33a13.14,13.14,0,0,1,1.62,6.59,19.61,19.61,0,0,0-2.44,0,5.3,5.3,0,0,0-1.37.6,4.79,4.79,0,0,0,1.31.67,18.12,18.12,0,0,0,2.46,0,14.46,14.46,0,0,1-1.68,7,20.77,20.77,0,0,0-2.27-1.19,4.48,4.48,0,0,0-1.47,0A4.46,4.46,0,0,0,56.59,57a21.38,21.38,0,0,0,2.23,1.26,17.93,17.93,0,0,1-5.62,5.51,27,27,0,0,0-1.36-2.4c-.21-.3-.71-.4-1.07-.59a2.85,2.85,0,0,0-.06,1.15c.36.84.84,1.62,1.43,2.73l-6.7,1.61a30.46,30.46,0,0,0,0-3.09c0-.37-.48-.68-.73-1-.19.35-.52.68-.55,1-.08.87,0,1.75,0,2.74a14.21,14.21,0,0,1-6.91-1.71c.4-.77.79-1.46,1.14-2.17.24-.49.87-1.08.05-1.5-.2-.1-.87.46-1.15.84A21.59,21.59,0,0,0,36,63.53a17.59,17.59,0,0,1-5.55-5.67c.94-.51,1.8-.92,2.6-1.43.27-.17.37-.61.55-.92-.38-.08-.82-.32-1.12-.2-.88.35-1.71.85-2.87,1.45L28,50.11c1.22,0,2.14.06,3.05,0,.34,0,.66-.4,1-.62-.32-.22-.61-.6-1-.64-.86-.09-1.75,0-2.78,0A14.05,14.05,0,0,1,30,42c.79.44,1.52.85,2.25,1.24.47.25,1,.8,1.38,0,.11-.23-.43-.88-.8-1.16a20.53,20.53,0,0,0-2.16-1.26A16.78,16.78,0,0,1,36.29,35.16Zm13.54,6.21-.26-.16c-1.34,1.81-2.66,3.63-4,5.41a2.7,2.7,0,0,1-1.2.81,2,2,0,0,0-1.59,2.21c.14,1.12-.9,3.26-1.9,3.65s-1.3.93-1,1.73a1.81,1.81,0,0,0,1.36.87c1,0,1.18-.69,1.17-1.57A4.28,4.28,0,0,1,45,51.07a1.84,1.84,0,0,0,1.28-2.24,3,3,0,0,1,.24-1.55c.52-1.07,1.17-2.08,1.75-3.13S49.32,42.3,49.83,41.37Z"/><path class="cls-3" d="M49.83,41.37c-.51.93-1,1.86-1.53,2.78s-1.23,2.06-1.75,3.13a3,3,0,0,0-.24,1.55A1.84,1.84,0,0,1,45,51.07a4.28,4.28,0,0,0-2.63,3.25c0,.88-.22,1.61-1.17,1.57A1.81,1.81,0,0,1,39.87,55c-.33-.8.11-1.39,1-1.73s2-2.53,1.9-3.65a2,2,0,0,1,1.59-2.21,2.7,2.7,0,0,0,1.2-.81c1.38-1.78,2.7-3.6,4-5.41Z"/></g><path class="cls-6" d="M26.45,78.89c11.59,8.23,35.77,23.57,45,17.9s8.68-17.63,4.18-30.41S63.33,46,64.08,37s7.14-15.19,6.83-16.39l-.31-1.2s-5.45,0-6.86,1.5-5.34,5.14-7,5.81-4.61,3.1-4.23,6.21,1.4,3.44,1.14,5.39-4.4,2.91-3.68,5.85,2.74,5.95,3.82,6.49,2.15,1.06,2,1.71S53.6,56,54.39,57.78s1.59,3.59,2.53,4.31,3.11,3.36,2.35,4-2.26,2.3-3,1.63-2.42-2.4-3.61-2.74-3.61-.9-4.64.14c-1-1-3-3.71-3-4.36s-.81-4.69-2.07-5.52-5.43-3-8.58-1.77c-5.67-2.33-7-6.62-10.35-6.85s-5.72.16-6.88,1.17c-1.39,0-3.28-.62-3.6-1.73a7.82,7.82,0,0,0-9-4.39,18.5,18.5,0,0,0-2.53.71S5.2,60.48,8.31,65.11,26.45,78.89,26.45,78.89Z"/><path class="cls-7" d="M1.47,44.2S-.29,42.7,4.2,41.69a7.82,7.82,0,0,1,9.06,4.38c.32,1.11,2.2,1.68,3.6,1.73,1.16-1,3.48-1.4,6.88-1.17s4.67,4.52,10.35,6.86c3.14-1.19,7.33.93,8.58,1.76s2.12,4.87,2.07,5.52,2,3.41,3,4.36c1-1,3.45-.48,4.64-.14S55.2,67.05,56,67.73s2.27-1,3-1.63-1.41-3.31-2.34-4-1.74-2.48-2.53-4.3,1.31-4.77,1.42-5.42-1-1.18-2-1.71-3.1-3.56-3.81-6.49,3.41-3.9,3.68-5.85S52.6,36,52.23,32.91s2.54-5.53,4.23-6.2,5.61-4.34,7-5.82,3.62-.21,3.62-.21-4.93,6-5.87,9.11-2.48,11.24-.76,15,7,13.52,5.34,20S60,76,53.19,75.39,36.94,66.14,31,63.38,14.47,57.17,4.59,57.11Z"/><path class="cls-8" d="M69.2,81.65c-.25-1.51.58-4.6,2.23-4.49s4.07.63,4.57,2.24a4.26,4.26,0,0,1-1.11,4.73C73.41,85.26,69.2,81.65,69.2,81.65Z"/><path class="cls-9" d="M4.84,52.43c-4.48-1.18-2.25-2-2.37-2.69s-.36-2.22,3.38-1.87,4.71,1.37,4.38,2.48S7.07,53,4.84,52.43Z"/><path class="cls-9" d="M17.21,52.9a24.5,24.5,0,0,1,6.28.25c2.23.59,4.67,2.07,4.41,3.28S22.75,58.87,17,54.89"/><path class="cls-9" d="M34.34,58.86s5.46-.35,6.89,2.83.16,4.34-1.16,3.53-4.46-1-5.79-2.63"/><path class="cls-9" d="M46,69.21c0-.1,2.51-3,5.09-2s4.18,2.65,3.45,3.75-3.5,1.79-4.34.65"/><path class="cls-9" d="M61.47,62.73s-4.93-4.67-2.45-8.3,5.28,3.31,5.28,3.31"/><path class="cls-9" d="M58.54,50.85s-3-1.25-3.25-3.37.78-4.6,2.1-4.77"/><path d="M30,78.85c2.13,1.71,4.3,3.34,6.53,4.89,1.11.78,2.23,1.55,3.36,2.3s2.3,1.45,3.46,2.15a76.12,76.12,0,0,0,14.5,7,26.79,26.79,0,0,0,7.63,1.56,10.67,10.67,0,0,0,3.6-.48,7.26,7.26,0,0,0,1.56-.76,15.16,15.16,0,0,0,1.52-1.11,13.22,13.22,0,0,0,4.09-6.16,21.47,21.47,0,0,0,.88-7.65,51.47,51.47,0,0,0-3.64-15.51c-1.91-5-4.62-9.7-7.19-14.6a39.82,39.82,0,0,1-3.23-7.85,17.72,17.72,0,0,1-.61-4.37,20.38,20.38,0,0,1,.46-4.37,28.8,28.8,0,0,1,3.08-8c.68-1.25,1.43-2.44,2.18-3.6.35-.56.75-1.16,1-1.62a1.37,1.37,0,0,0,.09-.2.82.82,0,0,0,0,.34c0,.17,0,0,0,0l0-.12-.26-1,1.4,1.09h0a21.21,21.21,0,0,0-4.41.44,3.71,3.71,0,0,0-1.47.59c-.59.6-1.18,1.16-1.77,1.71a46.92,46.92,0,0,1-3.78,3.17c-.34.25-.7.49-1.09.73a5.19,5.19,0,0,1-.67.35l-.5.23A6.48,6.48,0,0,0,55,29.2a4.49,4.49,0,0,0-1.58,3.25,6.61,6.61,0,0,0,.11,1,8.15,8.15,0,0,0,.23,1c.17.68.54,1.31.76,2.41a5.1,5.1,0,0,1,0,1.56,3.24,3.24,0,0,1-.81,1.67,19.81,19.81,0,0,1-1.9,1.7,3,3,0,0,0-1,1.33,1.41,1.41,0,0,0,0,.65c.06.28.17.68.28,1a14.28,14.28,0,0,0,2,3.9,5.57,5.57,0,0,0,.65.75,3,3,0,0,0,.25.2l.53.27a8.93,8.93,0,0,1,1.18.72,2.64,2.64,0,0,1,.67.72,1.75,1.75,0,0,1,.25.72,1.56,1.56,0,0,1-.1.77c-.22.54-.39.82-.57,1.18s-.34.68-.49,1A4.94,4.94,0,0,0,55,56.92a1.66,1.66,0,0,0,.23.77l.47,1.07a12.66,12.66,0,0,0,1,1.94,2.8,2.8,0,0,0,.29.37l.15.15.19.16a8.57,8.57,0,0,1,1,1,9.83,9.83,0,0,1,1.5,2.19,3.48,3.48,0,0,1,.26.79,1.85,1.85,0,0,1,0,.59,1.42,1.42,0,0,1-.34.77.94.94,0,0,1-.19.18l-.1.1-.22.19-.45.41a8.06,8.06,0,0,1-1.08.83,3.15,3.15,0,0,1-.78.34,1.69,1.69,0,0,1-1.25-.1,2.11,2.11,0,0,1-.29-.2l-.13-.12L55,68.1l-.43-.41c-.29-.27-.57-.53-.86-.77a5.43,5.43,0,0,0-1.67-1.1,10,10,0,0,0-2.15-.42,2.22,2.22,0,0,0-1.6.32l-.58.62-.6-.61h0a19.54,19.54,0,0,1-1.79-2q-.41-.53-.78-1.08a6,6,0,0,1-.73-1.35,1.77,1.77,0,0,1-.08-.33,2.36,2.36,0,0,1,0-.25h0l0-.21c0-.18-.07-.37-.11-.56-.09-.39-.2-.77-.31-1.15a9.61,9.61,0,0,0-.89-2.1,2.12,2.12,0,0,0-.26-.35.27.27,0,0,0-.1-.09l-.11-.07a10.89,10.89,0,0,0-1-.53,14.18,14.18,0,0,0-2.2-.8,6.51,6.51,0,0,0-4.12,0l-.49.21-.56-.23h0A17.39,17.39,0,0,1,29,52c-1.36-1.1-2.51-2.41-3.61-3.24a3.26,3.26,0,0,0-1.56-.72l-.5,0-.59,0c-.39,0-.77,0-1.15,0a12.59,12.59,0,0,0-2.18.21,3.69,3.69,0,0,0-1.59.66l-.42.38-.57,0a7.77,7.77,0,0,1-2.62-.55,4.89,4.89,0,0,1-1.33-.78,3.31,3.31,0,0,1-.64-.73,3.75,3.75,0,0,1-.34-.75A5.31,5.31,0,0,0,11,45a6.91,6.91,0,0,0-1.37-1.17,6.27,6.27,0,0,0-3.4-1,8.42,8.42,0,0,0-1.85.22,12.79,12.79,0,0,0-1.92.62,1.37,1.37,0,0,1-1-2.57h0a17.12,17.12,0,0,1,2.23-.74,11.39,11.39,0,0,1,2.49-.3,9.19,9.19,0,0,1,4.9,1.42A9.64,9.64,0,0,1,13,43.14a8,8,0,0,1,1.49,2.25c-.11.45,1.27,1,2.38,1l-1,.35a6.32,6.32,0,0,1,2.88-1.3,14.25,14.25,0,0,1,2.71-.28c.44,0,.88,0,1.31,0l.65,0c.2,0,.42,0,.72.06a6.23,6.23,0,0,1,2.9,1.25c1.51,1.18,2.52,2.38,3.72,3.34a14.51,14.51,0,0,0,3.83,2.33h0l-1,0a9.14,9.14,0,0,1,5.88.25A15.82,15.82,0,0,1,42,53.48a13.6,13.6,0,0,1,1.2.72,4.09,4.09,0,0,1,.4.3c.13.13.24.25.34.37a4.32,4.32,0,0,1,.45.7,11.76,11.76,0,0,1,1,2.65c.11.44.2.88.28,1.33,0,.22.07.45.09.69a2.63,2.63,0,0,1,0,.43v.16s0-.08,0-.1,0,0,0,0a5,5,0,0,0,.45.91c.2.34.42.68.65,1a19.69,19.69,0,0,0,1.48,1.89h0l-1.18,0a2.84,2.84,0,0,1,1.48-.77,5.2,5.2,0,0,1,1.4-.09,11.53,11.53,0,0,1,2.54.45,6.77,6.77,0,0,1,2.35,1.41c.32.27.62.54.92.82l.44.4.22.19.09.08,0,0c-.09-.05-.15,0-.08,0a1.51,1.51,0,0,0,.3-.16,5.92,5.92,0,0,0,.81-.64l.79-.73c-.17.22-.1.32-.13.23a1.77,1.77,0,0,0-.12-.34,8.81,8.81,0,0,0-1.23-1.71,8.41,8.41,0,0,0-.74-.73l-.26-.21-.28-.27c-.17-.19-.32-.37-.46-.56a14.88,14.88,0,0,1-1.27-2.23l-.5-1.11a5.69,5.69,0,0,1-.28-.67,3.52,3.52,0,0,1-.14-.83,6.81,6.81,0,0,1,.59-2.76c.17-.4.35-.78.53-1.15s.38-.76.46-1a.67.67,0,0,0,0,.19.58.58,0,0,0,0,.16s0,0-.15-.12a5.59,5.59,0,0,0-.87-.5L53,51.59a3.63,3.63,0,0,1-.71-.51,8,8,0,0,1-.94-1,16.38,16.38,0,0,1-2.42-4.51,12.26,12.26,0,0,1-.37-1.28,3.58,3.58,0,0,1,0-1.72,5.21,5.21,0,0,1,1.71-2.48,21.36,21.36,0,0,0,1.65-1.49.89.89,0,0,0,.24-.44,2.78,2.78,0,0,0,0-.82c-.08-.47-.48-1.26-.73-2.12a12.08,12.08,0,0,1-.31-1.29A8.83,8.83,0,0,1,51,32.53a6.11,6.11,0,0,1,.63-2.91,8.63,8.63,0,0,1,1.66-2.27,9.24,9.24,0,0,1,2.24-1.64l.58-.27c.11-.05.25-.14.39-.22s.58-.39.88-.61a42.48,42.48,0,0,0,3.49-3c.56-.53,1.12-1.08,1.64-1.63a4.27,4.27,0,0,1,1.46-1,8.37,8.37,0,0,1,1.34-.44,23.85,23.85,0,0,1,5.06-.6h1.14L71.74,19,72,20l0,.12a2.53,2.53,0,0,1,0,.27,1.83,1.83,0,0,1-.06.84,5,5,0,0,1-.3.75c-.4.75-.78,1.29-1.16,1.88-.76,1.13-1.47,2.25-2.12,3.4a26,26,0,0,0-2.87,7.22,15.47,15.47,0,0,0,0,7.53,33.8,33.8,0,0,0,3,7.31c2.5,4.79,5.31,9.62,7.3,14.84a54.59,54.59,0,0,1,3.83,16.33,24.2,24.2,0,0,1-1,8.58,15.79,15.79,0,0,1-4.89,7.33A16.42,16.42,0,0,1,72,97.74a9.25,9.25,0,0,1-2.12,1,13.15,13.15,0,0,1-4.49.63A29.31,29.31,0,0,1,57,97.7a92.69,92.69,0,0,1-15-7.15c-2.39-1.38-4.76-2.8-7.12-4.23l-7-4.39a1.89,1.89,0,0,1,2-3.21Z"/><g class="cls-10"><path class="cls-3" d="M65.52,49.61a20.78,20.78,0,1,1-20.74-21C55.93,28.49,65.93,38.05,65.52,49.61Zm-20.84,19a19.17,19.17,0,1,0-19.12-19A19.22,19.22,0,0,0,44.68,68.57Z"/><path class="cls-3" d="M44.75,17.77a5.27,5.27,0,0,1,5.37,5.29,5.38,5.38,0,1,1-10.75.11A5.26,5.26,0,0,1,44.75,17.77Zm2.1,9.64a4.64,4.64,0,0,0,2.76-5.18,5,5,0,0,0-5-4.05,4.9,4.9,0,0,0-4.77,4.24,4.5,4.5,0,0,0,2.75,5l.35-2c-.41-.33-1.07-.6-1.12-1a13.87,13.87,0,0,1,0-3.09,1,1,0,0,1,.69-.72c1.54-.06,3.09,0,4.63,0,.19,0,.41.25.54.43a3.36,3.36,0,0,1-1.13,4.24ZM44.69,24.5c2.44,0,2.49,0,2.45-1.65s0-1.58-1.63-1.59a15.55,15.55,0,0,0-2.16,0,1.24,1.24,0,0,0-.88.58c-.62,1.77,0,2.63,1.86,2.63Zm0,3.16c.53-.17,1.52.45,1.49-.84s-.93-.85-1.56-.91-1.29-.07-1.3.91S44.05,27.59,44.67,27.66Z"/><path class="cls-3" d="M60.05,30.72c-1-1-1-1.39-.13-2.41.16-.18.32-.36.49-.53,1.4-1.52,1.76-1.53,3.28-.11.58.55,1.17,1.08,1.73,1.64a1.35,1.35,0,0,1,.09,2.1c-.3.32-.61.64-.87,1a1.63,1.63,0,0,1-2.56.39Zm3.12,1.77a3.86,3.86,0,0,0,.43-.15c1.54-.74,1.76-2.07.54-3.23a10.75,10.75,0,0,0-1.42-1.29,1.33,1.33,0,0,0-1.16-.1c-1.64,1-1.71,1.83-.33,3.1.38.35.75.72,1.14,1.06S62.93,32.31,63.17,32.49Z"/><path class="cls-3" d="M60.05,30.72l2,2.06c-.16,1.11-1.18,2.35-1.74,2A7.75,7.75,0,0,1,58,32.45C57.59,31.85,58.93,30.8,60.05,30.72Zm1.76,2.48c-.75-.65-1.26-1.15-1.84-1.57a.87.87,0,0,0-.79-.08c-.29.23-.69.82-.61.91a6.49,6.49,0,0,0,1.7,1.61C60.49,34.2,61.11,33.61,61.81,33.2Z"/><path class="cls-4" d="M44.68,68.57A19.17,19.17,0,1,1,64,49.63,19.17,19.17,0,0,1,44.68,68.57Zm.12-1.83a17.31,17.31,0,1,0,0-34.61c-9.41.12-17.27,7.61-17.36,16.95A17.22,17.22,0,0,0,44.8,66.74Z"/><path class="cls-1" d="M46.85,27.41l-.31-2.07a3.36,3.36,0,0,0,1.13-4.24c-.13-.18-.35-.42-.54-.43-1.54-.05-3.09-.08-4.63,0a1,1,0,0,0-.69.72,13.87,13.87,0,0,0,0,3.09c0,.36.71.63,1.12,1l-.35,2a4.5,4.5,0,0,1-2.75-5,4.9,4.9,0,0,1,4.77-4.24,5,5,0,0,1,5,4.05A4.64,4.64,0,0,1,46.85,27.41Z"/><path class="cls-4" d="M44.69,24.5h-.36c-1.84,0-2.48-.86-1.86-2.63a1.24,1.24,0,0,1,.88-.58,15.55,15.55,0,0,1,2.16,0c1.59,0,1.6,0,1.63,1.59S47.13,24.51,44.69,24.5Z"/><path class="cls-4" d="M44.67,27.66c-.62-.07-1.38.25-1.37-.84s.65-1,1.3-.91,1.54-.26,1.56.91S45.2,27.49,44.67,27.66Z"/><path class="cls-4" d="M63.17,32.49c-.24-.18-.53-.38-.8-.61s-.76-.71-1.14-1.06c-1.38-1.27-1.31-2.09.33-3.1a1.33,1.33,0,0,1,1.16.1,10.75,10.75,0,0,1,1.42,1.29c1.22,1.16,1,2.49-.54,3.23A3.86,3.86,0,0,1,63.17,32.49Z"/><path class="cls-4" d="M61.81,33.2c-.7.41-1.32,1-1.54.87a6.49,6.49,0,0,1-1.7-1.61c-.08-.09.32-.68.61-.91a.87.87,0,0,1,.79.08C60.55,32.05,61.06,32.55,61.81,33.2Z"/><path class="cls-3" d="M44.8,66.74A17.22,17.22,0,0,1,27.45,49.08c.09-9.34,8-16.83,17.36-16.95a17.31,17.31,0,1,1,0,34.61ZM36.29,35.16a16.78,16.78,0,0,0-5.63,5.64,20.53,20.53,0,0,1,2.16,1.26c.37.28.91.93.8,1.16-.34.78-.91.23-1.38,0-.73-.39-1.46-.8-2.25-1.24a14.05,14.05,0,0,0-1.69,6.83c1,0,1.92-.06,2.78,0,.34,0,.63.42,1,.64-.33.22-.65.59-1,.62-.91.09-1.83,0-3.05,0l1.64,6.65c1.16-.6,2-1.1,2.87-1.45.3-.12.74.12,1.12.2-.18.31-.28.75-.55.92-.8.51-1.66.92-2.6,1.43A17.59,17.59,0,0,0,36,63.53a21.59,21.59,0,0,1,1.21-2.16c.28-.38,1-.94,1.15-.84.82.42.19,1-.05,1.5-.35.71-.74,1.4-1.14,2.17a14.21,14.21,0,0,0,6.91,1.71c0-1-.05-1.87,0-2.74,0-.36.36-.69.55-1,.25.34.68.65.73,1a30.46,30.46,0,0,1,0,3.09l6.7-1.61c-.59-1.11-1.07-1.89-1.43-2.73a2.85,2.85,0,0,1,.06-1.15c.36.19.86.29,1.07.59a27,27,0,0,1,1.36,2.4,17.93,17.93,0,0,0,5.62-5.51A21.38,21.38,0,0,1,56.59,57a4.46,4.46,0,0,1-.78-1.12,4.48,4.48,0,0,1,1.47,0,20.77,20.77,0,0,1,2.27,1.19,14.46,14.46,0,0,0,1.68-7,18.12,18.12,0,0,1-2.46,0,4.79,4.79,0,0,1-1.31-.67,5.3,5.3,0,0,1,1.37-.6,19.61,19.61,0,0,1,2.44,0,13.14,13.14,0,0,0-1.62-6.59c-.93.5-1.72,1-2.56,1.33-.31.13-.75-.05-1.14-.1.19-.35.28-.83.57-1,.77-.53,1.63-.93,2.52-1.42a18,18,0,0,0-5.49-5.62,27.8,27.8,0,0,1-1.47,2.47c-.2.28-.68.35-1,.52,0-.38-.2-.83-.07-1.14.38-.85.88-1.65,1.51-2.8l-7-1.76a30.61,30.61,0,0,1,0,3.12c0,.33-.44.62-.68.93-.2-.29-.55-.57-.58-.87-.07-.94,0-1.89,0-3.18L37.3,34.32c.66,1.2,1.19,2,1.6,3,.13.28-.06.71-.11,1.06-.35-.15-.84-.21-1-.47C37.23,37,36.81,36.12,36.29,35.16Z"/><path class="cls-5" d="M36.29,35.16c.52,1,.94,1.87,1.48,2.7.18.26.67.32,1,.47.05-.35.24-.78.11-1.06-.41-.9-.94-1.75-1.6-3l6.83-1.67c0,1.29,0,2.24,0,3.18,0,.3.38.58.58.87.24-.31.65-.6.68-.93a30.61,30.61,0,0,0,0-3.12l7,1.76c-.63,1.15-1.13,2-1.51,2.8-.13.31,0,.76.07,1.14.36-.17.84-.24,1-.52a27.8,27.8,0,0,0,1.47-2.47A18,18,0,0,1,59,41c-.89.49-1.75.89-2.52,1.42-.29.19-.38.67-.57,1,.39,0,.83.23,1.14.1.84-.35,1.63-.83,2.56-1.33a13.14,13.14,0,0,1,1.62,6.59,19.61,19.61,0,0,0-2.44,0,5.3,5.3,0,0,0-1.37.6,4.79,4.79,0,0,0,1.31.67,18.12,18.12,0,0,0,2.46,0,14.46,14.46,0,0,1-1.68,7,20.77,20.77,0,0,0-2.27-1.19,4.48,4.48,0,0,0-1.47,0A4.46,4.46,0,0,0,56.59,57a21.38,21.38,0,0,0,2.23,1.26,17.93,17.93,0,0,1-5.62,5.51,27,27,0,0,0-1.36-2.4c-.21-.3-.71-.4-1.07-.59a2.85,2.85,0,0,0-.06,1.15c.36.84.84,1.62,1.43,2.73l-6.7,1.61a30.46,30.46,0,0,0,0-3.09c0-.37-.48-.68-.73-1-.19.35-.52.68-.55,1-.08.87,0,1.75,0,2.74a14.21,14.21,0,0,1-6.91-1.71c.4-.77.79-1.46,1.14-2.17.24-.49.87-1.08.05-1.5-.2-.1-.87.46-1.15.84A21.59,21.59,0,0,0,36,63.53a17.59,17.59,0,0,1-5.55-5.67c.94-.51,1.8-.92,2.6-1.43.27-.17.37-.61.55-.92-.38-.08-.82-.32-1.12-.2-.88.35-1.71.85-2.87,1.45L28,50.11c1.22,0,2.14.06,3.05,0,.34,0,.66-.4,1-.62-.32-.22-.61-.6-1-.64-.86-.09-1.75,0-2.78,0A14.05,14.05,0,0,1,30,42c.79.44,1.52.85,2.25,1.24.47.25,1,.8,1.38,0,.11-.23-.43-.88-.8-1.16a20.53,20.53,0,0,0-2.16-1.26A16.78,16.78,0,0,1,36.29,35.16Zm13.54,6.21-.26-.16c-1.34,1.81-2.66,3.63-4,5.41a2.7,2.7,0,0,1-1.2.81,2,2,0,0,0-1.59,2.21c.14,1.12-.9,3.26-1.9,3.65s-1.3.93-1,1.73a1.81,1.81,0,0,0,1.36.87c1,0,1.18-.69,1.17-1.57A4.28,4.28,0,0,1,45,51.07a1.84,1.84,0,0,0,1.28-2.24,3,3,0,0,1,.24-1.55c.52-1.07,1.17-2.08,1.75-3.13S49.32,42.3,49.83,41.37Z"/><path class="cls-3" d="M49.83,41.37c-.51.93-1,1.86-1.53,2.78s-1.23,2.06-1.75,3.13a3,3,0,0,0-.24,1.55A1.84,1.84,0,0,1,45,51.07a4.28,4.28,0,0,0-2.63,3.25c0,.88-.22,1.61-1.17,1.57A1.81,1.81,0,0,1,39.87,55c-.33-.8.11-1.39,1-1.73s2-2.53,1.9-3.65a2,2,0,0,1,1.59-2.21,2.7,2.7,0,0,0,1.2-.81c1.38-1.78,2.7-3.6,4-5.41Z"/></g><path class="cls-11" d="M28.65,80.22A40.37,40.37,0,1,1,75.09,65.57"/></g></g></svg>