<svg xmlns="http://www.w3.org/2000/svg" xmlns:xlink="http://www.w3.org/1999/xlink" viewBox="0 0 251.87 292.72"><defs><style>.cls-1{opacity:0.5;}.cls-2{fill:#b1b1b1;}.cls-3{fill:url(#Degradado_sin_nombre_10);}.cls-4{fill:none;stroke:#000;stroke-linecap:round;stroke-miterlimit:10;stroke-width:3.51px;}</style><linearGradient id="Degradado_sin_nombre_10" x1="190.59" y1="109.4" x2="377.24" y2="109.4" gradientTransform="matrix(-1, 0.02, 0.02, 1, 437.26, 0.42)" gradientUnits="userSpaceOnUse"><stop offset="0.11" stop-color="#ff72b4"/><stop offset="0.83" stop-color="#8044a5"/></linearGradient></defs><title>pulpoRecurso 130tentaculo</title><g id="Capa_2" data-name="Capa 2"><g id="guias"><g class="cls-1"><path class="cls-2" d="M63,182.81a48.74,48.74,0,0,0-13,7.27,32.48,32.48,0,0,0-5.1,5.12A22.26,22.26,0,0,0,41,215.05a49.45,49.45,0,0,0,2.22,7,39.67,39.67,0,0,0,3.36,6.47c5.2,8.25,14,13.71,23.46,17.28s19.78,5.87,30,8.17h0a1.59,1.59,0,0,1-.55,3.12c-10.44-1.35-20.93-3-31.19-6.44a62.88,62.88,0,0,1-14.79-7.06,42,42,0,0,1-11.9-11.81,48.24,48.24,0,0,1-6.49-15.41,32.8,32.8,0,0,1-.82-8.6,25.74,25.74,0,0,1,1.86-8.6,26.27,26.27,0,0,1,4.58-7.42,32.52,32.52,0,0,1,6.37-5.62,41.85,41.85,0,0,1,7.28-4,42.52,42.52,0,0,1,7.86-2.47,1.59,1.59,0,0,1,.88,3Z"/></g><g class="cls-1"><path class="cls-2" d="M25.94,206.69c-.31.81-.64,1.81-.91,2.75s-.53,1.91-.75,2.88a48.81,48.81,0,0,0-1,5.85,39.92,39.92,0,0,0,.46,11.57,35.14,35.14,0,0,0,3.86,10.65,40.31,40.31,0,0,0,7,9,54.31,54.31,0,0,0,9.23,7.13,70.35,70.35,0,0,0,10.6,5.39,110.73,110.73,0,0,0,23.34,6.37,176.34,176.34,0,0,0,24.47,2.21c8.23.23,16.49-.08,24.74-.66s16.49-1.6,24.69-2.87,16.34-2.95,24.42-4.87a2,2,0,0,1,2.47,1.51,2.06,2.06,0,0,1-1.38,2.43,249.88,249.88,0,0,1-24.54,6.26q-12.42,2.6-25.07,3.94c-16.85,1.76-34,2-51-.53A111.37,111.37,0,0,1,51.58,269a66.48,66.48,0,0,1-22.33-14.21,43.68,43.68,0,0,1-8.07-11,39.1,39.1,0,0,1-4-13.08,42,42,0,0,1,.57-13.45,44,44,0,0,1,1.78-6.4,37.69,37.69,0,0,1,2.79-6.1A2,2,0,0,1,26,206.57Z"/></g><g class="cls-1"><path class="cls-2" d="M4,214c-.12,1.41-.15,3-.13,4.47s.08,3,.2,4.53a69.15,69.15,0,0,0,1.26,9,66.32,66.32,0,0,0,5.91,16.91,63.57,63.57,0,0,0,4.62,7.64,65.46,65.46,0,0,0,12.22,13,57.34,57.34,0,0,0,7.31,5c10.36,6,22.25,9.48,34.24,11.7a145.27,145.27,0,0,0,18.24,2.08,98.63,98.63,0,0,0,18.28-.66h0a1.58,1.58,0,0,1,.58,3.1,86.71,86.71,0,0,1-19,2,129.67,129.67,0,0,1-19-1.34,121.38,121.38,0,0,1-18.64-4.16c-3-1-6.08-2-9-3.26a81.66,81.66,0,0,1-8.7-4.3,60.38,60.38,0,0,1-8.11-5.52,73.55,73.55,0,0,1-7.11-6.68A64.67,64.67,0,0,1,6.22,251.34,66.27,66.27,0,0,1,0,223.16a52.19,52.19,0,0,1,.86-9.67,1.57,1.57,0,0,1,3.11.43Z"/></g><g class="cls-1"><path class="cls-2" d="M210.34,252.88c10.25-5.87,19.25-14.82,23.33-25.62a40,40,0,0,0,2.53-16.94,48.72,48.72,0,0,0-1.33-8.62,54,54,0,0,0-2.72-8.36c-4.56-11-11.66-21-19.69-30a147.37,147.37,0,0,0-13-12.76,98,98,0,0,0-14.66-10.65h0a1.58,1.58,0,0,1,1.46-2.8,86.51,86.51,0,0,1,16,10,128.94,128.94,0,0,1,14,12.64,120.59,120.59,0,0,1,12,14.6,87.34,87.34,0,0,1,9.33,16.67,59.44,59.44,0,0,1,3.06,9.23,53.28,53.28,0,0,1,1.41,9.69,43.83,43.83,0,0,1-3.28,19.35,47,47,0,0,1-11.19,15.89,56.72,56.72,0,0,1-7.54,6,49.56,49.56,0,0,1-8.48,4.55,1.57,1.57,0,0,1-1.38-2.82Z"/></g><g class="cls-1"><path class="cls-2" d="M181.28,236.45a48.94,48.94,0,0,0,13-7.28,31.19,31.19,0,0,0,5.09-5.12,23.34,23.34,0,0,0,3.4-6.07,23.93,23.93,0,0,0,.5-13.77,49.41,49.41,0,0,0-2.21-7,38.88,38.88,0,0,0-3.36-6.47c-5.21-8.25-14-13.72-23.46-17.28s-19.78-5.87-30-8.17h0a1.59,1.59,0,0,1,.56-3.13c10.43,1.36,20.92,3,31.19,6.45a62.88,62.88,0,0,1,14.79,7.06,41.92,41.92,0,0,1,11.89,11.81,47.92,47.92,0,0,1,6.49,15.41,32.8,32.8,0,0,1,.82,8.6,25.36,25.36,0,0,1-1.86,8.6,26.27,26.27,0,0,1-4.58,7.42,32.18,32.18,0,0,1-6.36,5.62,43.36,43.36,0,0,1-15.15,6.43,1.59,1.59,0,0,1-.87-3Z"/></g><path class="cls-3" d="M64.31,213.26c24.38-73.94,27.14-103,44-150.19,17.48-48.89,47.53-49.52,60.14-54,6.72-2.4,54.06-8.74,62.35-.41S244,21.78,246.7,31.85c3.1,11.51-5.15,15.66-13.48,22.31s-15.71-1.42-23.62,13.55c-5.39,10.21,5.61,12.58,6.92,28C218,113,202.82,120.8,196.69,124s-19.45-2.08-18.75,1.63,13.15,20.36,8.81,30.95-8.73,20.79-14,25-14.39,25.38-9.9,29.13c0,0-14,12.8-44.54,15.4C75.8,229.76,64.31,213.26,64.31,213.26Z"/><path class="cls-2" d="M115.65,212.26C151.29,112.64,131,125.7,153.2,80.8c42.67-86.36,87.5-72.09,93.5-48.95,3,11.54-5.15,15.66-13.48,22.31s-15.71-1.42-23.62,13.55c-5.39,10.21,5.61,12.58,6.92,28C218,113,202.82,120.8,196.69,124s-19.45-2.08-18.75,1.63,13.15,20.36,8.81,30.95-8.73,20.79-14,25-14.39,25.38-9.9,29.13c0,0-14,12.8-44.54,15.4C111.75,226.7,115.65,212.26,115.65,212.26Z"/><path class="cls-4" d="M151.87,180.37s30.36-19.81,16.23-40.79c-12.21-18.1-22.63,13.19-22.63,13.19"/><path class="cls-4" d="M178.67,108.77s14.29,5,18.42-6.57-.43-22.07-7.62-24.75"/><path d="M61.7,207.09c2.85-11.37,6.36-22.5,9.71-33.68S78,151,81,139.73s5.88-22.65,9-34S96.51,83,100.36,71.77c.93-2.81,2-5.59,3-8.38.48-1.38,1-2.8,1.55-4.22l.8-2.13.88-2.1a109,109,0,0,1,8.39-16.32,77.72,77.72,0,0,1,11.73-14.5A64.67,64.67,0,0,1,142,13.21a85.51,85.51,0,0,1,17.41-6.29l4.21-1.12c.69-.18,1.34-.37,2-.57l2.15-.69c1.74-.5,3.19-.78,4.72-1.08s3-.53,4.48-.77c5.93-.92,11.85-1.59,17.81-2.07a177.12,177.12,0,0,1,18-.58,80.79,80.79,0,0,1,9.31.74,40,40,0,0,1,4.87,1,18.31,18.31,0,0,1,5.32,2.34,11.81,11.81,0,0,1,1.43,1.15l.28.27.2.19.39.39,1.56,1.57q1.56,1.58,3.14,3.23a62.45,62.45,0,0,1,6.06,7.3,38.76,38.76,0,0,1,4.52,8.83c.26.78.54,1.55.75,2.33l.34,1.16.32,1.28a20.57,20.57,0,0,1,.51,5.57,16.57,16.57,0,0,1-1.35,5.83,19.22,19.22,0,0,1-3.08,4.82,45.87,45.87,0,0,1-7.27,6.46l-3.45,2.64-.88.7c-.39.28-.76.58-1.18.84a18.24,18.24,0,0,1-2.57,1.41,21.1,21.1,0,0,1-5.36,1.51c-1.68.27-3.15.37-4.33.58a8.52,8.52,0,0,0-5.27,2.56A16.81,16.81,0,0,0,215,67.47c-.33.53-.67,1.06-1,1.63-.15.28-.33.58-.45.83s-.25.49-.34.71a5.58,5.58,0,0,0-.55,2.38,5.51,5.51,0,0,0,.67,2.38c.94,2,2.81,4.63,4.26,7.59a33.22,33.22,0,0,1,3.11,9.63,31.33,31.33,0,0,1,.05,10.23,27.6,27.6,0,0,1-3.64,9.79,33.5,33.5,0,0,1-6.57,7.73,49.17,49.17,0,0,1-7.92,5.57c-.68.4-1.36.77-2,1.14l-1,.53-.5.26-.62.32a15.87,15.87,0,0,1-6,1.38A56.64,56.64,0,0,1,183,129c-.7-.07-1.38-.14-2-.17s-1.17,0-1.07,0a1.49,1.49,0,0,0,.44-.14,3.55,3.55,0,0,0,1.3-1,3.71,3.71,0,0,0,.8-2.15,2.28,2.28,0,0,0,0-.37l0-.27a1,1,0,0,1,0-.1v0c0-.09.07.16.17.37s.24.5.39.79c.6,1.15,1.35,2.43,2.05,3.73s1.43,2.64,2.12,4a62.77,62.77,0,0,1,3.74,8.74,29.16,29.16,0,0,1,1.68,10.39c0,.49-.07,1-.12,1.46s-.15,1-.25,1.5-.23,1-.39,1.5l-.26.75c-.08.23-.19.54-.25.68l-1.65,4.12c-1.12,2.75-2.29,5.53-3.59,8.31a68.09,68.09,0,0,1-4.54,8.36,31.49,31.49,0,0,1-3.17,4.17l-1,1-1.11,1-.69.6-.66.62a56.19,56.19,0,0,0-5.19,6,43.65,43.65,0,0,0-4.2,6.58,12.68,12.68,0,0,0-1.1,2.82,1.19,1.19,0,1,1,0,.29,2.32,2.32,0,0,0-.22-.76,3.16,3.16,0,0,0-.81-1.06,5.65,5.65,0,0,1-7.25,8.67,8.19,8.19,0,0,1-2.13-2.8,8.66,8.66,0,0,1-.78-2.87,12.06,12.06,0,0,1,.34-4.07,23.73,23.73,0,0,1,2.15-5.33,56.22,56.22,0,0,1,5.42-8.12,66.9,66.9,0,0,1,6.46-7.13l1-.87,1-.82.54-.45.56-.56a21.74,21.74,0,0,0,2.2-2.78,58.42,58.42,0,0,0,4-7c1.24-2.5,2.42-5.11,3.57-7.76l1.72-4,.24-.64c.07-.2.11-.42.18-.62l.13-.67.08-.73a19.72,19.72,0,0,0-1-6.89,53.46,53.46,0,0,0-3-7.5c-.6-1.25-1.24-2.52-1.9-3.8s-1.33-2.58-2-4.07c-.17-.36-.35-.76-.53-1.2a10.87,10.87,0,0,1-.59-1.69l-.07-.31a2.44,2.44,0,0,1-.08-.37,4.69,4.69,0,0,1-.06-.54c0-.22,0-.44,0-.65a5.44,5.44,0,0,1,3.35-4.82,6.92,6.92,0,0,1,1.49-.46,13.17,13.17,0,0,1,3.32-.13c.87,0,1.66.13,2.41.21a50.89,50.89,0,0,0,8,.56,7.21,7.21,0,0,0,2.56-.51l1.77-.92c.61-.33,1.21-.66,1.8-1a39.08,39.08,0,0,0,6.45-4.53,24.59,24.59,0,0,0,4.81-5.6,18.8,18.8,0,0,0,2.46-6.59,22.54,22.54,0,0,0-.06-7.28,24,24,0,0,0-2.28-7c-.56-1.15-1.22-2.29-2-3.52s-1.57-2.56-2.36-4.24a13.83,13.83,0,0,1-.24-12.21c.19-.45.4-.84.61-1.27s.39-.73.59-1.1c.39-.72.84-1.43,1.29-2.15a25.66,25.66,0,0,1,3.32-4.16,17.5,17.5,0,0,1,4.76-3.44,18.91,18.91,0,0,1,5.45-1.66c1.71-.28,3.17-.38,4.39-.58a12.12,12.12,0,0,0,3.09-.84,7.94,7.94,0,0,0,1.27-.7,6.25,6.25,0,0,0,.61-.44l.4-.3.45-.36,3.54-2.71a38.36,38.36,0,0,0,5.89-5.15A8.24,8.24,0,0,0,242.84,37a11.84,11.84,0,0,0-.3-3.16l-.22-.86-.27-.95c-.17-.64-.4-1.24-.61-1.86A29.3,29.3,0,0,0,238,23.34a52.85,52.85,0,0,0-5.18-6.22c-1-1-2-2-3-3.08l-1.54-1.55-.39-.39-.19-.19-.09-.09,0,0-.29-.22a10.11,10.11,0,0,0-2.72-1.14,30.29,30.29,0,0,0-3.73-.77A68.4,68.4,0,0,0,212.61,9a166.52,166.52,0,0,0-17.1.57c-5.73.46-11.47,1.11-17.13,2-1.41.22-2.81.46-4.19.72s-2.77.55-3.85.87l-2,.66q-1.16.36-2.25.66l-4.29,1.14a76.59,76.59,0,0,0-15.62,5.65A55.17,55.17,0,0,0,133,30.7a68,68,0,0,0-10.3,12.82A99.18,99.18,0,0,0,115,58.47l-.81,2-.75,2-.75,2-.7,2c-.92,2.76-1.89,5.5-2.77,8.27C102,96.79,96.9,119.54,91,142.36q-4.4,17.1-9.36,34.09a352.13,352.13,0,0,1-11.36,33.46,4.51,4.51,0,0,1-8.57-2.78Z"/></g></g></svg>