<svg xmlns="http://www.w3.org/2000/svg" xmlns:xlink="http://www.w3.org/1999/xlink" viewBox="0 0 910.3 415.57"><defs><style>.cls-1{opacity:0.5;}.cls-2{fill:#b1b1b1;}.cls-3{fill:gray;}.cls-4{opacity:0.4;}.cls-5{fill:url(#Degradado_sin_nombre_10);}.cls-6{fill:url(#Degradado_sin_nombre_6);}.cls-7{fill:url(#Degradado_sin_nombre_10-2);}.cls-8{fill:#a4ab21;}.cls-9{fill:url(#Degradado_sin_nombre_10-3);}.cls-10{fill:url(#Degradado_sin_nombre_10-4);}.cls-11{fill:none;stroke:#000;stroke-linecap:round;stroke-miterlimit:10;stroke-width:1.96px;}.cls-12{fill:url(#Degradado_sin_nombre_10-5);}</style><linearGradient id="Degradado_sin_nombre_10" x1="414.95" y1="312.11" x2="610.1" y2="312.11" gradientUnits="userSpaceOnUse"><stop offset="0.11" stop-color="#ff72b4"/><stop offset="0.83" stop-color="#8044a5"/></linearGradient><radialGradient id="Degradado_sin_nombre_6" cx="1620.3" cy="-27.78" r="24.07" gradientTransform="matrix(0.75, 0.07, -0.07, 1.3, -624.9, 141.61)" gradientUnits="userSpaceOnUse"><stop offset="0" stop-color="#ff72b4"/><stop offset="1" stop-color="#8044a5"/></radialGradient><linearGradient id="Degradado_sin_nombre_10-2" x1="-5675.53" y1="2186.85" x2="-5424.61" y2="1998.26" gradientTransform="translate(-3866.25 3908.54) rotate(161.96)" xlink:href="#Degradado_sin_nombre_10"/><linearGradient id="Degradado_sin_nombre_10-3" x1="199.72" y1="-306.82" x2="265.09" y2="-306.82" gradientTransform="translate(-8.03 413.07) rotate(8.37)" xlink:href="#Degradado_sin_nombre_10"/><linearGradient id="Degradado_sin_nombre_10-4" x1="-5827.22" y1="-68.82" x2="-5722.9" y2="-68.82" gradientTransform="matrix(-1, -0.05, -0.05, 1, -5341.77, -130.87)" xlink:href="#Degradado_sin_nombre_10"/><linearGradient id="Degradado_sin_nombre_10-5" x1="-3678.77" y1="2181.89" x2="-3678.77" y2="1901.76" gradientTransform="matrix(-0.18, -0.98, 0.98, -0.18, -2328.47, -3020.32)" xlink:href="#Degradado_sin_nombre_10"/></defs><title>pulpoRecurso 129saludando</title><g id="Capa_2" data-name="Capa 2"><g id="guias"><g class="cls-1"><path class="cls-2" d="M742.57,259.41c8.19,0,16.31.21,24.47.6s16.29,1,24.42,1.86,16.25,2,24.33,3.66c4,.84,8.06,1.81,12.06,3a66.53,66.53,0,0,1,11.81,4.74,32.63,32.63,0,0,1,5.57,3.73,17.38,17.38,0,0,1,4.54,5.73,13,13,0,0,1,1.13,3.8,15.31,15.31,0,0,1,0,3.89,14.73,14.73,0,0,1-3.05,7,21.36,21.36,0,0,1-5.33,4.7,38.54,38.54,0,0,1-5.91,3.05,76.77,76.77,0,0,1-12.15,3.74,236.61,236.61,0,0,1-24.4,3.92c-8.07,1-16.2,1.75-23.89,3.15a45.77,45.77,0,0,0-5.45,1.32,13,13,0,0,0-2.17.88,3.44,3.44,0,0,0-.61.41c-.12.09-.06.1,0-.11a1.1,1.1,0,0,0,.13-.41c0-.05,0-.21,0-.15v.2a3.47,3.47,0,0,0,.12.74,3.94,3.94,0,0,0,.72,1.39,12.59,12.59,0,0,0,3.54,2.89c3.09,1.85,6.87,3.39,10.69,5.55a27.8,27.8,0,0,1,5.75,4.12,15.89,15.89,0,0,1,2.55,3.13,13.47,13.47,0,0,1,1.66,4,15.18,15.18,0,0,1,.36,4.07,21.21,21.21,0,0,1-.46,3.77,18.8,18.8,0,0,1-3.18,7,22.93,22.93,0,0,1-5.23,5.14,34.91,34.91,0,0,1-6,3.43,64.32,64.32,0,0,1-12.36,4,122.22,122.22,0,0,1-12.41,2.09c-8.26,1-16.5,1.41-24.7,1.59s-16.38.09-24.54-.11c-16.32-.43-32.57-1.33-48.79-2.31-32.43-2-64.78-4.33-97.09-5.09-8.07-.18-16.14-.26-24.19-.17s-16.1.37-24.17.75c-16.12.78-32.23,2.05-48.34,3.59s-32.21,3.34-48.32,5.22-32.24,3.82-48.45,5.47c-8.1.82-16.23,1.57-24.4,2.12s-16.4.93-24.76.73a102.36,102.36,0,0,1-12.69-1,50,50,0,0,1-6.54-1.45,25.14,25.14,0,0,1-6.72-3,14.72,14.72,0,0,1-3.19-2.83,12.39,12.39,0,0,1-1.33-1.9c-.18-.35-.38-.69-.53-1.05l-.24-.55-.18-.48a15.28,15.28,0,0,1-.89-4.15,12.62,12.62,0,0,1,.53-4.62,13.19,13.19,0,0,1,2.1-4,16.75,16.75,0,0,1,2.83-2.92,29.43,29.43,0,0,1,6.09-3.74,77.12,77.12,0,0,1,12.2-4.26c4-1.09,8.06-2,12-2.89s7.91-1.75,11.73-2.73c1.9-.49,3.78-1,5.58-1.6a31.7,31.7,0,0,0,5-2,10,10,0,0,0,1.83-1.17,3,3,0,0,0,.78-.84c0-.13.05,0,0-.31,0,0,0-.13,0,0a2.32,2.32,0,0,0,.26.59,1.58,1.58,0,0,0,.4.48c.11.09,0,0-.28-.13a13.26,13.26,0,0,0-2.14-.65c-.84-.19-1.75-.35-2.68-.48-1.85-.27-3.8-.46-5.75-.6-7.86-.55-15.94-.56-24-.49-16.14.19-32.33.86-48.53,1.58l-48.62,2.37c-32.44,1.59-64.9,3.19-97.45,3.67-16.29.2-32.59.19-49-.87-4.09-.28-8.19-.63-12.3-1.13a110.34,110.34,0,0,1-12.39-2.13,48.22,48.22,0,0,1-6.26-1.93,18.62,18.62,0,0,1-6.35-3.85A8.71,8.71,0,0,1,27,325.83c0-.2-.1-.47-.12-.63l-.06-.48c0-.31-.06-.64-.08-1a14,14,0,0,1,2.79-9.27,22,22,0,0,1,5.16-5,39.46,39.46,0,0,1,5.77-3.31,77.31,77.31,0,0,1,12-4.32,194.25,194.25,0,0,1,24.29-4.82c16.23-2.28,32.49-3.47,48.7-4.58l24.28-1.63c8.07-.59,16.14-1.21,24.07-2.23a71.65,71.65,0,0,0,11.43-2.42,46.23,46.23,0,0,0,10.51-4.51,24.51,24.51,0,0,0,8-7.26,11.23,11.23,0,0,0,1.76-9.3c-.86-3.09-3.25-5.85-6.23-7.92a35.36,35.36,0,0,0-10.21-4.68,64.2,64.2,0,0,0-11.45-2.21c-4.08-.43-8.16-1-12.2-1.61-8.1-1.29-16.13-2.9-24.09-4.94-4-1-7.94-2.15-11.87-3.49a65.84,65.84,0,0,1-11.63-5,23.07,23.07,0,0,1-2.82-1.92,11,11,0,0,1-2.64-2.92,6.44,6.44,0,0,1-.83-2.38,5.49,5.49,0,0,1,.37-2.73,8.11,8.11,0,0,1,2.76-3.35,24,24,0,0,1,6.07-3.05c2-.74,4-1.32,6.06-1.84a198.93,198.93,0,0,1,24.3-4.12c16.23-1.89,32.48-2.88,48.72-3.65l.22,4.5c-16.17.85-32.35,1.94-48.36,3.89A191.85,191.85,0,0,0,128,221.83a57.49,57.49,0,0,0-5.58,1.72,19.94,19.94,0,0,0-4.78,2.39,3.36,3.36,0,0,0-1.12,1.23.4.4,0,0,0,0,.25,1.3,1.3,0,0,0,.19.47,6.53,6.53,0,0,0,1.46,1.53,18.61,18.61,0,0,0,2.22,1.48,60.25,60.25,0,0,0,10.72,4.54c3.76,1.26,7.62,2.34,11.5,3.31,7.78,1.95,15.69,3.49,23.63,4.7,4,.61,7.95,1.12,11.94,1.52a69.51,69.51,0,0,1,12.44,2.33,40.8,40.8,0,0,1,11.83,5.39,24.41,24.41,0,0,1,5.06,4.6,17.77,17.77,0,0,1,3.39,6.32,15.63,15.63,0,0,1,.31,7.32,18.56,18.56,0,0,1-2.71,6.59,30.14,30.14,0,0,1-9.78,9.07,52,52,0,0,1-11.77,5.16,78,78,0,0,1-12.35,2.67c-8.17,1.11-16.29,1.77-24.4,2.41l-24.3,1.77c-16.16,1.2-32.31,2.48-48.21,4.81a188.79,188.79,0,0,0-23.43,4.78,69.4,69.4,0,0,0-10.89,4c-3.37,1.62-6.56,3.68-8.35,6.2a7.66,7.66,0,0,0-1.5,3.94,9.35,9.35,0,0,0,0,1.06,5.43,5.43,0,0,0,.06.55l0,.28c0,.09,0,.07,0,.12a2.19,2.19,0,0,0,.63.95,12.73,12.73,0,0,0,4.06,2.31,40.55,40.55,0,0,0,5.37,1.61,150.84,150.84,0,0,0,23.55,3c16,.95,32.23.89,48.4.6,32.36-.65,64.76-2.4,97.17-4.16L261.42,326c16.23-.81,32.47-1.57,48.8-1.85,8.18-.11,16.34-.16,24.69.38,2.09.14,4.19.33,6.35.63,1.08.15,2.18.34,3.32.59a20.61,20.61,0,0,1,3.67,1.13,9.3,9.3,0,0,1,2.34,1.4,6.69,6.69,0,0,1,1.4,1.62,6.12,6.12,0,0,1,.57,1.29c.1.33.12.45.18.69a8.85,8.85,0,0,1-.58,5.64,11.15,11.15,0,0,1-3.05,3.83,19.56,19.56,0,0,1-3.26,2.14,41.94,41.94,0,0,1-6.27,2.6c-2.06.68-4.09,1.25-6.11,1.79-4,1.05-8,1.94-12,2.85s-7.84,1.81-11.63,2.86a67.29,67.29,0,0,0-10.75,3.79,20.72,20.72,0,0,0-4.26,2.61,6.2,6.2,0,0,0-2.11,2.79,4.94,4.94,0,0,0,.27,3.16l.08.24.07.15c0,.11.11.2.15.3a3.84,3.84,0,0,0,.43.59,6,6,0,0,0,1.36,1.18,17,17,0,0,0,4.35,1.91,40.58,40.58,0,0,0,5.34,1.15,90.64,90.64,0,0,0,11.56.9c7.87.17,15.89-.23,23.9-.79s16.06-1.34,24.1-2.18c32.17-3.46,64.42-7.67,96.84-10.72,16.21-1.53,32.47-2.79,48.77-3.56,8.15-.39,16.33-.64,24.51-.7s16.35.05,24.5.26c32.61.88,65,3.37,97.4,5.44,16.18,1,32.35,2,48.49,2.46,8.06.23,16.12.34,24.15.2s16-.53,23.88-1.45a115.73,115.73,0,0,0,11.59-1.92A56.09,56.09,0,0,0,775.27,356c3.3-1.51,6.25-3.47,8-5.93a10.78,10.78,0,0,0,1.83-4,13.68,13.68,0,0,0,.29-2.26,7.67,7.67,0,0,0-.14-2,6.45,6.45,0,0,0-1.94-3.2,20.72,20.72,0,0,0-4.11-3c-3.23-1.87-7-3.42-10.85-5.79a20,20,0,0,1-5.66-5,11.47,11.47,0,0,1-2.27-6.3V318a6.45,6.45,0,0,1,.06-.91,6.15,6.15,0,0,1,.56-1.87,7.38,7.38,0,0,1,2-2.44,10.71,10.71,0,0,1,1.93-1.26,19.75,19.75,0,0,1,3.46-1.38,54.07,54.07,0,0,1,6.4-1.46c8.31-1.37,16.38-2,24.42-2.84A232.08,232.08,0,0,0,823,302.4a70.25,70.25,0,0,0,11.14-3.23c3.49-1.39,6.78-3.23,8.78-5.66a8.31,8.31,0,0,0,1.88-4,7,7,0,0,0-.5-4.2c-1.2-2.68-4.19-5-7.44-6.83a61.37,61.37,0,0,0-10.7-4.44c-3.75-1.2-7.6-2.2-11.5-3.06-7.8-1.71-15.76-2.92-23.76-3.89-16-1.88-32.19-2.91-48.29-3.19Z"/></g><g class="cls-1"><path class="cls-2" d="M675.41,393.57c-24.3-3.13-48.95-4.73-73.5-5.56s-49.19-.84-73.78.21c-3.08,0-6.14.27-9.21.45l-9.22.53-9.21.51c-3.07.18-6.13.51-9.2.75L472.89,392c-6.12.61-12.23,1.37-18.35,2-12.27,1.17-24.41,3.22-36.64,4.81l-4.58.62c-1.53.22-3,.51-4.56.77l-9.11,1.57c-6.07,1.06-12.17,2.05-18.26,3.05h-.07a2,2,0,0,1-.76-3.88c6-1.39,12.07-2.79,18.13-4.12l9.08-2c1.52-.33,3-.69,4.55-1l4.57-.85q9.15-1.71,18.32-3.32c6.1-1.17,12.25-2,18.4-2.86s12.29-1.76,18.45-2.53l18.53-1.93c3.09-.3,6.17-.68,9.27-.9l9.29-.66,9.3-.65c3.1-.2,6.19-.44,9.3-.52l18.63-.69c6.2-.21,12.42-.15,18.63-.19s12.43.13,18.64.26c3.11.1,6.22.16,9.32.3l9.31.51c3.1.17,6.21.32,9.3.55l9.3.8c3.09.29,6.19.48,9.28.87l9.26,1.07a362.64,362.64,0,0,1,36.83,6.26,2.13,2.13,0,0,1-.74,4.19Z"/></g><g class="cls-1"><path class="cls-2" d="M646.87,407.54c-4.58-.5-9.33-.81-14-1.14L625.8,406l-7.06-.29c-4.71-.23-9.43-.26-14.14-.42l-14.15-.18c-18.87-.07-37.75.37-56.62,1.19l-14.15.68-14.15.9c-9.43.54-18.85,1.38-28.28,2.08s-18.82,1.8-28.24,2.59c-9.41,1-18.81,2.05-28.23,3h0a1.92,1.92,0,0,1-.47-3.8c9.38-1.42,18.77-2.75,28.17-4.07,4.71-.6,9.42-1.16,14.14-1.71s9.42-1.17,14.14-1.6L490.9,403c2.36-.22,4.72-.5,7.09-.68l7.1-.54,14.2-1.07,14.23-.78c19-.93,38-1.45,57-1,4.75.13,9.51.28,14.26.48s9.5.45,14.25.85,9.49.8,14.23,1.29,9.45,1.08,14.23,1.95a2.07,2.07,0,0,1-.58,4.09Z"/></g><g class="cls-1"><path class="cls-3" d="M731.06,204.58c-7.67-2-15.51-3.75-23.33-5.37s-15.7-3-23.57-4.44q-23.64-4.05-47.46-6.88A956,956,0,0,0,541,181.37c-8-.21-16-.1-24-.14l-12,.19-6,.11-6,.22c-16,.49-31.95,1.5-47.9,2.76q-47.81,4.2-95.13,13h0a1.59,1.59,0,0,1-.64-3.11,807.79,807.79,0,0,1,95.24-15.6c16-1.53,32.09-2.95,48.19-3.54l6-.27,6-.18,12.08-.31c8-.06,16.11-.16,24.16,0,16.11.21,32.23.79,48.29,2,4,.25,8,.6,12.05.94l6,.51,6,.6c4,.43,8,.83,12,1.33s8,.94,12,1.5q24,3.21,47.66,8,11.84,2.43,23.57,5.36c7.83,2,15.58,4,23.31,6.57a1.71,1.71,0,0,1-.95,3.28Z"/></g><g class="cls-4"><path class="cls-3" d="M707.84,177.31c-1.36-.49-2.83-.94-4.25-1.4l-4.34-1.29c-1.44-.44-2.9-.84-4.36-1.22l-4.38-1.17c-5.88-1.45-11.76-2.86-17.7-4C661,165.6,649,163.77,637,162a714.26,714.26,0,0,0-72.49-6l-18.21-.38c-3-.11-6.06,0-9.1,0l-9.11.13L519,156c-1.52,0-3,0-4.55.08l-4.55.21-18.21.82c-6.07.18-12.12.77-18.18,1.24l-18.17,1.44L453,160l-2.26.25-4.53.51-9.06,1-18.14,2H419a1.76,1.76,0,0,1-.44-3.49l18.14-2.54,9.07-1.25,4.54-.63,2.27-.31,2.28-.24,18.23-1.8c6.09-.57,12.16-1.26,18.27-1.54,12.2-.7,24.39-1.68,36.63-1.72l9.17-.18c3.06-.06,6.11-.18,9.17-.08l18.35.27a618,618,0,0,1,73.14,6.15l9.07,1.45,4.53.75,4.51.88,9,1.78c1.51.28,3,.63,4.49,1l4.48,1c3,.7,6,1.34,8.93,2.19s5.93,1.56,8.87,2.45c5.9,1.77,11.72,3.55,17.53,5.89a1.89,1.89,0,0,1-1.35,3.54Z"/></g><g class="cls-1"><path class="cls-2" d="M20.68,299.74A34.07,34.07,0,0,0,11.31,305a22,22,0,0,0-3.66,3.68A16.82,16.82,0,0,0,5.21,313a17.19,17.19,0,0,0-.36,9.91,30.21,30.21,0,0,0,4,9.72c3.75,5.93,10,9.87,16.89,12.43S40,349.33,47.31,351h0a1.14,1.14,0,0,1,.87,1.36,1.15,1.15,0,0,1-1.27.89c-7.5-1-15.06-2.18-22.44-4.64a45.21,45.21,0,0,1-10.65-5.08A30.13,30.13,0,0,1,5.27,335,34.11,34.11,0,0,1,.61,323.91a20.43,20.43,0,0,1,.75-12.37,20.92,20.92,0,0,1,7.87-9.39,28,28,0,0,1,5.24-2.83,29.08,29.08,0,0,1,5.65-1.8,1.16,1.16,0,0,1,1.35.9,1.14,1.14,0,0,1-.72,1.29Z"/></g><path class="cls-5" d="M415,339.77s43.84,9.57,75.31,10.72,90.57-1.43,119.84-10.15c-3.78-12-35.89-66.85-100.09-66.85S415,339.77,415,339.77Z"/><path d="M607.76,341.36a47.13,47.13,0,0,0-3.33-6.38c-1.27-2.14-2.66-4.24-4.12-6.29a124.27,124.27,0,0,0-9.46-11.77,122.32,122.32,0,0,0-22.64-19.61,106,106,0,0,0-26.61-12.88A112,112,0,0,0,527.26,281a100.64,100.64,0,0,0-14.72-1.3c-19.63-.67-38.9,5.66-55.07,17.17a113.71,113.71,0,0,0-11.65,9.34,132.18,132.18,0,0,0-10.59,10.71,150.8,150.8,0,0,0-9.54,11.8c-1.49,2-2.95,4.12-4.33,6.25-.7,1-1.39,2.11-2.05,3.19s-1.32,2.18-1.87,3.17l-6.68-3.14c.58-1.36,1.13-2.54,1.73-3.77s1.2-2.42,1.83-3.61c1.27-2.38,2.62-4.71,4-7a146.89,146.89,0,0,1,9.24-13.26,127.16,127.16,0,0,1,23.17-22.89,106,106,0,0,1,13.9-8.92,108.9,108.9,0,0,1,15.28-6.61,96.91,96.91,0,0,1,32.9-4.73,107.69,107.69,0,0,1,61.63,21,121.05,121.05,0,0,1,32.71,35.9c1.38,2.33,2.69,4.71,3.86,7.18a53.13,53.13,0,0,1,3.11,7.89Z"/><path class="cls-6" d="M608.73,224.25c-1.6,11.3-8.72,28.53-20.63,27.44-9.59-.88-19.2-13.73-17.65-26.59s10.74-32.14,21.32-32.21C599.27,192.85,610.45,212.15,608.73,224.25Z"/><path class="cls-7" d="M791.65,267.64c65.81-15,104.26-39.75,109.93-77.84S901,128.87,866.53,108s-54.2-15.16-71.14-40c-7-10.28-12.27-20-13.73-27.63-2.06-10.82-3.29-18.33-4.86-20a7.47,7.47,0,0,0-3.49-2c-.77-2.12-7.92-10.65-14-9.15-5.08,1.25-5.33,14.05-6,17.68-1.28,7.16-3.82,31.93.82,41.12L739.9,71.46s-1.75,1,0,7.37c1.87,6.84,20.13,1.75,32.61,28.74l.77,4.47c2.55,7,12.82,13.88,20.27,12.19,3.26-.74,6.22-2.85,7.34-.92s3.16,14.84,8.37,17.44,10.29,5,13.51,4.44,12.7.52,12.62,4.2.77,8.43-2.06,8.7-7.73-4.55-14.69.6c-4.26,3.15-6.61,12-6.39,17.33-2.09,4.27-9.27,2.53-10.51.75-1.82-2.61-9.71-9.21-19.09-8.58-9.21.63-16.86,6-19.73,13.35-3.79,9.74-18.11-1.74-30.58,6.7-8.26,5.58-13.23,17.71-13.35,23.28-2.73,3.47-7.42,6.89-10.29,4.87s-17.59-5.88-25.92,12.22-3.54,21.84-6.7,25.61-16.74-3.58-27.82,10.66c-12.71,16.34-9.85,28-8.92,32.78l.35,5.46s7.61,18.27,53.3,15.37c40.7-2.58,41.31-10.9,41.31-10.9s14.85-17.74,26.84-25.89S791.65,267.64,791.65,267.64Z"/><path class="cls-2" d="M660.84,316.34a266.46,266.46,0,0,1,40.88-70.82c17.09-21.32,38.8-38.36,67.86-40.37,40.57-2.81,68-10.75,75.81-43.88,4.15-17.68-.7-29.52-10.22-35.1-40.49-23.73-49.29-6.3-57.26-15.25-4.64-5.21-7.13-7.12-5.42-3.35l.77,4.47c2.55,7,12.82,13.88,20.27,12.19,3.26-.74,6.22-2.85,7.34-.92s3.16,14.84,8.37,17.44,10.29,5,13.51,4.44,12.7.52,12.62,4.2.77,8.43-2.06,8.7-7.73-4.55-14.69.6c-4.26,3.15-6.61,12-6.39,17.33-2.09,4.27-9.45,2.71-10.51.75-1.4-2.58-9.71-9.21-19.09-8.58-9.21.63-17.23,6.08-19.73,13.35-3.21,9.32-18.11-1.74-30.58,6.7-8.26,5.58-13.23,17.71-13.35,23.28-2.73,3.47-7.42,6.89-10.29,4.87s-17.59-5.88-25.92,12.22-3.54,21.84-6.7,25.61-16.74-3.58-27.82,10.66c-12.71,16.34-9.85,28-8.92,32.78.39,2-2,6.16,6.56,12.17A49.55,49.55,0,0,0,660.84,316.34Z"/><path class="cls-2" d="M645.35,287.27c-.25,0-.33-.06-.33-.07-1-.91-1.09-6.82,4.69-15.33,4.8-7.06,7.64-8.55,9.18-8.55a2.46,2.46,0,0,1,1.86.92c.76.84.54,4.89-5.76,14.22-4.7,7-8.27,8.81-9.64,8.81Z"/><path d="M658.89,264.2a1.53,1.53,0,0,1,1.2.62s1.18,2.78-5.83,13.15c-4.35,6.45-7.56,8.2-8.73,8.4-.44-1.26-.25-6.43,4.9-14,5-7.37,7.58-8.16,8.46-8.16m0-1.75c-2.29,0-5.47,2.41-9.9,8.93-5.7,8.39-6.17,15-4.56,16.47a1.35,1.35,0,0,0,.92.29c1.82,0,5.6-2.14,10.36-9.19,5.83-8.63,7.12-13.72,5.68-15.3a3.33,3.33,0,0,0-2.5-1.2Z"/><path class="cls-2" d="M684,240.94c-1.07-1.42-.62-8.34,5.16-15.78,4.52-5.82,7.84-6.69,9.42-6.69a2.69,2.69,0,0,1,2.3,1c.77,1.17-1.16,3.67-6.32,10.35l-.58.75C686.76,239.93,684.44,240.85,684,240.94Z"/><path d="M698.6,219.35a1.88,1.88,0,0,1,1.57.59c.43.65-2.53,4.48-6.28,9.33l-.58.75c-5.16,6.68-7.72,8.94-8.81,9.69-.33-2.09.47-7.7,5.37-14,4.46-5.73,7.59-6.35,8.73-6.35m0-1.75c-2.39,0-5.91,1.63-10.11,7-6.11,7.87-6.56,15.41-5,17a.63.63,0,0,0,.48.2c1.52,0,5.22-3.59,10.74-10.74,6.25-8.09,8.09-10.36,6.94-12.11a3.52,3.52,0,0,0-3-1.38Z"/><path class="cls-2" d="M723.74,205.72c-.51-2,4.32-10.05,11.83-14.27a19.51,19.51,0,0,1,9.55-2.7c3.83,0,6.29,1.46,6.52,2.46.09.41-1.56.92-3.16,1.41a47.5,47.5,0,0,0-10.12,4.16c-3.18,1.81-6.18,3.8-8.59,5.4C727.13,203.94,724.62,205.6,723.74,205.72Z"/><path d="M745.11,189.41c3.27,0,5.2,1.06,5.74,1.69a21.31,21.31,0,0,1-2.56.89A47.86,47.86,0,0,0,738,196.21c-3.2,1.82-6.21,3.82-8.64,5.43-1.8,1.2-3.79,2.52-4.94,3.11.66-2.54,4.76-9,11.43-12.73a18.85,18.85,0,0,1,9.22-2.61m0-1.31a20.2,20.2,0,0,0-9.86,2.78c-7.92,4.45-13.08,13.08-12,15.27a.44.44,0,0,0,.44.24c1.75,0,7.83-4.95,15.05-9,8.11-4.59,14-4.29,13.59-6.29-.34-1.43-3.13-3-7.17-3Z"/><path class="cls-2" d="M772.74,178c-2.71,0-3.61-.4-3.73-.56a1,1,0,0,1,.2-.52c1-1.46,5.19-3.57,11.08-4.59a27.66,27.66,0,0,1,4.64-.41c5.14,0,7.86,1.61,7.88,2.48s-4.43,1.55-8,2.15l-3.27.56a53.61,53.61,0,0,1-8.8.89Z"/><path d="M784.93,172.55c4.2,0,6.59,1.12,7.12,1.69-1,.57-4.34,1.14-7.34,1.64l-3.29.57a53.16,53.16,0,0,1-8.68.88,12.39,12.39,0,0,1-2.87-.25c.9-1.08,4.7-3.11,10.54-4.12a26.28,26.28,0,0,1,4.52-.41m0-1.31a27.36,27.36,0,0,0-4.75.43c-6.83,1.18-12.23,4-11.79,5.94.15.68,1.81,1,4.35,1a53.72,53.72,0,0,0,8.91-.9c7-1.24,11.85-1.73,11.81-3.38s-3.44-3.12-8.53-3.12Z"/><path class="cls-2" d="M816.6,175c-.3-1-1.56-6,2.89-12.13a7.28,7.28,0,0,1,6.11-3.26,9.49,9.49,0,0,1,3.71.8.78.78,0,0,1-.18,1A11.75,11.75,0,0,1,827,163a21.05,21.05,0,0,0-5,4.16,42.47,42.47,0,0,0-3.13,4.62,17,17,0,0,1-2.29,3.27A.14.14,0,0,0,816.6,175Z"/><path d="M825.6,160a9.31,9.31,0,0,1,3.39.69c0,.1,0,.21-.19.4a10.88,10.88,0,0,1-2,1.5,22.06,22.06,0,0,0-5.1,4.25,42.9,42.9,0,0,0-3.16,4.67c-.53.87-1.21,2-1.7,2.62-.35-1.76-.66-6,3-11.06A6.85,6.85,0,0,1,825.6,160m0-.87a7.71,7.71,0,0,0-6.47,3.43c-4.2,5.77-3.5,10.75-3,12.52.09.28.22.41.38.41,1,0,3.35-5.12,5.81-8.09,3.54-4.27,8.69-5.18,7.25-7.38a9.77,9.77,0,0,0-4-.89Z"/><path class="cls-2" d="M818.34,140.18a11.1,11.1,0,0,1-3.79-.83l-.52-.24a25.23,25.23,0,0,1-4.15-2.25c-1.16-.85-3.52-4.93-4.33-6.43a1.16,1.16,0,0,1-.19-1h.11a.37.37,0,0,1,.28.13,28.47,28.47,0,0,0,2.63,2.37c1,.83,2.11,1.82,3.24,2.82a26.33,26.33,0,0,0,6.57,4.17,1.36,1.36,0,0,1,.6,1.15c0,.07,0,.12-.19.14Z"/><path d="M806.08,130.48c.42.38,1,.92,2,1.75s2.11,1.81,3.24,2.82a26.49,26.49,0,0,0,6.68,4.23l0,0a1,1,0,0,1,.27.45,10.71,10.71,0,0,1-3.59-.8l-.51-.24a24.38,24.38,0,0,1-4.09-2.21c-.93-.68-2.91-3.94-4-6m-.61-1.52a.53.53,0,0,0-.51.28,1.53,1.53,0,0,0,.21,1.39s3,5.48,4.45,6.58a28.88,28.88,0,0,0,4.74,2.53,11.36,11.36,0,0,0,4,.88h.3c1.1-.09.46-1.79-.2-2.09a26.86,26.86,0,0,1-6.53-4.13c-2.71-2.41-5.49-4.68-5.81-5.11a.79.79,0,0,0-.63-.32Z"/><path d="M759.54,9.12c6-1.26,13,7.1,13.77,9.2a7.47,7.47,0,0,1,3.49,2c1.57,1.72,2.8,9.23,4.86,20.05C783.12,48,788.37,57.71,795.39,68c16.94,24.84,36.66,19.11,71.14,40s40.72,43.71,35.05,81.81-44.12,62.8-109.93,77.84c-21.23,5.88-39.54,17.52-52.39,33.58C737.05,304,732,310.09,729,312c7,0,14.16-3.35,21.25-6.37,0,0,2.62-16.27,42.8-29.15,34.59-7.9,60.59-18.1,79.49-31.15,20.57-14.22,32.62-32.24,35.79-53.54,3.38-22.77,2.42-39.2-3.14-53.28-6-15.15-17.4-27.44-36-38.68-14.47-8.76-26.66-13.1-36.45-16.58-14.25-5.07-23.66-8.41-32.34-21.13S789,42.21,788.33,38.48c-.26-1.35-.5-2.64-.73-3.88-2.21-11.74-3.31-17.63-6.51-21.11a12.86,12.86,0,0,0-3.93-2.94C773.29,5.16,765.75-1.34,758.22.24h0l-.38.09C749.07,2.5,747.6,16,746.9,22.44c-.08.74-.19,1.76-.24,2.07s-3.43,20.56-1.39,36.43l-6.86,1.68-.78.19-.73.43c-1.22.72-7.13,5-3.49,18.35,1.9,6.94,7.09,8.84,11.68,10.51,6.42,2.35,14.36,5.25,21,18.69l.51,3,.18,1,.34.94c4.06,11.11,17.49,19.59,27.63,17.45l.22,0c.53-.12,1-.26,1.51-.41,1.79,5.94,4.73,13.56,10.54,16.45,2.31,1.16,4.47,2.2,6.51,3.05-4.31,4.22-6.76,11.24-7.7,17.37l0,0c-3.76-4.35-12.86-11.09-23.7-10.36a31.61,31.61,0,0,0-4.35.6A28.58,28.58,0,0,0,757,176.62a24.43,24.43,0,0,1-6-.22c-3.77-.4-8.45-.9-13.33.12a24.73,24.73,0,0,0-8.71,3.7c-8.43,5.7-14.65,17.22-16.4,26.35a8.16,8.16,0,0,1-1.85,1.29,22,22,0,0,0-14.39-1.76c-5.75,1.21-13.8,5.26-19.52,17.68-4.93,10.7-6,17.42-6.25,22.72h-1.07a42.52,42.52,0,0,0-9.17.73c-6.72,1.42-12.28,5.06-17,11.13-13.16,16.91-12.42,31-11.25,38.15,1,3.95,2,5.37,9.48,9.48-2.21-2.66-2-6.41-2.24-8.33-.69-4.75-3.79-16.44,8.92-32.78,4.35-5.59,9.09-7.86,13.42-8.77,5.12-1.08,9.69-.28,12.42-.86a3.38,3.38,0,0,0,2-1c3.16-3.77-1.64-7.51,6.7-25.61,4.14-9,9.86-12.57,14.92-13.64s9.56.41,11,1.42a3.68,3.68,0,0,0,3,.5c2.54-.54,5.4-2.94,7.31-5.37.12-5.57,5.09-17.7,13.35-23.28A18.79,18.79,0,0,1,739,185.4c7.33-1.54,14.54,1.1,19.29.1a5.88,5.88,0,0,0,4.58-4c2.49-6.39,8.55-11.25,16.11-12.85a28.67,28.67,0,0,1,3.62-.5c9.38-.63,17.27,6,19.09,8.58.82,1.18,4.26,2.34,7.09,1.75a4.72,4.72,0,0,0,3.42-2.5c-.22-5.3,2.13-14.18,6.39-17.33a11.76,11.76,0,0,1,4.61-2.19c4.56-1,7.93,1.8,10.08,1.59l.26,0c2.52-.53,1.73-5.09,1.8-8.66s-9.4-4.78-12.62-4.2-8.31-1.84-13.51-4.44-7.26-15.51-8.37-17.44c-.47-.81-1.26-.91-2.26-.7-1.39.29-3.18,1.19-5.08,1.62l-.14,0C786,125.83,775.8,119,773.26,112l-.77-4.47c-12.48-27-30.74-21.9-32.61-28.74-1.73-6.34,0-7.37,0-7.37L754.17,68c-4.64-9.18-2.1-33.95-.82-41.11.66-3.63.91-16.43,6-17.68l.2-.05"/><path class="cls-8" d="M865.76,178.67s4.73,20.94,12.06,16.57,13.54-9.5,14.36-17.67.1-25-5.16-23.75-13.12,2.08-15,7.31S865.76,178.67,865.76,178.67Z"/><path class="cls-8" d="M887.67,142.73s2-10.88-2.26-11.71-7.72-.74-9.85,2.47-5.42,10.71-2.79,12.1,7.35-1.18,9.63-1.78A51.91,51.91,0,0,1,887.67,142.73Z"/><path class="cls-8" d="M868.92,201.54s-2.54,9.08,1.5,9.86,7.77.92,9.88-1.77,5.46-9,3-10.23-6,1.9-7.9,3.18S868.92,201.54,868.92,201.54Z"/><path class="cls-8" d="M863.67,198.82s3.66-12.65-1.37-11.58-13.49,4-15,8-3.08,12.6.3,12.78,6.06-3.36,7.85-5.7S863.67,198.82,863.67,198.82Z"/><path class="cls-9" d="M298.25,152.44s-15.47-2-27.73-2.55-28,2.09-35.44,1.39,4.1-20.59,23.82-20.88C274.51,130.17,293.24,136.49,298.25,152.44Z"/><path d="M235.58,151.34c-3.54.19-4.41-1.85-4.33-3.08.4-6.36,11.39-18.68,27.53-18.91,16.91-.25,36.24,6.75,41.33,22.94l.15.53-4.41-.67c-.11-.32-.15-.42-.15-.42-5.12-14.21-20.83-19.32-35.73-19.1-14.32.21-24.18,10.71-24.48,15.78A20.73,20.73,0,0,0,235.58,151.34Z"/><path class="cls-10" d="M373.53,164.32C390.21,124.13,393,108,404.32,82.45c11.79-26.52,28.56-25.62,35.77-27.6,3.85-1.05,30.5-2.6,34.77,2.38s6.81,7.87,7.9,13.6c1.25,6.54-3.52,8.51-8.44,11.87s-8.7-1.45-13.73,6.56c-3.44,5.47,2.6,7.25,2.68,15.89.1,9.71-8.68,13.42-12.23,14.94s-10.75-2-10.51.13,6.47,11.89,3.61,17.61-5.73,11.23-8.85,13.38-9.08,13.54-6.74,15.82c0,0-8.36,6.55-25.47,6.72C379.25,174,373.53,164.32,373.53,164.32Z"/><path class="cls-2" d="M402.19,165.9c24-54,12.18-47.6,26.42-71.7C456,47.85,480.38,57.68,482.76,70.83c1.19,6.55-3.52,8.51-8.44,11.87s-8.7-1.45-13.73,6.56c-3.44,5.47,2.6,7.25,2.68,15.89.1,9.71-8.68,13.42-12.23,14.94s-10.75-2-10.51.13,6.47,11.89,3.61,17.61-5.73,11.23-8.85,13.38-9.08,13.54-6.74,15.82c0,0-8.36,6.55-25.47,6.72C399.41,173.79,402.19,165.9,402.19,165.9Z"/><path class="cls-11" d="M423.71,149.64s17.75-9.77,10.74-22c-6-10.6-13.16,6.4-13.16,6.4"/><path class="cls-11" d="M441.63,110.86s7.76,3.36,10.55-2.9.68-12.31-3.22-14.11"/><path d="M372.33,160.77c2.07-6.22,4.49-12.27,6.82-18.37s4.61-12.2,6.77-18.36,4.22-12.38,6.44-18.59S396.92,93,399.53,87c1.32-3,2.61-6,4.15-9.12A61.15,61.15,0,0,1,409,69.1a42.71,42.71,0,0,1,7.14-7.59,35.78,35.78,0,0,1,9-5.44,47.68,47.68,0,0,1,10-2.78l2.4-.45c.39-.07.76-.15,1.12-.23l1.23-.3a26.85,26.85,0,0,1,2.68-.4q1.27-.15,2.52-.24a118.47,118.47,0,0,1,20.11,0,43.52,43.52,0,0,1,5.15.8,19.36,19.36,0,0,1,2.67.77,10.16,10.16,0,0,1,2.87,1.52,6.86,6.86,0,0,1,.75.7l.45.52.8.94,1.62,1.92a34.77,34.77,0,0,1,3.07,4.33,21.64,21.64,0,0,1,2.15,5.11c.11.44.24.88.32,1.33s.19.88.27,1.38a11.64,11.64,0,0,1,0,3.13,9.13,9.13,0,0,1-1,3.19,10.69,10.69,0,0,1-1.91,2.56,26.33,26.33,0,0,1-4.33,3.3l-2,1.33-.52.35c-.23.14-.45.29-.69.42a10,10,0,0,1-1.49.68,19.33,19.33,0,0,1-5.49.75,4.78,4.78,0,0,0-3,1.21,9.16,9.16,0,0,0-1.31,1.43c-.2.28-.41.55-.61.86s-.37.59-.5.83a3.15,3.15,0,0,0-.41,1.3,3.12,3.12,0,0,0,.27,1.36c.45,1.15,1.38,2.69,2.06,4.4a18.45,18.45,0,0,1,1.33,5.5,17.52,17.52,0,0,1-.39,5.7,15.66,15.66,0,0,1-2.44,5.31,18.61,18.61,0,0,1-4,4,27.14,27.14,0,0,1-4.64,2.78l-1.19.55-1.23.53a9.1,9.1,0,0,1-3.39.52,31.89,31.89,0,0,1-5.28-.73l-1.09-.18a4.89,4.89,0,0,0-.59-.05,1,1,0,0,0,.25-.06,2.07,2.07,0,0,0,.76-.52,2,2,0,0,0,.54-1.16,2.33,2.33,0,0,0,0-.36c0-.08,0,0,0-.08s.13.37.27.67c.6,1.35,1.35,2.91,2,4.49a35.66,35.66,0,0,1,1.72,5,16.37,16.37,0,0,1,.5,5.86,10,10,0,0,1-1,3.23l-1.1,2.23a56.7,56.7,0,0,1-5.22,9,17.62,17.62,0,0,1-1.94,2.19l-.59.53-.66.51-.41.31-.39.32a32.16,32.16,0,0,0-3.15,3.14,24.55,24.55,0,0,0-2.61,3.49,7.25,7.25,0,0,0-.73,1.53,1.14,1.14,0,1,1,0,.16,1.22,1.22,0,0,0-.09-.43,1.8,1.8,0,0,0-.41-.63,3.16,3.16,0,1,1-4.4,4.53,4.55,4.55,0,0,1-1.08-1.64,5.05,5.05,0,0,1-.31-1.64,6.82,6.82,0,0,1,.36-2.25,13.32,13.32,0,0,1,1.42-2.88,31.53,31.53,0,0,1,3.36-4.3,36.21,36.21,0,0,1,3.9-3.7l.57-.45.58-.42.32-.23.34-.28a13.83,13.83,0,0,0,1.34-1.46,52.57,52.57,0,0,0,4.83-7.92l1.13-2.16a4.18,4.18,0,0,0,.46-1.45,11.12,11.12,0,0,0-.28-3.89,31.83,31.83,0,0,0-1.37-4.3c-.57-1.47-1.22-2.87-1.87-4.55a9.5,9.5,0,0,1-.5-1.66c0-.13,0-.2-.06-.39a3,3,0,0,1,0-.66,3,3,0,0,1,.78-1.72,3.14,3.14,0,0,1,1.28-.83,4.06,4.06,0,0,1,.85-.19,8,8,0,0,1,1.86.06c.48.07.92.15,1.34.23a29.44,29.44,0,0,0,4.44.64,4.21,4.21,0,0,0,1.45-.18l1-.44,1.05-.48a23.24,23.24,0,0,0,3.79-2.25,11.54,11.54,0,0,0,4.55-6.5,12.39,12.39,0,0,0,.27-4.06,13.2,13.2,0,0,0-1-4c-.52-1.34-1.33-2.6-2.09-4.5A7.77,7.77,0,0,1,458,88.7a13.74,13.74,0,0,1,.76-1.27c.25-.39.53-.76.81-1.14a14.69,14.69,0,0,1,2-2.19,10.13,10.13,0,0,1,2.8-1.72,10.61,10.61,0,0,1,3.11-.69,16.09,16.09,0,0,0,4.22-.48,5,5,0,0,0,.74-.34,2.67,2.67,0,0,0,.36-.22l.5-.33L475.41,79a21.83,21.83,0,0,0,3.5-2.63,4.62,4.62,0,0,0,1.49-2.82,6.72,6.72,0,0,0,0-1.78,20.19,20.19,0,0,0-.46-2.08,16.58,16.58,0,0,0-1.64-3.93A28.79,28.79,0,0,0,475.63,62l-1.54-1.84-.79-.93-.2-.23-.16-.19a1.16,1.16,0,0,0-.15-.13,5.65,5.65,0,0,0-1.47-.75,17.78,17.78,0,0,0-2.05-.59,40.42,40.42,0,0,0-4.55-.7,114.92,114.92,0,0,0-19.19,0c-.79.07-1.59.14-2.36.23s-1.58.19-2.19.32l-1.16.29-1.28.27-2.44.46a42.24,42.24,0,0,0-8.94,2.49,30.82,30.82,0,0,0-7.74,4.7,37.79,37.79,0,0,0-6.28,6.71,56,56,0,0,0-4.88,8C406.84,83,405.61,86,404.36,89c-5,12-8.75,24.46-13,36.94q-3.17,9.35-6.64,18.6A195.16,195.16,0,0,1,377,162.7a2.52,2.52,0,0,1-4.66-1.91Z"/><path class="cls-12" d="M361.6,279c-3.44-4.1-18.06-5.51-20.35-5.09s-12.84-5.68-16.6-8.77c3.28-4,.32-12.37-1.37-16.44s-8.44-9.21-11.15-11.67,2.48-8.38,4.54-11.37,12.27,3.66,15.19,6.67,9.46,5.12,16.23,7.19,16.31-6.55,18.55-7.2,4.57,2.94,6.89,6.54,13.82,9.52,24.49,10.87,12.39-13.64,19.18-15.37,8.37,1.78,19.51,1.85,18.52-11.22,20.21-17.45,13.07-21.57,17.72-27.16,2.52-24.84,2.52-24.84l-4.37-.62c-4.37-.61-23.66,24.47-55.16,30.75s-61.54-18-108.49-28.77-89.45-7.66-105.77,27.06c-11,23.28,14.21,66.58,42.15,103.93,0,0,19,11.78,41.67,15.42,12,1.92,65.57,1.71,82.12-22.1C372.54,291.25,361.6,279,361.6,279Z"/><path class="cls-2" d="M341.35,274c-2.29.42-12.84-5.68-16.61-8.78,3.28-4,.33-12.36-1.37-16.43s-8.44-9.21-11.14-11.67,2.48-8.39,4.53-11.37S329,229.44,332,232.45s9.46,5.12,16.24,7.18,16.3-6.55,18.55-7.2,4.56,2.95,6.88,6.54,13.83,9.53,24.49,10.88,12.4-13.65,19.18-15.37,8.37,1.77,19.51,1.85,18.52-11.22,20.21-17.45,13.07-21.58,17.72-27.17-.72-12.88-.72-12.88S455,198.67,444.2,203.25s-36.1,17.37-49.29,11.15-68.85-22.58-91-14.09-27.3,25-22.31,48.68c2.87,13.59,26.18,45,45.25,64.06,0,0,29.93-3.71,40.43-18.87.72-5.37-2.16-10.47-2.16-10.47l-12.78-6.48Z"/><path class="cls-8" d="M213.54,252.9s20.67-2.54,25.44-16,7.46-26.31.78-35.17-23.37-24.1-28.54-16.2-13.92,18.65-11.3,26.06S213.54,252.9,213.54,252.9Z"/><path class="cls-8" d="M257.79,196.79c5.41.26,16-3.9,14.94-9.7S268.87,173,263,171.85s-12.91.17-16.28,5.84S257.79,196.79,257.79,196.79Z"/><path class="cls-2" d="M360.16,294.22a23.79,23.79,0,0,0-1.58-2.37c-5.45-7.24-10.56-8.4-12.78-6.69-2.75,2.12-2.75,5.31.75,10.77"/><path d="M345.8,296c-3.44-5.48-3.56-9-.42-11.43a4.67,4.67,0,0,1,3.55-.77c1.86.25,5.67,1.57,10.2,7.6a29.76,29.76,0,0,1,1.78,2.69l-1.45.25a25.28,25.28,0,0,0-1.43-2.11c-3.09-4.11-6.47-6.69-9.29-7.07a3.35,3.35,0,0,0-2.52.51c-1.79,1.37-2.87,3.94,1.12,10.16Z"/><path class="cls-2" d="M393.8,240.35a20.48,20.48,0,0,1-2.51-.17c-3.63-.47-5.88-2-6.78-3.19a2.07,2.07,0,0,1-.48-1.51c.3-1.6,2.41-2.55,5.65-2.55a20.91,20.91,0,0,1,2.73.19c6.91.89,7.63,2.77,7.43,4.5-.15,1.31-2.11,2.73-6,2.73Z"/><path d="M389.67,233.38a21.9,21.9,0,0,1,2.68.19c7.4,1,7.15,3,7,4s-1.69,2.32-5.59,2.32a19.34,19.34,0,0,1-2.45-.16c-3.49-.45-5.63-1.85-6.47-3a1.66,1.66,0,0,1-.41-1.16c.2-1.05,1.67-2.18,5.2-2.18m0-.91c-3.89,0-5.79,1.32-6.09,2.92-.35,1.86,2.53,4.58,7.65,5.24a20.23,20.23,0,0,0,2.57.18c4.21,0,6.31-1.59,6.49-3.14.32-2.66-1.81-4.23-7.82-5a20.79,20.79,0,0,0-2.8-.2Z"/><path class="cls-2" d="M434.21,227.89c-2.45,0-3.83-.88-4.08-1.71-.45-1.51.94-4,6.37-5.94a17.61,17.61,0,0,1,5.6-1.3,2.84,2.84,0,0,1,3.07,1.89,2.2,2.2,0,0,1-.17,1.69c-.78,1.7-3.06,3.34-6.25,4.5a13.48,13.48,0,0,1-4.54.87Z"/><path d="M442.11,219.4c1.79,0,2.33.8,2.63,1.59a1.83,1.83,0,0,1-.15,1.34c-.35.75-1.63,2.68-6,4.27a13,13,0,0,1-4.38.84c-2.11,0-3.43-.7-3.64-1.39-.43-1.42,1.29-3.64,6.08-5.38a17,17,0,0,1,5.46-1.27m0-.91a18,18,0,0,0-5.77,1.32c-5.48,2-7.21,4.61-6.64,6.5.35,1.17,2.05,2,4.51,2a13.83,13.83,0,0,0,4.69-.9c5.63-2,7.34-5,6.69-6.78a3.28,3.28,0,0,0-3.48-2.18Z"/><path class="cls-2" d="M349.44,229.91a25.85,25.85,0,0,1-6.49-1.22c-2.66-.72-4.34-1.74-5.07-3.07a4,4,0,0,1-.17-3.22c.52-1.67,2.44-2.62,5.25-2.62a19.83,19.83,0,0,1,5,.76c7.95,2.15,8.51,4.6,7.94,6.93-.24.94-2.7,2.18-5.64,2.41Q349.86,229.91,349.44,229.91Z"/><path d="M343,220.35a19.11,19.11,0,0,1,4.87.74c7.48,2,8,4.19,7.54,6.24-.12.47-2.07,1.74-5.14,2-.26,0-.52,0-.79,0a24.85,24.85,0,0,1-6.34-1.2l-.08,0c-2.43-.65-4-1.59-4.64-2.78a3.4,3.4,0,0,1-.13-2.77c.44-1.41,2.16-2.22,4.71-2.22m0-1.14c-3.37,0-5.25,1.29-5.79,3-.74,2.36-.36,5.39,5.56,7a26.49,26.49,0,0,0,6.71,1.26,8.64,8.64,0,0,0,.88,0c3-.23,5.82-1.52,6.15-2.83.84-3.41-1.38-5.74-8.34-7.62a20.21,20.21,0,0,0-5.17-.78Z"/><path class="cls-2" d="M315.73,262.31c-2.18,0-4.67-2.12-6.82-5.82-3.91-6.73-2.59-8.8-.58-10a2.72,2.72,0,0,1,1.45-.38c2.34,0,5,2.18,7.14,5.84,1.63,2.81,2.23,5.82,1.6,8.06a3.16,3.16,0,0,1-1.35,2,3.07,3.07,0,0,1-1.44.35Z"/><path d="M309.78,246.63c.8,0,3.66.4,6.67,5.56,1.56,2.69,2.14,5.54,1.55,7.64a2.65,2.65,0,0,1-1.09,1.65,2.48,2.48,0,0,1-1.18.29c-2,0-4.3-2-6.35-5.56-3.68-6.32-2.54-8.2-.77-9.29a2.28,2.28,0,0,1,1.17-.29m0-1.1A3.34,3.34,0,0,0,308,246c-2.93,1.8-3,4.89.39,10.77,2.55,4.38,5.2,6.1,7.3,6.1a3.53,3.53,0,0,0,1.69-.42c2.14-1.14,2.89-5.79,0-10.8-2.58-4.42-5.48-6.11-7.61-6.11Z"/><path class="cls-8" d="M249.06,291.51c4.37.22,12.94-3.15,12.07-7.83s-3.12-11.41-7.88-12.32-10.43.13-13.15,4.72S249.06,291.51,249.06,291.51Z"/><path d="M367.17,294c-1.16-1.61-2.2-3.22-3.45-4.78-.6-.79-1.23-1.59-1.9-2.36l-1-1.15-.54-.56-.4-.41a14.76,14.76,0,0,0-4.35-2.7,30.65,30.65,0,0,0-5.64-1.73,39.11,39.11,0,0,0-6-.78c-.47,0-1,0-1.33,0-.15,0-.4,0-.25,0a5.89,5.89,0,0,1-.69.08,4.5,4.5,0,0,1-.51,0l-.38,0a7.24,7.24,0,0,1-1.22-.21,12.16,12.16,0,0,1-2.59-1c-.67-.34-1.25-.69-1.81-1-2.2-1.39-4.09-2.81-6-4.26s-3.68-2.92-5.45-4.37l-2.55-2.09,1.05-3.12a16.71,16.71,0,0,0-1.05-13.08A17.82,17.82,0,0,0,317,245a11.67,11.67,0,0,0-2.55-1.72,7,7,0,0,0-1.18-.45,4.22,4.22,0,0,0-.84-.13H312a5.56,5.56,0,0,1-.62-.06,5.8,5.8,0,0,1-.76-.16,5,5,0,0,1-.91-.34,4.67,4.67,0,0,1-.49-.27,4.1,4.1,0,0,1-.5-.35,5.11,5.11,0,0,1-.9-.9,5.38,5.38,0,0,1-.65-1,6.92,6.92,0,0,1-.35-1,6.12,6.12,0,0,1-.13-2.44,8,8,0,0,1,.29-1.28,16,16,0,0,1,1.28-2.89c.86-1.53,1.72-2.8,2.59-4.07s1.75-2.45,2.63-3.63S315.29,222,316,221l.23-.33a6.73,6.73,0,0,1,.95-1,5.85,5.85,0,0,1,3.12-1.31,6.15,6.15,0,0,1,2.46.27,6.76,6.76,0,0,1,1.4.61,12.58,12.58,0,0,1,2.73,2.15,42.34,42.34,0,0,1,3.22,3.73c.94,1.21,1.82,2.41,2.68,3.58s1.69,2.32,2.48,3.32c.19.24.38.48.55.67l.21.23.06.06a1.72,1.72,0,0,0,.49.27,14.66,14.66,0,0,0,3.06.67,66,66,0,0,1,9.11,1.58l.61.17.3.09.1,0c.09,0,.23,0,.35.07a5.29,5.29,0,0,0,1,0A11,11,0,0,0,354,235a41,41,0,0,0,6.7-3.82l1.89-1.23c.36-.23.72-.45,1.23-.73.24-.13.55-.28,1-.47a6.8,6.8,0,0,1,1.79-.44,7.08,7.08,0,0,1,3.4.48,8.39,8.39,0,0,1,2.08,1.2,14,14,0,0,1,2.32,2.28,42.23,42.23,0,0,1,2.84,4l.57.87a4.12,4.12,0,0,0,.29.37,12.4,12.4,0,0,0,1.09,1.09,27.93,27.93,0,0,0,6.07,4.05,25,25,0,0,0,6.81,2.31,18.24,18.24,0,0,0,3.34.26A13.79,13.79,0,0,0,397,245a8.78,8.78,0,0,0,1.39-.3,11.56,11.56,0,0,0,5.06-3.35c1.7-1.71,3.27-4,5.66-6.52a16.93,16.93,0,0,1,4.88-3.65,11.88,11.88,0,0,1,1.7-.63l.44-.13.36-.09c.25-.05.49-.11.74-.15a17,17,0,0,1,3-.3,24,24,0,0,1,5.41.66c1.57.36,2.9.72,4.18,1a26.15,26.15,0,0,0,7.27.64c.61,0,1.23-.09,1.84-.16s1.1-.16,1.63-.27a14,14,0,0,0,3-1,13.33,13.33,0,0,0,4.82-4,22.33,22.33,0,0,0,3.24-6.24c.2-.59.39-1.18.56-1.79l.15-.51.23-.76c.16-.45.32-.91.5-1.31a41.19,41.19,0,0,1,2.18-4.41,151.94,151.94,0,0,1,9.9-14.92c1.76-2.38,3.53-4.7,5.44-7.05l.37-.44.07-.11a.57.57,0,0,0,.09-.15c0-.06.07-.1.11-.19a7.57,7.57,0,0,0,.48-1.22,21.18,21.18,0,0,0,.7-3.4,76.17,76.17,0,0,0-.06-16l4.28,4.41-3.21-.44-.81-.12-.2,0h0a4,4,0,0,0,.58,0,2.44,2.44,0,0,0,.39-.05c.34-.06.43-.12.41-.1a1.59,1.59,0,0,0-.24.13,22.4,22.4,0,0,0-2.1,1.49c-.79.62-1.6,1.28-2.43,2-3.29,2.72-6.72,5.58-10.29,8.26a112,112,0,0,1-23.34,13.82,84.36,84.36,0,0,1-13.07,4.4c-1.12.28-2.24.53-3.38.76l-3.5.6c-1.18.13-2.36.29-3.54.37s-2.36.18-3.54.17c-9.46.16-18.57-1.85-27.1-4.49s-16.68-6-24.73-9.14-16-6.36-24-9.15c-4-1.38-8.07-2.68-12.13-3.87s-8.16-2.24-12.27-3.2a225.83,225.83,0,0,0-25-4.36,144.76,144.76,0,0,0-25-.88,79,79,0,0,0-23.87,4.86,47.17,47.17,0,0,0-25.95,23.13l-.66,1.33c-.18.41-.38.8-.54,1.23a23.47,23.47,0,0,0-.86,2.57,29.63,29.63,0,0,0-.91,5.55,48.83,48.83,0,0,0,.82,11.85,88.91,88.91,0,0,0,3.16,12A163.71,163.71,0,0,0,219.4,254.4,348.82,348.82,0,0,0,247,297.72l2.78,3.77s-4.62-1.25-6.87-2.18c-1.73-.72-5.48-2.81-6.61-4.29C225.71,281.14,221,273.53,212.5,258.1a171.29,171.29,0,0,1-11.1-24.16,94.25,94.25,0,0,1-3.71-13.07,56.63,56.63,0,0,1-1.2-14,39.11,39.11,0,0,1,1-7.27,34.77,34.77,0,0,1,1.13-3.6c.21-.59.48-1.17.73-1.76l.76-1.59a57.71,57.71,0,0,1,7.69-11.77,55.29,55.29,0,0,1,10.45-9.53,62.12,62.12,0,0,1,12.34-6.66,89.08,89.08,0,0,1,26.74-5.88,146.34,146.34,0,0,1,26.83.63A231.3,231.3,0,0,1,310.37,164c4.32,1,8.61,2.13,12.86,3.37s8.44,2.61,12.6,4c8.31,2.9,16.45,6.13,24.48,9.35s16,6.41,24,8.91,16,4.19,23.9,4.06c1,0,2-.09,2.95-.13s1.95-.21,2.92-.3l2.9-.49c1-.2,2-.42,2.95-.66a75.45,75.45,0,0,0,11.53-3.87,101.7,101.7,0,0,0,21.25-12.58c3.36-2.51,6.59-5.19,10-8,.85-.7,1.71-1.4,2.63-2.12a32.28,32.28,0,0,1,3.21-2.24c.35-.2.72-.4,1.2-.62a8.35,8.35,0,0,1,1.94-.62c.26,0,.52-.07.79-.09a6.7,6.7,0,0,1,1,0l.3,0h.1l.2,0,.8.11,3.22.46,3.89.55.39,3.86c.17,1.62.27,3.06.35,4.59s.14,3,.15,4.54a65,65,0,0,1-.49,9.35,31.08,31.08,0,0,1-1.08,5.06,17.66,17.66,0,0,1-1.12,2.79c-.11.23-.28.5-.42.74a7.54,7.54,0,0,1-.49.77l-.57.76-.33.39c-1.73,2.12-3.46,4.38-5.13,6.64a143.1,143.1,0,0,0-9.24,13.85,29.67,29.67,0,0,0-1.67,3.34c-.12.26-.19.48-.28.71l-.23.8c-.22.78-.47,1.56-.74,2.34a31.65,31.65,0,0,1-4.75,9,23.23,23.23,0,0,1-8.36,6.91,23.48,23.48,0,0,1-5.17,1.79c-.88.19-1.76.34-2.64.44s-1.64.16-2.47.21a36.47,36.47,0,0,1-9.89-.87c-1.55-.34-3-.73-4.24-1a13.62,13.62,0,0,0-3.15-.43,6.88,6.88,0,0,0-1.29.12c-.1,0-.21.05-.32.07l-.16,0-.08,0a2.56,2.56,0,0,0-.32.12,7.17,7.17,0,0,0-2,1.56c-1.59,1.64-3.34,4.12-5.68,6.53a25.24,25.24,0,0,1-4.1,3.45,19.21,19.21,0,0,1-5.22,2.45,20.13,20.13,0,0,1-2.83.61,22.83,22.83,0,0,1-2.71.22,27.61,27.61,0,0,1-5.26-.4,34.39,34.39,0,0,1-9.52-3.22,37.32,37.32,0,0,1-8.25-5.55,21.77,21.77,0,0,1-1.95-2,12.88,12.88,0,0,1-1-1.34l-.61-.94a35.12,35.12,0,0,0-2.15-3.07,5.44,5.44,0,0,0-.73-.76s0,0,.22.1a2.68,2.68,0,0,0,1.28.16,3.44,3.44,0,0,0,.75-.18h0l-.63.38-1.73,1.13a51.13,51.13,0,0,1-8.34,4.67,21.1,21.1,0,0,1-5.43,1.49,14.4,14.4,0,0,1-3.29,0,13.61,13.61,0,0,1-1.76-.33l-.65-.18-.43-.13a60.12,60.12,0,0,0-7.92-1.34,23.52,23.52,0,0,1-5.34-1.3,11.47,11.47,0,0,1-3.2-2,9.66,9.66,0,0,1-.72-.69c-.2-.2-.36-.38-.51-.56-.31-.36-.57-.69-.83-1-1-1.27-1.84-2.44-2.69-3.61s-1.67-2.28-2.5-3.35a32.57,32.57,0,0,0-2.4-2.82,7.64,7.64,0,0,0-.62-.56,2.85,2.85,0,0,0,.41.17,3.68,3.68,0,0,0,1.4.13,4,4,0,0,0,2.13-.9,3.67,3.67,0,0,0,.59-.62l.06-.09-.05.07-.1.14c-1,1.34-1.8,2.42-2.65,3.57s-1.68,2.26-2.45,3.37-1.52,2.23-2.07,3.22a6.5,6.5,0,0,0-.5,1,1.09,1.09,0,0,0,0-.23,3.41,3.41,0,0,0-.1-1.37,4.56,4.56,0,0,0-.26-.69,4.32,4.32,0,0,0-.5-.81,4.27,4.27,0,0,0-.71-.7,4.85,4.85,0,0,0-.4-.28l-.36-.2a4.05,4.05,0,0,0-.66-.25,3.59,3.59,0,0,0-.5-.11l-.35,0h-.09a13.6,13.6,0,0,1,3.43.47,16.86,16.86,0,0,1,2.85,1.09,21.53,21.53,0,0,1,4.62,3.09,27.31,27.31,0,0,1,6.41,8.24A26.5,26.5,0,0,1,332.51,256a26.19,26.19,0,0,1-1.3,10.42l-1.5-5.21c1.76,1.45,3.49,2.86,5.23,4.21s3.5,2.66,5.16,3.7c.41.25.82.5,1.17.67s.69.31.56.27a1.67,1.67,0,0,0-.38-.06h-.16a3,3,0,0,0-.3,0c-.18,0-.6.09-.27,0a13,13,0,0,1,1.46-.13c.77,0,1.42,0,2.09,0a48.12,48.12,0,0,1,7.55,1,40.11,40.11,0,0,1,7.42,2.3,24.05,24.05,0,0,1,7.18,4.58c.26.27.56.57.79.82l.62.7q.6.7,1.2,1.44c.78,1,1.56,2,2.26,3.07a22,22,0,0,1,3.13,7.2,4,4,0,0,1-7.09,3.11Z"/></g></g></svg>