<svg xmlns="http://www.w3.org/2000/svg" viewBox="0 0 3840 2161"><defs><style>.cls-1{fill:#013344;}.cls-2,.cls-3{fill:none;stroke:#025680;stroke-miterlimit:10;}.cls-2{stroke-width:3px;}.cls-3{stroke-width:6px;}.cls-4{fill:#094563;}</style></defs><title>fondoRecurso 116</title><g id="Capa_2" data-name="Capa 2"><g id="recortes"><path class="cls-1" d="M3840,0s-168.89,76.22-386.92,76.22S2740.5,3.57,2208.72,3.57c-553,0-805.64,69.13-1060.89,69.13C993.43,72.7,843,32.05,699,0H153C61.57,24.29,0,51.43,0,51.43V2160l3840,1Z"/><path class="cls-2" d="M4.41,589.56s223.46-87.39,519-87.39,428.9,219.41,944.31,219.41,740-74.38,1024.7-74.38,579.19,196.09,943.22,196.09,400.07-90.1,400.07-90.1"/><path class="cls-3" d="M4.41,518.75s223.46-87.4,519-87.4,428.9,152.31,944.31,152.31S2215.24,481.88,2500,481.88s544.24,121,908.27,121,427.47-133.33,427.47-133.33"/><path class="cls-4" d="M153,0C61.57,24.29,0,51.43,0,51.43V0Z"/><path class="cls-4" d="M3840,0s-168.89,76.22-386.92,76.22S2740.5,3.57,2208.72,3.57c-553,0-805.64,69.13-1060.89,69.13C993.43,72.7,843,32.05,699,0Z"/></g></g></svg>