<svg xmlns="http://www.w3.org/2000/svg" viewBox="0 0 3840 2162.46"><defs><style>.cls-1{fill:#2b809c;}.cls-2,.cls-3{fill:none;stroke:#1d6580;stroke-miterlimit:10;}.cls-2{stroke-width:4.13px;}.cls-3{stroke-width:6.19px;}.cls-4{fill:#1d6580;}</style></defs><title>fondoRecurso 72</title><g id="Capa_2" data-name="Capa 2"><g id="recortes"><polygon class="cls-1" points="3840 2.66 0 0 0 2162.45 3840 2162.45 3840 2.66"/><path class="cls-2" d="M4.41,436s199.33-32,494.88-32,428.9,201.69,944.31,201.69,799.05,65.14,1083.78,65.14,544.24,198.86,908.27,198.86S3835.72,722,3835.72,722"/><path class="cls-3" d="M4.41,396.6s223.46-44.82,519-44.82,428.9,162,944.31,162,774.91,37.14,1059.65,37.14,544.24,75.43,908.27,75.43,400.07-89.24,400.07-89.24"/><path class="cls-2" d="M4.41,349.85s223.46-45.36,519-45.36,428.9,136.68,944.31,136.68,755.72-44.57,1040.46-44.57,563.43,44.57,927.46,44.57,400.07-103.25,400.07-103.25"/><path class="cls-2" d="M4.41,301.58s223.46-55.84,519-55.84,428.9,140.57,944.31,140.57S2242.64,276.6,2527.38,276.6s544.24-27.43,908.27-27.43,400.07-3.43,400.07-3.43"/><path class="cls-4" d="M0,2162.46H76c-47.52-24.75-76-45.86-76-45.86Z"/><path class="cls-4" d="M2223,2162.46c-154.43-20.18-344-39-591.83-39-200.4,0-401.15,17.8-578.17,39Z"/><path class="cls-4" d="M3688,2162.46c-82.35-32-191.41-64-296.79-64-120.09,0-237.87,33-362.21,64Z"/></g></g></svg>