<svg xmlns="http://www.w3.org/2000/svg" xmlns:xlink="http://www.w3.org/1999/xlink" viewBox="0 0 3841 2160.5"><defs><style>.cls-1{fill:#fff;stroke:#000;stroke-miterlimit:10;}.cls-2{opacity:0.8;fill:url(#Degradado_sin_nombre_12);}.cls-3{fill:#666;}.cls-4{fill:gray;}.cls-5{fill:#afafaf;}.cls-6{fill:#ffd664;}.cls-7{fill:#eabe3b;}.cls-8{fill:#ffcf51;}.cls-9{fill:url(#Degradado_sin_nombre_32);}.cls-10{fill:#2b809c;}</style><linearGradient id="Degradado_sin_nombre_12" x1="1920.5" y1="210.36" x2="1920.5" y2="1622.07" gradientUnits="userSpaceOnUse"><stop offset="0" stop-color="#fff" stop-opacity="0"/><stop offset="0.31" stop-color="#bbccd7" stop-opacity="0.28"/><stop offset="0.97" stop-color="#0e4c70" stop-opacity="0.98"/><stop offset="0.99" stop-color="#09486d"/></linearGradient><linearGradient id="Degradado_sin_nombre_32" x1="1920.5" y1="1733.64" x2="1920.5" y2="2153.5" gradientUnits="userSpaceOnUse"><stop offset="0" stop-color="#00c5e5"/><stop offset="1" stop-color="#2b809c"/></linearGradient></defs><title>fondoRecurso 6home</title><g id="Capa_2" data-name="Capa 2"><g id="recortes"><rect class="cls-1" x="0.5" y="0.5" width="3840" height="1666.5"/><path class="cls-2" d="M.5,210.36h3840V1622.07S2358,1502.5,1863.79,1502.5C1398,1502.5.5,1622.07.5,1622.07Z"/><path class="cls-3" d="M1021,1530.39c-6-.88-6.92-4.18-7-9.29,0-2.19-2-6.21-3.2-6.22-7.79-.1-7-5.28-7-10.32q0-59.47,0-119c0-11.59-3.85-15.27-15.27-15.61-3.2-.1-8.42-.66-9.13-2.44-2-5.1-5.51-4.92-9.53-4.9-5.45,0-11-.5-16.33.2a22.77,22.77,0,0,0-9.92,4.19c-4.44,3.2-12.53,1.73-14.21-2.89-.78-2.16-2.71-5.51-4.18-5.54-5.73-.13-14.48-1.2-16.6,1.87-3.78,5.48-7.76,4.55-12.43,5.25-9.69,1.44-20.81-4.61-29,5.37-.56.68-2.41.16-3.58.5-3.84,1.1-7.63,2.37-11.45,3.54-5.92,1.81-11.77,4.54-17.82,5.1-5.85.54-7.71,2.46-7.59,8.1.27,12.88-.09,25.78.15,38.66.11,5.62-1,9.18-7.68,8.57-5.59-.5-12.89,2-11.75-8.14.6-5.26-2.13-7-7.08-6.82-5.89.17-11.79.13-17.68.06L780,1525l38.48,9.79,202.48-4.39"/><path class="cls-4" d="M2254.55,1727.37l9.65-34.06H3840.5V1587.93c-3.71,0-7.64.48-11.3.55-15.9.33-32.12-5.41-38.86-17.12-11.44-19.85-25.55-25.79-46.52-22.87-8,1.11-16.26.25-24.39.16-21.51-.25-31.84-9.86-32.13-31.26-.14-10.23-3.43-14.92-14.18-14.6-17.28.49-34.63-.58-51.85.57-5,.34-12.14,4.94-14.09,9.42-5.45,12.56-30.22,22.21-38.68,11.7-8.59-10.68-18-9.21-28.28-9.34-15.77-.19-31.6.72-47.27-.57-4.7-.38-11.76-5.84-12.76-10.13-2-8.46-6-10.79-13.63-10.72-17.8.16-35.62-.34-53.4.34-4.19.16-10.69,3-11.87,6.2-2.5,6.71-4.15,14.17-12.56,10.57-3.69-1.58-6.49-9.52-6.47-14.56,0-11.47-4.7-15.23-15.65-14.88-17.27.54-34.59-.29-51.87.26-11,.35-15.67-3.45-15.63-14.9,0-5-2.94-13.47-6.44-14.61-16.62-5.46-33.71-10.27-51-12.68-12.83-1.79-29-4.11-38.75,1.88-17.39,10.73-15.25,1.56-17-10-.6-4-7-10-11-10.29a387.12,387.12,0,0,0-50.29,0c-3.89.24-11,6.31-10.62,9,2.57,20.82-9.52,22.43-25.05,21.13-6.57-.54-13.22,0-19.83-.11-17.37-.24-18-1.2-12.21-18.25,6.57-19.35.91-27.45-19.24-27.5-13.73,0-27.48.37-41.2-.1-10.31-.36-15.14,3.47-14.53,14.17a148.06,148.06,0,0,1-.31,24.38c-.34,3.19-3.74,6-5.75,9-2-2.49-3.7-5.35-6.08-7.42-8.47-7.37-16.24-18.54-26-20.74-15.49-3.49-32.35-1.23-48.61-.7-3.35.11-6.6,3.32-9.9,5.11,2.26,3.28,4.45,6.62,6.81,9.84,2.16,2.93,4.5,5.72,6.75,8.57-3.47,2.19-6.78,5.9-10.44,6.28-9.06.94-18.31-.11-27.43.49-11.34.75-17.61-2.81-16.45-15.31.75-8.08-3-12.33-11.53-12.24-16.78.18-33.59-.41-50.34.43-3.8.19-9.92,4.43-10.53,7.66-1.51,7.9-2.81,13.93-12.71,13.09-10.14-.86-36.12-14.19-36.7-19.19a69.12,69.12,0,0,1-.17-7.62q0-16,0-32c0-38.57,0-38.57-38.71-38.66-21.61,0-22.28,0-22.1-21.43.1-12.57-5.36-15.55-16.62-15.34-27.46.49-54.93.1-82.4.16-32.14.07-30-2.43-29.29,28.08.28,11.6-4.73,15.06-15.55,14.77-18.81-.51-37.64.15-56.46-.2-9.7-.17-14,3.64-13.64,13.49a320.46,320.46,0,0,1-.3,35.07c-.33,4.22-4.08,8.18-6.32,12.23-2.83,5.14-8.11,10.25-8.12,15.37,0,12.23-4.94,15.94-16.55,15.64-23.38-.58-46.81.42-70.18-.38-13.12-.45-18.08,3.74-17.77,17.35.77,34.06.25,68.15.25,102.23,0,35.71,0,35.71-34.95,36.32-1.53,0-3.06.11-4.58,0-8.07-.37-12.76,3-12.26,11.54,1.95,33.52-1.92,66.41-8.92,99.19-1.9,8.86-5.43,12-13.55,13"/><path class="cls-4" d="M181.74,1769.18h1449.4l24.49-302.32c-13.52-13.77-26.61-74.64-42.15-67.54-3.88,1.77-12.63-5.69-18.39-9.93-4.94-3.64-9-12.5-13.11-12.29-5.87.3-11.09,7.44-17.2,10.39-5.51,2.66-11.84,3.62-17.81,5.32-3.37-19.11-26-29.88-20.55-53.93,3.77-16.77.22-35.1.85-52.71.58-16.46-6.21-22.81-28-19.61-22.56,3.32-45.48,2.88-68.09-.1-19.17-2.52-27.33,2-26.84,18.09.53,17.61-.71,35.29.27,52.86.95,16.9-6.23,23.17-22.4,21.67-6.29-.59-13.33-1.59-18.84.59s-12.13,7.45-13.22,12.46c-6.28,29-5.77,29.09-36.34,29.18-6.34,0-13.18-1.29-18.88.67-5,1.69-12.42,7.3-12.26,10.89.89,20.13-10,24.1-26.59,22.3-15.41-1.67-21.94,5-21.16,20.68.37,7.36-1.25,21-3.68,21.38-24.13,4-21.26,21.36-22.23,38.19-.25,4.29-7.21,8.19-11.09,12.27-4.43-4.24-11.55-7.86-12.71-12.86-2.19-9.4.58-20-1.75-29.31-1.21-4.85-8.86-11.12-13.68-11.19s-10.66,6.12-14.27,10.9c-2.08,2.76-1.07,8.24-.64,12.41,1.65,16.25-4.89,23.14-21.72,22.34-21.1-1-42.29,0-63.44-.38-5.45-.08-14.12,0-15.81-3-11-19.8-29.23-12.83-45.12-13.53-11.86-.52-22.11-.09-24.73-16.11-.66-4-11.66-8.81-18-9-31-.94-62-.09-93-.61-13.7-.23-21.89,2.12-24.27,18.67-1.06,7.29-12.63,16.63-21,18.58-18.74,4.4-31.16-8-32.06-31.72-1.2-31.68-.64.14-.14-31.57.08-5,3.29-10.22,6-14.77,8.49-14.26,17.44-28.25,28-45.15-26.67-.4-26.35-15.58-26.13-32.17.3-21.78.52-43.85-2.73-65.27-1.41-9.28-11.59-17.23-17.79-25.78-6.74,8.86-14.61,17.11-19.85,26.79-3.6,6.67-3.42,15.38-5,23.15l-7.72-.58c-.55-11.14-.77-22.3-1.72-33.4-2-23,2.06-49.49-8.21-68-11.31-20.33-12.66-39.06-12.85-59.81-.14-14.8.47-29.63-.11-44.41-.73-18.41-23.56-45.56-41.14-48.15-6.42-1-16.79-.39-19.58,3.56-15.09,21.37-34.68,40.12-32.89,70.72,1.64,28.12,6.25,57.56-12.7,83.56-4.34,6-3.15,16.34-3.43,24.72-.52,15.5.43,31.07-.65,46.5-.37,5.33-4.95,10.37-7.61,15.54-4.12-4.61-8.71-8.89-12.15-13.95-1.84-2.7-.69-7.5-2.62-10-3.56-4.71-8.69-12.06-12.63-11.74-5.59.47-13.9,5.94-15.35,10.92-3.26,11.24-2.43,23.59-4.38,35.3-1.69,10.13-4.93,20-8.68,34.66-17.43-19.4-31.75-27.24-47.82-8.77-.77.88-2.66,1.22-4,1.13-18.21-1.21-20.75,10-19.78,24.42.69,10.27-1.81,18.52-14.49,18.41-12.4-.1-14.62,7.47-15.18,18-1.28,24.13-15.28,46.35-44.47,42.91-18-2.12-36.56,1.21-54.88,1.8-29.22.93-36-5.77-35.38-35.84.82-38.77,1.85-55.06,3.38-93.8.55-13.9-3.51-21.79-18.83-20.61-11.5.89-18.93-2.71-19-16.25-.07-13.89,4.91-30.12-19.61-31.23-13.59-.61-21.19-22.44-39.38-15.73-4.45,1.65-8.69,3.85-13.12,5.57-9.75,3.8-19.55,7.45-29.34,11.16,0,0-6.36,6.9-6.36,11.53v33.18s.77,10.8-3.86,10.8-25.85-1.92-28.94,5.41-4.24,25.46-4.24,32.79-5.79,15.43-10.42,15.43-61.73-4.24-66.75,9.65-4.24,49.77-4.24,49.77v90.29H.5V1645.6Z"/><path class="cls-5" d="M1682.41,1368.32c0,1.22.81,2.45,1.24,3.68a18.6,18.6,0,0,1,1.91-2.82c1-1,2.17-2.51,3.2-2.45a5.77,5.77,0,0,1,4,2.29c1.64,2.52,2.59,3,4.25.63,1.27-1.78,2.49-2,4.47-1.44,5.89,1.63,8.44-.06,9.78-6.08.27-1.22.44-2.82,1.27-3.49,2.24-1.83,2.55-4.13,2.35-6.64a22.82,22.82,0,0,1,4-15.27,9.75,9.75,0,0,0,1.53-5.24c-.09-11.1-.48-22.21-.52-33.31a11.68,11.68,0,0,1,1.89-5.85c3.56-5.78,7.54-11.31,11.08-17.09,1.75-2.85,3.7-4,7.14-3.62,14.09,1.5,28.21,2.72,42.31,4.06,5.93.56,8.81-1.79,9.17-7.51.27-4.26,2.83-6.55,7.17-6.27,2,.12,4,.42,5.92.73,10.59,1.66,10.62-.38,9.44,11.61-.44,4.51.2,5.35,4.71,6,8.37,1.15,16.75,2.15,25.11,3.35,5.62.81,5.68,1,5.71,6.67.09,21.67.13,43.33.26,65,.07,11.71.25,23.41.42,35.12.07,4.55.81,5.17,5.2,4.65,2-.24,3.94-.53,5.92-.79,6.66-.87,6.71-.91,6.71-7.57q0-36.72,0-73.43a19.76,19.76,0,0,1,.88-5.08c.58-2.06,1.77-4,2-6.08.45-3.36.2-6.8.58-10.16.17-1.48,1.17-2.87,1.81-4.3.78-1.71,2.18-3.38,2.26-5.12.28-6.43.18-12.88.11-19.32a5.75,5.75,0,0,1,3-5.5c3.51-2.12,7-4.3,10.34-6.65,2.38-1.66,3.91-1.16,5.53,1.09,4.31,6,8.73,11.89,13.19,17.77,1,1.28,2.06,2.87,3.44,3.39,8,3,16,5.86,24.16,8.56,2.52.84,4.09-.55,4.2-3.21.06-1.63-.23-3.27-.17-4.9,0-1.34.45-2.67.52-4,.09-1.74,0-3.5,0-5.24,0-1.08-.69-2.82-.26-3.12,3.58-2.51,3-6.16,2.76-9.59s1.34-4.9,4.34-5.07a88.26,88.26,0,0,1,11.15-.05,4.14,4.14,0,0,1,4,4.12,40.18,40.18,0,0,0,.75,7,4.12,4.12,0,0,0,2.67,2.59,4.86,4.86,0,0,0,4-1.25c3.68-4.81,7-9.93,10.6-14.79a27.85,27.85,0,0,1,4.5-4.15c.79-.69,2.13-1.08,2.44-1.9,1.41-3.7,4.77-4.55,7.87-5.87,3.34-1.42,6.63-3,10-4.3a6.42,6.42,0,0,0,4.42-6.48c0-3.52.71-7.21-.13-10.5-2-7.76-.86-15.08,1.55-22.42a6.3,6.3,0,0,0-1.27-6.52,6,6,0,0,1-1.36-4.42c.71-3.27-.51-5.59-2.32-8.07-6.33-8.69-5.41-15.73,2.55-22.86,1.67-1.5,2.74-3.67,4.1-5.52,3.93-5.35,7.39-11.16,12-15.85a16.2,16.2,0,0,1,10.37-4.19c4.44-.08,6.43-1.41,8-5.41,1.76-4.63,2.15-4.48-3.09-5a41.46,41.46,0,0,1,1.65-4.21c1.33-2.56,1.17-4.63-1.32-6.43a5.18,5.18,0,0,1-2.12-2.66,77,77,0,0,1-1.73-11.74c-.18-4.54.27-9.11.52-13.66.34-6.29,4.25-10.48,8.9-13.93,1.36-1,3.82-1.09,5.66-.82,4.94.73,4.92.9,4.73-3.86-.17-4.18,3.09-8,6.71-8,4.15.06,6.44,3.26,5.84,8.15-.22,1.74-.4,3.49-.69,5.22a6.28,6.28,0,0,0,2.3,6.24c5.39,4.69,10.83,9.28,13,16.59.65,2.17,3,3.57,5,1.57s3.28-3.84,6.34-3.37c.54.08,1.42-.8,1.85-1.43,3.88-5.71,10.19-8.11,15.78-11.38a29.63,29.63,0,0,1,10.38-3.74c2.65-.39,4.95-.33,5.69-2.67l16.14,16.82c-.79,2.31-2,4.54-2.24,6.86a13.52,13.52,0,0,1-3.85,8.32,56.79,56.79,0,0,0-7.4,10.52c-2.05,3.66-3.09,7.89-5.2,11.5a18,18,0,0,1-5.88,5.72c-.7.45-2.83-1.26-4.25-2.07-2.18-1.24-4-.46-3.65,2.07.63,4.47,1.22,9.18,3.13,13.17,2.66,5.55,2.8,10.25-.48,15.53-1.65,2.66-2,6.08-3.09,9.13-.34,1-.73,2.46-1.47,2.74-2.55,1-2.73,2.84-2.68,5.1.16,6.06.17,12.13.3,18.19,0,2,.25,4,.42,6a9.36,9.36,0,0,0,4.38,7.2c7.47,5.25,14.55,11.09,22.27,16,7.19,4.52,11.93,11.28,17.47,17.29,3.83,4.15,6.8,9.11,10,13.78a5.39,5.39,0,0,1,.81,3c-.09,11.71-.36,23.41-.34,35.11a17.54,17.54,0,0,0,1.68,7.26,15,15,0,0,1,1.43,9.41,112.7,112.7,0,0,0-1.11,16c0,1.12,1.5,3.28,2.24,3.25a72.52,72.52,0,0,0,13.75-1.48c3.78-.89,7.24-1.63,10.68.67,3.14,2.1,4.11,1.78,4.29-1.93.14-2.85-.69-5.75-.51-8.58.32-5.16,6.12-9.46,11.95-9.22A10.15,10.15,0,0,1,2217,1308c0,2.22,0,4.45.11,6.66.32,6.8,3.21,9.4,9.84,8.86a22.07,22.07,0,0,0,3.14-.38c5.47-1.19,7.63-3.89,7.52-9.43-.08-3.87-.32-7.73-.34-11.59,0-1.08.25-2.82.91-3.13,3-1.38,6.06-3,9.24-3.35,6.38-.77,12.84-.91,19.28-1.12,3.36-.11,4.74-1.45,4.79-4.91.09-6.87-2.08-14,2-20.47a.76.76,0,0,0,.05-.34c.47-4.51,2.58-8.18,5.57-11.49a16.16,16.16,0,0,0,2.9-4.31c1.47-3.39,2.59-6.91,4-10.33.37-.91,1.1-2.11,1.86-2.27s1.79.92,2.27,1.71a29.7,29.7,0,0,1,2,4.45c1.25,3.11,1.92,6.63,3.8,9.29,6,8.54,8.07,18.09,8.3,28.25a74.32,74.32,0,0,0,.64,11.19c.31,1.79,2.06,3.39,3.33,4.94,1.88,2.29,4.26,4.26,5.79,6.76,2,3.22,3.17,6.9,5,10.22a7.14,7.14,0,0,0,3.22,2.54c5.18,2.44,6.69,6.23,4.5,11.71-1.37,3.4-.71,11.29,1.48,12.65,2.39,1.48,2.78,3.36,2.17,5.66a52.7,52.7,0,0,1-2.48,7.5c-.91,2.08-.38,3.13,1.68,3.58.8.18,1.64.14,2.45.26,6.62,1,8,2.61,8.05,9.17.19,15.69.44,31.38.61,47.07,0,3,.78,5.13,4.39,4.69v106.39c-6.76,3.49-13.58,6.87-20.27,10.51a21.48,21.48,0,0,1-11.39,2.85,57.76,57.76,0,0,0-24.87,4.91c-19.43,8.17-39.08-23.67-58.69-15.93a18.66,18.66,0,0,1-7.13,1.38c-14.16-.43-28.31-1.14-42.46-1.62-4-.13-8.13-.53-11.87.44-35.13,9.14-70.19-17.43-105.28-8.16-3,.79-4.22,2.42-4.25,5.47-.09,8.08-.38,16.15-.55,24.23-.12,5.51-.3,5.74-5.83,5.71-22.71-.11-45.43-.32-68.14-.37q-95.2-.21-190.41-.27a14.26,14.26,0,0,1-9-3c-47.52-35.39-95.1,3.31-142.66-32l-.68-82.61c1.17-1.16-.55-5.35-2.26-5.34Zm420.17-179.57c-1.55-4.47-2.89-8-4-11.69-.91-2.91-1.73-3.29-4.08-1.41-1.57,1.25-3,2.91-5.19,1.21s-3.17-4.07-1.89-6.53,3.26-4.45,4.8-6.74a41.15,41.15,0,0,0,2.23-4.27c-1.67-.22-3.51-1-5-.56-6.72,2-13.29,4.48-20,6.51a7.86,7.86,0,0,0-5.63,5.13c-2.77,7.26-3,15.24-7.07,22.25-2.11,3.62,1.86,6.8,4.23,9.65,1.89,2.27,4.13,1.57,6.42.76,10.48-3.69,21-7.3,31.44-11.12C2100.24,1191.42,2101.3,1189.87,2102.58,1188.75Zm-72.1-7.37a43.88,43.88,0,0,0,.41,5.28c.75,3.7-.84,6.43-3.55,8.57a3.39,3.39,0,0,1-3,.27c-3.75-2.07-5-1.61-6,2.49s-2.21,7.9-3,11.9a60.79,60.79,0,0,0-1.08,9c-.12,2.29,1.1,3.77,3.53,2.81,10.78-4.25,21.52-8.61,32.25-13,2.27-.93,2.63-2.68.94-4.45a46.42,46.42,0,0,0-5.49-4.9c-2.29-1.73-2.85-3.42-1-5.88a13.84,13.84,0,0,0,2.23-4.72c.69-2.68,1.63-5.68-1.64-7.49-4.26-2.38-8.69-1.88-11.09,1.18Z"/><path class="cls-6" d="M3838.38,1618.81q0,94.93-.08,189.86c-124.09-13.1-250.93-15.82-373.91-21-42.9-1.81-86.12-14.29-128.86-17.72-69.19-5.55-141.41-4-210.76-8.19-64.69-3.94-128.45-28.52-192.89-33.29-80.32-5.94-164,2.19-244.62-1.47-65.75-3-132.35-22.07-197.6-24.52-47.75-1.8-97.83,7.84-145.54,6.4-53.68-1.61-109-16.83-162.93-17.31-62.28-.54-126.18,11.8-189.1,13.93-86.82,3-174.63,6.52-261.76,7.71-187.32,2.57-377.33-10.29-562.84,4.7-57.12,4.61-114.67,20.56-171.69,23.28-56.22,2.68-114.93-4.26-171.19-1-69.87,4.07-139.88,26.37-209.71,32.43-29.15,2.52-58.77,3-87.81-.38-19.28-2.27-39.26-5.42-58.32-4.49-48.76,2.37-99.17,21.39-148.42,25.42-57.2,4.68-117.62-2.34-175.1,1.37-23.31,1.51-43.27,18.15-66.33,20.27-24.74,2.28-50.26,2.49-75.49,2.42-.15-73.15-.54-146.31-.71-219.46,197.77-16.81,395.15-35.94,593.44-45.73,209.31-10.34,418.37-27.76,627.54-38.53q376.2-19.37,753.51-17.46c71.88.35,143.86.81,215.66,3.31,242.44,8.42,485.37,19.47,727.42,35.6,146.45,9.75,292.85,26.71,439.4,34.09,99.6,5,200,7.9,299,19.44,59.87,7,119.91,15,179.81,23.06C3838.47,1614.85,3838.44,1616.28,3838.38,1618.81Z"/><path class="cls-7" d="M995.8,1741.19c0,.4-114.38-4.19-171.19-1-70.62,4-139.46,26.53-209.71,32.43-29.12,2.44-58.57,3.43-87.86-.37-19.54-2.54-58.27-4.5-58.27-4.5s79.13,3.41,114.37-6.63c41.66-11.86,85.65-21.31,128.56-30.43,44.3-9.42,96.26-26.21,141.25-22,33.37,3.14,65.1,22.55,97.92,25.61C965.63,1735.72,995.8,1741.19,995.8,1741.19Z"/><path class="cls-7" d="M481,1792.71c0,.39-107-3.06-159.89.61-59.88,4.15-117.52,26.45-176.73,32.39-22,2.21-44.25,3.07-66.42-1.09-14-2.62-41.56-5.3-41.56-5.3s59,3.31,83.77-5.41c33.07-11.62,69.14-21.24,103.88-29.94,38.22-9.58,84.51-26,123.63-22.14,30.65,3,59.91,22,90.09,24.66C451.88,1787.74,481,1792.71,481,1792.71Z"/><path class="cls-7" d="M2931.88,1728.47c-81.54-4.7-163.82,1.88-244.62-1.47-66-2.73-197.6-24.52-197.6-24.52s57.78,4.37,84.35-.43c44.06-8,89.76-20.88,135.93-18.61,60.26,3,119.71,22.07,179.75,24.4,56.33,2.18,113.73-9.72,169.75-5.42,47.25,3.62,94,24.2,140.11,28.09,50.35,4.24,102.21,2.09,153.69,10.57,56.28,9.27,113.59,22.26,170.73,23.44,71.16,1.47,143.48-19.14,214-12.89,35.71,3.17,73.21,15.21,98.89,42.51.41,7,.62,10.46,1,17.43-101.09-9.8-202.71-15.17-304.15-19.46-72.55,3.31-144.69-12.09-216.52-17.46-72.82-5.44-150.17,1.92-220.86-9.83-54.11-9-164.45-36.35-164.45-36.35,0-.17,127.59,29.82,192.89,33.29,70.17,3.72,140.72,2.88,210.76,8.19,43.43,3.29,85.08,16.16,128.86,17.72"/><path class="cls-5" d="M3838.3,1808.67q0,30.43.08,60.88l-5.16-.76c-78.77-10.87-156.73-27-235.68-34-92.82-8.19-186.78-.78-280-5.34-104.61-5.12-207.71-28.56-311-42.59-80.14-10.89-162.94-13.57-243.67-10.79-111.07,3.83-227-6-337-23.82-72.19-11.72-146-2.71-217.63-5.28-34.84-1.25-70.94-8.29-105.76-7.8-79.13,1.11-161,10.29-240.6,13.24-58.65,2.17-118.36-11.46-177.13-10.38-67.5,1.24-136.83,16.8-202.84,18.3-75.91,1.72-155.64-19.21-233.73-15.25-83,4.2-166.17,23.05-248.41,32.14-82.56,9.13-165.95-1.15-249,3.45-79.91,4.43-158.06,24.69-237.32,31.74-73.68,6.54-149.28-6.34-222.95-1-81,5.83-161.65,34.9-238.42,51-15.45,3.24-33,2.5-49.31,2.38q.36-23.77.71-47.55c25.15.15,50.49-.38,75.49-2.42,23.82-1.93,42.38-18.53,66.33-20.27,58.21-4.23,117.08,3.27,175.1-1.37,50-4,98.59-22.69,148.42-25.42,19.53-1.08,38.73,2,58.27,4.5,29.29,3.8,58.74,2.81,87.86.37,70.25-5.9,139.09-28.43,209.71-32.43,56.81-3.21,114.22,3.29,171.19,1,57.57-2.34,114.24-19,171.69-23.28,186.38-13.78,375.68-2,562.84-4.7,87.16-1.23,174.6-5.44,261.76-7.71,63.1-1.64,126.35-14.1,189.1-13.93,54.29.15,108.65,15.72,162.93,17.31,48.28,1.42,97.25-8.46,145.54-6.4,65.83,2.81,131.64,21.79,197.6,24.52,80.8,3.35,163.93-4,244.62,1.47,64.85,4.38,127.59,29.82,192.89,33.29,70.17,3.72,140.72,2.88,210.76,8.19,43.43,3.29,85.46,16.56,128.86,17.72C3588,1791,3714.23,1795.35,3838.3,1808.67Z"/><path class="cls-8" d="M3758.62,1717c-9.53,15.52,17.83,18.21,26.44,17.61,9.17-.63,28.37.18,31-7.55,2.41-7.16-10.61-17.67-18.55-19.29C3787.19,1705.64,3765.31,1706.07,3758.62,1717Z"/><path class="cls-8" d="M3506.88,1685.11c-12.62,14.56,27.61,18.55,36.11,18.33,12.77-.32,40.71,2,44.66-6,3.3-6.68-17.93-18.24-26.32-19.74C3546.36,1675.08,3517.2,1673.21,3506.88,1685.11Z"/><path class="cls-8" d="M2397.56,1566.3c8.93-9.36-31.43-10.84-37.47-10.69-13.85.34-44.05-.64-46.33,4.25-1.61,3.47,20.89,13.57,28.91,14.36C2358.43,1575.76,2387.43,1576.92,2397.56,1566.3Z"/><path class="cls-8" d="M2061,1596.4c13.44-16.26-29.37-17-37.44-16.2-14.08,1.31-43.86,1-47.61,9.57-3,6.81,19.23,17.47,28.56,18.3C2020.45,1609.5,2050.05,1609.6,2061,1596.4Z"/><path class="cls-8" d="M3219.43,1600.93c-14,7,18.84,17.18,22.88,18.1,19.14,4.35,39.31,5.69,58.88,5.72,25.67,0,89.13,8.13,95.82-4.29,3.5-6.49-50.53-16.64-61.2-17.7-19.94-2-40.18-3.14-60.29-4C3258.39,1598,3233.78,1593.77,3219.43,1600.93Z"/><path class="cls-8" d="M3288.23,1687.48c-8.28,9.33,22.92,13.69,29.53,13.6,10.91-.13,34.09,1.78,37-4,2.35-4.75-15.28-13.54-22.16-14.64C3319.84,1680.36,3295.69,1679.07,3288.23,1687.48Z"/><path class="cls-8" d="M2873.74,1578.68c-3.3,3.29,25.18,8.09,31.31,8.18,12.08.18,30,3.87,38.44-1.27,2.92-1.76-16.29-6.8-24.28-7.52C2905,1576.78,2878.9,1573.52,2873.74,1578.68Z"/><path class="cls-8" d="M2847.47,1656.6c-8,10.79,24,13.71,30.87,13.54,11.34-.29,36.07,1,38.38-4.6,1.89-4.54-16.08-13.58-23.82-14.76C2881.23,1649,2854.23,1647.44,2847.47,1656.6Z"/><path class="cls-8" d="M3638.62,1645.92c-6.61,3.61,44.31,10.79,51,11,17.92.59,56.38,1.69,57.18-.44.7-1.85-26.75-8.8-35.52-9.65C3688.63,1644.65,3653.62,1637.71,3638.62,1645.92Z"/><path class="cls-8" d="M1722.43,1579.7c-10,6.3,11.46,8.91,16,9.33,14.61,1.33,29.74.73,44.34,0,22.85-1.21,72.87-1.38,74.93-6.7,1.28-3.32-34.89-10.72-46.42-11C1784.86,1570.72,1743.08,1566.67,1722.43,1579.7Z"/><path class="cls-8" d="M2734.94,1579.44c-4.31,4.88,21.31,8.94,27.23,8.88,10.76-.09,27.1,2.54,33.73-2.59,2.71-2.08-14.22-7.91-21.2-8.56C2762.66,1576.06,2740,1573.76,2734.94,1579.44Z"/><path class="cls-8" d="M2230.85,1667.63c-6.09,8.62,17.64,11,24.53,10.47,9.76-.71,25.6.7,30.87-5.43,3-3.45-12.44-11.28-18.71-11.81C2256.5,1659.94,2236.23,1660,2230.85,1667.63Z"/><path class="cls-8" d="M2261.7,1652.45c-6.06,8.59,17.58,11,24.49,10.51,9.73-.68,25.54.75,30.78-5.36,3-3.45-12.43-11.31-18.7-11.85C2287.28,1644.81,2267,1644.86,2261.7,1652.45Z"/><path class="cls-8" d="M2979.32,1616.1c-16.25,22.66,36.23,26.11,48.15,25.58,16.06-.72,55,3.25,60.14-9.13,4.54-11-25.56-24.68-37.43-26.43C3031.82,1603.42,2991.48,1599.13,2979.32,1616.1Z"/><path class="cls-8" d="M2611.12,1557.15a20.85,20.85,0,0,0,2.24-2.08c-8.75-8.34-33.81-5.37-45.38-5.56-16.26-.27-50.42-.77-51.14,1s23.86,9.76,32,10.51C2567.88,1562.79,2597.53,1565.64,2611.12,1557.15Z"/><path class="cls-8" d="M2501,1637.9c-15,18.58,36,20.66,44.88,20.08,16.22-1,51.6,1.35,56.27-8.86,3.68-8.06-25.34-21.19-35.45-22.49C2548.79,1624.33,2513,1623.05,2501,1637.9Z"/><path class="cls-8" d="M1586,1648.93c-10.82,13.71,25.45,13.85,32.77,13,11.55-1.41,38.55-1.69,41.2-9.32,2.22-6.38-16.71-14.59-25-15.18C1620.49,1636.36,1594.94,1637.52,1586,1648.93Z"/><path class="cls-8" d="M1330.54,1646.69c-10.42,13.82,26,13.33,33.37,12.31,11.57-1.63,38.78-2.43,41.25-10.08,2.07-6.4-17.22-14.26-25.55-14.68C1365.06,1633.49,1339.27,1635.1,1330.54,1646.69Z"/><path class="cls-8" d="M367.89,1666.9c10.24-13.9-26.08-12.12-33.08-10.87-12.66,2.27-36.81,4-39.85,11.4-2.31,5.64,17.2,13.3,24.83,13.43C334.21,1681.1,359.33,1678.51,367.89,1666.9Z"/><path class="cls-8" d="M1086.85,1593.77c-23.29,28.31,58.52,23.33,68.25,21.78,20.16-3.22,72.63-2.19,80.67-20.55,6.81-15.58-39.71-21.5-50.66-21.46C1159.27,1573.65,1104.57,1572.23,1086.85,1593.77Z"/><path class="cls-8" d="M10.76,1764.62c-13.59,28.13,30.61,25.93,46.8,22.25,18.25-4.14,56.79-5.47,63-21.38,5.23-13.43-27.21-26.21-39.72-26.51C60.13,1738.48,20.86,1743.73,10.76,1764.62Z"/><path class="cls-8" d="M1147.52,1673.27c-5.47,9,18.49,9.56,25.29,8.55,9.65-1.43,25.41-1.21,30.26-7.73,2.74-3.68-13-10.29-19.25-10.33C1172.66,1663.68,1152.38,1665.3,1147.52,1673.27Z"/><path class="cls-8" d="M795.42,1618.69c-5.42,8.66,20.28,9,27.09,7.93,9.91-1.56,27.38-1.35,32.51-8.33,2.82-3.82-14.43-9.36-21.21-9.2C822.1,1609.37,800.34,1610.84,795.42,1618.69Z"/><path class="cls-8" d="M47.21,1669.78c-5.24,8.07,12.56,9.53,18.84,8.11s21.72-2.75,23.34-7.79-10.68-8.64-15.47-8.56C65.26,1661.68,51.52,1663.14,47.21,1669.78Z"/><path class="cls-8" d="M135.67,1712.23c-5.14,9,14.08,9.36,20.64,8.2,8.28-1.48,22.08-1.78,26.16-8.15,2.58-4-11-10-16.31-9.93C156.43,1702.53,140,1704.66,135.67,1712.23Z"/><path class="cls-8" d="M776.06,1697.49c-5.52,8.75,20.34,9,27.13,8,9.94-1.55,27.45-1.3,32.62-8.29,2.82-3.81-14.26-9.92-21-9.81C802.85,1687.54,781.15,1689.43,776.06,1697.49Z"/><path class="cls-8" d="M1455,1594.64c-7.14,5.17,9.23,7.37,14.12,7.73,12.7.91,25.75.11,38.41-.81,20-1.46,61.88-1,64.91-7.1,1.5-3.06-33-8.72-40.19-8.76C1508.7,1585.57,1471,1583,1455,1594.64Z"/><path class="cls-8" d="M675.63,1641.73c-4.9,7.14,18.29,7.61,24.12,6.69,9.35-1.46,24.32-1.35,29.2-7.32,2.53-3.1-12.67-8.42-18.73-8.31C699,1633,680.39,1634.79,675.63,1641.73Z"/><path class="cls-8" d="M228.61,1769.92c-6.08,8.1,13.45,8.15,20.28,6.8s23.31-2.68,25.46-7.26-10.76-8.5-15.92-8.36C249,1761.35,234,1762.78,228.61,1769.92Z"/><path class="cls-8" d="M253.37,1754.48c-6.16,8.07,13.7,8.14,20.65,6.78s23.68-2.68,25.86-7.27-10.94-8.48-16.19-8.34C274.12,1745.91,258.84,1747.3,253.37,1754.48Z"/><path class="cls-8" d="M886.27,1647.76c-12.55,21.18,32,18,41.8,16.21,14.62-2.67,45.73-3.71,49.65-14.93,3.26-9.35-22.34-19.25-32.27-19.62C929,1628.79,895.79,1631.69,886.27,1647.76Z"/><path class="cls-8" d="M153.9,1653c-8.25,14.87,25,16,34.6,13.85,11.91-2.63,38.25-5.37,40.3-14,1.7-7.1-20.56-12.58-28.74-12.49C186.64,1640.54,160.07,1641.88,153.9,1653Z"/><path class="cls-8" d="M562.76,1623.72c8.21-13.53-34.74-9.88-42.35-8.85-13.55,1.85-45.27,4.42-46.91,10.46-1.37,5,23.44,15.09,33.12,15.3C522.77,1641,554.37,1637.54,562.76,1623.72Z"/><path class="cls-8" d="M463.56,1719.59c-13.1,17.32,35.27,13.42,42.39,12.23,15.63-2.61,48.26-3.65,52.38-13.46,3-7.23-24.53-15.12-33.29-15.17C507.86,1703.1,474.6,1705,463.56,1719.59Z"/><path class="cls-9" d="M3830,1862c-110.25-8.85-180.68-32.45-303.11-33.19s-141.23-11.8-240-8.85-233.79-34.66-263.29-37.61-187-28-283.57-15.49-258.86-8.11-329.66-19.91-195.44-5.16-218.3-5.9-87-8.11-106.2-7.38-207.48,11.8-239.93,13.28-143.08-10.33-177.49-10.33-180.94,28.77-202.08,28.77-152.54.24-215,.73-152.17-8.11-241.65,5.41c-88.26,13.34-158.32,5.41-230.59,3.94s-223.71,32.45-271.89,33.43-98.83-3-180.44-3.44-241.54,47.69-258.25,49.65S.5,1861.53.5,1861.53l2.22,204.14s225.06-46.18,448.28-46.18,443.78,115.27,698.88,115.27,507.56-82.38,1060.28-82.38c531.47,0,1025.74,101.12,1243.64,101.12s386.7-85.17,386.7-85.17l-2.22-204.1Z"/><path class="cls-10" d="M3840.5,2160.5v-93.2s-168.89,86.2-386.92,86.2S2741,2051.34,2209.22,2051.34c-553,0-805.64,82.43-1060.89,82.43S672.39,2018.43,449,2018.43.5,2064.64.5,2064.64v95.86Z"/></g></g></svg>