<svg xmlns="http://www.w3.org/2000/svg" viewBox="0 0 493.67 712.51"><defs><style>.cls-1{fill:#009ebe;}.cls-2{fill:#53afce;}.cls-3{fill:#80bdce;}.cls-4{fill:#a3c6cd;}</style></defs><title>1Recurso 146bubbless</title><g id="Capa_2" data-name="Capa 2"><g id="Fronts"><path class="cls-1" d="M466.11,100.74a13.52,13.52,0,0,0,6.54,3.08c3.75.52,10.66-.58,13.63-3.9s6-8,4-14.23-6.24-10-11.67-10.6-16.43,6.73-16.78,10.14S461,93.12,466.11,100.74Z"/><path class="cls-2" d="M475.23,103.68S484,100.92,486,93.1s-3.49-16.24-9.12-16.71-12.5,3.83-14.08,6.46-2.21,8.91.86,14S470.44,104.7,475.23,103.68Z"/><path class="cls-3" d="M472.05,103.46s4.41-.48,5.68-3,4.71-6.94,2-12.56-7.1-10.59-11.14-9-7.88,5.9-6.66,11.26S465.33,102.47,472.05,103.46Z"/><path class="cls-4" d="M462.71,95.16s1.9,2.11,3.88.78,4-2.67,1.75-6.86-5.91-3.15-6.36-1.93S461.57,92.09,462.71,95.16Z"/><path d="M478,75.06q.31,0,.63,0c5.43.57,9.69,4.39,11.67,10.6s-1,10.9-4,14.23c-2.51,2.81-7.84,4-11.69,4a16.28,16.28,0,0,1-1.94-.12,13.59,13.59,0,0,1-6.54-3.09c-5.1-7.62-4.62-12.09-4.28-15.51S472.37,75.06,478,75.06m0-2.77c-6.38,0-18.35,7.32-18.9,12.66-.36,3.57-.9,8.9,4.74,17.33l.18.28.24.22a16.08,16.08,0,0,0,8,3.78,16.5,16.5,0,0,0,2.31.15c4.31,0,10.49-1.3,13.75-4.95,1.81-2,7.34-8.24,4.57-16.91-2.31-7.26-7.42-11.82-14-12.51a8.92,8.92,0,0,0-.91,0Z"/><path class="cls-1" d="M415.91,27.39A15.11,15.11,0,0,0,422,32.75c3.86,1.73,11.64,2.72,15.87.08s8.94-6.73,8.76-14S443,6.05,437.38,3.74s-19.76,2.09-21.2,5.64S412.82,17.6,415.91,27.39Z"/><path class="cls-2" d="M424.79,33.41s10.25-.23,14.86-8S441,6.86,435.09,4.59s-14.63.2-17.15,2.52-5.17,8.9-3.46,15.32S419.32,33,424.79,33.41Z"/><path class="cls-3" d="M421.44,32.18s4.88.86,7.06-1.49,7.23-6,6.11-12.86S430.3,4.22,425.49,4.61s-10.33,3.87-10.7,10S414.53,29,421.44,32.18Z"/><path class="cls-4" d="M414,20.33s1.38,2.86,3.93,2.05,5.09-1.63,4-6.83-5.36-5.23-6.23-4.06S413.74,16.67,414,20.33Z"/><path d="M433.3,3.09a11,11,0,0,1,4.08.65c5.66,2.31,9,7.75,9.22,15.06s-4.54,11.38-8.76,14a13.59,13.59,0,0,1-7,1.62,23.21,23.21,0,0,1-8.84-1.7,15.11,15.11,0,0,1-6.06-5.36c-3.09-9.79-1.18-14.45.27-18,1.16-2.87,10.56-6.29,17.12-6.29m0-3.09c-6.71,0-18.06,3.45-20,8.22-1.51,3.72-3.77,9.28-.35,20.1l.11.36.19.31a18,18,0,0,0,7.45,6.59,26.57,26.57,0,0,0,10.1,2,16.46,16.46,0,0,0,8.67-2.1c2.59-1.62,10.47-6.55,10.21-16.73-.21-8.53-4.27-15-11.14-17.85A14,14,0,0,0,433.3,0Z"/><path class="cls-1" d="M23.9,51.75a18.63,18.63,0,0,0-9.59,2.85C10,57.52,3.83,65,3.83,71.19S5,85,12.81,89.59s15.7,4.61,21.84.19,10.76-22.1,8-25.95S36.21,54.93,23.9,51.75Z"/><path class="cls-2" d="M11.77,57.13S5.29,68,10.42,78,29,91.53,35.26,86.83s9.38-15.49,8.59-19.65S37.91,55.92,30.05,53.5,15.79,51.65,11.77,57.13Z"/><path class="cls-3" d="M15.26,54.42S11.15,59,12.19,62.8s1.54,11.51,9.49,14.84,17.11,4.4,19.85-.91S44.24,63.36,38,59,23.12,49.24,15.26,54.42Z"/><path class="cls-4" d="M32.56,54.38s-3.9-.43-4.72,2.77-1.63,6.41,4.52,8.71,9-2.19,8.35-3.88S36.58,56.5,32.56,54.38Z"/><path d="M23.86,51.75h0C36.21,54.93,39.84,60,42.63,63.83s-1.84,21.53-8,26a17.13,17.13,0,0,1-10.17,3.29,23.08,23.08,0,0,1-11.67-3.48c-7.79-4.6-9-12.23-9-18.4S10,57.52,14.31,54.6a18.61,18.61,0,0,1,9.55-2.85m0-3.83a22.34,22.34,0,0,0-11.69,3.5C7.26,54.73,0,63.3,0,71.2,0,75,0,86.48,10.86,92.88a26.72,26.72,0,0,0,13.62,4,21.11,21.11,0,0,0,12.41-4c5.18-3.73,8.81-13.29,10-20.59.81-5,.43-8.53-1.15-10.71-2.92-4-7.27-10-20.87-13.55l-.44-.11h-.56Z"/><path class="cls-1" d="M419.83,432.9a13.46,13.46,0,0,0,1.65,7c1.93,3.25,7.08,8,11.53,8.24s10-.29,13.63-5.71,4-11.13,1.05-15.74-15.49-8.67-18.37-6.82S422.63,424.17,419.83,432.9Z"/><path class="cls-2" d="M423.2,441.87s7.59,5.12,15,1.84,10.55-12.83,7.42-17.54-10.78-7.4-13.81-7-8.36,3.81-10.43,9.38S419.42,438.75,423.2,441.87Z"/><path class="cls-3" d="M421.39,439.25s3.12,3.14,5.92,2.55,8.36-.63,11.09-6.22,3.88-12.15.17-14.35-9.52-2.51-13,1.78S418,433.36,421.39,439.25Z"/><path class="cls-4" d="M422.08,426.77s-.47,2.8,1.81,3.52,4.55,1.44,6.46-2.9-1.2-6.58-2.45-6.18S423.78,424,422.08,426.77Z"/><path d="M431.52,419.45c4.66,0,13.74,3.46,16.17,7.28,2.93,4.61,2.59,10.32-1.05,15.74-3.19,4.76-7.86,5.76-12,5.76-.57,0-1.13,0-1.67-.05-4.45-.25-9.6-5-11.53-8.24a13.46,13.46,0,0,1-1.65-7c2.8-8.73,6.6-11.14,9.49-13a4.14,4.14,0,0,1,2.2-.46m0-2.76a6.68,6.68,0,0,0-3.69.89c-3,1.93-7.54,4.82-10.63,14.48l-.1.31,0,.33a16.15,16.15,0,0,0,2,8.65c2.18,3.67,8.06,9.26,13.75,9.59.65,0,1.24.05,1.83.05,6.35,0,11.15-2.35,14.26-7,4.25-6.33,4.64-13.17,1.08-18.76-3.1-4.89-13.36-8.56-18.5-8.56Z"/><path class="cls-1" d="M365.28,595.51a10,10,0,0,0,.55-5.31c-.55-2.74-3-7.29-6.05-8.55s-7-2.22-10.89.68-5.48,6.8-4.55,10.73,8.71,9.81,11.17,9.22S361.21,600.93,365.28,595.51Z"/><path class="cls-2" d="M365.1,588.43s-4.05-5.41-10-4.91-10.47,6.4-9.42,10.44,5.72,7.78,7.93,8.24,6.76-.64,9.56-4S367,591.53,365.1,588.43Z"/><path class="cls-3" d="M365.73,590.7s-1.42-3-3.51-3.22-6-1.58-9.25,1.66-5.65,7.54-3.6,10,6,4.06,9.48,1.9S366.67,595.64,365.73,590.7Z"/><path class="cls-4" d="M362.22,599.24s1-1.83-.41-2.89-2.82-2.11-5.21.45-.75,4.89.21,4.91A11,11,0,0,0,362.22,599.24Z"/><path d="M354.45,580.43a14.08,14.08,0,0,1,5.33,1.22c3.05,1.26,5.5,5.81,6.05,8.55a10,10,0,0,1-.55,5.31c-4.07,5.42-7.31,6.18-9.77,6.77a2.11,2.11,0,0,1-.38,0c-2.8,0-9.9-5.52-10.79-9.26-.93-3.93.7-7.83,4.55-10.73a9,9,0,0,1,5.56-1.9m0-2a11.1,11.1,0,0,0-6.79,2.31c-4.5,3.39-6.43,8.06-5.3,12.83s9,10.83,12.77,10.83a3.44,3.44,0,0,0,.86-.1c2.57-.61,6.42-1.54,10.92-7.53l.15-.19.09-.22a11.84,11.84,0,0,0,.68-6.53c-.63-3.09-3.37-8.42-7.27-10a15.9,15.9,0,0,0-6.11-1.37Z"/><path class="cls-1" d="M217.66,522.42A13.45,13.45,0,0,0,222.3,528c3.18,2,9.91,4,14,2.19s8.8-4.75,9.62-11.22-1.44-11.73-6.13-14.53-17.73-.81-19.49,2.14S216.24,513.36,217.66,522.42Z"/><path class="cls-2" d="M224.7,528.93s9.08,1.17,14.2-5.08,3.67-16.2-1.24-19-13-1.78-15.49-.06-5.76,7.16-5.11,13.06S219.92,527.83,224.7,528.93Z"/><path class="cls-3" d="M221.9,527.39s4.2,1.41,6.44-.37,7.18-4.32,7.12-10.54-2-12.6-6.29-12.9-9.64,2-10.79,7.41S216.22,523.66,221.9,527.39Z"/><path class="cls-4" d="M216.92,515.93s.83,2.71,3.19,2.34,4.72-.76,4.48-5.49-4-5.35-5-4.42S217.18,512.66,216.92,515.93Z"/><path d="M232.94,503.06c2.73,0,5.27.4,6.85,1.35,4.69,2.8,6.94,8.06,6.13,14.53s-5.53,9.45-9.62,11.22a9.83,9.83,0,0,1-3.88.7A20.77,20.77,0,0,1,222.3,528a13.45,13.45,0,0,1-4.64-5.55c-1.42-9.06.89-12.92,2.64-15.87,1.16-1.95,7.28-3.49,12.64-3.49m0-2.76c-4.88,0-12.9,1.29-15,4.84-1.83,3.08-4.57,7.69-3,17.71l0,.33.13.3a16,16,0,0,0,5.69,6.82,23.78,23.78,0,0,0,11.62,3.32,12.61,12.61,0,0,0,5-.92c2.5-1.09,10.12-4.39,11.26-13.41,1-7.57-1.76-13.86-7.45-17.26-2.4-1.43-5.82-1.73-8.27-1.73Z"/><path class="cls-1" d="M266.52,575.14a13.48,13.48,0,0,0,4.63,5.54c3.18,2,9.92,4,14,2.19s8.8-4.74,9.61-11.22-1.44-11.73-6.12-14.53-17.74-.8-19.49,2.15S265.1,566.07,266.52,575.14Z"/><path class="cls-2" d="M273.56,581.64s9.07,1.17,14.19-5.08,3.67-16.2-1.24-19-12.95-1.78-15.48-.06-5.76,7.16-5.11,13.07S268.78,580.54,273.56,581.64Z"/><path class="cls-3" d="M270.76,580.11s4.2,1.41,6.43-.37,7.19-4.32,7.13-10.54-2-12.6-6.3-12.9-9.63,2-10.78,7.4S265.08,576.37,270.76,580.11Z"/><path class="cls-4" d="M265.78,568.64s.83,2.72,3.19,2.34,4.71-.75,4.48-5.49-4-5.34-5-4.42S266,565.38,265.78,568.64Z"/><path d="M281.8,555.78a14.3,14.3,0,0,1,6.85,1.34c4.68,2.8,6.94,8.06,6.12,14.53s-5.53,9.45-9.61,11.22a9.86,9.86,0,0,1-3.88.7,20.81,20.81,0,0,1-10.13-2.89,13.42,13.42,0,0,1-4.63-5.54c-1.42-9.07.89-12.92,2.64-15.87,1.16-2,7.28-3.49,12.64-3.49m0-2.77c-4.88,0-12.9,1.29-15,4.85-1.82,3.08-4.56,7.69-3,17.71l0,.32.12.31a16.18,16.18,0,0,0,5.7,6.81,23.78,23.78,0,0,0,11.62,3.32,12.52,12.52,0,0,0,5-.92c2.51-1.08,10.13-4.38,11.27-13.41,1-7.56-1.77-13.85-7.46-17.25-2.4-1.44-5.81-1.74-8.26-1.74Z"/><path class="cls-1" d="M178.29,411.75a16.92,16.92,0,0,0,5.81,6.44c3.78,2.22,11.48,3.95,15.81,1.35s9.21-6.76,9.35-14.88-3-14.43-8.53-17.45-19.79.74-21.39,4.57S175.64,400.63,178.29,411.75Z"/><path class="cls-2" d="M186.88,419.14s10.22.57,15.17-7.7S204.2,391,198.41,388s-14.6-1-17.21,1.43-5.54,9.46-4.12,16.73S181.44,418.24,186.88,419.14Z"/><path class="cls-3" d="M183.6,417.51s4.83,1.34,7.1-1.09,7.47-6.07,6.66-13.79-3.71-15.46-8.53-15.4a11.19,11.19,0,0,0-11.1,10.25C177.1,404.27,176.84,413.42,183.6,417.51Z"/><path class="cls-4" d="M176.7,403.76s1.25,3.28,3.82,2.59,5.15-1.4,4.32-7.26-5.11-6.24-6-5S176.6,399.67,176.7,403.76Z"/><path d="M195.14,386.11a12.06,12.06,0,0,1,5.59,1.1c5.54,3,8.67,9.33,8.53,17.45s-5,12.28-9.35,14.88a11,11,0,0,1-5.59,1.3,21.92,21.92,0,0,1-10.22-2.65,16.92,16.92,0,0,1-5.81-6.44c-2.65-11.12-.54-16.14,1.05-20,1.19-2.86,9.4-5.67,15.8-5.67m0-3.26c-6.38,0-16.75,2.73-18.81,7.68-1.74,4.18-4.1,9.86-1.21,22l.08.34.16.32a19.87,19.87,0,0,0,7.09,7.83,25.16,25.16,0,0,0,11.87,3.1,13.91,13.91,0,0,0,7.27-1.77c2.66-1.59,10.74-6.44,10.93-17.61.16-9.31-3.57-16.74-10.23-20.37a14.88,14.88,0,0,0-7.15-1.5Z"/><path class="cls-1" d="M385.17,316.92a13.49,13.49,0,0,0-2.6,6.74c-.24,3.77,1.35,10.59,4.89,13.31s8.42,5.39,14.47,3,9.56-7,9.74-12.42-7.91-15.89-11.34-16S392.4,311.27,385.17,316.92Z"/><path class="cls-2" d="M382.9,326.23s3.39,8.5,11.34,9.94,15.94-4.65,16-10.31-4.73-12.18-7.46-13.56-9.06-1.56-13.9,1.87S381.54,321.52,382.9,326.23Z"/><path class="cls-3" d="M382.89,323s.8,4.35,3.44,5.44,7.27,4.19,12.68,1.11,10.05-7.85,8.22-11.76-6.46-7.44-11.71-5.83S383.39,316.26,382.89,323Z"/><path class="cls-4" d="M390.49,313.12s-2,2-.49,3.92,2.94,3.76,7,1.25,2.71-6.12,1.45-6.49S393.47,311.76,390.49,313.12Z"/><path d="M398.83,311.49c.52,0,1,0,1.5,0,3.43.1,11.51,10.53,11.34,16s-3.68,10-9.74,12.42a12.54,12.54,0,0,1-4.73.95c-3.91,0-7.18-1.95-9.74-3.91-3.54-2.72-5.13-9.54-4.89-13.31a13.49,13.49,0,0,1,2.6-6.74c6.23-4.86,10.42-5.43,13.66-5.43m0-2.76c-3.79,0-8.57.71-15.36,6l-.26.2-.21.26a16.15,16.15,0,0,0-3.19,8.29c-.27,4.26,1.44,12.19,6,15.67,2.51,1.92,6.42,4.48,11.43,4.48a15.29,15.29,0,0,0,5.76-1.15c7.08-2.84,11.26-8.26,11.47-14.89.15-4.61-3.73-10.89-7.38-14.78-2.52-2.68-4.69-4-6.64-4.06-.53,0-1,0-1.58,0Z"/><path class="cls-1" d="M28.6,263.77a13.55,13.55,0,0,0-2.6,6.75c-.24,3.77,1.35,10.59,4.89,13.3s8.42,5.39,14.47,3,9.56-6.95,9.73-12.41-7.91-15.89-11.33-16S35.83,258.13,28.6,263.77Z"/><path class="cls-2" d="M26.33,273.08s3.39,8.51,11.34,9.95,15.94-4.66,16-10.31-4.73-12.18-7.46-13.57S37.15,257.6,32.3,261,25,268.37,26.33,273.08Z"/><path class="cls-3" d="M26.32,269.9s.8,4.35,3.44,5.44,7.27,4.19,12.68,1.11,10.05-7.85,8.22-11.76-6.46-7.44-11.72-5.84S26.82,263.12,26.32,269.9Z"/><path class="cls-4" d="M33.92,260s-2,2-.5,3.93,2.95,3.75,7,1.25,2.71-6.12,1.45-6.49S36.9,258.61,33.92,260Z"/><path d="M42.26,258.35c.52,0,1,0,1.5,0,3.42.1,11.51,10.53,11.33,16s-3.67,10-9.73,12.41a12.63,12.63,0,0,1-4.73,1c-3.91,0-7.19-1.95-9.74-3.92-3.54-2.71-5.13-9.53-4.89-13.3a13.55,13.55,0,0,1,2.6-6.75c6.23-4.85,10.42-5.42,13.66-5.42m0-2.76c-3.79,0-8.57.71-15.36,6l-.26.2-.21.26a16.14,16.14,0,0,0-3.19,8.28c-.27,4.27,1.44,12.2,6,15.67,2.51,1.93,6.42,4.49,11.43,4.49a15.49,15.49,0,0,0,5.76-1.15c7.08-2.84,11.26-8.27,11.47-14.89.14-4.61-3.73-10.9-7.38-14.78-2.52-2.68-4.69-4-6.64-4.06-.53,0-1,0-1.58,0Z"/><path class="cls-1" d="M62.41,170.55a10.78,10.78,0,0,0-5.31,2.28c-2.29,2-5.31,6.69-4.89,10.23s1.63,7.83,6.4,9.94,9.32,1.58,12.54-1.37,4.67-13.41,2.82-15.42S69.68,171.53,62.41,170.55Z"/><path class="cls-2" d="M55.82,174.45s-3,6.69.64,12.05S68,193,71.3,189.89s4.33-9.51,3.59-11.85-4.17-6-8.84-6.91S57.75,171,55.82,174.45Z"/><path class="cls-3" d="M57.63,172.66s-2,2.9-1.19,5,1.67,6.49,6.45,7.87,10.11,1.36,11.32-1.87.65-7.85-3.2-10S61.79,169.16,57.63,172.66Z"/><path class="cls-4" d="M67.56,171.47s-2.27,0-2.53,1.91-.5,3.78,3.18,4.69,5-1.87,4.53-2.8A11.91,11.91,0,0,0,67.56,171.47Z"/><path d="M62.41,170.55c7.27,1,9.7,3.64,11.56,5.66s.4,12.47-2.82,15.42a10,10,0,0,1-6.9,2.65A14.13,14.13,0,0,1,58.61,193c-4.77-2.11-6-6.4-6.4-9.94s2.6-8.26,4.89-10.23a10.78,10.78,0,0,1,5.31-2.28m0-2.23-.26,0a12.84,12.84,0,0,0-6.52,2.8c-2.59,2.23-6.18,7.64-5.64,12.17.26,2.17,1,8.76,7.7,11.7a16.2,16.2,0,0,0,6.53,1.47,12.2,12.2,0,0,0,8.39-3.23c2.72-2.49,4.16-8.22,4.34-12.48.12-2.94-.33-4.92-1.39-6.07-1.94-2.11-4.85-5.26-12.88-6.35l-.27,0Z"/><path class="cls-1" d="M397.67,575.14a17.38,17.38,0,0,0,6,7.15c4.1,2.62,12.77,5.1,18,2.82S433,579,434.08,570.65s-1.86-15.12-7.9-18.73-22.85-1-25.11,2.77S395.84,563.46,397.67,575.14Z"/><path class="cls-2" d="M406.74,583.52S418.43,585,425,577s4.73-20.88-1.6-24.48-16.69-2.29-19.95-.08-7.42,9.23-6.59,16.84S400.58,582.1,406.74,583.52Z"/><path class="cls-3" d="M403.14,581.54s5.4,1.82,8.29-.47,9.26-5.57,9.17-13.59-2.56-16.24-8.11-16.62-12.41,2.62-13.9,9.55S395.81,576.73,403.14,581.54Z"/><path class="cls-4" d="M396.71,566.77s1.08,3.5,4.11,3,6.08-1,5.78-7.07-5.2-6.89-6.4-5.7S397.05,562.56,396.71,566.77Z"/><path d="M417.36,550.19c3.52,0,6.78.51,8.82,1.73,6,3.61,8.95,10.39,7.9,18.73s-7.13,12.18-12.4,14.46a12.68,12.68,0,0,1-5,.89,26.87,26.87,0,0,1-13.05-3.71,17.38,17.38,0,0,1-6-7.15c-1.83-11.68,1.15-16.65,3.4-20.45,1.5-2.52,9.38-4.5,16.29-4.5m0-3.56c-6.29,0-16.63,1.66-19.35,6.24-2.36,4-5.89,9.91-3.86,22.82l.06.42.17.39a20.62,20.62,0,0,0,7.34,8.78,30.49,30.49,0,0,0,15,4.29,16,16,0,0,0,6.41-1.2c3.22-1.39,13-5.64,14.51-17.28,1.23-9.74-2.27-17.84-9.6-22.23-3.09-1.85-7.5-2.23-10.65-2.23Z"/><path class="cls-1" d="M408,215.28a17.48,17.48,0,0,0,6,7.15c4.1,2.63,12.78,5.1,18.05,2.82s11.34-6.12,12.39-14.46-1.85-15.11-7.89-18.73-22.85-1-25.11,2.77S406.12,203.6,408,215.28Z"/><path class="cls-2" d="M417,223.66s11.7,1.51,18.3-6.54,4.73-20.88-1.6-24.48-16.69-2.3-20-.09-7.41,9.23-6.58,16.84S410.86,222.25,417,223.66Z"/><path class="cls-3" d="M413.42,221.68s5.41,1.82,8.29-.47,9.26-5.57,9.18-13.59-2.56-16.23-8.11-16.62-12.42,2.62-13.9,9.55S406.1,216.87,413.42,221.68Z"/><path class="cls-4" d="M407,206.91s1.07,3.5,4.11,3,6.08-1,5.77-7.07-5.2-6.88-6.4-5.7S407.33,202.7,407,206.91Z"/><path d="M427.65,190.33c3.51,0,6.78.52,8.82,1.73,6,3.62,8.94,10.39,7.89,18.73S437.24,223,432,225.25a12.68,12.68,0,0,1-5,.9,26.91,26.91,0,0,1-13.06-3.72,17.48,17.48,0,0,1-6-7.15c-1.83-11.68,1.15-16.65,3.41-20.45,1.49-2.52,9.38-4.5,16.29-4.5m0-3.56c-6.29,0-16.63,1.66-19.35,6.24-2.36,4-5.89,9.91-3.87,22.82l.07.42.16.4a20.77,20.77,0,0,0,7.34,8.78,30.67,30.67,0,0,0,15,4.28,16.06,16.06,0,0,0,6.4-1.19c3.23-1.4,13.05-5.65,14.52-17.28,1.22-9.75-2.27-17.85-9.61-22.23-3.09-1.85-7.49-2.24-10.64-2.24Z"/><path class="cls-1" d="M406.11,496.39a19.16,19.16,0,0,0-.23-10.84c-1.87-5.75-8.17-15.63-14.84-18.83s-15.29-6-22.56-.78-9.66,12.92-6.7,21.21,20.72,22,25.7,21.24S399,506.75,406.11,496.39Z"/><path class="cls-2" d="M403.9,481.77s-9.87-12-22.15-12.13-20.19,11.09-16.95,19.64,14,17.18,18.7,18.57,13.94,0,18.89-6.37S408.62,488.53,403.9,481.77Z"/><path class="cls-3" d="M405.79,486.57s-3.71-6.36-8.15-7.34-12.91-4.46-18.88,1.56-9.84,14.41-4.9,19.84,13.65,9.58,20.27,5.83S409.05,496.94,405.79,486.57Z"/><path class="cls-4" d="M400.7,503.48a5.08,5.08,0,0,0-1.6-6c-3.23-2.46-6.45-4.92-10.76-.12s-.31,9.93,1.72,10.17S397.21,506.3,400.7,503.48Z"/><path d="M377.69,463c4.68,0,9.36,1.77,13.35,3.68,6.67,3.2,13,13.08,14.84,18.83a19.16,19.16,0,0,1,.23,10.84c-7.09,10.36-13.64,11.28-18.63,12a2.5,2.5,0,0,1-.4,0c-5.48,0-22.42-13.2-25.3-21.27-3-8.29-.58-16,6.7-21.21a15.39,15.39,0,0,1,9.21-2.9m0-3a18.46,18.46,0,0,0-11,3.46c-8.27,5.92-11.18,15.14-7.78,24.66,3.11,8.69,20.72,23.26,28.13,23.26a5.59,5.59,0,0,0,.83-.06c5.16-.74,12.87-1.86,20.68-13.27l.24-.36.13-.41a22.3,22.3,0,0,0-.23-12.69c-2-6.1-8.57-16.86-16.4-20.61-3.56-1.71-8.95-4-14.64-4Z"/><path class="cls-1" d="M109.89,355.53a20.59,20.59,0,0,0-8.22-7.81c-5.49-2.71-16.91-4.87-23.6-1.78S63.75,354,62.94,363.79s3.4,17.43,11.48,21.12,29.72-.7,32.4-5.31S113,369,109.89,355.53Z"/><path class="cls-2" d="M97.57,346.55s-15.28-.78-23.31,9.13S69.5,380.36,78,384s21.81,1.28,25.9-1.57,9-11.35,7.44-20.13S105.66,347.68,97.57,346.55Z"/><path class="cls-3" d="M102.37,348.55s-7.14-1.67-10.72,1.24S80,357,80.63,366.35,85,385,92.25,385s15.94-4.08,17.41-12.25S112.2,353.53,102.37,348.55Z"/><path class="cls-4" d="M111.68,365.19s-1.62-4-5.53-3.16-7.83,1.64-7,8.7,7.2,7.58,8.68,6.1S111.53,370.11,111.68,365.19Z"/><path d="M86.35,344.43a37.9,37.9,0,0,1,15.32,3.29,20.59,20.59,0,0,1,8.22,7.81C113,369,109.5,375,106.82,379.6c-2,3.4-14.3,6.69-23.86,6.69a21.5,21.5,0,0,1-8.54-1.38c-8.08-3.69-12.3-11.33-11.48-21.12S71.38,349,78.07,345.94a20.22,20.22,0,0,1,8.28-1.51m0-3.13a22.86,22.86,0,0,0-9.59,1.81c-3.92,1.81-15.85,7.32-16.94,20.42-.92,11.11,3.92,19.93,13.3,24.22A24,24,0,0,0,83,389.42c8.9,0,23.47-2.94,26.56-8.25l0,0c2.87-4.94,6.8-11.71,3.38-26.31l-.09-.4-.19-.36a23.79,23.79,0,0,0-9.59-9.14,41.49,41.49,0,0,0-16.71-3.62Z"/><path class="cls-1" d="M325.59,704.36a9.89,9.89,0,0,0,3.37,4c2.31,1.48,7.21,2.87,10.18,1.59s6.4-3.45,7-8.16-1-8.53-4.45-10.57-12.9-.58-14.17,1.56S324.56,697.77,325.59,704.36Z"/><path class="cls-2" d="M330.71,709.09s6.6.85,10.32-3.69,2.67-11.78-.9-13.82-9.42-1.29-11.26,0-4.19,5.21-3.72,9.5S327.23,708.29,330.71,709.09Z"/><path class="cls-3" d="M328.67,708s3.06,1,4.68-.27,5.23-3.14,5.18-7.67-1.44-9.16-4.57-9.38-7,1.48-7.85,5.39S324.54,705.26,328.67,708Z"/><path class="cls-4" d="M325.05,699.64s.61,2,2.32,1.7,3.43-.55,3.26-4-2.94-3.89-3.61-3.22A10.87,10.87,0,0,0,325.05,699.64Z"/><path d="M336.7,690.28a10.29,10.29,0,0,1,5,1c3.41,2,5.05,5.86,4.45,10.57s-4,6.87-7,8.16a7.23,7.23,0,0,1-2.82.51,15.16,15.16,0,0,1-7.36-2.1,9.89,9.89,0,0,1-3.37-4c-1-6.59.65-9.39,1.92-11.54.84-1.42,5.29-2.54,9.19-2.54m0-2c-3.55,0-9.38.94-10.92,3.53-1.33,2.24-3.32,5.59-2.18,12.88l0,.23.09.22a11.67,11.67,0,0,0,4.14,5,17.35,17.35,0,0,0,8.45,2.42,9,9,0,0,0,3.62-.68c1.82-.79,7.36-3.18,8.19-9.75.69-5.5-1.28-10.07-5.42-12.54a12.36,12.36,0,0,0-6-1.27Z"/><path class="cls-1" d="M291.4,644.32a15.18,15.18,0,0,0,5.19,6.21c3.56,2.28,11.1,4.43,15.67,2.45s9.86-5.32,10.77-12.56-1.61-13.13-6.86-16.27-19.85-.9-21.81,2.4S289.81,634.17,291.4,644.32Z"/><path class="cls-2" d="M299.28,651.6s10.16,1.31,15.89-5.69,4.11-18.14-1.39-21.26-14.49-2-17.33-.08-6.44,8-5.72,14.63S293.93,650.37,299.28,651.6Z"/><path class="cls-3" d="M296.15,649.88s4.7,1.58,7.2-.41,8-4.84,8-11.8-2.23-14.11-7.05-14.44-10.78,2.27-12.07,8.29S289.79,645.7,296.15,649.88Z"/><path class="cls-4" d="M290.57,637.05s.94,3,3.58,2.61,5.27-.84,5-6.14-4.52-6-5.56-4.95S290.86,633.39,290.57,637.05Z"/><path d="M308.51,622.64c3.05,0,5.89.45,7.66,1.51,5.25,3.14,7.77,9,6.86,16.27S316.84,651,312.26,653a11.1,11.1,0,0,1-4.33.78,23.35,23.35,0,0,1-11.34-3.23,15.18,15.18,0,0,1-5.19-6.21c-1.59-10.15,1-14.47,3-17.77,1.3-2.18,8.15-3.91,14.15-3.91m0-3.09c-5.46,0-14.45,1.44-16.81,5.42-2.05,3.45-5.11,8.61-3.36,19.83l.06.36.14.34a18,18,0,0,0,6.38,7.63,26.6,26.6,0,0,0,13,3.72,14.07,14.07,0,0,0,5.56-1c2.81-1.22,11.34-4.91,12.61-15,1.07-8.46-2-15.5-8.34-19.31-2.69-1.6-6.51-1.94-9.25-1.94Z"/></g></g></svg>